G04 #@! TF.GenerationSoftware,KiCad,Pcbnew,(5.1.0)-1*
G04 #@! TF.CreationDate,2019-08-28T19:33:05+02:00*
G04 #@! TF.ProjectId,atkeyboard,61746b65-7962-46f6-9172-642e6b696361,rev?*
G04 #@! TF.SameCoordinates,Original*
G04 #@! TF.FileFunction,Soldermask,Bot*
G04 #@! TF.FilePolarity,Negative*
%FSLAX46Y46*%
G04 Gerber Fmt 4.6, Leading zero omitted, Abs format (unit mm)*
G04 Created by KiCad (PCBNEW (5.1.0)-1) date 2019-08-28 19:33:05*
%MOMM*%
%LPD*%
G04 APERTURE LIST*
%ADD10C,0.010000*%
%ADD11C,0.100000*%
G04 APERTURE END LIST*
D10*
G36*
X179433167Y-138441622D02*
G01*
X179297498Y-138565243D01*
X179242667Y-138632122D01*
X179281423Y-138653452D01*
X179402507Y-138539665D01*
X179462378Y-138470833D01*
X179623667Y-138280333D01*
X179433167Y-138441622D01*
X179433167Y-138441622D01*
G37*
X179433167Y-138441622D02*
X179297498Y-138565243D01*
X179242667Y-138632122D01*
X179281423Y-138653452D01*
X179402507Y-138539665D01*
X179462378Y-138470833D01*
X179623667Y-138280333D01*
X179433167Y-138441622D01*
G36*
X179412000Y-138703667D02*
G01*
X179454334Y-138746000D01*
X179496667Y-138703667D01*
X179454334Y-138661333D01*
X179412000Y-138703667D01*
X179412000Y-138703667D01*
G37*
X179412000Y-138703667D02*
X179454334Y-138746000D01*
X179496667Y-138703667D01*
X179454334Y-138661333D01*
X179412000Y-138703667D01*
G36*
X179581334Y-138703667D02*
G01*
X179623667Y-138746000D01*
X179666000Y-138703667D01*
X179623667Y-138661333D01*
X179581334Y-138703667D01*
X179581334Y-138703667D01*
G37*
X179581334Y-138703667D02*
X179623667Y-138746000D01*
X179666000Y-138703667D01*
X179623667Y-138661333D01*
X179581334Y-138703667D01*
G36*
X177041334Y-138788333D02*
G01*
X177083667Y-138830667D01*
X177126000Y-138788333D01*
X177083667Y-138746000D01*
X177041334Y-138788333D01*
X177041334Y-138788333D01*
G37*
X177041334Y-138788333D02*
X177083667Y-138830667D01*
X177126000Y-138788333D01*
X177083667Y-138746000D01*
X177041334Y-138788333D01*
G36*
X176080472Y-136495045D02*
G01*
X176038113Y-136646675D01*
X176029745Y-136926282D01*
X176032795Y-137077898D01*
X176049149Y-137695796D01*
X176312408Y-137719328D01*
X176600998Y-137750335D01*
X176829667Y-137780450D01*
X177065415Y-137813551D01*
X177231834Y-137834496D01*
X177357766Y-137871884D01*
X177380000Y-137900243D01*
X177449579Y-137939418D01*
X177608498Y-137940920D01*
X177782034Y-137908992D01*
X177866834Y-137872606D01*
X177959482Y-137857778D01*
X177972667Y-137894336D01*
X178041508Y-137972999D01*
X178104664Y-137984000D01*
X178199201Y-138015464D01*
X178197690Y-138047500D01*
X178245108Y-138084628D01*
X178407988Y-138105055D01*
X178633319Y-138109135D01*
X178868092Y-138097224D01*
X179059295Y-138069674D01*
X179138932Y-138041207D01*
X179221744Y-138025443D01*
X179223598Y-138080853D01*
X179288216Y-138166135D01*
X179515624Y-138242135D01*
X179656953Y-138270406D01*
X179929168Y-138310317D01*
X180089869Y-138303741D01*
X180192326Y-138243187D01*
X180239844Y-138188426D01*
X180326137Y-138087613D01*
X180332021Y-138122072D01*
X180315544Y-138173208D01*
X180332268Y-138327380D01*
X180500681Y-138425080D01*
X180811293Y-138461756D01*
X180914905Y-138460712D01*
X181140294Y-138465741D01*
X181278510Y-138491501D01*
X181295905Y-138505379D01*
X181391510Y-138554361D01*
X181625337Y-138610782D01*
X181966848Y-138668123D01*
X182206000Y-138699687D01*
X182441013Y-138732870D01*
X182711294Y-138777189D01*
X182714000Y-138777668D01*
X182937022Y-138796433D01*
X183090489Y-138772889D01*
X183100830Y-138766918D01*
X183193302Y-138642026D01*
X183244907Y-138534333D01*
X182375334Y-138534333D01*
X182333000Y-138576667D01*
X182290667Y-138534333D01*
X182333000Y-138492000D01*
X182375334Y-138534333D01*
X183244907Y-138534333D01*
X183301455Y-138416327D01*
X183359303Y-138262269D01*
X182446353Y-138262269D01*
X182425752Y-138309585D01*
X182340502Y-138400478D01*
X182291491Y-138381833D01*
X182290667Y-138369997D01*
X182350804Y-138298384D01*
X182388416Y-138272248D01*
X182446353Y-138262269D01*
X183359303Y-138262269D01*
X183391095Y-138177602D01*
X181345686Y-138177602D01*
X181325085Y-138224918D01*
X181239835Y-138315812D01*
X181190825Y-138297166D01*
X181190000Y-138285330D01*
X181250137Y-138213717D01*
X181287749Y-138187582D01*
X181345686Y-138177602D01*
X183391095Y-138177602D01*
X183400197Y-138153365D01*
X183411695Y-138111000D01*
X182460000Y-138111000D01*
X182417667Y-138153333D01*
X182375334Y-138111000D01*
X182417667Y-138068667D01*
X182460000Y-138111000D01*
X183411695Y-138111000D01*
X183434675Y-138026333D01*
X181359334Y-138026333D01*
X181317000Y-138068667D01*
X181274667Y-138026333D01*
X181317000Y-137984000D01*
X181359334Y-138026333D01*
X183434675Y-138026333D01*
X183457656Y-137941667D01*
X182460000Y-137941667D01*
X182417667Y-137984000D01*
X182375334Y-137941667D01*
X182417667Y-137899333D01*
X182460000Y-137941667D01*
X183457656Y-137941667D01*
X183464437Y-137916684D01*
X183476000Y-137816790D01*
X183428878Y-137694547D01*
X183263379Y-137620879D01*
X183158500Y-137599903D01*
X182929292Y-137559051D01*
X182771923Y-137526529D01*
X182756334Y-137522448D01*
X182633098Y-137553285D01*
X182519857Y-137630467D01*
X182411513Y-137716822D01*
X182398941Y-137686745D01*
X182410593Y-137653918D01*
X181420016Y-137653918D01*
X181402251Y-137738755D01*
X181396224Y-137754818D01*
X181329151Y-137858496D01*
X181291019Y-137859240D01*
X181292004Y-137849944D01*
X180336650Y-137849944D01*
X180321083Y-137959758D01*
X180292181Y-137961069D01*
X180271970Y-137847752D01*
X180285497Y-137798792D01*
X180289456Y-137795414D01*
X179292502Y-137795414D01*
X179281385Y-137820517D01*
X179211886Y-137894456D01*
X179186726Y-137807342D01*
X179186223Y-137776058D01*
X179208915Y-137724487D01*
X178036575Y-137724487D01*
X178024994Y-137730000D01*
X177947729Y-137670396D01*
X177930334Y-137645333D01*
X177908759Y-137566179D01*
X177920340Y-137560667D01*
X177997606Y-137620270D01*
X178015000Y-137645333D01*
X178036575Y-137724487D01*
X179208915Y-137724487D01*
X179223586Y-137691145D01*
X179258159Y-137697241D01*
X179292502Y-137795414D01*
X180289456Y-137795414D01*
X180323092Y-137766721D01*
X180336650Y-137849944D01*
X181292004Y-137849944D01*
X181300516Y-137769675D01*
X181348828Y-137707422D01*
X181420016Y-137653918D01*
X182410593Y-137653918D01*
X182419849Y-137627846D01*
X182414022Y-137603000D01*
X180428000Y-137603000D01*
X180385667Y-137645333D01*
X180343334Y-137603000D01*
X180385667Y-137560667D01*
X180428000Y-137603000D01*
X182414022Y-137603000D01*
X182398348Y-137536175D01*
X182363096Y-137518333D01*
X181444000Y-137518333D01*
X181401667Y-137560667D01*
X181359334Y-137518333D01*
X179327334Y-137518333D01*
X179285000Y-137560667D01*
X179242667Y-137518333D01*
X179260731Y-137500269D01*
X176943019Y-137500269D01*
X176922419Y-137547585D01*
X176837168Y-137638478D01*
X176788158Y-137619833D01*
X176787334Y-137607997D01*
X176847471Y-137536384D01*
X176885082Y-137510248D01*
X176943019Y-137500269D01*
X179260731Y-137500269D01*
X179285000Y-137476000D01*
X179327334Y-137518333D01*
X181359334Y-137518333D01*
X181401667Y-137476000D01*
X181444000Y-137518333D01*
X182363096Y-137518333D01*
X182247471Y-137459813D01*
X182130112Y-137433667D01*
X180428000Y-137433667D01*
X180385667Y-137476000D01*
X180343334Y-137433667D01*
X180385667Y-137391333D01*
X178057334Y-137391333D01*
X178026356Y-137461023D01*
X178000889Y-137447778D01*
X177990756Y-137347298D01*
X178000889Y-137334889D01*
X178051224Y-137346511D01*
X178057334Y-137391333D01*
X180385667Y-137391333D01*
X180428000Y-137433667D01*
X182130112Y-137433667D01*
X181953691Y-137394363D01*
X181528667Y-137338150D01*
X181316223Y-137308415D01*
X181305744Y-137306667D01*
X179327334Y-137306667D01*
X179296356Y-137376357D01*
X179270889Y-137363111D01*
X179260756Y-137262631D01*
X179270889Y-137250222D01*
X179321224Y-137261844D01*
X179327334Y-137306667D01*
X181305744Y-137306667D01*
X181029894Y-137260656D01*
X180911818Y-137239163D01*
X180633227Y-137205328D01*
X180475764Y-137226919D01*
X180456734Y-137244004D01*
X180379944Y-137258799D01*
X180368649Y-137246269D01*
X177027686Y-137246269D01*
X177007085Y-137293585D01*
X176921835Y-137384478D01*
X176872825Y-137365833D01*
X176872000Y-137353997D01*
X176932137Y-137282384D01*
X176969749Y-137256248D01*
X177027686Y-137246269D01*
X180368649Y-137246269D01*
X180335839Y-137209872D01*
X180307037Y-137179667D01*
X178142000Y-137179667D01*
X178099667Y-137222000D01*
X178057334Y-137179667D01*
X178099667Y-137137333D01*
X178142000Y-137179667D01*
X180307037Y-137179667D01*
X180236403Y-137105595D01*
X180198255Y-137091180D01*
X180078471Y-137073364D01*
X179865484Y-137034029D01*
X179807749Y-137022640D01*
X179517828Y-137001206D01*
X179346997Y-137068793D01*
X179259051Y-137123744D01*
X179269977Y-137079929D01*
X179262016Y-137010333D01*
X178142000Y-137010333D01*
X178099667Y-137052667D01*
X178057334Y-137010333D01*
X177041334Y-137010333D01*
X176999000Y-137052667D01*
X176956667Y-137010333D01*
X176999000Y-136968000D01*
X177041334Y-137010333D01*
X178057334Y-137010333D01*
X178099667Y-136968000D01*
X178142000Y-137010333D01*
X179262016Y-137010333D01*
X179259011Y-136984069D01*
X179093062Y-136911416D01*
X178766902Y-136860299D01*
X178521937Y-136841041D01*
X178521477Y-136841000D01*
X177041334Y-136841000D01*
X176999000Y-136883333D01*
X176956667Y-136841000D01*
X176999000Y-136798667D01*
X177041334Y-136841000D01*
X178521477Y-136841000D01*
X178251662Y-136816971D01*
X178050813Y-136785272D01*
X177986163Y-136764674D01*
X177857049Y-136720903D01*
X177636622Y-136673819D01*
X177580380Y-136664403D01*
X177356199Y-136622738D01*
X177211010Y-136584428D01*
X177195351Y-136577246D01*
X177106795Y-136602387D01*
X177078934Y-136636991D01*
X177000364Y-136681390D01*
X176967250Y-136646718D01*
X176852684Y-136573116D01*
X176660334Y-136519642D01*
X176451250Y-136483736D01*
X176321667Y-136458936D01*
X176170449Y-136442197D01*
X176080472Y-136495045D01*
X176080472Y-136495045D01*
G37*
X176080472Y-136495045D02*
X176038113Y-136646675D01*
X176029745Y-136926282D01*
X176032795Y-137077898D01*
X176049149Y-137695796D01*
X176312408Y-137719328D01*
X176600998Y-137750335D01*
X176829667Y-137780450D01*
X177065415Y-137813551D01*
X177231834Y-137834496D01*
X177357766Y-137871884D01*
X177380000Y-137900243D01*
X177449579Y-137939418D01*
X177608498Y-137940920D01*
X177782034Y-137908992D01*
X177866834Y-137872606D01*
X177959482Y-137857778D01*
X177972667Y-137894336D01*
X178041508Y-137972999D01*
X178104664Y-137984000D01*
X178199201Y-138015464D01*
X178197690Y-138047500D01*
X178245108Y-138084628D01*
X178407988Y-138105055D01*
X178633319Y-138109135D01*
X178868092Y-138097224D01*
X179059295Y-138069674D01*
X179138932Y-138041207D01*
X179221744Y-138025443D01*
X179223598Y-138080853D01*
X179288216Y-138166135D01*
X179515624Y-138242135D01*
X179656953Y-138270406D01*
X179929168Y-138310317D01*
X180089869Y-138303741D01*
X180192326Y-138243187D01*
X180239844Y-138188426D01*
X180326137Y-138087613D01*
X180332021Y-138122072D01*
X180315544Y-138173208D01*
X180332268Y-138327380D01*
X180500681Y-138425080D01*
X180811293Y-138461756D01*
X180914905Y-138460712D01*
X181140294Y-138465741D01*
X181278510Y-138491501D01*
X181295905Y-138505379D01*
X181391510Y-138554361D01*
X181625337Y-138610782D01*
X181966848Y-138668123D01*
X182206000Y-138699687D01*
X182441013Y-138732870D01*
X182711294Y-138777189D01*
X182714000Y-138777668D01*
X182937022Y-138796433D01*
X183090489Y-138772889D01*
X183100830Y-138766918D01*
X183193302Y-138642026D01*
X183244907Y-138534333D01*
X182375334Y-138534333D01*
X182333000Y-138576667D01*
X182290667Y-138534333D01*
X182333000Y-138492000D01*
X182375334Y-138534333D01*
X183244907Y-138534333D01*
X183301455Y-138416327D01*
X183359303Y-138262269D01*
X182446353Y-138262269D01*
X182425752Y-138309585D01*
X182340502Y-138400478D01*
X182291491Y-138381833D01*
X182290667Y-138369997D01*
X182350804Y-138298384D01*
X182388416Y-138272248D01*
X182446353Y-138262269D01*
X183359303Y-138262269D01*
X183391095Y-138177602D01*
X181345686Y-138177602D01*
X181325085Y-138224918D01*
X181239835Y-138315812D01*
X181190825Y-138297166D01*
X181190000Y-138285330D01*
X181250137Y-138213717D01*
X181287749Y-138187582D01*
X181345686Y-138177602D01*
X183391095Y-138177602D01*
X183400197Y-138153365D01*
X183411695Y-138111000D01*
X182460000Y-138111000D01*
X182417667Y-138153333D01*
X182375334Y-138111000D01*
X182417667Y-138068667D01*
X182460000Y-138111000D01*
X183411695Y-138111000D01*
X183434675Y-138026333D01*
X181359334Y-138026333D01*
X181317000Y-138068667D01*
X181274667Y-138026333D01*
X181317000Y-137984000D01*
X181359334Y-138026333D01*
X183434675Y-138026333D01*
X183457656Y-137941667D01*
X182460000Y-137941667D01*
X182417667Y-137984000D01*
X182375334Y-137941667D01*
X182417667Y-137899333D01*
X182460000Y-137941667D01*
X183457656Y-137941667D01*
X183464437Y-137916684D01*
X183476000Y-137816790D01*
X183428878Y-137694547D01*
X183263379Y-137620879D01*
X183158500Y-137599903D01*
X182929292Y-137559051D01*
X182771923Y-137526529D01*
X182756334Y-137522448D01*
X182633098Y-137553285D01*
X182519857Y-137630467D01*
X182411513Y-137716822D01*
X182398941Y-137686745D01*
X182410593Y-137653918D01*
X181420016Y-137653918D01*
X181402251Y-137738755D01*
X181396224Y-137754818D01*
X181329151Y-137858496D01*
X181291019Y-137859240D01*
X181292004Y-137849944D01*
X180336650Y-137849944D01*
X180321083Y-137959758D01*
X180292181Y-137961069D01*
X180271970Y-137847752D01*
X180285497Y-137798792D01*
X180289456Y-137795414D01*
X179292502Y-137795414D01*
X179281385Y-137820517D01*
X179211886Y-137894456D01*
X179186726Y-137807342D01*
X179186223Y-137776058D01*
X179208915Y-137724487D01*
X178036575Y-137724487D01*
X178024994Y-137730000D01*
X177947729Y-137670396D01*
X177930334Y-137645333D01*
X177908759Y-137566179D01*
X177920340Y-137560667D01*
X177997606Y-137620270D01*
X178015000Y-137645333D01*
X178036575Y-137724487D01*
X179208915Y-137724487D01*
X179223586Y-137691145D01*
X179258159Y-137697241D01*
X179292502Y-137795414D01*
X180289456Y-137795414D01*
X180323092Y-137766721D01*
X180336650Y-137849944D01*
X181292004Y-137849944D01*
X181300516Y-137769675D01*
X181348828Y-137707422D01*
X181420016Y-137653918D01*
X182410593Y-137653918D01*
X182419849Y-137627846D01*
X182414022Y-137603000D01*
X180428000Y-137603000D01*
X180385667Y-137645333D01*
X180343334Y-137603000D01*
X180385667Y-137560667D01*
X180428000Y-137603000D01*
X182414022Y-137603000D01*
X182398348Y-137536175D01*
X182363096Y-137518333D01*
X181444000Y-137518333D01*
X181401667Y-137560667D01*
X181359334Y-137518333D01*
X179327334Y-137518333D01*
X179285000Y-137560667D01*
X179242667Y-137518333D01*
X179260731Y-137500269D01*
X176943019Y-137500269D01*
X176922419Y-137547585D01*
X176837168Y-137638478D01*
X176788158Y-137619833D01*
X176787334Y-137607997D01*
X176847471Y-137536384D01*
X176885082Y-137510248D01*
X176943019Y-137500269D01*
X179260731Y-137500269D01*
X179285000Y-137476000D01*
X179327334Y-137518333D01*
X181359334Y-137518333D01*
X181401667Y-137476000D01*
X181444000Y-137518333D01*
X182363096Y-137518333D01*
X182247471Y-137459813D01*
X182130112Y-137433667D01*
X180428000Y-137433667D01*
X180385667Y-137476000D01*
X180343334Y-137433667D01*
X180385667Y-137391333D01*
X178057334Y-137391333D01*
X178026356Y-137461023D01*
X178000889Y-137447778D01*
X177990756Y-137347298D01*
X178000889Y-137334889D01*
X178051224Y-137346511D01*
X178057334Y-137391333D01*
X180385667Y-137391333D01*
X180428000Y-137433667D01*
X182130112Y-137433667D01*
X181953691Y-137394363D01*
X181528667Y-137338150D01*
X181316223Y-137308415D01*
X181305744Y-137306667D01*
X179327334Y-137306667D01*
X179296356Y-137376357D01*
X179270889Y-137363111D01*
X179260756Y-137262631D01*
X179270889Y-137250222D01*
X179321224Y-137261844D01*
X179327334Y-137306667D01*
X181305744Y-137306667D01*
X181029894Y-137260656D01*
X180911818Y-137239163D01*
X180633227Y-137205328D01*
X180475764Y-137226919D01*
X180456734Y-137244004D01*
X180379944Y-137258799D01*
X180368649Y-137246269D01*
X177027686Y-137246269D01*
X177007085Y-137293585D01*
X176921835Y-137384478D01*
X176872825Y-137365833D01*
X176872000Y-137353997D01*
X176932137Y-137282384D01*
X176969749Y-137256248D01*
X177027686Y-137246269D01*
X180368649Y-137246269D01*
X180335839Y-137209872D01*
X180307037Y-137179667D01*
X178142000Y-137179667D01*
X178099667Y-137222000D01*
X178057334Y-137179667D01*
X178099667Y-137137333D01*
X178142000Y-137179667D01*
X180307037Y-137179667D01*
X180236403Y-137105595D01*
X180198255Y-137091180D01*
X180078471Y-137073364D01*
X179865484Y-137034029D01*
X179807749Y-137022640D01*
X179517828Y-137001206D01*
X179346997Y-137068793D01*
X179259051Y-137123744D01*
X179269977Y-137079929D01*
X179262016Y-137010333D01*
X178142000Y-137010333D01*
X178099667Y-137052667D01*
X178057334Y-137010333D01*
X177041334Y-137010333D01*
X176999000Y-137052667D01*
X176956667Y-137010333D01*
X176999000Y-136968000D01*
X177041334Y-137010333D01*
X178057334Y-137010333D01*
X178099667Y-136968000D01*
X178142000Y-137010333D01*
X179262016Y-137010333D01*
X179259011Y-136984069D01*
X179093062Y-136911416D01*
X178766902Y-136860299D01*
X178521937Y-136841041D01*
X178521477Y-136841000D01*
X177041334Y-136841000D01*
X176999000Y-136883333D01*
X176956667Y-136841000D01*
X176999000Y-136798667D01*
X177041334Y-136841000D01*
X178521477Y-136841000D01*
X178251662Y-136816971D01*
X178050813Y-136785272D01*
X177986163Y-136764674D01*
X177857049Y-136720903D01*
X177636622Y-136673819D01*
X177580380Y-136664403D01*
X177356199Y-136622738D01*
X177211010Y-136584428D01*
X177195351Y-136577246D01*
X177106795Y-136602387D01*
X177078934Y-136636991D01*
X177000364Y-136681390D01*
X176967250Y-136646718D01*
X176852684Y-136573116D01*
X176660334Y-136519642D01*
X176451250Y-136483736D01*
X176321667Y-136458936D01*
X176170449Y-136442197D01*
X176080472Y-136495045D01*
G36*
X179171082Y-138780248D02*
G01*
X179080189Y-138865499D01*
X179098834Y-138914509D01*
X179110670Y-138915333D01*
X179182283Y-138855196D01*
X179208419Y-138817585D01*
X179218398Y-138759648D01*
X179171082Y-138780248D01*
X179171082Y-138780248D01*
G37*
X179171082Y-138780248D02*
X179080189Y-138865499D01*
X179098834Y-138914509D01*
X179110670Y-138915333D01*
X179182283Y-138855196D01*
X179208419Y-138817585D01*
X179218398Y-138759648D01*
X179171082Y-138780248D01*
G36*
X176364000Y-138957667D02*
G01*
X176406334Y-139000000D01*
X176448667Y-138957667D01*
X176406334Y-138915333D01*
X176364000Y-138957667D01*
X176364000Y-138957667D01*
G37*
X176364000Y-138957667D02*
X176406334Y-139000000D01*
X176448667Y-138957667D01*
X176406334Y-138915333D01*
X176364000Y-138957667D01*
G36*
X179327334Y-138957667D02*
G01*
X179369667Y-139000000D01*
X179412000Y-138957667D01*
X179369667Y-138915333D01*
X179327334Y-138957667D01*
X179327334Y-138957667D01*
G37*
X179327334Y-138957667D02*
X179369667Y-139000000D01*
X179412000Y-138957667D01*
X179369667Y-138915333D01*
X179327334Y-138957667D01*
G36*
X179594416Y-138864915D02*
G01*
X179503522Y-138950165D01*
X179522168Y-138999176D01*
X179534004Y-139000000D01*
X179605616Y-138939863D01*
X179631752Y-138902251D01*
X179641731Y-138844314D01*
X179594416Y-138864915D01*
X179594416Y-138864915D01*
G37*
X179594416Y-138864915D02*
X179503522Y-138950165D01*
X179522168Y-138999176D01*
X179534004Y-139000000D01*
X179605616Y-138939863D01*
X179631752Y-138902251D01*
X179641731Y-138844314D01*
X179594416Y-138864915D01*
G36*
X176618000Y-139042333D02*
G01*
X176660334Y-139084667D01*
X176702667Y-139042333D01*
X176660334Y-139000000D01*
X176618000Y-139042333D01*
X176618000Y-139042333D01*
G37*
X176618000Y-139042333D02*
X176660334Y-139084667D01*
X176702667Y-139042333D01*
X176660334Y-139000000D01*
X176618000Y-139042333D01*
G36*
X179073334Y-139042333D02*
G01*
X179115667Y-139084667D01*
X179158000Y-139042333D01*
X179115667Y-139000000D01*
X179073334Y-139042333D01*
X179073334Y-139042333D01*
G37*
X179073334Y-139042333D02*
X179115667Y-139084667D01*
X179158000Y-139042333D01*
X179115667Y-139000000D01*
X179073334Y-139042333D01*
G36*
X181020667Y-139042333D02*
G01*
X181063000Y-139084667D01*
X181105334Y-139042333D01*
X181063000Y-139000000D01*
X181020667Y-139042333D01*
X181020667Y-139042333D01*
G37*
X181020667Y-139042333D02*
X181063000Y-139084667D01*
X181105334Y-139042333D01*
X181063000Y-139000000D01*
X181020667Y-139042333D01*
G36*
X179242667Y-139127000D02*
G01*
X179285000Y-139169333D01*
X179327334Y-139127000D01*
X179285000Y-139084667D01*
X179242667Y-139127000D01*
X179242667Y-139127000D01*
G37*
X179242667Y-139127000D02*
X179285000Y-139169333D01*
X179327334Y-139127000D01*
X179285000Y-139084667D01*
X179242667Y-139127000D01*
G36*
X178226667Y-139127000D02*
G01*
X178170357Y-139229719D01*
X178148892Y-139176299D01*
X178147951Y-139159148D01*
X178110701Y-139075846D01*
X177982727Y-139042590D01*
X177739834Y-139047806D01*
X177287262Y-139089479D01*
X176969275Y-139150861D01*
X176751604Y-139238917D01*
X176727534Y-139253548D01*
X176638426Y-139319088D01*
X176692614Y-139324498D01*
X176787334Y-139306370D01*
X176927744Y-139284145D01*
X176919440Y-139319267D01*
X176852141Y-139372422D01*
X176784359Y-139441765D01*
X176790998Y-139523001D01*
X176889243Y-139648995D01*
X177096280Y-139852608D01*
X177110117Y-139865720D01*
X177577328Y-140247587D01*
X178074041Y-140518420D01*
X178666482Y-140713935D01*
X178697412Y-140721775D01*
X179336550Y-140850939D01*
X179903756Y-140891732D01*
X180458665Y-140850568D01*
X181155849Y-140672513D01*
X181804046Y-140348814D01*
X182245826Y-140009272D01*
X182467795Y-139786512D01*
X182552390Y-139628488D01*
X182515179Y-139550333D01*
X182460000Y-139550333D01*
X182417667Y-139592667D01*
X182375334Y-139550333D01*
X182417667Y-139508000D01*
X182460000Y-139550333D01*
X182515179Y-139550333D01*
X182492725Y-139503174D01*
X182429282Y-139465667D01*
X182290667Y-139465667D01*
X182248334Y-139508000D01*
X182206000Y-139465667D01*
X182248334Y-139423333D01*
X182290667Y-139465667D01*
X182429282Y-139465667D01*
X182281917Y-139378547D01*
X182255178Y-139366889D01*
X182093112Y-139366889D01*
X182081489Y-139417223D01*
X182036667Y-139423333D01*
X181966977Y-139392355D01*
X181980223Y-139366889D01*
X182080702Y-139356756D01*
X182093112Y-139366889D01*
X182255178Y-139366889D01*
X182092484Y-139295956D01*
X181888863Y-139221796D01*
X181813566Y-139226578D01*
X181823596Y-139270820D01*
X181823113Y-139299571D01*
X181746612Y-139216651D01*
X181646257Y-139118440D01*
X181612377Y-139163084D01*
X181612037Y-139174318D01*
X181585613Y-139241694D01*
X181554862Y-139211667D01*
X181444000Y-139211667D01*
X181401667Y-139254000D01*
X181396670Y-139249003D01*
X180004667Y-139249003D01*
X179943207Y-139335221D01*
X179920000Y-139338667D01*
X179837535Y-139309780D01*
X179835334Y-139301330D01*
X179836377Y-139300058D01*
X179722445Y-139300058D01*
X179703976Y-139415095D01*
X179642676Y-139368375D01*
X179627283Y-139344517D01*
X179631546Y-139237778D01*
X179650508Y-139221241D01*
X179713533Y-139246317D01*
X179722445Y-139300058D01*
X179836377Y-139300058D01*
X179894663Y-139229044D01*
X179920000Y-139211667D01*
X179998019Y-139218379D01*
X180004667Y-139249003D01*
X181396670Y-139249003D01*
X181359334Y-139211667D01*
X181401667Y-139169333D01*
X181444000Y-139211667D01*
X181554862Y-139211667D01*
X181548537Y-139205491D01*
X181450695Y-139127000D01*
X181274667Y-139127000D01*
X181232334Y-139169333D01*
X181212092Y-139149091D01*
X180814612Y-139149091D01*
X180731389Y-139162649D01*
X180621575Y-139147082D01*
X180620264Y-139118180D01*
X180733581Y-139097969D01*
X180782542Y-139111496D01*
X180814612Y-139149091D01*
X181212092Y-139149091D01*
X181190000Y-139127000D01*
X181232334Y-139084667D01*
X181274667Y-139127000D01*
X181450695Y-139127000D01*
X181398693Y-139085283D01*
X181221242Y-139055108D01*
X181125207Y-139098660D01*
X181021953Y-139132956D01*
X180982893Y-139092044D01*
X180857201Y-139008526D01*
X180686117Y-139003110D01*
X180545824Y-139066815D01*
X180506716Y-139148167D01*
X180493524Y-139246941D01*
X180452149Y-139181124D01*
X180443216Y-139160262D01*
X180437599Y-139153841D01*
X180291426Y-139153841D01*
X180266350Y-139216866D01*
X180212609Y-139225778D01*
X180102026Y-139212786D01*
X180089334Y-139202552D01*
X180152396Y-139136468D01*
X180260830Y-139130417D01*
X180291426Y-139153841D01*
X180437599Y-139153841D01*
X180361595Y-139066962D01*
X180205662Y-139054779D01*
X179937969Y-139121337D01*
X179919866Y-139127042D01*
X179788974Y-139152316D01*
X179787359Y-139092487D01*
X179798650Y-139072571D01*
X179818245Y-139011979D01*
X179727999Y-139065940D01*
X179703420Y-139084667D01*
X179514082Y-139255153D01*
X179465877Y-139374382D01*
X179522303Y-139448711D01*
X179566693Y-139496227D01*
X179496667Y-139482696D01*
X179397334Y-139396012D01*
X179392961Y-139342869D01*
X179352690Y-139278786D01*
X179234191Y-139299023D01*
X179106859Y-139317707D01*
X179110061Y-139263071D01*
X179098253Y-139181772D01*
X179043053Y-139169333D01*
X178904698Y-139230999D01*
X178875407Y-139275167D01*
X178839177Y-139294205D01*
X178824722Y-139211667D01*
X178805914Y-139100180D01*
X178750499Y-139145507D01*
X178734667Y-139169333D01*
X178666206Y-139238221D01*
X178657910Y-139211667D01*
X178565334Y-139211667D01*
X178523000Y-139254000D01*
X178517487Y-139248487D01*
X178036575Y-139248487D01*
X178024994Y-139254000D01*
X177947729Y-139194396D01*
X177935836Y-139177260D01*
X177803334Y-139177260D01*
X177732351Y-139239633D01*
X177634000Y-139254000D01*
X177496178Y-139240342D01*
X177464667Y-139221541D01*
X177487705Y-139206864D01*
X177352812Y-139206864D01*
X177295334Y-139254000D01*
X177140985Y-139325644D01*
X177083667Y-139336074D01*
X177068522Y-139301136D01*
X177126000Y-139254000D01*
X177280349Y-139182356D01*
X177337667Y-139171926D01*
X177352812Y-139206864D01*
X177487705Y-139206864D01*
X177534477Y-139177067D01*
X177634000Y-139144801D01*
X177769008Y-139140053D01*
X177803334Y-139177260D01*
X177935836Y-139177260D01*
X177930334Y-139169333D01*
X177908759Y-139090179D01*
X177920340Y-139084667D01*
X177997606Y-139144270D01*
X178015000Y-139169333D01*
X178036575Y-139248487D01*
X178517487Y-139248487D01*
X178480667Y-139211667D01*
X178523000Y-139169333D01*
X178565334Y-139211667D01*
X178657910Y-139211667D01*
X178651297Y-139190500D01*
X178582336Y-139095259D01*
X178530056Y-139084667D01*
X178394098Y-139148682D01*
X178367407Y-139190500D01*
X178329437Y-139209599D01*
X178312067Y-139127000D01*
X178299432Y-138957667D01*
X178226667Y-139127000D01*
X178226667Y-139127000D01*
G37*
X178226667Y-139127000D02*
X178170357Y-139229719D01*
X178148892Y-139176299D01*
X178147951Y-139159148D01*
X178110701Y-139075846D01*
X177982727Y-139042590D01*
X177739834Y-139047806D01*
X177287262Y-139089479D01*
X176969275Y-139150861D01*
X176751604Y-139238917D01*
X176727534Y-139253548D01*
X176638426Y-139319088D01*
X176692614Y-139324498D01*
X176787334Y-139306370D01*
X176927744Y-139284145D01*
X176919440Y-139319267D01*
X176852141Y-139372422D01*
X176784359Y-139441765D01*
X176790998Y-139523001D01*
X176889243Y-139648995D01*
X177096280Y-139852608D01*
X177110117Y-139865720D01*
X177577328Y-140247587D01*
X178074041Y-140518420D01*
X178666482Y-140713935D01*
X178697412Y-140721775D01*
X179336550Y-140850939D01*
X179903756Y-140891732D01*
X180458665Y-140850568D01*
X181155849Y-140672513D01*
X181804046Y-140348814D01*
X182245826Y-140009272D01*
X182467795Y-139786512D01*
X182552390Y-139628488D01*
X182515179Y-139550333D01*
X182460000Y-139550333D01*
X182417667Y-139592667D01*
X182375334Y-139550333D01*
X182417667Y-139508000D01*
X182460000Y-139550333D01*
X182515179Y-139550333D01*
X182492725Y-139503174D01*
X182429282Y-139465667D01*
X182290667Y-139465667D01*
X182248334Y-139508000D01*
X182206000Y-139465667D01*
X182248334Y-139423333D01*
X182290667Y-139465667D01*
X182429282Y-139465667D01*
X182281917Y-139378547D01*
X182255178Y-139366889D01*
X182093112Y-139366889D01*
X182081489Y-139417223D01*
X182036667Y-139423333D01*
X181966977Y-139392355D01*
X181980223Y-139366889D01*
X182080702Y-139356756D01*
X182093112Y-139366889D01*
X182255178Y-139366889D01*
X182092484Y-139295956D01*
X181888863Y-139221796D01*
X181813566Y-139226578D01*
X181823596Y-139270820D01*
X181823113Y-139299571D01*
X181746612Y-139216651D01*
X181646257Y-139118440D01*
X181612377Y-139163084D01*
X181612037Y-139174318D01*
X181585613Y-139241694D01*
X181554862Y-139211667D01*
X181444000Y-139211667D01*
X181401667Y-139254000D01*
X181396670Y-139249003D01*
X180004667Y-139249003D01*
X179943207Y-139335221D01*
X179920000Y-139338667D01*
X179837535Y-139309780D01*
X179835334Y-139301330D01*
X179836377Y-139300058D01*
X179722445Y-139300058D01*
X179703976Y-139415095D01*
X179642676Y-139368375D01*
X179627283Y-139344517D01*
X179631546Y-139237778D01*
X179650508Y-139221241D01*
X179713533Y-139246317D01*
X179722445Y-139300058D01*
X179836377Y-139300058D01*
X179894663Y-139229044D01*
X179920000Y-139211667D01*
X179998019Y-139218379D01*
X180004667Y-139249003D01*
X181396670Y-139249003D01*
X181359334Y-139211667D01*
X181401667Y-139169333D01*
X181444000Y-139211667D01*
X181554862Y-139211667D01*
X181548537Y-139205491D01*
X181450695Y-139127000D01*
X181274667Y-139127000D01*
X181232334Y-139169333D01*
X181212092Y-139149091D01*
X180814612Y-139149091D01*
X180731389Y-139162649D01*
X180621575Y-139147082D01*
X180620264Y-139118180D01*
X180733581Y-139097969D01*
X180782542Y-139111496D01*
X180814612Y-139149091D01*
X181212092Y-139149091D01*
X181190000Y-139127000D01*
X181232334Y-139084667D01*
X181274667Y-139127000D01*
X181450695Y-139127000D01*
X181398693Y-139085283D01*
X181221242Y-139055108D01*
X181125207Y-139098660D01*
X181021953Y-139132956D01*
X180982893Y-139092044D01*
X180857201Y-139008526D01*
X180686117Y-139003110D01*
X180545824Y-139066815D01*
X180506716Y-139148167D01*
X180493524Y-139246941D01*
X180452149Y-139181124D01*
X180443216Y-139160262D01*
X180437599Y-139153841D01*
X180291426Y-139153841D01*
X180266350Y-139216866D01*
X180212609Y-139225778D01*
X180102026Y-139212786D01*
X180089334Y-139202552D01*
X180152396Y-139136468D01*
X180260830Y-139130417D01*
X180291426Y-139153841D01*
X180437599Y-139153841D01*
X180361595Y-139066962D01*
X180205662Y-139054779D01*
X179937969Y-139121337D01*
X179919866Y-139127042D01*
X179788974Y-139152316D01*
X179787359Y-139092487D01*
X179798650Y-139072571D01*
X179818245Y-139011979D01*
X179727999Y-139065940D01*
X179703420Y-139084667D01*
X179514082Y-139255153D01*
X179465877Y-139374382D01*
X179522303Y-139448711D01*
X179566693Y-139496227D01*
X179496667Y-139482696D01*
X179397334Y-139396012D01*
X179392961Y-139342869D01*
X179352690Y-139278786D01*
X179234191Y-139299023D01*
X179106859Y-139317707D01*
X179110061Y-139263071D01*
X179098253Y-139181772D01*
X179043053Y-139169333D01*
X178904698Y-139230999D01*
X178875407Y-139275167D01*
X178839177Y-139294205D01*
X178824722Y-139211667D01*
X178805914Y-139100180D01*
X178750499Y-139145507D01*
X178734667Y-139169333D01*
X178666206Y-139238221D01*
X178657910Y-139211667D01*
X178565334Y-139211667D01*
X178523000Y-139254000D01*
X178517487Y-139248487D01*
X178036575Y-139248487D01*
X178024994Y-139254000D01*
X177947729Y-139194396D01*
X177935836Y-139177260D01*
X177803334Y-139177260D01*
X177732351Y-139239633D01*
X177634000Y-139254000D01*
X177496178Y-139240342D01*
X177464667Y-139221541D01*
X177487705Y-139206864D01*
X177352812Y-139206864D01*
X177295334Y-139254000D01*
X177140985Y-139325644D01*
X177083667Y-139336074D01*
X177068522Y-139301136D01*
X177126000Y-139254000D01*
X177280349Y-139182356D01*
X177337667Y-139171926D01*
X177352812Y-139206864D01*
X177487705Y-139206864D01*
X177534477Y-139177067D01*
X177634000Y-139144801D01*
X177769008Y-139140053D01*
X177803334Y-139177260D01*
X177935836Y-139177260D01*
X177930334Y-139169333D01*
X177908759Y-139090179D01*
X177920340Y-139084667D01*
X177997606Y-139144270D01*
X178015000Y-139169333D01*
X178036575Y-139248487D01*
X178517487Y-139248487D01*
X178480667Y-139211667D01*
X178523000Y-139169333D01*
X178565334Y-139211667D01*
X178657910Y-139211667D01*
X178651297Y-139190500D01*
X178582336Y-139095259D01*
X178530056Y-139084667D01*
X178394098Y-139148682D01*
X178367407Y-139190500D01*
X178329437Y-139209599D01*
X178312067Y-139127000D01*
X178299432Y-138957667D01*
X178226667Y-139127000D01*
G36*
X180174000Y-140989667D02*
G01*
X180216334Y-141032000D01*
X180258667Y-140989667D01*
X180216334Y-140947333D01*
X180174000Y-140989667D01*
X180174000Y-140989667D01*
G37*
X180174000Y-140989667D02*
X180216334Y-141032000D01*
X180258667Y-140989667D01*
X180216334Y-140947333D01*
X180174000Y-140989667D01*
G36*
X176865786Y-132763520D02*
G01*
X176826641Y-132902132D01*
X176869424Y-133028989D01*
X176970817Y-133073333D01*
X177096418Y-133013010D01*
X177126000Y-132869158D01*
X177086778Y-132711974D01*
X176984327Y-132685776D01*
X176865786Y-132763520D01*
X176865786Y-132763520D01*
G37*
X176865786Y-132763520D02*
X176826641Y-132902132D01*
X176869424Y-133028989D01*
X176970817Y-133073333D01*
X177096418Y-133013010D01*
X177126000Y-132869158D01*
X177086778Y-132711974D01*
X176984327Y-132685776D01*
X176865786Y-132763520D01*
G36*
X177867875Y-132834270D02*
G01*
X177845667Y-132904000D01*
X177916052Y-133023548D01*
X177993834Y-133057215D01*
X178113845Y-133027763D01*
X178142000Y-132904000D01*
X178099149Y-132765039D01*
X177993834Y-132750785D01*
X177867875Y-132834270D01*
X177867875Y-132834270D01*
G37*
X177867875Y-132834270D02*
X177845667Y-132904000D01*
X177916052Y-133023548D01*
X177993834Y-133057215D01*
X178113845Y-133027763D01*
X178142000Y-132904000D01*
X178099149Y-132765039D01*
X177993834Y-132750785D01*
X177867875Y-132834270D01*
G36*
X182324841Y-132792179D02*
G01*
X182291891Y-132913561D01*
X182358885Y-133022080D01*
X182442479Y-133048734D01*
X182576185Y-132991021D01*
X182606550Y-132897418D01*
X182559175Y-132761515D01*
X182454739Y-132734667D01*
X182324841Y-132792179D01*
X182324841Y-132792179D01*
G37*
X182324841Y-132792179D02*
X182291891Y-132913561D01*
X182358885Y-133022080D01*
X182442479Y-133048734D01*
X182576185Y-132991021D01*
X182606550Y-132897418D01*
X182559175Y-132761515D01*
X182454739Y-132734667D01*
X182324841Y-132792179D01*
G36*
X178358972Y-132683587D02*
G01*
X178324238Y-132815245D01*
X178327998Y-132904000D01*
X178382554Y-133099842D01*
X178490057Y-133160095D01*
X178593556Y-133101555D01*
X178638106Y-132980406D01*
X178650000Y-132847555D01*
X178604468Y-132689169D01*
X178479322Y-132650000D01*
X178358972Y-132683587D01*
X178358972Y-132683587D01*
G37*
X178358972Y-132683587D02*
X178324238Y-132815245D01*
X178327998Y-132904000D01*
X178382554Y-133099842D01*
X178490057Y-133160095D01*
X178593556Y-133101555D01*
X178638106Y-132980406D01*
X178650000Y-132847555D01*
X178604468Y-132689169D01*
X178479322Y-132650000D01*
X178358972Y-132683587D01*
G36*
X180830800Y-132690980D02*
G01*
X180795805Y-132841597D01*
X180796826Y-132904000D01*
X180838075Y-133097373D01*
X180951323Y-133157947D01*
X180956270Y-133158000D01*
X181068227Y-133106435D01*
X181105051Y-132930137D01*
X181105334Y-132904000D01*
X181077185Y-132716090D01*
X180976423Y-132651538D01*
X180945890Y-132650000D01*
X180830800Y-132690980D01*
X180830800Y-132690980D01*
G37*
X180830800Y-132690980D02*
X180795805Y-132841597D01*
X180796826Y-132904000D01*
X180838075Y-133097373D01*
X180951323Y-133157947D01*
X180956270Y-133158000D01*
X181068227Y-133106435D01*
X181105051Y-132930137D01*
X181105334Y-132904000D01*
X181077185Y-132716090D01*
X180976423Y-132651538D01*
X180945890Y-132650000D01*
X180830800Y-132690980D01*
G36*
X181825283Y-132692793D02*
G01*
X181783439Y-132848726D01*
X181782667Y-132889889D01*
X181832253Y-133069973D01*
X181949515Y-133143464D01*
X182079000Y-133087444D01*
X182112229Y-132978709D01*
X182121334Y-132847555D01*
X182075561Y-132688931D01*
X181952000Y-132650000D01*
X181825283Y-132692793D01*
X181825283Y-132692793D01*
G37*
X181825283Y-132692793D02*
X181783439Y-132848726D01*
X181782667Y-132889889D01*
X181832253Y-133069973D01*
X181949515Y-133143464D01*
X182079000Y-133087444D01*
X182112229Y-132978709D01*
X182121334Y-132847555D01*
X182075561Y-132688931D01*
X181952000Y-132650000D01*
X181825283Y-132692793D01*
G36*
X177365351Y-132599763D02*
G01*
X177338489Y-132732918D01*
X177339912Y-132751759D01*
X177326409Y-132963697D01*
X177292114Y-133073333D01*
X177285073Y-133173303D01*
X177419589Y-133211811D01*
X177430719Y-133212543D01*
X177588978Y-133209943D01*
X177641697Y-133191377D01*
X177649225Y-133092321D01*
X177657016Y-132897402D01*
X177657452Y-132882833D01*
X177638102Y-132681071D01*
X177546566Y-132594280D01*
X177494271Y-132582426D01*
X177365351Y-132599763D01*
X177365351Y-132599763D01*
G37*
X177365351Y-132599763D02*
X177338489Y-132732918D01*
X177339912Y-132751759D01*
X177326409Y-132963697D01*
X177292114Y-133073333D01*
X177285073Y-133173303D01*
X177419589Y-133211811D01*
X177430719Y-133212543D01*
X177588978Y-133209943D01*
X177641697Y-133191377D01*
X177649225Y-133092321D01*
X177657016Y-132897402D01*
X177657452Y-132882833D01*
X177638102Y-132681071D01*
X177546566Y-132594280D01*
X177494271Y-132582426D01*
X177365351Y-132599763D01*
G36*
X178871066Y-132599204D02*
G01*
X178824161Y-132730923D01*
X178819334Y-132852608D01*
X178854493Y-133044414D01*
X178937359Y-133183362D01*
X179034013Y-133230182D01*
X179098193Y-133175469D01*
X179123767Y-133056311D01*
X179143993Y-132850290D01*
X179144583Y-132840500D01*
X179136307Y-132647550D01*
X179062749Y-132572863D01*
X178990012Y-132565333D01*
X178871066Y-132599204D01*
X178871066Y-132599204D01*
G37*
X178871066Y-132599204D02*
X178824161Y-132730923D01*
X178819334Y-132852608D01*
X178854493Y-133044414D01*
X178937359Y-133183362D01*
X179034013Y-133230182D01*
X179098193Y-133175469D01*
X179123767Y-133056311D01*
X179143993Y-132850290D01*
X179144583Y-132840500D01*
X179136307Y-132647550D01*
X179062749Y-132572863D01*
X178990012Y-132565333D01*
X178871066Y-132599204D01*
G36*
X181365501Y-132518105D02*
G01*
X181314858Y-132656056D01*
X181297592Y-132853819D01*
X181312550Y-133139053D01*
X181390087Y-133268538D01*
X181396545Y-133271319D01*
X181530817Y-133282156D01*
X181562723Y-133265055D01*
X181593795Y-133156185D01*
X181611650Y-132942943D01*
X181613334Y-132847555D01*
X181599404Y-132611174D01*
X181546717Y-132502542D01*
X181463769Y-132480667D01*
X181365501Y-132518105D01*
X181365501Y-132518105D01*
G37*
X181365501Y-132518105D02*
X181314858Y-132656056D01*
X181297592Y-132853819D01*
X181312550Y-133139053D01*
X181390087Y-133268538D01*
X181396545Y-133271319D01*
X181530817Y-133282156D01*
X181562723Y-133265055D01*
X181593795Y-133156185D01*
X181611650Y-132942943D01*
X181613334Y-132847555D01*
X181599404Y-132611174D01*
X181546717Y-132502542D01*
X181463769Y-132480667D01*
X181365501Y-132518105D01*
G36*
X179400749Y-132331161D02*
G01*
X179353128Y-132414636D01*
X179331922Y-132597743D01*
X179327334Y-132889889D01*
X179335115Y-133207499D01*
X179363039Y-133387600D01*
X179417977Y-133461496D01*
X179454334Y-133468444D01*
X179573894Y-133464533D01*
X179592063Y-133461389D01*
X179600090Y-133380286D01*
X179610885Y-133174247D01*
X179622131Y-132887591D01*
X179622293Y-132882833D01*
X179627678Y-132577648D01*
X179611810Y-132404937D01*
X179565917Y-132328302D01*
X179484564Y-132311333D01*
X179400749Y-132331161D01*
X179400749Y-132331161D01*
G37*
X179400749Y-132331161D02*
X179353128Y-132414636D01*
X179331922Y-132597743D01*
X179327334Y-132889889D01*
X179335115Y-133207499D01*
X179363039Y-133387600D01*
X179417977Y-133461496D01*
X179454334Y-133468444D01*
X179573894Y-133464533D01*
X179592063Y-133461389D01*
X179600090Y-133380286D01*
X179610885Y-133174247D01*
X179622131Y-132887591D01*
X179622293Y-132882833D01*
X179627678Y-132577648D01*
X179611810Y-132404937D01*
X179565917Y-132328302D01*
X179484564Y-132311333D01*
X179400749Y-132331161D01*
G36*
X180345073Y-132343264D02*
G01*
X180334555Y-132374833D01*
X180309950Y-132670749D01*
X180310131Y-132975047D01*
X180331959Y-133238142D01*
X180372296Y-133410445D01*
X180402535Y-133449090D01*
X180535535Y-133427156D01*
X180566617Y-133393204D01*
X180604461Y-133235610D01*
X180619543Y-132941944D01*
X180610517Y-132544105D01*
X180605973Y-132459500D01*
X180546356Y-132353169D01*
X180433742Y-132306423D01*
X180345073Y-132343264D01*
X180345073Y-132343264D01*
G37*
X180345073Y-132343264D02*
X180334555Y-132374833D01*
X180309950Y-132670749D01*
X180310131Y-132975047D01*
X180331959Y-133238142D01*
X180372296Y-133410445D01*
X180402535Y-133449090D01*
X180535535Y-133427156D01*
X180566617Y-133393204D01*
X180604461Y-133235610D01*
X180619543Y-132941944D01*
X180610517Y-132544105D01*
X180605973Y-132459500D01*
X180546356Y-132353169D01*
X180433742Y-132306423D01*
X180345073Y-132343264D01*
G36*
X179918056Y-131993304D02*
G01*
X179835977Y-132084905D01*
X179829113Y-132120833D01*
X179825166Y-132301147D01*
X179822617Y-132585266D01*
X179821522Y-132918775D01*
X179821934Y-133247262D01*
X179823906Y-133516315D01*
X179827493Y-133671520D01*
X179827580Y-133673055D01*
X179894821Y-133782459D01*
X180019426Y-133801086D01*
X180111799Y-133715593D01*
X180111866Y-133715389D01*
X180120791Y-133604289D01*
X180125480Y-133371170D01*
X180126290Y-133063282D01*
X180123579Y-132727875D01*
X180117705Y-132412202D01*
X180109028Y-132163512D01*
X180099139Y-132036167D01*
X180031606Y-131968960D01*
X179918056Y-131993304D01*
X179918056Y-131993304D01*
G37*
X179918056Y-131993304D02*
X179835977Y-132084905D01*
X179829113Y-132120833D01*
X179825166Y-132301147D01*
X179822617Y-132585266D01*
X179821522Y-132918775D01*
X179821934Y-133247262D01*
X179823906Y-133516315D01*
X179827493Y-133671520D01*
X179827580Y-133673055D01*
X179894821Y-133782459D01*
X180019426Y-133801086D01*
X180111799Y-133715593D01*
X180111866Y-133715389D01*
X180120791Y-133604289D01*
X180125480Y-133371170D01*
X180126290Y-133063282D01*
X180123579Y-132727875D01*
X180117705Y-132412202D01*
X180109028Y-132163512D01*
X180099139Y-132036167D01*
X180031606Y-131968960D01*
X179918056Y-131993304D01*
G36*
X186568275Y-134422633D02*
G01*
X186235095Y-134430096D01*
X185935710Y-134440346D01*
X185724960Y-134452014D01*
X185672006Y-134457616D01*
X185538768Y-134499806D01*
X185392713Y-134571278D01*
X185287635Y-134641155D01*
X185277332Y-134678564D01*
X185285534Y-134679425D01*
X185305217Y-134732320D01*
X185266606Y-134793811D01*
X185226749Y-134927548D01*
X185201341Y-135186931D01*
X185189566Y-135530389D01*
X185190608Y-135916354D01*
X185203651Y-136303256D01*
X185227879Y-136649525D01*
X185262476Y-136913593D01*
X185306626Y-137053889D01*
X185311075Y-137059059D01*
X185445562Y-137122104D01*
X185688262Y-137180616D01*
X185898193Y-137211341D01*
X186385904Y-137264333D01*
X186370191Y-137962833D01*
X186365025Y-138305475D01*
X186374159Y-138513173D01*
X186406089Y-138620221D01*
X186469312Y-138660908D01*
X186545072Y-138668608D01*
X186769752Y-138680216D01*
X187010834Y-138696045D01*
X187286000Y-138716207D01*
X187289937Y-137905603D01*
X187292558Y-137518591D01*
X187297016Y-137019346D01*
X187302748Y-136464949D01*
X187307971Y-136017055D01*
X186372587Y-136017055D01*
X186372270Y-136283608D01*
X186364118Y-136467349D01*
X186362580Y-136481167D01*
X186285811Y-136537795D01*
X186227667Y-136544667D01*
X186162298Y-136512613D01*
X186123164Y-136396366D01*
X186104574Y-136165789D01*
X186100667Y-135872330D01*
X186117141Y-135475656D01*
X186164316Y-135214841D01*
X186238822Y-135101058D01*
X186324187Y-135131298D01*
X186340869Y-135224811D01*
X186355452Y-135437228D01*
X186366503Y-135718119D01*
X186372587Y-136017055D01*
X187307971Y-136017055D01*
X187309191Y-135912485D01*
X187311103Y-135761469D01*
X187328334Y-134427938D01*
X187116667Y-134421545D01*
X186880412Y-134419326D01*
X186568275Y-134422633D01*
X186568275Y-134422633D01*
G37*
X186568275Y-134422633D02*
X186235095Y-134430096D01*
X185935710Y-134440346D01*
X185724960Y-134452014D01*
X185672006Y-134457616D01*
X185538768Y-134499806D01*
X185392713Y-134571278D01*
X185287635Y-134641155D01*
X185277332Y-134678564D01*
X185285534Y-134679425D01*
X185305217Y-134732320D01*
X185266606Y-134793811D01*
X185226749Y-134927548D01*
X185201341Y-135186931D01*
X185189566Y-135530389D01*
X185190608Y-135916354D01*
X185203651Y-136303256D01*
X185227879Y-136649525D01*
X185262476Y-136913593D01*
X185306626Y-137053889D01*
X185311075Y-137059059D01*
X185445562Y-137122104D01*
X185688262Y-137180616D01*
X185898193Y-137211341D01*
X186385904Y-137264333D01*
X186370191Y-137962833D01*
X186365025Y-138305475D01*
X186374159Y-138513173D01*
X186406089Y-138620221D01*
X186469312Y-138660908D01*
X186545072Y-138668608D01*
X186769752Y-138680216D01*
X187010834Y-138696045D01*
X187286000Y-138716207D01*
X187289937Y-137905603D01*
X187292558Y-137518591D01*
X187297016Y-137019346D01*
X187302748Y-136464949D01*
X187307971Y-136017055D01*
X186372587Y-136017055D01*
X186372270Y-136283608D01*
X186364118Y-136467349D01*
X186362580Y-136481167D01*
X186285811Y-136537795D01*
X186227667Y-136544667D01*
X186162298Y-136512613D01*
X186123164Y-136396366D01*
X186104574Y-136165789D01*
X186100667Y-135872330D01*
X186117141Y-135475656D01*
X186164316Y-135214841D01*
X186238822Y-135101058D01*
X186324187Y-135131298D01*
X186340869Y-135224811D01*
X186355452Y-135437228D01*
X186366503Y-135718119D01*
X186372587Y-136017055D01*
X187307971Y-136017055D01*
X187309191Y-135912485D01*
X187311103Y-135761469D01*
X187328334Y-134427938D01*
X187116667Y-134421545D01*
X186880412Y-134419326D01*
X186568275Y-134422633D01*
G36*
X188914009Y-134422456D02*
G01*
X188654911Y-134430728D01*
X188421728Y-134441292D01*
X188271264Y-134452151D01*
X188244529Y-134457291D01*
X188227065Y-134542286D01*
X188199077Y-134742892D01*
X188180680Y-134894694D01*
X188144921Y-135180545D01*
X188110193Y-135420424D01*
X188097322Y-135494646D01*
X188066199Y-135684095D01*
X188027573Y-135957651D01*
X188010823Y-136087312D01*
X187969988Y-136406840D01*
X187929548Y-136712163D01*
X187917682Y-136798667D01*
X187878311Y-137095244D01*
X187839295Y-137409234D01*
X187837450Y-137424801D01*
X187785234Y-137831047D01*
X187727094Y-138228208D01*
X187674650Y-138536944D01*
X187674262Y-138538959D01*
X187673797Y-138637772D01*
X187747601Y-138687215D01*
X187934057Y-138703221D01*
X188071203Y-138703726D01*
X188329338Y-138695405D01*
X188471457Y-138647265D01*
X188538296Y-138518980D01*
X188570590Y-138270222D01*
X188576390Y-138203601D01*
X188615903Y-137977184D01*
X188701518Y-137871064D01*
X188792125Y-137844299D01*
X188935893Y-137857856D01*
X188987136Y-137987989D01*
X188989917Y-138026864D01*
X189011308Y-138359539D01*
X189052777Y-138558234D01*
X189142137Y-138658130D01*
X189307197Y-138694403D01*
X189523197Y-138701419D01*
X189751265Y-138697028D01*
X189852956Y-138657211D01*
X189870964Y-138555978D01*
X189864454Y-138493685D01*
X189840174Y-138290686D01*
X189806665Y-137997070D01*
X189783448Y-137787934D01*
X189747126Y-137483923D01*
X189711020Y-137224851D01*
X189691442Y-137110601D01*
X189662326Y-136921963D01*
X189651717Y-136831543D01*
X188884011Y-136831543D01*
X188874411Y-137026838D01*
X188837060Y-137117919D01*
X188780321Y-137137333D01*
X188711940Y-137108103D01*
X188682451Y-136997384D01*
X188686550Y-136770630D01*
X188699086Y-136608167D01*
X188722628Y-136301746D01*
X188737119Y-136046423D01*
X188739591Y-135921263D01*
X188756229Y-135813740D01*
X188783979Y-135813090D01*
X188812378Y-135915943D01*
X188842013Y-136142338D01*
X188867141Y-136446624D01*
X188870389Y-136499993D01*
X188884011Y-136831543D01*
X189651717Y-136831543D01*
X189629444Y-136641722D01*
X189611689Y-136460000D01*
X189580269Y-136131883D01*
X189544828Y-135818869D01*
X189497801Y-135459001D01*
X189435991Y-135020667D01*
X189401886Y-134766189D01*
X189380714Y-134575663D01*
X189377840Y-134533833D01*
X189315827Y-134430439D01*
X189282723Y-134420782D01*
X189142214Y-134418475D01*
X188914009Y-134422456D01*
X188914009Y-134422456D01*
G37*
X188914009Y-134422456D02*
X188654911Y-134430728D01*
X188421728Y-134441292D01*
X188271264Y-134452151D01*
X188244529Y-134457291D01*
X188227065Y-134542286D01*
X188199077Y-134742892D01*
X188180680Y-134894694D01*
X188144921Y-135180545D01*
X188110193Y-135420424D01*
X188097322Y-135494646D01*
X188066199Y-135684095D01*
X188027573Y-135957651D01*
X188010823Y-136087312D01*
X187969988Y-136406840D01*
X187929548Y-136712163D01*
X187917682Y-136798667D01*
X187878311Y-137095244D01*
X187839295Y-137409234D01*
X187837450Y-137424801D01*
X187785234Y-137831047D01*
X187727094Y-138228208D01*
X187674650Y-138536944D01*
X187674262Y-138538959D01*
X187673797Y-138637772D01*
X187747601Y-138687215D01*
X187934057Y-138703221D01*
X188071203Y-138703726D01*
X188329338Y-138695405D01*
X188471457Y-138647265D01*
X188538296Y-138518980D01*
X188570590Y-138270222D01*
X188576390Y-138203601D01*
X188615903Y-137977184D01*
X188701518Y-137871064D01*
X188792125Y-137844299D01*
X188935893Y-137857856D01*
X188987136Y-137987989D01*
X188989917Y-138026864D01*
X189011308Y-138359539D01*
X189052777Y-138558234D01*
X189142137Y-138658130D01*
X189307197Y-138694403D01*
X189523197Y-138701419D01*
X189751265Y-138697028D01*
X189852956Y-138657211D01*
X189870964Y-138555978D01*
X189864454Y-138493685D01*
X189840174Y-138290686D01*
X189806665Y-137997070D01*
X189783448Y-137787934D01*
X189747126Y-137483923D01*
X189711020Y-137224851D01*
X189691442Y-137110601D01*
X189662326Y-136921963D01*
X189651717Y-136831543D01*
X188884011Y-136831543D01*
X188874411Y-137026838D01*
X188837060Y-137117919D01*
X188780321Y-137137333D01*
X188711940Y-137108103D01*
X188682451Y-136997384D01*
X188686550Y-136770630D01*
X188699086Y-136608167D01*
X188722628Y-136301746D01*
X188737119Y-136046423D01*
X188739591Y-135921263D01*
X188756229Y-135813740D01*
X188783979Y-135813090D01*
X188812378Y-135915943D01*
X188842013Y-136142338D01*
X188867141Y-136446624D01*
X188870389Y-136499993D01*
X188884011Y-136831543D01*
X189651717Y-136831543D01*
X189629444Y-136641722D01*
X189611689Y-136460000D01*
X189580269Y-136131883D01*
X189544828Y-135818869D01*
X189497801Y-135459001D01*
X189435991Y-135020667D01*
X189401886Y-134766189D01*
X189380714Y-134575663D01*
X189377840Y-134533833D01*
X189315827Y-134430439D01*
X189282723Y-134420782D01*
X189142214Y-134418475D01*
X188914009Y-134422456D01*
G36*
X190629841Y-134412272D02*
G01*
X190609167Y-134414666D01*
X190334000Y-134446526D01*
X190335297Y-136490430D01*
X190338143Y-137064952D01*
X190345443Y-137584721D01*
X190356469Y-138025257D01*
X190370494Y-138362075D01*
X190386790Y-138570694D01*
X190398797Y-138626836D01*
X190513054Y-138675142D01*
X190735561Y-138698164D01*
X191006670Y-138692621D01*
X191191013Y-138670406D01*
X191236908Y-138589781D01*
X191290240Y-138397626D01*
X191309728Y-138301500D01*
X191352822Y-138071686D01*
X191382565Y-137922186D01*
X191387868Y-137899333D01*
X191412381Y-137789663D01*
X191457001Y-137573517D01*
X191509664Y-137310666D01*
X191558307Y-137060885D01*
X191575442Y-136969907D01*
X191619291Y-136779619D01*
X191650516Y-136752889D01*
X191669530Y-136891312D01*
X191676748Y-137196483D01*
X191676461Y-137360013D01*
X191675425Y-137735297D01*
X191676747Y-138094177D01*
X191680137Y-138362571D01*
X191680418Y-138374976D01*
X191688667Y-138723619D01*
X192069667Y-138714743D01*
X192298333Y-138700778D01*
X192437165Y-138675701D01*
X192455882Y-138662433D01*
X192457940Y-138569233D01*
X192460969Y-138330157D01*
X192464736Y-137968655D01*
X192469010Y-137508180D01*
X192473558Y-136972184D01*
X192477049Y-136529311D01*
X192481518Y-135881652D01*
X192482835Y-135383383D01*
X192479555Y-135014567D01*
X192470236Y-134755269D01*
X192453434Y-134585553D01*
X192427706Y-134485483D01*
X192391609Y-134435125D01*
X192343699Y-134414541D01*
X192323667Y-134410647D01*
X192054676Y-134399050D01*
X191800272Y-134442777D01*
X191616000Y-134527284D01*
X191556777Y-134611471D01*
X191528029Y-134771532D01*
X191476628Y-135027698D01*
X191439454Y-135204138D01*
X191373545Y-135526341D01*
X191315929Y-135833248D01*
X191295863Y-135952000D01*
X191253894Y-136179727D01*
X191222310Y-136257256D01*
X191200225Y-136180191D01*
X191186755Y-135944136D01*
X191181016Y-135544694D01*
X191180667Y-135379652D01*
X191178311Y-134948086D01*
X191160886Y-134659624D01*
X191112859Y-134488039D01*
X191018699Y-134407104D01*
X190862870Y-134390591D01*
X190629841Y-134412272D01*
X190629841Y-134412272D01*
G37*
X190629841Y-134412272D02*
X190609167Y-134414666D01*
X190334000Y-134446526D01*
X190335297Y-136490430D01*
X190338143Y-137064952D01*
X190345443Y-137584721D01*
X190356469Y-138025257D01*
X190370494Y-138362075D01*
X190386790Y-138570694D01*
X190398797Y-138626836D01*
X190513054Y-138675142D01*
X190735561Y-138698164D01*
X191006670Y-138692621D01*
X191191013Y-138670406D01*
X191236908Y-138589781D01*
X191290240Y-138397626D01*
X191309728Y-138301500D01*
X191352822Y-138071686D01*
X191382565Y-137922186D01*
X191387868Y-137899333D01*
X191412381Y-137789663D01*
X191457001Y-137573517D01*
X191509664Y-137310666D01*
X191558307Y-137060885D01*
X191575442Y-136969907D01*
X191619291Y-136779619D01*
X191650516Y-136752889D01*
X191669530Y-136891312D01*
X191676748Y-137196483D01*
X191676461Y-137360013D01*
X191675425Y-137735297D01*
X191676747Y-138094177D01*
X191680137Y-138362571D01*
X191680418Y-138374976D01*
X191688667Y-138723619D01*
X192069667Y-138714743D01*
X192298333Y-138700778D01*
X192437165Y-138675701D01*
X192455882Y-138662433D01*
X192457940Y-138569233D01*
X192460969Y-138330157D01*
X192464736Y-137968655D01*
X192469010Y-137508180D01*
X192473558Y-136972184D01*
X192477049Y-136529311D01*
X192481518Y-135881652D01*
X192482835Y-135383383D01*
X192479555Y-135014567D01*
X192470236Y-134755269D01*
X192453434Y-134585553D01*
X192427706Y-134485483D01*
X192391609Y-134435125D01*
X192343699Y-134414541D01*
X192323667Y-134410647D01*
X192054676Y-134399050D01*
X191800272Y-134442777D01*
X191616000Y-134527284D01*
X191556777Y-134611471D01*
X191528029Y-134771532D01*
X191476628Y-135027698D01*
X191439454Y-135204138D01*
X191373545Y-135526341D01*
X191315929Y-135833248D01*
X191295863Y-135952000D01*
X191253894Y-136179727D01*
X191222310Y-136257256D01*
X191200225Y-136180191D01*
X191186755Y-135944136D01*
X191181016Y-135544694D01*
X191180667Y-135379652D01*
X191178311Y-134948086D01*
X191160886Y-134659624D01*
X191112859Y-134488039D01*
X191018699Y-134407104D01*
X190862870Y-134390591D01*
X190629841Y-134412272D01*
G36*
X193613869Y-134437118D02*
G01*
X193342640Y-134456742D01*
X193180817Y-134484365D01*
X193161842Y-134492796D01*
X192992463Y-134703800D01*
X192895671Y-135053225D01*
X192874000Y-135387207D01*
X192874000Y-135849547D01*
X193194767Y-135880137D01*
X193509852Y-135898941D01*
X193693195Y-135864909D01*
X193779798Y-135754706D01*
X193804662Y-135544995D01*
X193805334Y-135473069D01*
X193822080Y-135223766D01*
X193875377Y-135125728D01*
X193911167Y-135126500D01*
X193981082Y-135230919D01*
X194015349Y-135458830D01*
X194017000Y-135532674D01*
X194009256Y-135739576D01*
X193963033Y-135876353D01*
X193843850Y-135989809D01*
X193617223Y-136126752D01*
X193552693Y-136162907D01*
X193289049Y-136332336D01*
X193080856Y-136506093D01*
X192990239Y-136619108D01*
X192944520Y-136802106D01*
X192915039Y-137111639D01*
X192905335Y-137505387D01*
X192906556Y-137620191D01*
X192926006Y-138059581D01*
X192975158Y-138357217D01*
X193068235Y-138539973D01*
X193219459Y-138634718D01*
X193443051Y-138668325D01*
X193461683Y-138669079D01*
X193699865Y-138678903D01*
X193977041Y-138691975D01*
X193986849Y-138692471D01*
X194273469Y-138685188D01*
X194535531Y-138645871D01*
X194539604Y-138644828D01*
X194784941Y-138498024D01*
X194941556Y-138210630D01*
X195007476Y-137787482D01*
X195004688Y-137504588D01*
X194976375Y-136982843D01*
X194059103Y-136925667D01*
X194059218Y-137454833D01*
X194050213Y-137756699D01*
X194017951Y-137921728D01*
X193954814Y-137981696D01*
X193932334Y-137984000D01*
X193852688Y-137962419D01*
X193808270Y-137873946D01*
X193790273Y-137682991D01*
X193789253Y-137405805D01*
X193808182Y-137139705D01*
X193881700Y-136961111D01*
X194045702Y-136818479D01*
X194293507Y-136681713D01*
X194546209Y-136540460D01*
X194743662Y-136406622D01*
X194810999Y-136345452D01*
X194888110Y-136168722D01*
X194946074Y-135881051D01*
X194978702Y-135540334D01*
X194979803Y-135204466D01*
X194955993Y-134989385D01*
X194888241Y-134736218D01*
X194777109Y-134571822D01*
X194589915Y-134478047D01*
X194293975Y-134436743D01*
X193947453Y-134429296D01*
X193613869Y-134437118D01*
X193613869Y-134437118D01*
G37*
X193613869Y-134437118D02*
X193342640Y-134456742D01*
X193180817Y-134484365D01*
X193161842Y-134492796D01*
X192992463Y-134703800D01*
X192895671Y-135053225D01*
X192874000Y-135387207D01*
X192874000Y-135849547D01*
X193194767Y-135880137D01*
X193509852Y-135898941D01*
X193693195Y-135864909D01*
X193779798Y-135754706D01*
X193804662Y-135544995D01*
X193805334Y-135473069D01*
X193822080Y-135223766D01*
X193875377Y-135125728D01*
X193911167Y-135126500D01*
X193981082Y-135230919D01*
X194015349Y-135458830D01*
X194017000Y-135532674D01*
X194009256Y-135739576D01*
X193963033Y-135876353D01*
X193843850Y-135989809D01*
X193617223Y-136126752D01*
X193552693Y-136162907D01*
X193289049Y-136332336D01*
X193080856Y-136506093D01*
X192990239Y-136619108D01*
X192944520Y-136802106D01*
X192915039Y-137111639D01*
X192905335Y-137505387D01*
X192906556Y-137620191D01*
X192926006Y-138059581D01*
X192975158Y-138357217D01*
X193068235Y-138539973D01*
X193219459Y-138634718D01*
X193443051Y-138668325D01*
X193461683Y-138669079D01*
X193699865Y-138678903D01*
X193977041Y-138691975D01*
X193986849Y-138692471D01*
X194273469Y-138685188D01*
X194535531Y-138645871D01*
X194539604Y-138644828D01*
X194784941Y-138498024D01*
X194941556Y-138210630D01*
X195007476Y-137787482D01*
X195004688Y-137504588D01*
X194976375Y-136982843D01*
X194059103Y-136925667D01*
X194059218Y-137454833D01*
X194050213Y-137756699D01*
X194017951Y-137921728D01*
X193954814Y-137981696D01*
X193932334Y-137984000D01*
X193852688Y-137962419D01*
X193808270Y-137873946D01*
X193790273Y-137682991D01*
X193789253Y-137405805D01*
X193808182Y-137139705D01*
X193881700Y-136961111D01*
X194045702Y-136818479D01*
X194293507Y-136681713D01*
X194546209Y-136540460D01*
X194743662Y-136406622D01*
X194810999Y-136345452D01*
X194888110Y-136168722D01*
X194946074Y-135881051D01*
X194978702Y-135540334D01*
X194979803Y-135204466D01*
X194955993Y-134989385D01*
X194888241Y-134736218D01*
X194777109Y-134571822D01*
X194589915Y-134478047D01*
X194293975Y-134436743D01*
X193947453Y-134429296D01*
X193613869Y-134437118D01*
G36*
X192429500Y-139185632D02*
G01*
X192069667Y-139211667D01*
X191896116Y-140056505D01*
X191820464Y-140397777D01*
X191752354Y-140656384D01*
X191700532Y-140801808D01*
X191677753Y-140818505D01*
X191658938Y-140701842D01*
X191646022Y-140458586D01*
X191640788Y-140131428D01*
X191641579Y-139952500D01*
X191650214Y-139169333D01*
X191011334Y-139169333D01*
X191011334Y-142810000D01*
X191352658Y-142810000D01*
X191601044Y-142785844D01*
X191734443Y-142687110D01*
X191803506Y-142474401D01*
X191806778Y-142456778D01*
X191902622Y-141938371D01*
X191975554Y-141569466D01*
X192029744Y-141332411D01*
X192069364Y-141209553D01*
X192098583Y-141183242D01*
X192105782Y-141191272D01*
X192126957Y-141307422D01*
X192141299Y-141549768D01*
X192146783Y-141875239D01*
X192145770Y-142041214D01*
X192135600Y-142810000D01*
X192789334Y-142810000D01*
X192789334Y-139159597D01*
X192429500Y-139185632D01*
X192429500Y-139185632D01*
G37*
X192429500Y-139185632D02*
X192069667Y-139211667D01*
X191896116Y-140056505D01*
X191820464Y-140397777D01*
X191752354Y-140656384D01*
X191700532Y-140801808D01*
X191677753Y-140818505D01*
X191658938Y-140701842D01*
X191646022Y-140458586D01*
X191640788Y-140131428D01*
X191641579Y-139952500D01*
X191650214Y-139169333D01*
X191011334Y-139169333D01*
X191011334Y-142810000D01*
X191352658Y-142810000D01*
X191601044Y-142785844D01*
X191734443Y-142687110D01*
X191803506Y-142474401D01*
X191806778Y-142456778D01*
X191902622Y-141938371D01*
X191975554Y-141569466D01*
X192029744Y-141332411D01*
X192069364Y-141209553D01*
X192098583Y-141183242D01*
X192105782Y-141191272D01*
X192126957Y-141307422D01*
X192141299Y-141549768D01*
X192146783Y-141875239D01*
X192145770Y-142041214D01*
X192135600Y-142810000D01*
X192789334Y-142810000D01*
X192789334Y-139159597D01*
X192429500Y-139185632D01*
G36*
X193708039Y-139192541D02*
G01*
X193463130Y-139268435D01*
X193379664Y-139323533D01*
X193310980Y-139385763D01*
X193261318Y-139461537D01*
X193227756Y-139576808D01*
X193207368Y-139757531D01*
X193197230Y-140029659D01*
X193194418Y-140419146D01*
X193196007Y-140951947D01*
X193196014Y-140953366D01*
X193198491Y-141437086D01*
X193201148Y-141860919D01*
X193203765Y-142196287D01*
X193206124Y-142414612D01*
X193207729Y-142486452D01*
X193265075Y-142585792D01*
X193345715Y-142676952D01*
X193503497Y-142748053D01*
X193771592Y-142793156D01*
X194092732Y-142810574D01*
X194409650Y-142798619D01*
X194665080Y-142755606D01*
X194757834Y-142718551D01*
X194874605Y-142572336D01*
X194906000Y-142429790D01*
X194929600Y-142257998D01*
X194969500Y-142188082D01*
X194995243Y-142091178D01*
X195012993Y-141861646D01*
X195022952Y-141535997D01*
X195025326Y-141150736D01*
X195023001Y-140961183D01*
X194223197Y-140961183D01*
X194219346Y-141398034D01*
X194209906Y-141775114D01*
X194196161Y-142059632D01*
X194179395Y-142218797D01*
X194173215Y-142238560D01*
X194096764Y-142291288D01*
X194036475Y-142182008D01*
X193993858Y-141917411D01*
X193970424Y-141504186D01*
X193967025Y-141324992D01*
X193962048Y-140773165D01*
X193962530Y-140368223D01*
X193970375Y-140087753D01*
X193987487Y-139909345D01*
X194015768Y-139810587D01*
X194057122Y-139769067D01*
X194099760Y-139762000D01*
X194150020Y-139786706D01*
X194185029Y-139876779D01*
X194207250Y-140056150D01*
X194219146Y-140348749D01*
X194223180Y-140778507D01*
X194223197Y-140961183D01*
X195023001Y-140961183D01*
X195020317Y-140742373D01*
X195008129Y-140347416D01*
X194988966Y-140002372D01*
X194963031Y-139743750D01*
X194955607Y-139697396D01*
X194884231Y-139443424D01*
X194758236Y-139284578D01*
X194543595Y-139200470D01*
X194206282Y-139170711D01*
X194074280Y-139169333D01*
X193708039Y-139192541D01*
X193708039Y-139192541D01*
G37*
X193708039Y-139192541D02*
X193463130Y-139268435D01*
X193379664Y-139323533D01*
X193310980Y-139385763D01*
X193261318Y-139461537D01*
X193227756Y-139576808D01*
X193207368Y-139757531D01*
X193197230Y-140029659D01*
X193194418Y-140419146D01*
X193196007Y-140951947D01*
X193196014Y-140953366D01*
X193198491Y-141437086D01*
X193201148Y-141860919D01*
X193203765Y-142196287D01*
X193206124Y-142414612D01*
X193207729Y-142486452D01*
X193265075Y-142585792D01*
X193345715Y-142676952D01*
X193503497Y-142748053D01*
X193771592Y-142793156D01*
X194092732Y-142810574D01*
X194409650Y-142798619D01*
X194665080Y-142755606D01*
X194757834Y-142718551D01*
X194874605Y-142572336D01*
X194906000Y-142429790D01*
X194929600Y-142257998D01*
X194969500Y-142188082D01*
X194995243Y-142091178D01*
X195012993Y-141861646D01*
X195022952Y-141535997D01*
X195025326Y-141150736D01*
X195023001Y-140961183D01*
X194223197Y-140961183D01*
X194219346Y-141398034D01*
X194209906Y-141775114D01*
X194196161Y-142059632D01*
X194179395Y-142218797D01*
X194173215Y-142238560D01*
X194096764Y-142291288D01*
X194036475Y-142182008D01*
X193993858Y-141917411D01*
X193970424Y-141504186D01*
X193967025Y-141324992D01*
X193962048Y-140773165D01*
X193962530Y-140368223D01*
X193970375Y-140087753D01*
X193987487Y-139909345D01*
X194015768Y-139810587D01*
X194057122Y-139769067D01*
X194099760Y-139762000D01*
X194150020Y-139786706D01*
X194185029Y-139876779D01*
X194207250Y-140056150D01*
X194219146Y-140348749D01*
X194223180Y-140778507D01*
X194223197Y-140961183D01*
X195023001Y-140961183D01*
X195020317Y-140742373D01*
X195008129Y-140347416D01*
X194988966Y-140002372D01*
X194963031Y-139743750D01*
X194955607Y-139697396D01*
X194884231Y-139443424D01*
X194758236Y-139284578D01*
X194543595Y-139200470D01*
X194206282Y-139170711D01*
X194074280Y-139169333D01*
X193708039Y-139192541D01*
G36*
X186489015Y-139132021D02*
G01*
X186047560Y-139149606D01*
X185744824Y-139184304D01*
X185550305Y-139247045D01*
X185433500Y-139348762D01*
X185363909Y-139500384D01*
X185352514Y-139539313D01*
X185302424Y-139844408D01*
X185296999Y-140187556D01*
X185331092Y-140516068D01*
X185399557Y-140777255D01*
X185486523Y-140911371D01*
X185586997Y-141003894D01*
X185551057Y-141080673D01*
X185477221Y-141138492D01*
X185397239Y-141226649D01*
X185346493Y-141371881D01*
X185317306Y-141611397D01*
X185302005Y-141982406D01*
X185301853Y-141988714D01*
X185299161Y-142327702D01*
X185307119Y-142600948D01*
X185324062Y-142765076D01*
X185332632Y-142789986D01*
X185440748Y-142832571D01*
X185650119Y-142854588D01*
X185719667Y-142855490D01*
X186058334Y-142852982D01*
X186100667Y-142139715D01*
X186133521Y-141772877D01*
X186179608Y-141516369D01*
X186233714Y-141397907D01*
X186240967Y-141394124D01*
X186292186Y-141434672D01*
X186318731Y-141608832D01*
X186322460Y-141931856D01*
X186319913Y-142042395D01*
X186316634Y-142368391D01*
X186324873Y-142627395D01*
X186342873Y-142774209D01*
X186348947Y-142788442D01*
X186456313Y-142829863D01*
X186667774Y-142855175D01*
X186756834Y-142858198D01*
X186982490Y-142853523D01*
X187086746Y-142806166D01*
X187117502Y-142676983D01*
X187120389Y-142561085D01*
X187122241Y-142321577D01*
X187123662Y-141962771D01*
X187124639Y-141523568D01*
X187125157Y-141042866D01*
X187125201Y-140559565D01*
X187124873Y-140228604D01*
X186320847Y-140228604D01*
X186299861Y-140521884D01*
X186252359Y-140653608D01*
X186194572Y-140626072D01*
X186142728Y-140441570D01*
X186117409Y-140199845D01*
X186114075Y-139926780D01*
X186149114Y-139791068D01*
X186207776Y-139762000D01*
X186279317Y-139815772D01*
X186314611Y-139993487D01*
X186320847Y-140228604D01*
X187124873Y-140228604D01*
X187124757Y-140112564D01*
X187123810Y-139740761D01*
X187122346Y-139483057D01*
X187121573Y-139418210D01*
X187116667Y-139116753D01*
X186489015Y-139132021D01*
X186489015Y-139132021D01*
G37*
X186489015Y-139132021D02*
X186047560Y-139149606D01*
X185744824Y-139184304D01*
X185550305Y-139247045D01*
X185433500Y-139348762D01*
X185363909Y-139500384D01*
X185352514Y-139539313D01*
X185302424Y-139844408D01*
X185296999Y-140187556D01*
X185331092Y-140516068D01*
X185399557Y-140777255D01*
X185486523Y-140911371D01*
X185586997Y-141003894D01*
X185551057Y-141080673D01*
X185477221Y-141138492D01*
X185397239Y-141226649D01*
X185346493Y-141371881D01*
X185317306Y-141611397D01*
X185302005Y-141982406D01*
X185301853Y-141988714D01*
X185299161Y-142327702D01*
X185307119Y-142600948D01*
X185324062Y-142765076D01*
X185332632Y-142789986D01*
X185440748Y-142832571D01*
X185650119Y-142854588D01*
X185719667Y-142855490D01*
X186058334Y-142852982D01*
X186100667Y-142139715D01*
X186133521Y-141772877D01*
X186179608Y-141516369D01*
X186233714Y-141397907D01*
X186240967Y-141394124D01*
X186292186Y-141434672D01*
X186318731Y-141608832D01*
X186322460Y-141931856D01*
X186319913Y-142042395D01*
X186316634Y-142368391D01*
X186324873Y-142627395D01*
X186342873Y-142774209D01*
X186348947Y-142788442D01*
X186456313Y-142829863D01*
X186667774Y-142855175D01*
X186756834Y-142858198D01*
X186982490Y-142853523D01*
X187086746Y-142806166D01*
X187117502Y-142676983D01*
X187120389Y-142561085D01*
X187122241Y-142321577D01*
X187123662Y-141962771D01*
X187124639Y-141523568D01*
X187125157Y-141042866D01*
X187125201Y-140559565D01*
X187124873Y-140228604D01*
X186320847Y-140228604D01*
X186299861Y-140521884D01*
X186252359Y-140653608D01*
X186194572Y-140626072D01*
X186142728Y-140441570D01*
X186117409Y-140199845D01*
X186114075Y-139926780D01*
X186149114Y-139791068D01*
X186207776Y-139762000D01*
X186279317Y-139815772D01*
X186314611Y-139993487D01*
X186320847Y-140228604D01*
X187124873Y-140228604D01*
X187124757Y-140112564D01*
X187123810Y-139740761D01*
X187122346Y-139483057D01*
X187121573Y-139418210D01*
X187116667Y-139116753D01*
X186489015Y-139132021D01*
G36*
X187688120Y-139143532D02*
G01*
X187576525Y-139178814D01*
X187575759Y-139179972D01*
X187557634Y-139264458D01*
X187544118Y-139459271D01*
X187535011Y-139775932D01*
X187530115Y-140225961D01*
X187529230Y-140820879D01*
X187532159Y-141572204D01*
X187532750Y-141672292D01*
X187540000Y-142862917D01*
X187921000Y-142862917D01*
X188150796Y-142844952D01*
X188292089Y-142799526D01*
X188312149Y-142772958D01*
X188326342Y-142556956D01*
X188335248Y-142229795D01*
X188339297Y-141821193D01*
X188338923Y-141360871D01*
X188334557Y-140878547D01*
X188326630Y-140403940D01*
X188315574Y-139966770D01*
X188301821Y-139596757D01*
X188285803Y-139323618D01*
X188267952Y-139177075D01*
X188259667Y-139160362D01*
X187928349Y-139137023D01*
X187688120Y-139143532D01*
X187688120Y-139143532D01*
G37*
X187688120Y-139143532D02*
X187576525Y-139178814D01*
X187575759Y-139179972D01*
X187557634Y-139264458D01*
X187544118Y-139459271D01*
X187535011Y-139775932D01*
X187530115Y-140225961D01*
X187529230Y-140820879D01*
X187532159Y-141572204D01*
X187532750Y-141672292D01*
X187540000Y-142862917D01*
X187921000Y-142862917D01*
X188150796Y-142844952D01*
X188292089Y-142799526D01*
X188312149Y-142772958D01*
X188326342Y-142556956D01*
X188335248Y-142229795D01*
X188339297Y-141821193D01*
X188338923Y-141360871D01*
X188334557Y-140878547D01*
X188326630Y-140403940D01*
X188315574Y-139966770D01*
X188301821Y-139596757D01*
X188285803Y-139323618D01*
X188267952Y-139177075D01*
X188259667Y-139160362D01*
X187928349Y-139137023D01*
X187688120Y-139143532D01*
G36*
X189355966Y-139130315D02*
G01*
X189205897Y-139157803D01*
X189146142Y-139223031D01*
X189138084Y-139270420D01*
X189121397Y-139434926D01*
X189112568Y-139486833D01*
X189094610Y-139599097D01*
X189063224Y-139825712D01*
X189032832Y-140058333D01*
X188992270Y-140371803D01*
X188955771Y-140646320D01*
X188937546Y-140778000D01*
X188908626Y-140992572D01*
X188872120Y-141280632D01*
X188858532Y-141391833D01*
X188794601Y-141910933D01*
X188740482Y-142328976D01*
X188699517Y-142620702D01*
X188681268Y-142731994D01*
X188698972Y-142814648D01*
X188816523Y-142853062D01*
X189053377Y-142859461D01*
X189293767Y-142849269D01*
X189408771Y-142808914D01*
X189442335Y-142708869D01*
X189441332Y-142598800D01*
X189452388Y-142320183D01*
X189521654Y-142174901D01*
X189663707Y-142132671D01*
X189665726Y-142132667D01*
X189771283Y-142164536D01*
X189817743Y-142288701D01*
X189826000Y-142471333D01*
X189840149Y-142685280D01*
X189875475Y-142806666D01*
X189889500Y-142816478D01*
X190023681Y-142833734D01*
X190080000Y-142841869D01*
X190264749Y-142843905D01*
X190401700Y-142828952D01*
X190527194Y-142788320D01*
X190567087Y-142688317D01*
X190545478Y-142486061D01*
X190502876Y-142193801D01*
X190461722Y-141863149D01*
X190454124Y-141794000D01*
X190419977Y-141506902D01*
X190384202Y-141256303D01*
X190374808Y-141201333D01*
X190365067Y-141137331D01*
X189722316Y-141137331D01*
X189719843Y-141349140D01*
X189704642Y-141428829D01*
X189631056Y-141515677D01*
X189560179Y-141469435D01*
X189527568Y-141323129D01*
X189530322Y-141266919D01*
X189547814Y-141043653D01*
X189561195Y-140785055D01*
X189580421Y-140606779D01*
X189613837Y-140540524D01*
X189620713Y-140544490D01*
X189666153Y-140665486D01*
X189702221Y-140886274D01*
X189722316Y-141137331D01*
X190365067Y-141137331D01*
X190344156Y-140999940D01*
X190306626Y-140706794D01*
X190282039Y-140491815D01*
X190266724Y-140354667D01*
X189656667Y-140354667D01*
X189625689Y-140424357D01*
X189600223Y-140411111D01*
X189590090Y-140310631D01*
X189600223Y-140298222D01*
X189650557Y-140309844D01*
X189656667Y-140354667D01*
X190266724Y-140354667D01*
X190240790Y-140122443D01*
X190196088Y-139739326D01*
X190175244Y-139567699D01*
X190122334Y-139141436D01*
X189635500Y-139129472D01*
X189355966Y-139130315D01*
X189355966Y-139130315D01*
G37*
X189355966Y-139130315D02*
X189205897Y-139157803D01*
X189146142Y-139223031D01*
X189138084Y-139270420D01*
X189121397Y-139434926D01*
X189112568Y-139486833D01*
X189094610Y-139599097D01*
X189063224Y-139825712D01*
X189032832Y-140058333D01*
X188992270Y-140371803D01*
X188955771Y-140646320D01*
X188937546Y-140778000D01*
X188908626Y-140992572D01*
X188872120Y-141280632D01*
X188858532Y-141391833D01*
X188794601Y-141910933D01*
X188740482Y-142328976D01*
X188699517Y-142620702D01*
X188681268Y-142731994D01*
X188698972Y-142814648D01*
X188816523Y-142853062D01*
X189053377Y-142859461D01*
X189293767Y-142849269D01*
X189408771Y-142808914D01*
X189442335Y-142708869D01*
X189441332Y-142598800D01*
X189452388Y-142320183D01*
X189521654Y-142174901D01*
X189663707Y-142132671D01*
X189665726Y-142132667D01*
X189771283Y-142164536D01*
X189817743Y-142288701D01*
X189826000Y-142471333D01*
X189840149Y-142685280D01*
X189875475Y-142806666D01*
X189889500Y-142816478D01*
X190023681Y-142833734D01*
X190080000Y-142841869D01*
X190264749Y-142843905D01*
X190401700Y-142828952D01*
X190527194Y-142788320D01*
X190567087Y-142688317D01*
X190545478Y-142486061D01*
X190502876Y-142193801D01*
X190461722Y-141863149D01*
X190454124Y-141794000D01*
X190419977Y-141506902D01*
X190384202Y-141256303D01*
X190374808Y-141201333D01*
X190365067Y-141137331D01*
X189722316Y-141137331D01*
X189719843Y-141349140D01*
X189704642Y-141428829D01*
X189631056Y-141515677D01*
X189560179Y-141469435D01*
X189527568Y-141323129D01*
X189530322Y-141266919D01*
X189547814Y-141043653D01*
X189561195Y-140785055D01*
X189580421Y-140606779D01*
X189613837Y-140540524D01*
X189620713Y-140544490D01*
X189666153Y-140665486D01*
X189702221Y-140886274D01*
X189722316Y-141137331D01*
X190365067Y-141137331D01*
X190344156Y-140999940D01*
X190306626Y-140706794D01*
X190282039Y-140491815D01*
X190266724Y-140354667D01*
X189656667Y-140354667D01*
X189625689Y-140424357D01*
X189600223Y-140411111D01*
X189590090Y-140310631D01*
X189600223Y-140298222D01*
X189650557Y-140309844D01*
X189656667Y-140354667D01*
X190266724Y-140354667D01*
X190240790Y-140122443D01*
X190196088Y-139739326D01*
X190175244Y-139567699D01*
X190122334Y-139141436D01*
X189635500Y-139129472D01*
X189355966Y-139130315D01*
G36*
X185327923Y-143513468D02*
G01*
X185193935Y-143625055D01*
X185188525Y-143635500D01*
X185150655Y-143797862D01*
X185127063Y-144063393D01*
X185122730Y-144291667D01*
X185130578Y-144573359D01*
X185157280Y-144725447D01*
X185219560Y-144787644D01*
X185334137Y-144799665D01*
X185336619Y-144799667D01*
X185454683Y-144787430D01*
X185517272Y-144723512D01*
X185542334Y-144567103D01*
X185547601Y-144319896D01*
X185559542Y-144046651D01*
X185587475Y-143845443D01*
X185613834Y-143776619D01*
X185645468Y-143820510D01*
X185668216Y-143996156D01*
X185677321Y-144266029D01*
X185677334Y-144277555D01*
X185681367Y-144578466D01*
X185702110Y-144747710D01*
X185752525Y-144822913D01*
X185845576Y-144841701D01*
X185871806Y-144842000D01*
X185995413Y-144821119D01*
X186053810Y-144728022D01*
X186072587Y-144517031D01*
X186073382Y-144482167D01*
X186082910Y-144114252D01*
X186096033Y-143889289D01*
X186116112Y-143780897D01*
X186146504Y-143762694D01*
X186163309Y-143775752D01*
X186197727Y-143888906D01*
X186220844Y-144115161D01*
X186226809Y-144319030D01*
X186233098Y-144592419D01*
X186262772Y-144739578D01*
X186333922Y-144803529D01*
X186439334Y-144824461D01*
X186554131Y-144829697D01*
X186615922Y-144786496D01*
X186638968Y-144657817D01*
X186637525Y-144406621D01*
X186634892Y-144316461D01*
X186625560Y-144010819D01*
X186617700Y-143758732D01*
X186613726Y-143636109D01*
X186576019Y-143541443D01*
X186444342Y-143502033D01*
X186248834Y-143499856D01*
X186001320Y-143524047D01*
X185821505Y-143570686D01*
X185790705Y-143588025D01*
X185672704Y-143610885D01*
X185637541Y-143576111D01*
X185503664Y-143493467D01*
X185327923Y-143513468D01*
X185327923Y-143513468D01*
G37*
X185327923Y-143513468D02*
X185193935Y-143625055D01*
X185188525Y-143635500D01*
X185150655Y-143797862D01*
X185127063Y-144063393D01*
X185122730Y-144291667D01*
X185130578Y-144573359D01*
X185157280Y-144725447D01*
X185219560Y-144787644D01*
X185334137Y-144799665D01*
X185336619Y-144799667D01*
X185454683Y-144787430D01*
X185517272Y-144723512D01*
X185542334Y-144567103D01*
X185547601Y-144319896D01*
X185559542Y-144046651D01*
X185587475Y-143845443D01*
X185613834Y-143776619D01*
X185645468Y-143820510D01*
X185668216Y-143996156D01*
X185677321Y-144266029D01*
X185677334Y-144277555D01*
X185681367Y-144578466D01*
X185702110Y-144747710D01*
X185752525Y-144822913D01*
X185845576Y-144841701D01*
X185871806Y-144842000D01*
X185995413Y-144821119D01*
X186053810Y-144728022D01*
X186072587Y-144517031D01*
X186073382Y-144482167D01*
X186082910Y-144114252D01*
X186096033Y-143889289D01*
X186116112Y-143780897D01*
X186146504Y-143762694D01*
X186163309Y-143775752D01*
X186197727Y-143888906D01*
X186220844Y-144115161D01*
X186226809Y-144319030D01*
X186233098Y-144592419D01*
X186262772Y-144739578D01*
X186333922Y-144803529D01*
X186439334Y-144824461D01*
X186554131Y-144829697D01*
X186615922Y-144786496D01*
X186638968Y-144657817D01*
X186637525Y-144406621D01*
X186634892Y-144316461D01*
X186625560Y-144010819D01*
X186617700Y-143758732D01*
X186613726Y-143636109D01*
X186576019Y-143541443D01*
X186444342Y-143502033D01*
X186248834Y-143499856D01*
X186001320Y-143524047D01*
X185821505Y-143570686D01*
X185790705Y-143588025D01*
X185672704Y-143610885D01*
X185637541Y-143576111D01*
X185503664Y-143493467D01*
X185327923Y-143513468D01*
G36*
X186941768Y-143574979D02*
G01*
X186837869Y-143714324D01*
X186780373Y-143956739D01*
X186770910Y-144241988D01*
X186811114Y-144509834D01*
X186902616Y-144700038D01*
X186911048Y-144708952D01*
X187110491Y-144815066D01*
X187356595Y-144834172D01*
X187568891Y-144765286D01*
X187622448Y-144717674D01*
X187687058Y-144547540D01*
X187717061Y-144280741D01*
X187713949Y-144072324D01*
X187304045Y-144072324D01*
X187303695Y-144299028D01*
X187285779Y-144490856D01*
X187250779Y-144585908D01*
X187243667Y-144588000D01*
X187219847Y-144511661D01*
X187204491Y-144315880D01*
X187201334Y-144150555D01*
X187209651Y-143915302D01*
X187231030Y-143777870D01*
X187250113Y-143761890D01*
X187286345Y-143872645D01*
X187304045Y-144072324D01*
X187713949Y-144072324D01*
X187712664Y-143986323D01*
X187674077Y-143733338D01*
X187619096Y-143607621D01*
X187439038Y-143507796D01*
X187185222Y-143498030D01*
X186941768Y-143574979D01*
X186941768Y-143574979D01*
G37*
X186941768Y-143574979D02*
X186837869Y-143714324D01*
X186780373Y-143956739D01*
X186770910Y-144241988D01*
X186811114Y-144509834D01*
X186902616Y-144700038D01*
X186911048Y-144708952D01*
X187110491Y-144815066D01*
X187356595Y-144834172D01*
X187568891Y-144765286D01*
X187622448Y-144717674D01*
X187687058Y-144547540D01*
X187717061Y-144280741D01*
X187713949Y-144072324D01*
X187304045Y-144072324D01*
X187303695Y-144299028D01*
X187285779Y-144490856D01*
X187250779Y-144585908D01*
X187243667Y-144588000D01*
X187219847Y-144511661D01*
X187204491Y-144315880D01*
X187201334Y-144150555D01*
X187209651Y-143915302D01*
X187231030Y-143777870D01*
X187250113Y-143761890D01*
X187286345Y-143872645D01*
X187304045Y-144072324D01*
X187713949Y-144072324D01*
X187712664Y-143986323D01*
X187674077Y-143733338D01*
X187619096Y-143607621D01*
X187439038Y-143507796D01*
X187185222Y-143498030D01*
X186941768Y-143574979D01*
G36*
X188077802Y-143558870D02*
G01*
X187921594Y-143687074D01*
X187878667Y-143828979D01*
X187935395Y-143963093D01*
X188068157Y-143987825D01*
X188220821Y-143899653D01*
X188260453Y-143852940D01*
X188323534Y-143791015D01*
X188356783Y-143844327D01*
X188370829Y-144036967D01*
X188372530Y-144106940D01*
X188361600Y-144339339D01*
X188324840Y-144481973D01*
X188298910Y-144503333D01*
X188226522Y-144434710D01*
X188217334Y-144376333D01*
X188157668Y-144273481D01*
X188028225Y-144255142D01*
X187903341Y-144316916D01*
X187859913Y-144397500D01*
X187893552Y-144586186D01*
X188045433Y-144734823D01*
X188265257Y-144819747D01*
X188502729Y-144817294D01*
X188635422Y-144762367D01*
X188714702Y-144630447D01*
X188764970Y-144393277D01*
X188782553Y-144113033D01*
X188763779Y-143851890D01*
X188704975Y-143672025D01*
X188700218Y-143665340D01*
X188522384Y-143536994D01*
X188296488Y-143505174D01*
X188077802Y-143558870D01*
X188077802Y-143558870D01*
G37*
X188077802Y-143558870D02*
X187921594Y-143687074D01*
X187878667Y-143828979D01*
X187935395Y-143963093D01*
X188068157Y-143987825D01*
X188220821Y-143899653D01*
X188260453Y-143852940D01*
X188323534Y-143791015D01*
X188356783Y-143844327D01*
X188370829Y-144036967D01*
X188372530Y-144106940D01*
X188361600Y-144339339D01*
X188324840Y-144481973D01*
X188298910Y-144503333D01*
X188226522Y-144434710D01*
X188217334Y-144376333D01*
X188157668Y-144273481D01*
X188028225Y-144255142D01*
X187903341Y-144316916D01*
X187859913Y-144397500D01*
X187893552Y-144586186D01*
X188045433Y-144734823D01*
X188265257Y-144819747D01*
X188502729Y-144817294D01*
X188635422Y-144762367D01*
X188714702Y-144630447D01*
X188764970Y-144393277D01*
X188782553Y-144113033D01*
X188763779Y-143851890D01*
X188704975Y-143672025D01*
X188700218Y-143665340D01*
X188522384Y-143536994D01*
X188296488Y-143505174D01*
X188077802Y-143558870D01*
G36*
X188913868Y-144579564D02*
G01*
X188894667Y-144666458D01*
X188952542Y-144813259D01*
X189056509Y-144842000D01*
X189184310Y-144787326D01*
X189196677Y-144693833D01*
X189125205Y-144556307D01*
X189008855Y-144516216D01*
X188913868Y-144579564D01*
X188913868Y-144579564D01*
G37*
X188913868Y-144579564D02*
X188894667Y-144666458D01*
X188952542Y-144813259D01*
X189056509Y-144842000D01*
X189184310Y-144787326D01*
X189196677Y-144693833D01*
X189125205Y-144556307D01*
X189008855Y-144516216D01*
X188913868Y-144579564D01*
G36*
X183208439Y-132556099D02*
G01*
X183062922Y-132660114D01*
X182864983Y-132839471D01*
X182805780Y-132951694D01*
X182883334Y-132988667D01*
X183000137Y-133043315D01*
X183137334Y-133158000D01*
X183247559Y-133322972D01*
X183298493Y-133564453D01*
X183306667Y-133788596D01*
X183306667Y-134249858D01*
X183058748Y-134163433D01*
X182909687Y-134141031D01*
X182604983Y-134120574D01*
X182158318Y-134102449D01*
X181583377Y-134087045D01*
X180893842Y-134074748D01*
X180103396Y-134065948D01*
X179481582Y-134062004D01*
X176152334Y-134047000D01*
X176126528Y-133644833D01*
X176127125Y-133402704D01*
X176160101Y-133261409D01*
X176185666Y-133242666D01*
X176298947Y-133189652D01*
X176467766Y-133059245D01*
X176499002Y-133031000D01*
X176549121Y-132978890D01*
X176363420Y-132978890D01*
X176307556Y-133101555D01*
X176202277Y-133140580D01*
X176038393Y-133157564D01*
X175897499Y-133148706D01*
X175856000Y-133122591D01*
X175829796Y-133022614D01*
X175808798Y-132964175D01*
X175818439Y-132797982D01*
X175938518Y-132669967D01*
X176110346Y-132626726D01*
X176200547Y-132653147D01*
X176330257Y-132794292D01*
X176363420Y-132978890D01*
X176549121Y-132978890D01*
X176633922Y-132890723D01*
X176641692Y-132828521D01*
X176585373Y-132819333D01*
X176436364Y-132755131D01*
X176395855Y-132695556D01*
X176263197Y-132549562D01*
X176062263Y-132515869D01*
X175859771Y-132604547D01*
X175849933Y-132613158D01*
X175705126Y-132825266D01*
X175729163Y-133041605D01*
X175856000Y-133200333D01*
X175974653Y-133373092D01*
X176022414Y-133637749D01*
X176025334Y-133756883D01*
X176012578Y-134013621D01*
X175952741Y-134168876D01*
X175813463Y-134289859D01*
X175748919Y-134331023D01*
X175364265Y-134664819D01*
X175083723Y-135113995D01*
X175023925Y-135266134D01*
X174996000Y-135434076D01*
X174972425Y-135747401D01*
X174953189Y-136182214D01*
X174938279Y-136714620D01*
X174927684Y-137320726D01*
X174921393Y-137976636D01*
X174919394Y-138658456D01*
X174921675Y-139342292D01*
X174928225Y-140004248D01*
X174939033Y-140620432D01*
X174954086Y-141166947D01*
X174973373Y-141619900D01*
X174996883Y-141955395D01*
X175024604Y-142149540D01*
X175027261Y-142159115D01*
X175154951Y-142436261D01*
X175350293Y-142715424D01*
X175420530Y-142792218D01*
X175647271Y-142997434D01*
X175875348Y-143144362D01*
X176138550Y-143241937D01*
X176470670Y-143299093D01*
X176905500Y-143324764D01*
X177447352Y-143328107D01*
X178577499Y-143320119D01*
X181471250Y-144505308D01*
X182134834Y-144777712D01*
X182752766Y-145032566D01*
X183306581Y-145262163D01*
X183777811Y-145458798D01*
X184147991Y-145614764D01*
X184398654Y-145722354D01*
X184511334Y-145773863D01*
X184512018Y-145774249D01*
X184651692Y-145843535D01*
X184700058Y-145858000D01*
X184666932Y-145793901D01*
X184548767Y-145616939D01*
X184361590Y-145350121D01*
X184121427Y-145016451D01*
X183960373Y-144796193D01*
X183678093Y-144410418D01*
X183421069Y-144055738D01*
X183211002Y-143762349D01*
X183069592Y-143560451D01*
X183032591Y-143505086D01*
X182940001Y-143344394D01*
X182959294Y-143263083D01*
X183110250Y-143198436D01*
X183131644Y-143191060D01*
X183459326Y-143012604D01*
X183779132Y-142728169D01*
X184030249Y-142392619D01*
X184044095Y-142367881D01*
X184082263Y-142286521D01*
X184113477Y-142184675D01*
X184138428Y-142045661D01*
X184157805Y-141852798D01*
X184170082Y-141629663D01*
X179827249Y-141629663D01*
X179690062Y-141667759D01*
X179648876Y-141656417D01*
X179586046Y-141678899D01*
X179581334Y-141711388D01*
X179508239Y-141770342D01*
X179316897Y-141780270D01*
X179049224Y-141747113D01*
X178747135Y-141676817D01*
X178452547Y-141575323D01*
X178372555Y-141539988D01*
X178102961Y-141397982D01*
X177988732Y-141306438D01*
X178026774Y-141275896D01*
X178213992Y-141316898D01*
X178417167Y-141388038D01*
X178898426Y-141515145D01*
X179399873Y-141559821D01*
X179666007Y-141569827D01*
X179816452Y-141595280D01*
X179827249Y-141629663D01*
X184170082Y-141629663D01*
X184172298Y-141589402D01*
X184182598Y-141238791D01*
X184189395Y-140784283D01*
X184193378Y-140209197D01*
X184195238Y-139496849D01*
X184195667Y-138703667D01*
X184195667Y-137884774D01*
X184123605Y-137884774D01*
X184108393Y-138010482D01*
X184062915Y-138022778D01*
X183997824Y-137907191D01*
X183984000Y-137801299D01*
X183955156Y-137646195D01*
X183814667Y-137646195D01*
X183788353Y-137829389D01*
X183719809Y-138092611D01*
X183624635Y-138391747D01*
X183518429Y-138682681D01*
X183416789Y-138921299D01*
X183335315Y-139063484D01*
X183306036Y-139084667D01*
X183237704Y-139155943D01*
X183190857Y-139281894D01*
X183090875Y-139478947D01*
X182889504Y-139743624D01*
X182620373Y-140041348D01*
X182317111Y-140337546D01*
X182013344Y-140597642D01*
X181742702Y-140787061D01*
X181707536Y-140806971D01*
X181034394Y-141080074D01*
X180285181Y-141216260D01*
X179486006Y-141213645D01*
X178662976Y-141070343D01*
X178536641Y-141035901D01*
X178179633Y-140917772D01*
X177831393Y-140776479D01*
X177603062Y-140662154D01*
X177037947Y-140238279D01*
X176550478Y-139687746D01*
X176164840Y-139044568D01*
X175905216Y-138342756D01*
X175879433Y-138238000D01*
X175794487Y-137777385D01*
X175745222Y-137312180D01*
X175731799Y-136878984D01*
X175754381Y-136514392D01*
X175813133Y-136255004D01*
X175870182Y-136160734D01*
X175892808Y-136136334D01*
X175915076Y-136116200D01*
X175950080Y-136102172D01*
X176010913Y-136096094D01*
X176110670Y-136099806D01*
X176262444Y-136115152D01*
X176479330Y-136143974D01*
X176774421Y-136188113D01*
X177160812Y-136249411D01*
X177651596Y-136329712D01*
X178259867Y-136430856D01*
X178998719Y-136554687D01*
X179881247Y-136703045D01*
X180682000Y-136837687D01*
X181359424Y-136952100D01*
X181987576Y-137059246D01*
X182545911Y-137155539D01*
X183013883Y-137237395D01*
X183370946Y-137301226D01*
X183596556Y-137343447D01*
X183666500Y-137358580D01*
X183787616Y-137477655D01*
X183814667Y-137646195D01*
X183955156Y-137646195D01*
X183948269Y-137609164D01*
X183861059Y-137370173D01*
X183849256Y-137344639D01*
X183744002Y-137176091D01*
X183590475Y-137046921D01*
X183356755Y-136941740D01*
X183010925Y-136845163D01*
X182652951Y-136767945D01*
X182508032Y-136710278D01*
X182517792Y-136651776D01*
X182653389Y-136629333D01*
X183085119Y-136667737D01*
X183473729Y-136772401D01*
X183772322Y-136927506D01*
X183896497Y-137048683D01*
X183980951Y-137216867D01*
X184052126Y-137442553D01*
X184102263Y-137680326D01*
X184123605Y-137884774D01*
X184195667Y-137884774D01*
X184195667Y-135760452D01*
X177112174Y-135760452D01*
X177057126Y-135793498D01*
X176853559Y-135795913D01*
X176562497Y-135769224D01*
X176138019Y-135742541D01*
X175830990Y-135793435D01*
X175600735Y-135938904D01*
X175406575Y-136195946D01*
X175364213Y-136269975D01*
X175241800Y-136478665D01*
X175151715Y-136608306D01*
X175127011Y-136629333D01*
X175128339Y-136567916D01*
X175167339Y-136481167D01*
X175246105Y-136299526D01*
X175263334Y-136130287D01*
X175316557Y-136026384D01*
X175449886Y-135857098D01*
X175508970Y-135791620D01*
X175735568Y-135612435D01*
X176009137Y-135531635D01*
X176364796Y-135544459D01*
X176749842Y-135623384D01*
X177011985Y-135702004D01*
X177112174Y-135760452D01*
X184195667Y-135760452D01*
X184195667Y-135317000D01*
X183960177Y-134916390D01*
X183797424Y-134673601D01*
X183637242Y-134488367D01*
X183559988Y-134427636D01*
X183454684Y-134286913D01*
X183397860Y-134042538D01*
X183389038Y-133752962D01*
X183427744Y-133476637D01*
X183513502Y-133272014D01*
X183569838Y-133217290D01*
X183707959Y-133046463D01*
X183721583Y-132892868D01*
X183645334Y-132892868D01*
X183585780Y-133081557D01*
X183443204Y-133162393D01*
X183271731Y-133126842D01*
X183129593Y-132974202D01*
X183077100Y-132815776D01*
X183151654Y-132703394D01*
X183180643Y-132681150D01*
X183369435Y-132625174D01*
X183545025Y-132690716D01*
X183641341Y-132847672D01*
X183645334Y-132892868D01*
X183721583Y-132892868D01*
X183727307Y-132828341D01*
X183632618Y-132631474D01*
X183523904Y-132552466D01*
X183361391Y-132506927D01*
X183208439Y-132556099D01*
X183208439Y-132556099D01*
G37*
X183208439Y-132556099D02*
X183062922Y-132660114D01*
X182864983Y-132839471D01*
X182805780Y-132951694D01*
X182883334Y-132988667D01*
X183000137Y-133043315D01*
X183137334Y-133158000D01*
X183247559Y-133322972D01*
X183298493Y-133564453D01*
X183306667Y-133788596D01*
X183306667Y-134249858D01*
X183058748Y-134163433D01*
X182909687Y-134141031D01*
X182604983Y-134120574D01*
X182158318Y-134102449D01*
X181583377Y-134087045D01*
X180893842Y-134074748D01*
X180103396Y-134065948D01*
X179481582Y-134062004D01*
X176152334Y-134047000D01*
X176126528Y-133644833D01*
X176127125Y-133402704D01*
X176160101Y-133261409D01*
X176185666Y-133242666D01*
X176298947Y-133189652D01*
X176467766Y-133059245D01*
X176499002Y-133031000D01*
X176549121Y-132978890D01*
X176363420Y-132978890D01*
X176307556Y-133101555D01*
X176202277Y-133140580D01*
X176038393Y-133157564D01*
X175897499Y-133148706D01*
X175856000Y-133122591D01*
X175829796Y-133022614D01*
X175808798Y-132964175D01*
X175818439Y-132797982D01*
X175938518Y-132669967D01*
X176110346Y-132626726D01*
X176200547Y-132653147D01*
X176330257Y-132794292D01*
X176363420Y-132978890D01*
X176549121Y-132978890D01*
X176633922Y-132890723D01*
X176641692Y-132828521D01*
X176585373Y-132819333D01*
X176436364Y-132755131D01*
X176395855Y-132695556D01*
X176263197Y-132549562D01*
X176062263Y-132515869D01*
X175859771Y-132604547D01*
X175849933Y-132613158D01*
X175705126Y-132825266D01*
X175729163Y-133041605D01*
X175856000Y-133200333D01*
X175974653Y-133373092D01*
X176022414Y-133637749D01*
X176025334Y-133756883D01*
X176012578Y-134013621D01*
X175952741Y-134168876D01*
X175813463Y-134289859D01*
X175748919Y-134331023D01*
X175364265Y-134664819D01*
X175083723Y-135113995D01*
X175023925Y-135266134D01*
X174996000Y-135434076D01*
X174972425Y-135747401D01*
X174953189Y-136182214D01*
X174938279Y-136714620D01*
X174927684Y-137320726D01*
X174921393Y-137976636D01*
X174919394Y-138658456D01*
X174921675Y-139342292D01*
X174928225Y-140004248D01*
X174939033Y-140620432D01*
X174954086Y-141166947D01*
X174973373Y-141619900D01*
X174996883Y-141955395D01*
X175024604Y-142149540D01*
X175027261Y-142159115D01*
X175154951Y-142436261D01*
X175350293Y-142715424D01*
X175420530Y-142792218D01*
X175647271Y-142997434D01*
X175875348Y-143144362D01*
X176138550Y-143241937D01*
X176470670Y-143299093D01*
X176905500Y-143324764D01*
X177447352Y-143328107D01*
X178577499Y-143320119D01*
X181471250Y-144505308D01*
X182134834Y-144777712D01*
X182752766Y-145032566D01*
X183306581Y-145262163D01*
X183777811Y-145458798D01*
X184147991Y-145614764D01*
X184398654Y-145722354D01*
X184511334Y-145773863D01*
X184512018Y-145774249D01*
X184651692Y-145843535D01*
X184700058Y-145858000D01*
X184666932Y-145793901D01*
X184548767Y-145616939D01*
X184361590Y-145350121D01*
X184121427Y-145016451D01*
X183960373Y-144796193D01*
X183678093Y-144410418D01*
X183421069Y-144055738D01*
X183211002Y-143762349D01*
X183069592Y-143560451D01*
X183032591Y-143505086D01*
X182940001Y-143344394D01*
X182959294Y-143263083D01*
X183110250Y-143198436D01*
X183131644Y-143191060D01*
X183459326Y-143012604D01*
X183779132Y-142728169D01*
X184030249Y-142392619D01*
X184044095Y-142367881D01*
X184082263Y-142286521D01*
X184113477Y-142184675D01*
X184138428Y-142045661D01*
X184157805Y-141852798D01*
X184170082Y-141629663D01*
X179827249Y-141629663D01*
X179690062Y-141667759D01*
X179648876Y-141656417D01*
X179586046Y-141678899D01*
X179581334Y-141711388D01*
X179508239Y-141770342D01*
X179316897Y-141780270D01*
X179049224Y-141747113D01*
X178747135Y-141676817D01*
X178452547Y-141575323D01*
X178372555Y-141539988D01*
X178102961Y-141397982D01*
X177988732Y-141306438D01*
X178026774Y-141275896D01*
X178213992Y-141316898D01*
X178417167Y-141388038D01*
X178898426Y-141515145D01*
X179399873Y-141559821D01*
X179666007Y-141569827D01*
X179816452Y-141595280D01*
X179827249Y-141629663D01*
X184170082Y-141629663D01*
X184172298Y-141589402D01*
X184182598Y-141238791D01*
X184189395Y-140784283D01*
X184193378Y-140209197D01*
X184195238Y-139496849D01*
X184195667Y-138703667D01*
X184195667Y-137884774D01*
X184123605Y-137884774D01*
X184108393Y-138010482D01*
X184062915Y-138022778D01*
X183997824Y-137907191D01*
X183984000Y-137801299D01*
X183955156Y-137646195D01*
X183814667Y-137646195D01*
X183788353Y-137829389D01*
X183719809Y-138092611D01*
X183624635Y-138391747D01*
X183518429Y-138682681D01*
X183416789Y-138921299D01*
X183335315Y-139063484D01*
X183306036Y-139084667D01*
X183237704Y-139155943D01*
X183190857Y-139281894D01*
X183090875Y-139478947D01*
X182889504Y-139743624D01*
X182620373Y-140041348D01*
X182317111Y-140337546D01*
X182013344Y-140597642D01*
X181742702Y-140787061D01*
X181707536Y-140806971D01*
X181034394Y-141080074D01*
X180285181Y-141216260D01*
X179486006Y-141213645D01*
X178662976Y-141070343D01*
X178536641Y-141035901D01*
X178179633Y-140917772D01*
X177831393Y-140776479D01*
X177603062Y-140662154D01*
X177037947Y-140238279D01*
X176550478Y-139687746D01*
X176164840Y-139044568D01*
X175905216Y-138342756D01*
X175879433Y-138238000D01*
X175794487Y-137777385D01*
X175745222Y-137312180D01*
X175731799Y-136878984D01*
X175754381Y-136514392D01*
X175813133Y-136255004D01*
X175870182Y-136160734D01*
X175892808Y-136136334D01*
X175915076Y-136116200D01*
X175950080Y-136102172D01*
X176010913Y-136096094D01*
X176110670Y-136099806D01*
X176262444Y-136115152D01*
X176479330Y-136143974D01*
X176774421Y-136188113D01*
X177160812Y-136249411D01*
X177651596Y-136329712D01*
X178259867Y-136430856D01*
X178998719Y-136554687D01*
X179881247Y-136703045D01*
X180682000Y-136837687D01*
X181359424Y-136952100D01*
X181987576Y-137059246D01*
X182545911Y-137155539D01*
X183013883Y-137237395D01*
X183370946Y-137301226D01*
X183596556Y-137343447D01*
X183666500Y-137358580D01*
X183787616Y-137477655D01*
X183814667Y-137646195D01*
X183955156Y-137646195D01*
X183948269Y-137609164D01*
X183861059Y-137370173D01*
X183849256Y-137344639D01*
X183744002Y-137176091D01*
X183590475Y-137046921D01*
X183356755Y-136941740D01*
X183010925Y-136845163D01*
X182652951Y-136767945D01*
X182508032Y-136710278D01*
X182517792Y-136651776D01*
X182653389Y-136629333D01*
X183085119Y-136667737D01*
X183473729Y-136772401D01*
X183772322Y-136927506D01*
X183896497Y-137048683D01*
X183980951Y-137216867D01*
X184052126Y-137442553D01*
X184102263Y-137680326D01*
X184123605Y-137884774D01*
X184195667Y-137884774D01*
X184195667Y-135760452D01*
X177112174Y-135760452D01*
X177057126Y-135793498D01*
X176853559Y-135795913D01*
X176562497Y-135769224D01*
X176138019Y-135742541D01*
X175830990Y-135793435D01*
X175600735Y-135938904D01*
X175406575Y-136195946D01*
X175364213Y-136269975D01*
X175241800Y-136478665D01*
X175151715Y-136608306D01*
X175127011Y-136629333D01*
X175128339Y-136567916D01*
X175167339Y-136481167D01*
X175246105Y-136299526D01*
X175263334Y-136130287D01*
X175316557Y-136026384D01*
X175449886Y-135857098D01*
X175508970Y-135791620D01*
X175735568Y-135612435D01*
X176009137Y-135531635D01*
X176364796Y-135544459D01*
X176749842Y-135623384D01*
X177011985Y-135702004D01*
X177112174Y-135760452D01*
X184195667Y-135760452D01*
X184195667Y-135317000D01*
X183960177Y-134916390D01*
X183797424Y-134673601D01*
X183637242Y-134488367D01*
X183559988Y-134427636D01*
X183454684Y-134286913D01*
X183397860Y-134042538D01*
X183389038Y-133752962D01*
X183427744Y-133476637D01*
X183513502Y-133272014D01*
X183569838Y-133217290D01*
X183707959Y-133046463D01*
X183721583Y-132892868D01*
X183645334Y-132892868D01*
X183585780Y-133081557D01*
X183443204Y-133162393D01*
X183271731Y-133126842D01*
X183129593Y-132974202D01*
X183077100Y-132815776D01*
X183151654Y-132703394D01*
X183180643Y-132681150D01*
X183369435Y-132625174D01*
X183545025Y-132690716D01*
X183641341Y-132847672D01*
X183645334Y-132892868D01*
X183721583Y-132892868D01*
X183727307Y-132828341D01*
X183632618Y-132631474D01*
X183523904Y-132552466D01*
X183361391Y-132506927D01*
X183208439Y-132556099D01*
D11*
G36*
X91224549Y-149871116D02*
G01*
X91335734Y-149893232D01*
X91545203Y-149979997D01*
X91733720Y-150105960D01*
X91894040Y-150266280D01*
X92020003Y-150454797D01*
X92106768Y-150664266D01*
X92151000Y-150886636D01*
X92151000Y-151113364D01*
X92106768Y-151335734D01*
X92020003Y-151545203D01*
X91894040Y-151733720D01*
X91733720Y-151894040D01*
X91545203Y-152020003D01*
X91335734Y-152106768D01*
X91224549Y-152128884D01*
X91113365Y-152151000D01*
X90886635Y-152151000D01*
X90775451Y-152128884D01*
X90664266Y-152106768D01*
X90454797Y-152020003D01*
X90266280Y-151894040D01*
X90105960Y-151733720D01*
X89979997Y-151545203D01*
X89893232Y-151335734D01*
X89849000Y-151113364D01*
X89849000Y-150886636D01*
X89893232Y-150664266D01*
X89979997Y-150454797D01*
X90105960Y-150266280D01*
X90266280Y-150105960D01*
X90454797Y-149979997D01*
X90664266Y-149893232D01*
X90775451Y-149871116D01*
X90886635Y-149849000D01*
X91113365Y-149849000D01*
X91224549Y-149871116D01*
X91224549Y-149871116D01*
G37*
G36*
X197224549Y-149871116D02*
G01*
X197335734Y-149893232D01*
X197545203Y-149979997D01*
X197733720Y-150105960D01*
X197894040Y-150266280D01*
X198020003Y-150454797D01*
X198106768Y-150664266D01*
X198151000Y-150886636D01*
X198151000Y-151113364D01*
X198106768Y-151335734D01*
X198020003Y-151545203D01*
X197894040Y-151733720D01*
X197733720Y-151894040D01*
X197545203Y-152020003D01*
X197335734Y-152106768D01*
X197224549Y-152128884D01*
X197113365Y-152151000D01*
X196886635Y-152151000D01*
X196775451Y-152128884D01*
X196664266Y-152106768D01*
X196454797Y-152020003D01*
X196266280Y-151894040D01*
X196105960Y-151733720D01*
X195979997Y-151545203D01*
X195893232Y-151335734D01*
X195849000Y-151113364D01*
X195849000Y-150886636D01*
X195893232Y-150664266D01*
X195979997Y-150454797D01*
X196105960Y-150266280D01*
X196266280Y-150105960D01*
X196454797Y-149979997D01*
X196664266Y-149893232D01*
X196775451Y-149871116D01*
X196886635Y-149849000D01*
X197113365Y-149849000D01*
X197224549Y-149871116D01*
X197224549Y-149871116D01*
G37*
G36*
X122155993Y-147210203D02*
G01*
X122220411Y-147229744D01*
X122279781Y-147261478D01*
X122331817Y-147304183D01*
X122374522Y-147356219D01*
X122406256Y-147415589D01*
X122425797Y-147480007D01*
X122433000Y-147553140D01*
X122433000Y-151526860D01*
X122425797Y-151599993D01*
X122406256Y-151664411D01*
X122374522Y-151723781D01*
X122331817Y-151775817D01*
X122279781Y-151818522D01*
X122220411Y-151850256D01*
X122155993Y-151869797D01*
X122082860Y-151877000D01*
X121157140Y-151877000D01*
X121084007Y-151869797D01*
X121019589Y-151850256D01*
X120960219Y-151818522D01*
X120908183Y-151775817D01*
X120865478Y-151723781D01*
X120833744Y-151664411D01*
X120814203Y-151599993D01*
X120807000Y-151526860D01*
X120807000Y-147553140D01*
X120814203Y-147480007D01*
X120833744Y-147415589D01*
X120865478Y-147356219D01*
X120908183Y-147304183D01*
X120960219Y-147261478D01*
X121019589Y-147229744D01*
X121084007Y-147210203D01*
X121157140Y-147203000D01*
X122082860Y-147203000D01*
X122155993Y-147210203D01*
X122155993Y-147210203D01*
G37*
G36*
X133585993Y-147210203D02*
G01*
X133650411Y-147229744D01*
X133709781Y-147261478D01*
X133761817Y-147304183D01*
X133804522Y-147356219D01*
X133836256Y-147415589D01*
X133855797Y-147480007D01*
X133863000Y-147553140D01*
X133863000Y-151526860D01*
X133855797Y-151599993D01*
X133836256Y-151664411D01*
X133804522Y-151723781D01*
X133761817Y-151775817D01*
X133709781Y-151818522D01*
X133650411Y-151850256D01*
X133585993Y-151869797D01*
X133512860Y-151877000D01*
X132587140Y-151877000D01*
X132514007Y-151869797D01*
X132449589Y-151850256D01*
X132390219Y-151818522D01*
X132338183Y-151775817D01*
X132295478Y-151723781D01*
X132263744Y-151664411D01*
X132244203Y-151599993D01*
X132237000Y-151526860D01*
X132237000Y-147553140D01*
X132244203Y-147480007D01*
X132263744Y-147415589D01*
X132295478Y-147356219D01*
X132338183Y-147304183D01*
X132390219Y-147261478D01*
X132449589Y-147229744D01*
X132514007Y-147210203D01*
X132587140Y-147203000D01*
X133512860Y-147203000D01*
X133585993Y-147210203D01*
X133585993Y-147210203D01*
G37*
G36*
X129775993Y-147210203D02*
G01*
X129840411Y-147229744D01*
X129899781Y-147261478D01*
X129951817Y-147304183D01*
X129994522Y-147356219D01*
X130026256Y-147415589D01*
X130045797Y-147480007D01*
X130053000Y-147553140D01*
X130053000Y-151526860D01*
X130045797Y-151599993D01*
X130026256Y-151664411D01*
X129994522Y-151723781D01*
X129951817Y-151775817D01*
X129899781Y-151818522D01*
X129840411Y-151850256D01*
X129775993Y-151869797D01*
X129702860Y-151877000D01*
X128777140Y-151877000D01*
X128704007Y-151869797D01*
X128639589Y-151850256D01*
X128580219Y-151818522D01*
X128528183Y-151775817D01*
X128485478Y-151723781D01*
X128453744Y-151664411D01*
X128434203Y-151599993D01*
X128427000Y-151526860D01*
X128427000Y-147553140D01*
X128434203Y-147480007D01*
X128453744Y-147415589D01*
X128485478Y-147356219D01*
X128528183Y-147304183D01*
X128580219Y-147261478D01*
X128639589Y-147229744D01*
X128704007Y-147210203D01*
X128777140Y-147203000D01*
X129702860Y-147203000D01*
X129775993Y-147210203D01*
X129775993Y-147210203D01*
G37*
G36*
X125965993Y-147210203D02*
G01*
X126030411Y-147229744D01*
X126089781Y-147261478D01*
X126141817Y-147304183D01*
X126184522Y-147356219D01*
X126216256Y-147415589D01*
X126235797Y-147480007D01*
X126243000Y-147553140D01*
X126243000Y-151526860D01*
X126235797Y-151599993D01*
X126216256Y-151664411D01*
X126184522Y-151723781D01*
X126141817Y-151775817D01*
X126089781Y-151818522D01*
X126030411Y-151850256D01*
X125965993Y-151869797D01*
X125892860Y-151877000D01*
X124967140Y-151877000D01*
X124894007Y-151869797D01*
X124829589Y-151850256D01*
X124770219Y-151818522D01*
X124718183Y-151775817D01*
X124675478Y-151723781D01*
X124643744Y-151664411D01*
X124624203Y-151599993D01*
X124617000Y-151526860D01*
X124617000Y-147553140D01*
X124624203Y-147480007D01*
X124643744Y-147415589D01*
X124675478Y-147356219D01*
X124718183Y-147304183D01*
X124770219Y-147261478D01*
X124829589Y-147229744D01*
X124894007Y-147210203D01*
X124967140Y-147203000D01*
X125892860Y-147203000D01*
X125965993Y-147210203D01*
X125965993Y-147210203D01*
G37*
G36*
X118345993Y-147210203D02*
G01*
X118410411Y-147229744D01*
X118469781Y-147261478D01*
X118521817Y-147304183D01*
X118564522Y-147356219D01*
X118596256Y-147415589D01*
X118615797Y-147480007D01*
X118623000Y-147553140D01*
X118623000Y-151526860D01*
X118615797Y-151599993D01*
X118596256Y-151664411D01*
X118564522Y-151723781D01*
X118521817Y-151775817D01*
X118469781Y-151818522D01*
X118410411Y-151850256D01*
X118345993Y-151869797D01*
X118272860Y-151877000D01*
X117347140Y-151877000D01*
X117274007Y-151869797D01*
X117209589Y-151850256D01*
X117150219Y-151818522D01*
X117098183Y-151775817D01*
X117055478Y-151723781D01*
X117023744Y-151664411D01*
X117004203Y-151599993D01*
X116997000Y-151526860D01*
X116997000Y-147553140D01*
X117004203Y-147480007D01*
X117023744Y-147415589D01*
X117055478Y-147356219D01*
X117098183Y-147304183D01*
X117150219Y-147261478D01*
X117209589Y-147229744D01*
X117274007Y-147210203D01*
X117347140Y-147203000D01*
X118272860Y-147203000D01*
X118345993Y-147210203D01*
X118345993Y-147210203D01*
G37*
G36*
X163725993Y-93130203D02*
G01*
X163790411Y-93149744D01*
X163849781Y-93181478D01*
X163901817Y-93224183D01*
X163944522Y-93276219D01*
X163976256Y-93335589D01*
X163995797Y-93400007D01*
X164003000Y-93473140D01*
X164003000Y-97446860D01*
X163995797Y-97519993D01*
X163976256Y-97584411D01*
X163944522Y-97643781D01*
X163901817Y-97695817D01*
X163849781Y-97738522D01*
X163790411Y-97770256D01*
X163725993Y-97789797D01*
X163652860Y-97797000D01*
X162727140Y-97797000D01*
X162654007Y-97789797D01*
X162589589Y-97770256D01*
X162530219Y-97738522D01*
X162478183Y-97695817D01*
X162435478Y-97643781D01*
X162403744Y-97584411D01*
X162384203Y-97519993D01*
X162377000Y-97446860D01*
X162377000Y-93473140D01*
X162384203Y-93400007D01*
X162403744Y-93335589D01*
X162435478Y-93276219D01*
X162478183Y-93224183D01*
X162530219Y-93181478D01*
X162589589Y-93149744D01*
X162654007Y-93130203D01*
X162727140Y-93123000D01*
X163652860Y-93123000D01*
X163725993Y-93130203D01*
X163725993Y-93130203D01*
G37*
G36*
X144675993Y-93130203D02*
G01*
X144740411Y-93149744D01*
X144799781Y-93181478D01*
X144851817Y-93224183D01*
X144894522Y-93276219D01*
X144926256Y-93335589D01*
X144945797Y-93400007D01*
X144953000Y-93473140D01*
X144953000Y-97446860D01*
X144945797Y-97519993D01*
X144926256Y-97584411D01*
X144894522Y-97643781D01*
X144851817Y-97695817D01*
X144799781Y-97738522D01*
X144740411Y-97770256D01*
X144675993Y-97789797D01*
X144602860Y-97797000D01*
X143677140Y-97797000D01*
X143604007Y-97789797D01*
X143539589Y-97770256D01*
X143480219Y-97738522D01*
X143428183Y-97695817D01*
X143385478Y-97643781D01*
X143353744Y-97584411D01*
X143334203Y-97519993D01*
X143327000Y-97446860D01*
X143327000Y-93473140D01*
X143334203Y-93400007D01*
X143353744Y-93335589D01*
X143385478Y-93276219D01*
X143428183Y-93224183D01*
X143480219Y-93181478D01*
X143539589Y-93149744D01*
X143604007Y-93130203D01*
X143677140Y-93123000D01*
X144602860Y-93123000D01*
X144675993Y-93130203D01*
X144675993Y-93130203D01*
G37*
G36*
X148485993Y-93130203D02*
G01*
X148550411Y-93149744D01*
X148609781Y-93181478D01*
X148661817Y-93224183D01*
X148704522Y-93276219D01*
X148736256Y-93335589D01*
X148755797Y-93400007D01*
X148763000Y-93473140D01*
X148763000Y-97446860D01*
X148755797Y-97519993D01*
X148736256Y-97584411D01*
X148704522Y-97643781D01*
X148661817Y-97695817D01*
X148609781Y-97738522D01*
X148550411Y-97770256D01*
X148485993Y-97789797D01*
X148412860Y-97797000D01*
X147487140Y-97797000D01*
X147414007Y-97789797D01*
X147349589Y-97770256D01*
X147290219Y-97738522D01*
X147238183Y-97695817D01*
X147195478Y-97643781D01*
X147163744Y-97584411D01*
X147144203Y-97519993D01*
X147137000Y-97446860D01*
X147137000Y-93473140D01*
X147144203Y-93400007D01*
X147163744Y-93335589D01*
X147195478Y-93276219D01*
X147238183Y-93224183D01*
X147290219Y-93181478D01*
X147349589Y-93149744D01*
X147414007Y-93130203D01*
X147487140Y-93123000D01*
X148412860Y-93123000D01*
X148485993Y-93130203D01*
X148485993Y-93130203D01*
G37*
G36*
X152295993Y-93130203D02*
G01*
X152360411Y-93149744D01*
X152419781Y-93181478D01*
X152471817Y-93224183D01*
X152514522Y-93276219D01*
X152546256Y-93335589D01*
X152565797Y-93400007D01*
X152573000Y-93473140D01*
X152573000Y-97446860D01*
X152565797Y-97519993D01*
X152546256Y-97584411D01*
X152514522Y-97643781D01*
X152471817Y-97695817D01*
X152419781Y-97738522D01*
X152360411Y-97770256D01*
X152295993Y-97789797D01*
X152222860Y-97797000D01*
X151297140Y-97797000D01*
X151224007Y-97789797D01*
X151159589Y-97770256D01*
X151100219Y-97738522D01*
X151048183Y-97695817D01*
X151005478Y-97643781D01*
X150973744Y-97584411D01*
X150954203Y-97519993D01*
X150947000Y-97446860D01*
X150947000Y-93473140D01*
X150954203Y-93400007D01*
X150973744Y-93335589D01*
X151005478Y-93276219D01*
X151048183Y-93224183D01*
X151100219Y-93181478D01*
X151159589Y-93149744D01*
X151224007Y-93130203D01*
X151297140Y-93123000D01*
X152222860Y-93123000D01*
X152295993Y-93130203D01*
X152295993Y-93130203D01*
G37*
G36*
X156105993Y-93130203D02*
G01*
X156170411Y-93149744D01*
X156229781Y-93181478D01*
X156281817Y-93224183D01*
X156324522Y-93276219D01*
X156356256Y-93335589D01*
X156375797Y-93400007D01*
X156383000Y-93473140D01*
X156383000Y-97446860D01*
X156375797Y-97519993D01*
X156356256Y-97584411D01*
X156324522Y-97643781D01*
X156281817Y-97695817D01*
X156229781Y-97738522D01*
X156170411Y-97770256D01*
X156105993Y-97789797D01*
X156032860Y-97797000D01*
X155107140Y-97797000D01*
X155034007Y-97789797D01*
X154969589Y-97770256D01*
X154910219Y-97738522D01*
X154858183Y-97695817D01*
X154815478Y-97643781D01*
X154783744Y-97584411D01*
X154764203Y-97519993D01*
X154757000Y-97446860D01*
X154757000Y-93473140D01*
X154764203Y-93400007D01*
X154783744Y-93335589D01*
X154815478Y-93276219D01*
X154858183Y-93224183D01*
X154910219Y-93181478D01*
X154969589Y-93149744D01*
X155034007Y-93130203D01*
X155107140Y-93123000D01*
X156032860Y-93123000D01*
X156105993Y-93130203D01*
X156105993Y-93130203D01*
G37*
G36*
X159915993Y-93130203D02*
G01*
X159980411Y-93149744D01*
X160039781Y-93181478D01*
X160091817Y-93224183D01*
X160134522Y-93276219D01*
X160166256Y-93335589D01*
X160185797Y-93400007D01*
X160193000Y-93473140D01*
X160193000Y-97446860D01*
X160185797Y-97519993D01*
X160166256Y-97584411D01*
X160134522Y-97643781D01*
X160091817Y-97695817D01*
X160039781Y-97738522D01*
X159980411Y-97770256D01*
X159915993Y-97789797D01*
X159842860Y-97797000D01*
X158917140Y-97797000D01*
X158844007Y-97789797D01*
X158779589Y-97770256D01*
X158720219Y-97738522D01*
X158668183Y-97695817D01*
X158625478Y-97643781D01*
X158593744Y-97584411D01*
X158574203Y-97519993D01*
X158567000Y-97446860D01*
X158567000Y-93473140D01*
X158574203Y-93400007D01*
X158593744Y-93335589D01*
X158625478Y-93276219D01*
X158668183Y-93224183D01*
X158720219Y-93181478D01*
X158779589Y-93149744D01*
X158844007Y-93130203D01*
X158917140Y-93123000D01*
X159842860Y-93123000D01*
X159915993Y-93130203D01*
X159915993Y-93130203D01*
G37*
G36*
X91224549Y-93871116D02*
G01*
X91335734Y-93893232D01*
X91545203Y-93979997D01*
X91733720Y-94105960D01*
X91894040Y-94266280D01*
X92020003Y-94454797D01*
X92106768Y-94664266D01*
X92151000Y-94886636D01*
X92151000Y-95113364D01*
X92106768Y-95335734D01*
X92020003Y-95545203D01*
X91894040Y-95733720D01*
X91733720Y-95894040D01*
X91545203Y-96020003D01*
X91335734Y-96106768D01*
X91224549Y-96128884D01*
X91113365Y-96151000D01*
X90886635Y-96151000D01*
X90775451Y-96128884D01*
X90664266Y-96106768D01*
X90454797Y-96020003D01*
X90266280Y-95894040D01*
X90105960Y-95733720D01*
X89979997Y-95545203D01*
X89893232Y-95335734D01*
X89849000Y-95113364D01*
X89849000Y-94886636D01*
X89893232Y-94664266D01*
X89979997Y-94454797D01*
X90105960Y-94266280D01*
X90266280Y-94105960D01*
X90454797Y-93979997D01*
X90664266Y-93893232D01*
X90775451Y-93871116D01*
X90886635Y-93849000D01*
X91113365Y-93849000D01*
X91224549Y-93871116D01*
X91224549Y-93871116D01*
G37*
G36*
X197224549Y-93871116D02*
G01*
X197335734Y-93893232D01*
X197545203Y-93979997D01*
X197733720Y-94105960D01*
X197894040Y-94266280D01*
X198020003Y-94454797D01*
X198106768Y-94664266D01*
X198151000Y-94886636D01*
X198151000Y-95113364D01*
X198106768Y-95335734D01*
X198020003Y-95545203D01*
X197894040Y-95733720D01*
X197733720Y-95894040D01*
X197545203Y-96020003D01*
X197335734Y-96106768D01*
X197224549Y-96128884D01*
X197113365Y-96151000D01*
X196886635Y-96151000D01*
X196775451Y-96128884D01*
X196664266Y-96106768D01*
X196454797Y-96020003D01*
X196266280Y-95894040D01*
X196105960Y-95733720D01*
X195979997Y-95545203D01*
X195893232Y-95335734D01*
X195849000Y-95113364D01*
X195849000Y-94886636D01*
X195893232Y-94664266D01*
X195979997Y-94454797D01*
X196105960Y-94266280D01*
X196266280Y-94105960D01*
X196454797Y-93979997D01*
X196664266Y-93893232D01*
X196775451Y-93871116D01*
X196886635Y-93849000D01*
X197113365Y-93849000D01*
X197224549Y-93871116D01*
X197224549Y-93871116D01*
G37*
M02*
