G04 #@! TF.GenerationSoftware,KiCad,Pcbnew,(5.1.0)-1*
G04 #@! TF.CreationDate,2019-08-28T19:33:05+02:00*
G04 #@! TF.ProjectId,atkeyboard,61746b65-7962-46f6-9172-642e6b696361,rev?*
G04 #@! TF.SameCoordinates,Original*
G04 #@! TF.FileFunction,Copper,L2,Bot*
G04 #@! TF.FilePolarity,Positive*
%FSLAX46Y46*%
G04 Gerber Fmt 4.6, Leading zero omitted, Abs format (unit mm)*
G04 Created by KiCad (PCBNEW (5.1.0)-1) date 2019-08-28 19:33:05*
%MOMM*%
%LPD*%
G04 APERTURE LIST*
%ADD10C,0.100000*%
%ADD11C,1.524000*%
%ADD12C,0.800000*%
%ADD13C,0.250000*%
%ADD14C,0.254000*%
G04 APERTURE END LIST*
D10*
G36*
X118228345Y-147255835D02*
G01*
X118265329Y-147261321D01*
X118301598Y-147270406D01*
X118336802Y-147283002D01*
X118370602Y-147298988D01*
X118402672Y-147318210D01*
X118432704Y-147340483D01*
X118460408Y-147365592D01*
X118485517Y-147393296D01*
X118507790Y-147423328D01*
X118527012Y-147455398D01*
X118542998Y-147489198D01*
X118555594Y-147524402D01*
X118564679Y-147560671D01*
X118570165Y-147597655D01*
X118572000Y-147635000D01*
X118572000Y-151445000D01*
X118570165Y-151482345D01*
X118564679Y-151519329D01*
X118555594Y-151555598D01*
X118542998Y-151590802D01*
X118527012Y-151624602D01*
X118507790Y-151656672D01*
X118485517Y-151686704D01*
X118460408Y-151714408D01*
X118432704Y-151739517D01*
X118402672Y-151761790D01*
X118370602Y-151781012D01*
X118336802Y-151796998D01*
X118301598Y-151809594D01*
X118265329Y-151818679D01*
X118228345Y-151824165D01*
X118191000Y-151826000D01*
X117429000Y-151826000D01*
X117391655Y-151824165D01*
X117354671Y-151818679D01*
X117318402Y-151809594D01*
X117283198Y-151796998D01*
X117249398Y-151781012D01*
X117217328Y-151761790D01*
X117187296Y-151739517D01*
X117159592Y-151714408D01*
X117134483Y-151686704D01*
X117112210Y-151656672D01*
X117092988Y-151624602D01*
X117077002Y-151590802D01*
X117064406Y-151555598D01*
X117055321Y-151519329D01*
X117049835Y-151482345D01*
X117048000Y-151445000D01*
X117048000Y-147635000D01*
X117049835Y-147597655D01*
X117055321Y-147560671D01*
X117064406Y-147524402D01*
X117077002Y-147489198D01*
X117092988Y-147455398D01*
X117112210Y-147423328D01*
X117134483Y-147393296D01*
X117159592Y-147365592D01*
X117187296Y-147340483D01*
X117217328Y-147318210D01*
X117249398Y-147298988D01*
X117283198Y-147283002D01*
X117318402Y-147270406D01*
X117354671Y-147261321D01*
X117391655Y-147255835D01*
X117429000Y-147254000D01*
X118191000Y-147254000D01*
X118228345Y-147255835D01*
X118228345Y-147255835D01*
G37*
D11*
X117810000Y-149540000D03*
D10*
G36*
X122038345Y-147255835D02*
G01*
X122075329Y-147261321D01*
X122111598Y-147270406D01*
X122146802Y-147283002D01*
X122180602Y-147298988D01*
X122212672Y-147318210D01*
X122242704Y-147340483D01*
X122270408Y-147365592D01*
X122295517Y-147393296D01*
X122317790Y-147423328D01*
X122337012Y-147455398D01*
X122352998Y-147489198D01*
X122365594Y-147524402D01*
X122374679Y-147560671D01*
X122380165Y-147597655D01*
X122382000Y-147635000D01*
X122382000Y-151445000D01*
X122380165Y-151482345D01*
X122374679Y-151519329D01*
X122365594Y-151555598D01*
X122352998Y-151590802D01*
X122337012Y-151624602D01*
X122317790Y-151656672D01*
X122295517Y-151686704D01*
X122270408Y-151714408D01*
X122242704Y-151739517D01*
X122212672Y-151761790D01*
X122180602Y-151781012D01*
X122146802Y-151796998D01*
X122111598Y-151809594D01*
X122075329Y-151818679D01*
X122038345Y-151824165D01*
X122001000Y-151826000D01*
X121239000Y-151826000D01*
X121201655Y-151824165D01*
X121164671Y-151818679D01*
X121128402Y-151809594D01*
X121093198Y-151796998D01*
X121059398Y-151781012D01*
X121027328Y-151761790D01*
X120997296Y-151739517D01*
X120969592Y-151714408D01*
X120944483Y-151686704D01*
X120922210Y-151656672D01*
X120902988Y-151624602D01*
X120887002Y-151590802D01*
X120874406Y-151555598D01*
X120865321Y-151519329D01*
X120859835Y-151482345D01*
X120858000Y-151445000D01*
X120858000Y-147635000D01*
X120859835Y-147597655D01*
X120865321Y-147560671D01*
X120874406Y-147524402D01*
X120887002Y-147489198D01*
X120902988Y-147455398D01*
X120922210Y-147423328D01*
X120944483Y-147393296D01*
X120969592Y-147365592D01*
X120997296Y-147340483D01*
X121027328Y-147318210D01*
X121059398Y-147298988D01*
X121093198Y-147283002D01*
X121128402Y-147270406D01*
X121164671Y-147261321D01*
X121201655Y-147255835D01*
X121239000Y-147254000D01*
X122001000Y-147254000D01*
X122038345Y-147255835D01*
X122038345Y-147255835D01*
G37*
D11*
X121620000Y-149540000D03*
D10*
G36*
X125848345Y-147255835D02*
G01*
X125885329Y-147261321D01*
X125921598Y-147270406D01*
X125956802Y-147283002D01*
X125990602Y-147298988D01*
X126022672Y-147318210D01*
X126052704Y-147340483D01*
X126080408Y-147365592D01*
X126105517Y-147393296D01*
X126127790Y-147423328D01*
X126147012Y-147455398D01*
X126162998Y-147489198D01*
X126175594Y-147524402D01*
X126184679Y-147560671D01*
X126190165Y-147597655D01*
X126192000Y-147635000D01*
X126192000Y-151445000D01*
X126190165Y-151482345D01*
X126184679Y-151519329D01*
X126175594Y-151555598D01*
X126162998Y-151590802D01*
X126147012Y-151624602D01*
X126127790Y-151656672D01*
X126105517Y-151686704D01*
X126080408Y-151714408D01*
X126052704Y-151739517D01*
X126022672Y-151761790D01*
X125990602Y-151781012D01*
X125956802Y-151796998D01*
X125921598Y-151809594D01*
X125885329Y-151818679D01*
X125848345Y-151824165D01*
X125811000Y-151826000D01*
X125049000Y-151826000D01*
X125011655Y-151824165D01*
X124974671Y-151818679D01*
X124938402Y-151809594D01*
X124903198Y-151796998D01*
X124869398Y-151781012D01*
X124837328Y-151761790D01*
X124807296Y-151739517D01*
X124779592Y-151714408D01*
X124754483Y-151686704D01*
X124732210Y-151656672D01*
X124712988Y-151624602D01*
X124697002Y-151590802D01*
X124684406Y-151555598D01*
X124675321Y-151519329D01*
X124669835Y-151482345D01*
X124668000Y-151445000D01*
X124668000Y-147635000D01*
X124669835Y-147597655D01*
X124675321Y-147560671D01*
X124684406Y-147524402D01*
X124697002Y-147489198D01*
X124712988Y-147455398D01*
X124732210Y-147423328D01*
X124754483Y-147393296D01*
X124779592Y-147365592D01*
X124807296Y-147340483D01*
X124837328Y-147318210D01*
X124869398Y-147298988D01*
X124903198Y-147283002D01*
X124938402Y-147270406D01*
X124974671Y-147261321D01*
X125011655Y-147255835D01*
X125049000Y-147254000D01*
X125811000Y-147254000D01*
X125848345Y-147255835D01*
X125848345Y-147255835D01*
G37*
D11*
X125430000Y-149540000D03*
D10*
G36*
X129658345Y-147255835D02*
G01*
X129695329Y-147261321D01*
X129731598Y-147270406D01*
X129766802Y-147283002D01*
X129800602Y-147298988D01*
X129832672Y-147318210D01*
X129862704Y-147340483D01*
X129890408Y-147365592D01*
X129915517Y-147393296D01*
X129937790Y-147423328D01*
X129957012Y-147455398D01*
X129972998Y-147489198D01*
X129985594Y-147524402D01*
X129994679Y-147560671D01*
X130000165Y-147597655D01*
X130002000Y-147635000D01*
X130002000Y-151445000D01*
X130000165Y-151482345D01*
X129994679Y-151519329D01*
X129985594Y-151555598D01*
X129972998Y-151590802D01*
X129957012Y-151624602D01*
X129937790Y-151656672D01*
X129915517Y-151686704D01*
X129890408Y-151714408D01*
X129862704Y-151739517D01*
X129832672Y-151761790D01*
X129800602Y-151781012D01*
X129766802Y-151796998D01*
X129731598Y-151809594D01*
X129695329Y-151818679D01*
X129658345Y-151824165D01*
X129621000Y-151826000D01*
X128859000Y-151826000D01*
X128821655Y-151824165D01*
X128784671Y-151818679D01*
X128748402Y-151809594D01*
X128713198Y-151796998D01*
X128679398Y-151781012D01*
X128647328Y-151761790D01*
X128617296Y-151739517D01*
X128589592Y-151714408D01*
X128564483Y-151686704D01*
X128542210Y-151656672D01*
X128522988Y-151624602D01*
X128507002Y-151590802D01*
X128494406Y-151555598D01*
X128485321Y-151519329D01*
X128479835Y-151482345D01*
X128478000Y-151445000D01*
X128478000Y-147635000D01*
X128479835Y-147597655D01*
X128485321Y-147560671D01*
X128494406Y-147524402D01*
X128507002Y-147489198D01*
X128522988Y-147455398D01*
X128542210Y-147423328D01*
X128564483Y-147393296D01*
X128589592Y-147365592D01*
X128617296Y-147340483D01*
X128647328Y-147318210D01*
X128679398Y-147298988D01*
X128713198Y-147283002D01*
X128748402Y-147270406D01*
X128784671Y-147261321D01*
X128821655Y-147255835D01*
X128859000Y-147254000D01*
X129621000Y-147254000D01*
X129658345Y-147255835D01*
X129658345Y-147255835D01*
G37*
D11*
X129240000Y-149540000D03*
D10*
G36*
X133468345Y-147255835D02*
G01*
X133505329Y-147261321D01*
X133541598Y-147270406D01*
X133576802Y-147283002D01*
X133610602Y-147298988D01*
X133642672Y-147318210D01*
X133672704Y-147340483D01*
X133700408Y-147365592D01*
X133725517Y-147393296D01*
X133747790Y-147423328D01*
X133767012Y-147455398D01*
X133782998Y-147489198D01*
X133795594Y-147524402D01*
X133804679Y-147560671D01*
X133810165Y-147597655D01*
X133812000Y-147635000D01*
X133812000Y-151445000D01*
X133810165Y-151482345D01*
X133804679Y-151519329D01*
X133795594Y-151555598D01*
X133782998Y-151590802D01*
X133767012Y-151624602D01*
X133747790Y-151656672D01*
X133725517Y-151686704D01*
X133700408Y-151714408D01*
X133672704Y-151739517D01*
X133642672Y-151761790D01*
X133610602Y-151781012D01*
X133576802Y-151796998D01*
X133541598Y-151809594D01*
X133505329Y-151818679D01*
X133468345Y-151824165D01*
X133431000Y-151826000D01*
X132669000Y-151826000D01*
X132631655Y-151824165D01*
X132594671Y-151818679D01*
X132558402Y-151809594D01*
X132523198Y-151796998D01*
X132489398Y-151781012D01*
X132457328Y-151761790D01*
X132427296Y-151739517D01*
X132399592Y-151714408D01*
X132374483Y-151686704D01*
X132352210Y-151656672D01*
X132332988Y-151624602D01*
X132317002Y-151590802D01*
X132304406Y-151555598D01*
X132295321Y-151519329D01*
X132289835Y-151482345D01*
X132288000Y-151445000D01*
X132288000Y-147635000D01*
X132289835Y-147597655D01*
X132295321Y-147560671D01*
X132304406Y-147524402D01*
X132317002Y-147489198D01*
X132332988Y-147455398D01*
X132352210Y-147423328D01*
X132374483Y-147393296D01*
X132399592Y-147365592D01*
X132427296Y-147340483D01*
X132457328Y-147318210D01*
X132489398Y-147298988D01*
X132523198Y-147283002D01*
X132558402Y-147270406D01*
X132594671Y-147261321D01*
X132631655Y-147255835D01*
X132669000Y-147254000D01*
X133431000Y-147254000D01*
X133468345Y-147255835D01*
X133468345Y-147255835D01*
G37*
D11*
X133050000Y-149540000D03*
D10*
G36*
X163608345Y-93175835D02*
G01*
X163645329Y-93181321D01*
X163681598Y-93190406D01*
X163716802Y-93203002D01*
X163750602Y-93218988D01*
X163782672Y-93238210D01*
X163812704Y-93260483D01*
X163840408Y-93285592D01*
X163865517Y-93313296D01*
X163887790Y-93343328D01*
X163907012Y-93375398D01*
X163922998Y-93409198D01*
X163935594Y-93444402D01*
X163944679Y-93480671D01*
X163950165Y-93517655D01*
X163952000Y-93555000D01*
X163952000Y-97365000D01*
X163950165Y-97402345D01*
X163944679Y-97439329D01*
X163935594Y-97475598D01*
X163922998Y-97510802D01*
X163907012Y-97544602D01*
X163887790Y-97576672D01*
X163865517Y-97606704D01*
X163840408Y-97634408D01*
X163812704Y-97659517D01*
X163782672Y-97681790D01*
X163750602Y-97701012D01*
X163716802Y-97716998D01*
X163681598Y-97729594D01*
X163645329Y-97738679D01*
X163608345Y-97744165D01*
X163571000Y-97746000D01*
X162809000Y-97746000D01*
X162771655Y-97744165D01*
X162734671Y-97738679D01*
X162698402Y-97729594D01*
X162663198Y-97716998D01*
X162629398Y-97701012D01*
X162597328Y-97681790D01*
X162567296Y-97659517D01*
X162539592Y-97634408D01*
X162514483Y-97606704D01*
X162492210Y-97576672D01*
X162472988Y-97544602D01*
X162457002Y-97510802D01*
X162444406Y-97475598D01*
X162435321Y-97439329D01*
X162429835Y-97402345D01*
X162428000Y-97365000D01*
X162428000Y-93555000D01*
X162429835Y-93517655D01*
X162435321Y-93480671D01*
X162444406Y-93444402D01*
X162457002Y-93409198D01*
X162472988Y-93375398D01*
X162492210Y-93343328D01*
X162514483Y-93313296D01*
X162539592Y-93285592D01*
X162567296Y-93260483D01*
X162597328Y-93238210D01*
X162629398Y-93218988D01*
X162663198Y-93203002D01*
X162698402Y-93190406D01*
X162734671Y-93181321D01*
X162771655Y-93175835D01*
X162809000Y-93174000D01*
X163571000Y-93174000D01*
X163608345Y-93175835D01*
X163608345Y-93175835D01*
G37*
D11*
X163190000Y-95460000D03*
D10*
G36*
X159798345Y-93175835D02*
G01*
X159835329Y-93181321D01*
X159871598Y-93190406D01*
X159906802Y-93203002D01*
X159940602Y-93218988D01*
X159972672Y-93238210D01*
X160002704Y-93260483D01*
X160030408Y-93285592D01*
X160055517Y-93313296D01*
X160077790Y-93343328D01*
X160097012Y-93375398D01*
X160112998Y-93409198D01*
X160125594Y-93444402D01*
X160134679Y-93480671D01*
X160140165Y-93517655D01*
X160142000Y-93555000D01*
X160142000Y-97365000D01*
X160140165Y-97402345D01*
X160134679Y-97439329D01*
X160125594Y-97475598D01*
X160112998Y-97510802D01*
X160097012Y-97544602D01*
X160077790Y-97576672D01*
X160055517Y-97606704D01*
X160030408Y-97634408D01*
X160002704Y-97659517D01*
X159972672Y-97681790D01*
X159940602Y-97701012D01*
X159906802Y-97716998D01*
X159871598Y-97729594D01*
X159835329Y-97738679D01*
X159798345Y-97744165D01*
X159761000Y-97746000D01*
X158999000Y-97746000D01*
X158961655Y-97744165D01*
X158924671Y-97738679D01*
X158888402Y-97729594D01*
X158853198Y-97716998D01*
X158819398Y-97701012D01*
X158787328Y-97681790D01*
X158757296Y-97659517D01*
X158729592Y-97634408D01*
X158704483Y-97606704D01*
X158682210Y-97576672D01*
X158662988Y-97544602D01*
X158647002Y-97510802D01*
X158634406Y-97475598D01*
X158625321Y-97439329D01*
X158619835Y-97402345D01*
X158618000Y-97365000D01*
X158618000Y-93555000D01*
X158619835Y-93517655D01*
X158625321Y-93480671D01*
X158634406Y-93444402D01*
X158647002Y-93409198D01*
X158662988Y-93375398D01*
X158682210Y-93343328D01*
X158704483Y-93313296D01*
X158729592Y-93285592D01*
X158757296Y-93260483D01*
X158787328Y-93238210D01*
X158819398Y-93218988D01*
X158853198Y-93203002D01*
X158888402Y-93190406D01*
X158924671Y-93181321D01*
X158961655Y-93175835D01*
X158999000Y-93174000D01*
X159761000Y-93174000D01*
X159798345Y-93175835D01*
X159798345Y-93175835D01*
G37*
D11*
X159380000Y-95460000D03*
D10*
G36*
X155988345Y-93175835D02*
G01*
X156025329Y-93181321D01*
X156061598Y-93190406D01*
X156096802Y-93203002D01*
X156130602Y-93218988D01*
X156162672Y-93238210D01*
X156192704Y-93260483D01*
X156220408Y-93285592D01*
X156245517Y-93313296D01*
X156267790Y-93343328D01*
X156287012Y-93375398D01*
X156302998Y-93409198D01*
X156315594Y-93444402D01*
X156324679Y-93480671D01*
X156330165Y-93517655D01*
X156332000Y-93555000D01*
X156332000Y-97365000D01*
X156330165Y-97402345D01*
X156324679Y-97439329D01*
X156315594Y-97475598D01*
X156302998Y-97510802D01*
X156287012Y-97544602D01*
X156267790Y-97576672D01*
X156245517Y-97606704D01*
X156220408Y-97634408D01*
X156192704Y-97659517D01*
X156162672Y-97681790D01*
X156130602Y-97701012D01*
X156096802Y-97716998D01*
X156061598Y-97729594D01*
X156025329Y-97738679D01*
X155988345Y-97744165D01*
X155951000Y-97746000D01*
X155189000Y-97746000D01*
X155151655Y-97744165D01*
X155114671Y-97738679D01*
X155078402Y-97729594D01*
X155043198Y-97716998D01*
X155009398Y-97701012D01*
X154977328Y-97681790D01*
X154947296Y-97659517D01*
X154919592Y-97634408D01*
X154894483Y-97606704D01*
X154872210Y-97576672D01*
X154852988Y-97544602D01*
X154837002Y-97510802D01*
X154824406Y-97475598D01*
X154815321Y-97439329D01*
X154809835Y-97402345D01*
X154808000Y-97365000D01*
X154808000Y-93555000D01*
X154809835Y-93517655D01*
X154815321Y-93480671D01*
X154824406Y-93444402D01*
X154837002Y-93409198D01*
X154852988Y-93375398D01*
X154872210Y-93343328D01*
X154894483Y-93313296D01*
X154919592Y-93285592D01*
X154947296Y-93260483D01*
X154977328Y-93238210D01*
X155009398Y-93218988D01*
X155043198Y-93203002D01*
X155078402Y-93190406D01*
X155114671Y-93181321D01*
X155151655Y-93175835D01*
X155189000Y-93174000D01*
X155951000Y-93174000D01*
X155988345Y-93175835D01*
X155988345Y-93175835D01*
G37*
D11*
X155570000Y-95460000D03*
D10*
G36*
X152178345Y-93175835D02*
G01*
X152215329Y-93181321D01*
X152251598Y-93190406D01*
X152286802Y-93203002D01*
X152320602Y-93218988D01*
X152352672Y-93238210D01*
X152382704Y-93260483D01*
X152410408Y-93285592D01*
X152435517Y-93313296D01*
X152457790Y-93343328D01*
X152477012Y-93375398D01*
X152492998Y-93409198D01*
X152505594Y-93444402D01*
X152514679Y-93480671D01*
X152520165Y-93517655D01*
X152522000Y-93555000D01*
X152522000Y-97365000D01*
X152520165Y-97402345D01*
X152514679Y-97439329D01*
X152505594Y-97475598D01*
X152492998Y-97510802D01*
X152477012Y-97544602D01*
X152457790Y-97576672D01*
X152435517Y-97606704D01*
X152410408Y-97634408D01*
X152382704Y-97659517D01*
X152352672Y-97681790D01*
X152320602Y-97701012D01*
X152286802Y-97716998D01*
X152251598Y-97729594D01*
X152215329Y-97738679D01*
X152178345Y-97744165D01*
X152141000Y-97746000D01*
X151379000Y-97746000D01*
X151341655Y-97744165D01*
X151304671Y-97738679D01*
X151268402Y-97729594D01*
X151233198Y-97716998D01*
X151199398Y-97701012D01*
X151167328Y-97681790D01*
X151137296Y-97659517D01*
X151109592Y-97634408D01*
X151084483Y-97606704D01*
X151062210Y-97576672D01*
X151042988Y-97544602D01*
X151027002Y-97510802D01*
X151014406Y-97475598D01*
X151005321Y-97439329D01*
X150999835Y-97402345D01*
X150998000Y-97365000D01*
X150998000Y-93555000D01*
X150999835Y-93517655D01*
X151005321Y-93480671D01*
X151014406Y-93444402D01*
X151027002Y-93409198D01*
X151042988Y-93375398D01*
X151062210Y-93343328D01*
X151084483Y-93313296D01*
X151109592Y-93285592D01*
X151137296Y-93260483D01*
X151167328Y-93238210D01*
X151199398Y-93218988D01*
X151233198Y-93203002D01*
X151268402Y-93190406D01*
X151304671Y-93181321D01*
X151341655Y-93175835D01*
X151379000Y-93174000D01*
X152141000Y-93174000D01*
X152178345Y-93175835D01*
X152178345Y-93175835D01*
G37*
D11*
X151760000Y-95460000D03*
D10*
G36*
X148368345Y-93175835D02*
G01*
X148405329Y-93181321D01*
X148441598Y-93190406D01*
X148476802Y-93203002D01*
X148510602Y-93218988D01*
X148542672Y-93238210D01*
X148572704Y-93260483D01*
X148600408Y-93285592D01*
X148625517Y-93313296D01*
X148647790Y-93343328D01*
X148667012Y-93375398D01*
X148682998Y-93409198D01*
X148695594Y-93444402D01*
X148704679Y-93480671D01*
X148710165Y-93517655D01*
X148712000Y-93555000D01*
X148712000Y-97365000D01*
X148710165Y-97402345D01*
X148704679Y-97439329D01*
X148695594Y-97475598D01*
X148682998Y-97510802D01*
X148667012Y-97544602D01*
X148647790Y-97576672D01*
X148625517Y-97606704D01*
X148600408Y-97634408D01*
X148572704Y-97659517D01*
X148542672Y-97681790D01*
X148510602Y-97701012D01*
X148476802Y-97716998D01*
X148441598Y-97729594D01*
X148405329Y-97738679D01*
X148368345Y-97744165D01*
X148331000Y-97746000D01*
X147569000Y-97746000D01*
X147531655Y-97744165D01*
X147494671Y-97738679D01*
X147458402Y-97729594D01*
X147423198Y-97716998D01*
X147389398Y-97701012D01*
X147357328Y-97681790D01*
X147327296Y-97659517D01*
X147299592Y-97634408D01*
X147274483Y-97606704D01*
X147252210Y-97576672D01*
X147232988Y-97544602D01*
X147217002Y-97510802D01*
X147204406Y-97475598D01*
X147195321Y-97439329D01*
X147189835Y-97402345D01*
X147188000Y-97365000D01*
X147188000Y-93555000D01*
X147189835Y-93517655D01*
X147195321Y-93480671D01*
X147204406Y-93444402D01*
X147217002Y-93409198D01*
X147232988Y-93375398D01*
X147252210Y-93343328D01*
X147274483Y-93313296D01*
X147299592Y-93285592D01*
X147327296Y-93260483D01*
X147357328Y-93238210D01*
X147389398Y-93218988D01*
X147423198Y-93203002D01*
X147458402Y-93190406D01*
X147494671Y-93181321D01*
X147531655Y-93175835D01*
X147569000Y-93174000D01*
X148331000Y-93174000D01*
X148368345Y-93175835D01*
X148368345Y-93175835D01*
G37*
D11*
X147950000Y-95460000D03*
D10*
G36*
X144558345Y-93175835D02*
G01*
X144595329Y-93181321D01*
X144631598Y-93190406D01*
X144666802Y-93203002D01*
X144700602Y-93218988D01*
X144732672Y-93238210D01*
X144762704Y-93260483D01*
X144790408Y-93285592D01*
X144815517Y-93313296D01*
X144837790Y-93343328D01*
X144857012Y-93375398D01*
X144872998Y-93409198D01*
X144885594Y-93444402D01*
X144894679Y-93480671D01*
X144900165Y-93517655D01*
X144902000Y-93555000D01*
X144902000Y-97365000D01*
X144900165Y-97402345D01*
X144894679Y-97439329D01*
X144885594Y-97475598D01*
X144872998Y-97510802D01*
X144857012Y-97544602D01*
X144837790Y-97576672D01*
X144815517Y-97606704D01*
X144790408Y-97634408D01*
X144762704Y-97659517D01*
X144732672Y-97681790D01*
X144700602Y-97701012D01*
X144666802Y-97716998D01*
X144631598Y-97729594D01*
X144595329Y-97738679D01*
X144558345Y-97744165D01*
X144521000Y-97746000D01*
X143759000Y-97746000D01*
X143721655Y-97744165D01*
X143684671Y-97738679D01*
X143648402Y-97729594D01*
X143613198Y-97716998D01*
X143579398Y-97701012D01*
X143547328Y-97681790D01*
X143517296Y-97659517D01*
X143489592Y-97634408D01*
X143464483Y-97606704D01*
X143442210Y-97576672D01*
X143422988Y-97544602D01*
X143407002Y-97510802D01*
X143394406Y-97475598D01*
X143385321Y-97439329D01*
X143379835Y-97402345D01*
X143378000Y-97365000D01*
X143378000Y-93555000D01*
X143379835Y-93517655D01*
X143385321Y-93480671D01*
X143394406Y-93444402D01*
X143407002Y-93409198D01*
X143422988Y-93375398D01*
X143442210Y-93343328D01*
X143464483Y-93313296D01*
X143489592Y-93285592D01*
X143517296Y-93260483D01*
X143547328Y-93238210D01*
X143579398Y-93218988D01*
X143613198Y-93203002D01*
X143648402Y-93190406D01*
X143684671Y-93181321D01*
X143721655Y-93175835D01*
X143759000Y-93174000D01*
X144521000Y-93174000D01*
X144558345Y-93175835D01*
X144558345Y-93175835D01*
G37*
D11*
X144140000Y-95460000D03*
D12*
X92000000Y-103250000D03*
X139000000Y-122500000D03*
X109000000Y-123000000D03*
X156000000Y-132500000D03*
X157000000Y-124100000D03*
X131250000Y-111750000D03*
X98750000Y-97000000D03*
X106750000Y-96500000D03*
X114500000Y-97000000D03*
X122700000Y-97000000D03*
X130500000Y-96500000D03*
X137400000Y-96800000D03*
X131000000Y-109500000D03*
X127000000Y-106500000D03*
X110750000Y-106750000D03*
X103750000Y-107000000D03*
X95000000Y-106800000D03*
X95000000Y-117000000D03*
X103000000Y-116750000D03*
X111250000Y-116750000D03*
X127500000Y-116500000D03*
X134100000Y-117400000D03*
X135250000Y-126250000D03*
X126600000Y-128400000D03*
X123200000Y-126600000D03*
X99100000Y-128500000D03*
X124300000Y-133900000D03*
X147250000Y-146500000D03*
X147500000Y-129500000D03*
X147250000Y-108750000D03*
X147000000Y-116000000D03*
X150700000Y-128900000D03*
X150700000Y-135100000D03*
X162750000Y-117250000D03*
X163500000Y-135750000D03*
X167250000Y-129750000D03*
X171000000Y-106250000D03*
X134600000Y-138500000D03*
X151800000Y-150700000D03*
X163300000Y-152600000D03*
X118700000Y-117800000D03*
X118900000Y-120200000D03*
X118900000Y-105900000D03*
X122900000Y-105900000D03*
X119000000Y-109600000D03*
X186202500Y-100451300D03*
X165488500Y-137707400D03*
X140131500Y-92779800D03*
X107688200Y-103959600D03*
X130970800Y-122478900D03*
X107181800Y-140224800D03*
X190056900Y-108063400D03*
X172128700Y-121000000D03*
X191702500Y-99000000D03*
X166575000Y-139674700D03*
X170837100Y-99457000D03*
X146802100Y-123674700D03*
X187600000Y-106450500D03*
X190507200Y-113040600D03*
X152358200Y-117815400D03*
X170601800Y-125320100D03*
X189593000Y-107016400D03*
X170601800Y-115000000D03*
X98628900Y-121000000D03*
X105310500Y-129362400D03*
X186377100Y-94348100D03*
X139250000Y-102500000D03*
X122250000Y-143500000D03*
X161250000Y-102500000D03*
X178500000Y-148000000D03*
X196250000Y-130750000D03*
X195000000Y-111500000D03*
X139000000Y-106250000D03*
X115100000Y-146750000D03*
X107000000Y-146500000D03*
X98750000Y-146750000D03*
X155000000Y-107250000D03*
X159250000Y-116250000D03*
X171700000Y-141900000D03*
X161213800Y-95351600D03*
X157530800Y-95199200D03*
X149936200Y-95199200D03*
X153581100Y-95275400D03*
X91440000Y-144780000D03*
X144961900Y-100279000D03*
X134000000Y-143500000D03*
X174750000Y-110750000D03*
X180500000Y-113500000D03*
X146000000Y-102750000D03*
X138100000Y-138900000D03*
X152800000Y-147800000D03*
X184200000Y-110600000D03*
X151100000Y-139000000D03*
X126580900Y-141859000D03*
X164731700Y-99961700D03*
X155435300Y-111925100D03*
X195600000Y-100750000D03*
X166687500Y-96185000D03*
X182765700Y-96304100D03*
X139433300Y-111760000D03*
X142011400Y-111785400D03*
X177249800Y-99616400D03*
X141178200Y-96675300D03*
X114604700Y-124559100D03*
X114604700Y-135000000D03*
X151384900Y-115000000D03*
X151451500Y-123188800D03*
X163640000Y-125084000D03*
X166706900Y-116203100D03*
X145701200Y-116667000D03*
X147944000Y-123072800D03*
X186839800Y-98156700D03*
X187880000Y-97984300D03*
X188906300Y-97956300D03*
X191827000Y-95513600D03*
X188161100Y-98986000D03*
X169551800Y-109147100D03*
D13*
X165488500Y-128411500D02*
X165488500Y-137707400D01*
X167975001Y-125924999D02*
X165488500Y-128411500D01*
X167975001Y-114224999D02*
X167975001Y-125924999D01*
X186202500Y-100451300D02*
X181748700Y-100451300D01*
X181748700Y-100451300D02*
X167975001Y-114224999D01*
X107688200Y-103959600D02*
X128951700Y-103959600D01*
X128951700Y-103959600D02*
X140131500Y-92779800D01*
X172128700Y-121000000D02*
X177120300Y-121000000D01*
X177120300Y-121000000D02*
X190056900Y-108063400D01*
X130970800Y-122478900D02*
X113224900Y-140224800D01*
X113224900Y-140224800D02*
X107181800Y-140224800D01*
X191702500Y-99000000D02*
X191702500Y-114547200D01*
X191702500Y-114547200D02*
X166575000Y-139674700D01*
X168810100Y-109893100D02*
X170038100Y-109893100D01*
X170038100Y-109893100D02*
X180218500Y-99712700D01*
X180218500Y-99712700D02*
X186506100Y-99712700D01*
X186506100Y-99712700D02*
X187600000Y-100806600D01*
X187600000Y-100806600D02*
X187600000Y-106291100D01*
X152358200Y-117815400D02*
X160887800Y-117815400D01*
X160887800Y-117815400D02*
X168810100Y-109893100D01*
X168810100Y-109893100D02*
X168810100Y-101484000D01*
X168810100Y-101484000D02*
X170837100Y-99457000D01*
X152358200Y-117815400D02*
X152358200Y-123341700D01*
X152358200Y-123341700D02*
X151783300Y-123916600D01*
X151783300Y-123916600D02*
X147044000Y-123916600D01*
X147044000Y-123916600D02*
X146802100Y-123674700D01*
X187600000Y-106291100D02*
X187600000Y-106450500D01*
X190507200Y-113040600D02*
X190782200Y-112765600D01*
X190782200Y-112765600D02*
X190782200Y-107170600D01*
X190782200Y-107170600D02*
X189902700Y-106291100D01*
X189902700Y-106291100D02*
X187600000Y-106291100D01*
X170601800Y-115000000D02*
X170601800Y-125320100D01*
X170601800Y-115000000D02*
X181609400Y-115000000D01*
X181609400Y-115000000D02*
X189593000Y-107016400D01*
X98628900Y-121000000D02*
X98628900Y-122680800D01*
X98628900Y-122680800D02*
X105310500Y-129362400D01*
X186377100Y-94348100D02*
X190023000Y-97994000D01*
X190023000Y-97994000D02*
X190023000Y-99002700D01*
X190023000Y-99002700D02*
X191232600Y-100212300D01*
X191232600Y-100212300D02*
X191232600Y-113349800D01*
X191232600Y-113349800D02*
X151915500Y-152666900D01*
X151915500Y-152666900D02*
X120936900Y-152666900D01*
X120936900Y-152666900D02*
X117810000Y-149540000D01*
X107250000Y-146750000D02*
X107000000Y-146500000D01*
X115100000Y-146750000D02*
X107250000Y-146750000D01*
X99000000Y-146500000D02*
X98750000Y-146750000D01*
X107000000Y-146500000D02*
X99000000Y-146500000D01*
X98750000Y-146750000D02*
X94680000Y-146750000D01*
X93410000Y-146750000D02*
X91440000Y-144780000D01*
X93410000Y-148020000D02*
X93410000Y-146750000D01*
X94680000Y-146750000D02*
X93410000Y-148020000D01*
X144140000Y-95460000D02*
X144140000Y-100279000D01*
X144140000Y-100279000D02*
X144961900Y-100279000D01*
X144961900Y-101711900D02*
X146000000Y-102750000D01*
X144961900Y-100279000D02*
X144961900Y-101711900D01*
X177500000Y-113500000D02*
X180500000Y-113500000D01*
X174750000Y-110750000D02*
X177500000Y-113500000D01*
X183400000Y-110600000D02*
X184200000Y-110600000D01*
X180500000Y-113500000D02*
X183400000Y-110600000D01*
X134000000Y-148590000D02*
X134000000Y-143500000D01*
X133050000Y-149540000D02*
X134000000Y-148590000D01*
X138100000Y-139400000D02*
X138100000Y-138900000D01*
X134000000Y-143500000D02*
X138100000Y-139400000D01*
X138665685Y-138900000D02*
X138100000Y-138900000D01*
X146000000Y-103400000D02*
X144525890Y-104874110D01*
X146000000Y-102750000D02*
X146000000Y-103400000D01*
X144525890Y-104874110D02*
X144525890Y-134074110D01*
X144525890Y-134074110D02*
X140150000Y-138450000D01*
X140150000Y-138450000D02*
X139115685Y-138450000D01*
X139115685Y-138450000D02*
X138665685Y-138900000D01*
X151100000Y-139000000D02*
X151600000Y-139500000D01*
X151600000Y-146600000D02*
X152800000Y-147800000D01*
X151600000Y-139500000D02*
X151600000Y-146600000D01*
X123891000Y-141859000D02*
X122250000Y-143500000D01*
X126580900Y-141859000D02*
X123891000Y-141859000D01*
X155399999Y-106850001D02*
X155399999Y-106143801D01*
X155000000Y-107250000D02*
X155399999Y-106850001D01*
X159043800Y-102500000D02*
X161250000Y-102500000D01*
X155399999Y-106143801D02*
X159043800Y-102500000D01*
X161250000Y-102500000D02*
X162193400Y-102500000D01*
X162193400Y-102500000D02*
X164731700Y-99961700D01*
X155435300Y-107685300D02*
X155000000Y-107250000D01*
X155435300Y-111925100D02*
X155435300Y-107685300D01*
X195399999Y-111899999D02*
X195399999Y-112253099D01*
X195000000Y-111500000D02*
X195399999Y-111899999D01*
X195399999Y-112253099D02*
X197789800Y-114642900D01*
X197789800Y-129210200D02*
X196250000Y-130750000D01*
X197789800Y-114642900D02*
X197789800Y-129210200D01*
X195000000Y-111500000D02*
X195000000Y-110600100D01*
X195000000Y-110600100D02*
X197777100Y-107823000D01*
X197777100Y-107823000D02*
X197777100Y-102927100D01*
X197777100Y-102927100D02*
X195600000Y-100750000D01*
X166687500Y-96185000D02*
X182646600Y-96185000D01*
X182646600Y-96185000D02*
X182765700Y-96304100D01*
X139000000Y-102750000D02*
X139250000Y-102500000D01*
X139000000Y-106250000D02*
X139000000Y-102750000D01*
X138274999Y-110601699D02*
X139433300Y-111760000D01*
X139000000Y-106250000D02*
X138274999Y-106975001D01*
X138274999Y-106975001D02*
X138274999Y-110601699D01*
X177249800Y-99616400D02*
X176348500Y-98715100D01*
X176348500Y-98715100D02*
X170303200Y-98715100D01*
X170303200Y-98715100D02*
X169937500Y-99080800D01*
X169937500Y-99080800D02*
X151570800Y-99080800D01*
X147950000Y-95460000D02*
X151570800Y-99080800D01*
X151570800Y-99080800D02*
X144975900Y-105675700D01*
X144975900Y-140977900D02*
X133756200Y-152197600D01*
X133756200Y-152197600D02*
X131897600Y-152197600D01*
X131897600Y-152197600D02*
X129240000Y-149540000D01*
X144975900Y-105675700D02*
X144975900Y-106375900D01*
X144976199Y-106376199D02*
X144976199Y-118276199D01*
X144975900Y-106375900D02*
X144976199Y-106376199D01*
X144976199Y-118276199D02*
X146500000Y-119800000D01*
X145600000Y-120700000D02*
X145600000Y-124200000D01*
X146500000Y-119800000D02*
X145600000Y-120700000D01*
X145600000Y-124200000D02*
X149200000Y-127800000D01*
X149200000Y-127800000D02*
X149200000Y-138600000D01*
X146822100Y-140977900D02*
X144975900Y-140977900D01*
X149200000Y-138600000D02*
X146822100Y-140977900D01*
X114604700Y-124559100D02*
X114604700Y-123248800D01*
X114604700Y-123248800D02*
X141178200Y-96675300D01*
X114604700Y-135000000D02*
X114604700Y-124559100D01*
X151451500Y-123188800D02*
X151384900Y-123122200D01*
X151384900Y-123122200D02*
X151384900Y-115000000D01*
X163640000Y-125084000D02*
X163640000Y-119270000D01*
X163640000Y-119270000D02*
X166706900Y-116203100D01*
X147944000Y-123072800D02*
X147944000Y-118909800D01*
X147944000Y-118909800D02*
X145701200Y-116667000D01*
X186839800Y-98156700D02*
X170224700Y-98156700D01*
X170224700Y-98156700D02*
X169800500Y-98580900D01*
X169800500Y-98580900D02*
X154880900Y-98580900D01*
X154880900Y-98580900D02*
X151760000Y-95460000D01*
X126097100Y-152197700D02*
X124277700Y-152197700D01*
X127335000Y-150959800D02*
X126097100Y-152197700D01*
X142700000Y-93700000D02*
X142700000Y-106100000D01*
X124277700Y-152197700D02*
X121620000Y-149540000D01*
X143050900Y-93349100D02*
X142700000Y-93700000D01*
X127335000Y-147442300D02*
X127335000Y-150959800D01*
X142800000Y-129500000D02*
X143050900Y-129750900D01*
X151760000Y-95460000D02*
X149142500Y-92842500D01*
X149142500Y-92842500D02*
X143458700Y-92842500D01*
X142800000Y-126800000D02*
X142800000Y-129500000D01*
X142700000Y-106100000D02*
X140900000Y-107900000D01*
X140900000Y-107900000D02*
X140900000Y-121673002D01*
X140900000Y-121673002D02*
X139800000Y-122773002D01*
X139800000Y-122773002D02*
X139800000Y-123800000D01*
X139800000Y-123800000D02*
X142800000Y-126800000D01*
X143458700Y-92842500D02*
X143050900Y-93250300D01*
X143050900Y-129750900D02*
X143050900Y-131726400D01*
X143050900Y-93250300D02*
X143050900Y-93349100D01*
X143050900Y-131726400D02*
X127335000Y-147442300D01*
X155570000Y-95460000D02*
X152445400Y-92335400D01*
X152445400Y-92335400D02*
X143323200Y-92335400D01*
X143323200Y-92335400D02*
X142150300Y-93508300D01*
X142150300Y-127871500D02*
X125430000Y-144591800D01*
X125430000Y-144591800D02*
X125430000Y-149540000D01*
X187880000Y-97984300D02*
X187326000Y-97430300D01*
X187326000Y-97430300D02*
X165620500Y-97430300D01*
X165620500Y-97430300D02*
X164966900Y-98083900D01*
X164966900Y-98083900D02*
X158193900Y-98083900D01*
X158193900Y-98083900D02*
X155570000Y-95460000D01*
X142150300Y-93508300D02*
X142150300Y-98249700D01*
X142150300Y-98249700D02*
X137600000Y-102800000D01*
X137600000Y-115723002D02*
X134723002Y-118600000D01*
X137600000Y-102800000D02*
X137600000Y-115723002D01*
X134723002Y-118600000D02*
X134723002Y-122976998D01*
X135975001Y-124228997D02*
X136828997Y-124228997D01*
X134723002Y-122976998D02*
X135975001Y-124228997D01*
X136828997Y-124228997D02*
X139200000Y-126600000D01*
X140878800Y-126600000D02*
X142150300Y-127871500D01*
X139200000Y-126600000D02*
X140878800Y-126600000D01*
X163190000Y-95460000D02*
X186410000Y-95460000D01*
X186410000Y-95460000D02*
X188906300Y-97956300D01*
X159380000Y-95460000D02*
X162000500Y-92839500D01*
X162000500Y-92839500D02*
X189152900Y-92839500D01*
X189152900Y-92839500D02*
X191827000Y-95513600D01*
X169551800Y-109147100D02*
X179712900Y-98986000D01*
X179712900Y-98986000D02*
X188161100Y-98986000D01*
D14*
G36*
X198259659Y-92688625D02*
G01*
X198509429Y-92764035D01*
X198739792Y-92886522D01*
X198941980Y-93051422D01*
X199108286Y-93252450D01*
X199232378Y-93481954D01*
X199309531Y-93731195D01*
X199340000Y-94021088D01*
X199340001Y-151967711D01*
X199311375Y-152259660D01*
X199235965Y-152509429D01*
X199113477Y-152739794D01*
X198948579Y-152941979D01*
X198747546Y-153108288D01*
X198518046Y-153232378D01*
X198268805Y-153309531D01*
X197978911Y-153340000D01*
X164023711Y-153340000D01*
X164103937Y-153259774D01*
X164217205Y-153090256D01*
X164295226Y-152901898D01*
X164335000Y-152701939D01*
X164335000Y-152498061D01*
X164295226Y-152298102D01*
X164217205Y-152109744D01*
X164103937Y-151940226D01*
X163959774Y-151796063D01*
X163790256Y-151682795D01*
X163601898Y-151604774D01*
X163401939Y-151565000D01*
X163198061Y-151565000D01*
X162998102Y-151604774D01*
X162809744Y-151682795D01*
X162640226Y-151796063D01*
X162496063Y-151940226D01*
X162382795Y-152109744D01*
X162304774Y-152298102D01*
X162265000Y-152498061D01*
X162265000Y-152701939D01*
X162304774Y-152901898D01*
X162382795Y-153090256D01*
X162496063Y-153259774D01*
X162576289Y-153340000D01*
X152268448Y-153340000D01*
X152339776Y-153301874D01*
X152455501Y-153206901D01*
X152479304Y-153177897D01*
X154828084Y-150829117D01*
X195265000Y-150829117D01*
X195265000Y-151170883D01*
X195331675Y-151506081D01*
X195462463Y-151821831D01*
X195652337Y-152105998D01*
X195894002Y-152347663D01*
X196178169Y-152537537D01*
X196493919Y-152668325D01*
X196829117Y-152735000D01*
X197170883Y-152735000D01*
X197506081Y-152668325D01*
X197821831Y-152537537D01*
X198105998Y-152347663D01*
X198347663Y-152105998D01*
X198537537Y-151821831D01*
X198668325Y-151506081D01*
X198735000Y-151170883D01*
X198735000Y-150829117D01*
X198668325Y-150493919D01*
X198537537Y-150178169D01*
X198347663Y-149894002D01*
X198105998Y-149652337D01*
X197821831Y-149462463D01*
X197506081Y-149331675D01*
X197170883Y-149265000D01*
X196829117Y-149265000D01*
X196493919Y-149331675D01*
X196178169Y-149462463D01*
X195894002Y-149652337D01*
X195652337Y-149894002D01*
X195462463Y-150178169D01*
X195331675Y-150493919D01*
X195265000Y-150829117D01*
X154828084Y-150829117D01*
X165609306Y-140047895D01*
X165657795Y-140164956D01*
X165771063Y-140334474D01*
X165915226Y-140478637D01*
X166084744Y-140591905D01*
X166273102Y-140669926D01*
X166473061Y-140709700D01*
X166676939Y-140709700D01*
X166876898Y-140669926D01*
X167065256Y-140591905D01*
X167234774Y-140478637D01*
X167378937Y-140334474D01*
X167492205Y-140164956D01*
X167570226Y-139976598D01*
X167610000Y-139776639D01*
X167610000Y-139714501D01*
X192213503Y-115110999D01*
X192242501Y-115087201D01*
X192337474Y-114971476D01*
X192408046Y-114839447D01*
X192451503Y-114696186D01*
X192462500Y-114584533D01*
X192462500Y-114584524D01*
X192466176Y-114547201D01*
X192462500Y-114509878D01*
X192462500Y-99703711D01*
X192506437Y-99659774D01*
X192619705Y-99490256D01*
X192697726Y-99301898D01*
X192737500Y-99101939D01*
X192737500Y-98898061D01*
X192697726Y-98698102D01*
X192619705Y-98509744D01*
X192506437Y-98340226D01*
X192362274Y-98196063D01*
X192192756Y-98082795D01*
X192004398Y-98004774D01*
X191804439Y-97965000D01*
X191600561Y-97965000D01*
X191400602Y-98004774D01*
X191212244Y-98082795D01*
X191042726Y-98196063D01*
X190898563Y-98340226D01*
X190785295Y-98509744D01*
X190783000Y-98515285D01*
X190783000Y-98031322D01*
X190786676Y-97993999D01*
X190783000Y-97956676D01*
X190783000Y-97956667D01*
X190772003Y-97845014D01*
X190728546Y-97701753D01*
X190657974Y-97569724D01*
X190563001Y-97453999D01*
X190534004Y-97430202D01*
X187412100Y-94308299D01*
X187412100Y-94246161D01*
X187372326Y-94046202D01*
X187294305Y-93857844D01*
X187181037Y-93688326D01*
X187092211Y-93599500D01*
X188838099Y-93599500D01*
X190792000Y-95553403D01*
X190792000Y-95615539D01*
X190831774Y-95815498D01*
X190909795Y-96003856D01*
X191023063Y-96173374D01*
X191167226Y-96317537D01*
X191336744Y-96430805D01*
X191525102Y-96508826D01*
X191725061Y-96548600D01*
X191928939Y-96548600D01*
X192128898Y-96508826D01*
X192317256Y-96430805D01*
X192486774Y-96317537D01*
X192630937Y-96173374D01*
X192744205Y-96003856D01*
X192822226Y-95815498D01*
X192862000Y-95615539D01*
X192862000Y-95411661D01*
X192822226Y-95211702D01*
X192744205Y-95023344D01*
X192630937Y-94853826D01*
X192606228Y-94829117D01*
X195265000Y-94829117D01*
X195265000Y-95170883D01*
X195331675Y-95506081D01*
X195462463Y-95821831D01*
X195652337Y-96105998D01*
X195894002Y-96347663D01*
X196178169Y-96537537D01*
X196493919Y-96668325D01*
X196829117Y-96735000D01*
X197170883Y-96735000D01*
X197506081Y-96668325D01*
X197821831Y-96537537D01*
X198105998Y-96347663D01*
X198347663Y-96105998D01*
X198537537Y-95821831D01*
X198668325Y-95506081D01*
X198735000Y-95170883D01*
X198735000Y-94829117D01*
X198668325Y-94493919D01*
X198537537Y-94178169D01*
X198347663Y-93894002D01*
X198105998Y-93652337D01*
X197821831Y-93462463D01*
X197506081Y-93331675D01*
X197170883Y-93265000D01*
X196829117Y-93265000D01*
X196493919Y-93331675D01*
X196178169Y-93462463D01*
X195894002Y-93652337D01*
X195652337Y-93894002D01*
X195462463Y-94178169D01*
X195331675Y-94493919D01*
X195265000Y-94829117D01*
X192606228Y-94829117D01*
X192486774Y-94709663D01*
X192317256Y-94596395D01*
X192128898Y-94518374D01*
X191928939Y-94478600D01*
X191866803Y-94478600D01*
X190048201Y-92660000D01*
X197967721Y-92660000D01*
X198259659Y-92688625D01*
X198259659Y-92688625D01*
G37*
X198259659Y-92688625D02*
X198509429Y-92764035D01*
X198739792Y-92886522D01*
X198941980Y-93051422D01*
X199108286Y-93252450D01*
X199232378Y-93481954D01*
X199309531Y-93731195D01*
X199340000Y-94021088D01*
X199340001Y-151967711D01*
X199311375Y-152259660D01*
X199235965Y-152509429D01*
X199113477Y-152739794D01*
X198948579Y-152941979D01*
X198747546Y-153108288D01*
X198518046Y-153232378D01*
X198268805Y-153309531D01*
X197978911Y-153340000D01*
X164023711Y-153340000D01*
X164103937Y-153259774D01*
X164217205Y-153090256D01*
X164295226Y-152901898D01*
X164335000Y-152701939D01*
X164335000Y-152498061D01*
X164295226Y-152298102D01*
X164217205Y-152109744D01*
X164103937Y-151940226D01*
X163959774Y-151796063D01*
X163790256Y-151682795D01*
X163601898Y-151604774D01*
X163401939Y-151565000D01*
X163198061Y-151565000D01*
X162998102Y-151604774D01*
X162809744Y-151682795D01*
X162640226Y-151796063D01*
X162496063Y-151940226D01*
X162382795Y-152109744D01*
X162304774Y-152298102D01*
X162265000Y-152498061D01*
X162265000Y-152701939D01*
X162304774Y-152901898D01*
X162382795Y-153090256D01*
X162496063Y-153259774D01*
X162576289Y-153340000D01*
X152268448Y-153340000D01*
X152339776Y-153301874D01*
X152455501Y-153206901D01*
X152479304Y-153177897D01*
X154828084Y-150829117D01*
X195265000Y-150829117D01*
X195265000Y-151170883D01*
X195331675Y-151506081D01*
X195462463Y-151821831D01*
X195652337Y-152105998D01*
X195894002Y-152347663D01*
X196178169Y-152537537D01*
X196493919Y-152668325D01*
X196829117Y-152735000D01*
X197170883Y-152735000D01*
X197506081Y-152668325D01*
X197821831Y-152537537D01*
X198105998Y-152347663D01*
X198347663Y-152105998D01*
X198537537Y-151821831D01*
X198668325Y-151506081D01*
X198735000Y-151170883D01*
X198735000Y-150829117D01*
X198668325Y-150493919D01*
X198537537Y-150178169D01*
X198347663Y-149894002D01*
X198105998Y-149652337D01*
X197821831Y-149462463D01*
X197506081Y-149331675D01*
X197170883Y-149265000D01*
X196829117Y-149265000D01*
X196493919Y-149331675D01*
X196178169Y-149462463D01*
X195894002Y-149652337D01*
X195652337Y-149894002D01*
X195462463Y-150178169D01*
X195331675Y-150493919D01*
X195265000Y-150829117D01*
X154828084Y-150829117D01*
X165609306Y-140047895D01*
X165657795Y-140164956D01*
X165771063Y-140334474D01*
X165915226Y-140478637D01*
X166084744Y-140591905D01*
X166273102Y-140669926D01*
X166473061Y-140709700D01*
X166676939Y-140709700D01*
X166876898Y-140669926D01*
X167065256Y-140591905D01*
X167234774Y-140478637D01*
X167378937Y-140334474D01*
X167492205Y-140164956D01*
X167570226Y-139976598D01*
X167610000Y-139776639D01*
X167610000Y-139714501D01*
X192213503Y-115110999D01*
X192242501Y-115087201D01*
X192337474Y-114971476D01*
X192408046Y-114839447D01*
X192451503Y-114696186D01*
X192462500Y-114584533D01*
X192462500Y-114584524D01*
X192466176Y-114547201D01*
X192462500Y-114509878D01*
X192462500Y-99703711D01*
X192506437Y-99659774D01*
X192619705Y-99490256D01*
X192697726Y-99301898D01*
X192737500Y-99101939D01*
X192737500Y-98898061D01*
X192697726Y-98698102D01*
X192619705Y-98509744D01*
X192506437Y-98340226D01*
X192362274Y-98196063D01*
X192192756Y-98082795D01*
X192004398Y-98004774D01*
X191804439Y-97965000D01*
X191600561Y-97965000D01*
X191400602Y-98004774D01*
X191212244Y-98082795D01*
X191042726Y-98196063D01*
X190898563Y-98340226D01*
X190785295Y-98509744D01*
X190783000Y-98515285D01*
X190783000Y-98031322D01*
X190786676Y-97993999D01*
X190783000Y-97956676D01*
X190783000Y-97956667D01*
X190772003Y-97845014D01*
X190728546Y-97701753D01*
X190657974Y-97569724D01*
X190563001Y-97453999D01*
X190534004Y-97430202D01*
X187412100Y-94308299D01*
X187412100Y-94246161D01*
X187372326Y-94046202D01*
X187294305Y-93857844D01*
X187181037Y-93688326D01*
X187092211Y-93599500D01*
X188838099Y-93599500D01*
X190792000Y-95553403D01*
X190792000Y-95615539D01*
X190831774Y-95815498D01*
X190909795Y-96003856D01*
X191023063Y-96173374D01*
X191167226Y-96317537D01*
X191336744Y-96430805D01*
X191525102Y-96508826D01*
X191725061Y-96548600D01*
X191928939Y-96548600D01*
X192128898Y-96508826D01*
X192317256Y-96430805D01*
X192486774Y-96317537D01*
X192630937Y-96173374D01*
X192744205Y-96003856D01*
X192822226Y-95815498D01*
X192862000Y-95615539D01*
X192862000Y-95411661D01*
X192822226Y-95211702D01*
X192744205Y-95023344D01*
X192630937Y-94853826D01*
X192606228Y-94829117D01*
X195265000Y-94829117D01*
X195265000Y-95170883D01*
X195331675Y-95506081D01*
X195462463Y-95821831D01*
X195652337Y-96105998D01*
X195894002Y-96347663D01*
X196178169Y-96537537D01*
X196493919Y-96668325D01*
X196829117Y-96735000D01*
X197170883Y-96735000D01*
X197506081Y-96668325D01*
X197821831Y-96537537D01*
X198105998Y-96347663D01*
X198347663Y-96105998D01*
X198537537Y-95821831D01*
X198668325Y-95506081D01*
X198735000Y-95170883D01*
X198735000Y-94829117D01*
X198668325Y-94493919D01*
X198537537Y-94178169D01*
X198347663Y-93894002D01*
X198105998Y-93652337D01*
X197821831Y-93462463D01*
X197506081Y-93331675D01*
X197170883Y-93265000D01*
X196829117Y-93265000D01*
X196493919Y-93331675D01*
X196178169Y-93462463D01*
X195894002Y-93652337D01*
X195652337Y-93894002D01*
X195462463Y-94178169D01*
X195331675Y-94493919D01*
X195265000Y-94829117D01*
X192606228Y-94829117D01*
X192486774Y-94709663D01*
X192317256Y-94596395D01*
X192128898Y-94518374D01*
X191928939Y-94478600D01*
X191866803Y-94478600D01*
X190048201Y-92660000D01*
X197967721Y-92660000D01*
X198259659Y-92688625D01*
G36*
X139096500Y-92677861D02*
G01*
X139096500Y-92739998D01*
X128636899Y-103199600D01*
X108391911Y-103199600D01*
X108347974Y-103155663D01*
X108178456Y-103042395D01*
X107990098Y-102964374D01*
X107790139Y-102924600D01*
X107586261Y-102924600D01*
X107386302Y-102964374D01*
X107197944Y-103042395D01*
X107028426Y-103155663D01*
X106884263Y-103299826D01*
X106770995Y-103469344D01*
X106692974Y-103657702D01*
X106653200Y-103857661D01*
X106653200Y-104061539D01*
X106692974Y-104261498D01*
X106770995Y-104449856D01*
X106884263Y-104619374D01*
X107028426Y-104763537D01*
X107197944Y-104876805D01*
X107386302Y-104954826D01*
X107586261Y-104994600D01*
X107790139Y-104994600D01*
X107990098Y-104954826D01*
X108178456Y-104876805D01*
X108347974Y-104763537D01*
X108391911Y-104719600D01*
X128914378Y-104719600D01*
X128951700Y-104723276D01*
X128989022Y-104719600D01*
X128989033Y-104719600D01*
X129100686Y-104708603D01*
X129243947Y-104665146D01*
X129375976Y-104594574D01*
X129491701Y-104499601D01*
X129515504Y-104470597D01*
X136568131Y-97417971D01*
X136596063Y-97459774D01*
X136740226Y-97603937D01*
X136909744Y-97717205D01*
X137098102Y-97795226D01*
X137298061Y-97835000D01*
X137501939Y-97835000D01*
X137701898Y-97795226D01*
X137890256Y-97717205D01*
X138059774Y-97603937D01*
X138203937Y-97459774D01*
X138317205Y-97290256D01*
X138395226Y-97101898D01*
X138435000Y-96901939D01*
X138435000Y-96698061D01*
X138395226Y-96498102D01*
X138317205Y-96309744D01*
X138203937Y-96140226D01*
X138059774Y-95996063D01*
X138017971Y-95968131D01*
X140171302Y-93814800D01*
X140233439Y-93814800D01*
X140433398Y-93775026D01*
X140621756Y-93697005D01*
X140791274Y-93583737D01*
X140935437Y-93439574D01*
X141048705Y-93270056D01*
X141126726Y-93081698D01*
X141166500Y-92881739D01*
X141166500Y-92677861D01*
X141162947Y-92660000D01*
X141923799Y-92660000D01*
X141639303Y-92944496D01*
X141610299Y-92968299D01*
X141559825Y-93029802D01*
X141515326Y-93084024D01*
X141453599Y-93199506D01*
X141444754Y-93216054D01*
X141401297Y-93359315D01*
X141390300Y-93470968D01*
X141390300Y-93470978D01*
X141386624Y-93508300D01*
X141390300Y-93545623D01*
X141390300Y-95662212D01*
X141280139Y-95640300D01*
X141076261Y-95640300D01*
X140876302Y-95680074D01*
X140687944Y-95758095D01*
X140518426Y-95871363D01*
X140374263Y-96015526D01*
X140260995Y-96185044D01*
X140182974Y-96373402D01*
X140143200Y-96573361D01*
X140143200Y-96635498D01*
X119557824Y-117220874D01*
X119503937Y-117140226D01*
X119359774Y-116996063D01*
X119190256Y-116882795D01*
X119001898Y-116804774D01*
X118801939Y-116765000D01*
X118598061Y-116765000D01*
X118398102Y-116804774D01*
X118209744Y-116882795D01*
X118040226Y-116996063D01*
X117896063Y-117140226D01*
X117782795Y-117309744D01*
X117704774Y-117498102D01*
X117665000Y-117698061D01*
X117665000Y-117901939D01*
X117704774Y-118101898D01*
X117782795Y-118290256D01*
X117896063Y-118459774D01*
X118040226Y-118603937D01*
X118120874Y-118657824D01*
X114093698Y-122685001D01*
X114064700Y-122708799D01*
X114040902Y-122737797D01*
X114040901Y-122737798D01*
X113969726Y-122824524D01*
X113899154Y-122956554D01*
X113881448Y-123014926D01*
X113855698Y-123099814D01*
X113847525Y-123182795D01*
X113841024Y-123248800D01*
X113844701Y-123286132D01*
X113844701Y-123855388D01*
X113800763Y-123899326D01*
X113687495Y-124068844D01*
X113609474Y-124257202D01*
X113569700Y-124457161D01*
X113569700Y-124661039D01*
X113609474Y-124860998D01*
X113687495Y-125049356D01*
X113800763Y-125218874D01*
X113844701Y-125262812D01*
X113844700Y-134296289D01*
X113800763Y-134340226D01*
X113687495Y-134509744D01*
X113609474Y-134698102D01*
X113569700Y-134898061D01*
X113569700Y-135101939D01*
X113609474Y-135301898D01*
X113687495Y-135490256D01*
X113800763Y-135659774D01*
X113944926Y-135803937D01*
X114114444Y-135917205D01*
X114302802Y-135995226D01*
X114502761Y-136035000D01*
X114706639Y-136035000D01*
X114906598Y-135995226D01*
X115094956Y-135917205D01*
X115264474Y-135803937D01*
X115408637Y-135659774D01*
X115521905Y-135490256D01*
X115599926Y-135301898D01*
X115639700Y-135101939D01*
X115639700Y-134898061D01*
X115599926Y-134698102D01*
X115521905Y-134509744D01*
X115408637Y-134340226D01*
X115364700Y-134296289D01*
X115364700Y-126498061D01*
X122165000Y-126498061D01*
X122165000Y-126701939D01*
X122204774Y-126901898D01*
X122282795Y-127090256D01*
X122396063Y-127259774D01*
X122540226Y-127403937D01*
X122709744Y-127517205D01*
X122898102Y-127595226D01*
X123098061Y-127635000D01*
X123301939Y-127635000D01*
X123501898Y-127595226D01*
X123690256Y-127517205D01*
X123859774Y-127403937D01*
X124003937Y-127259774D01*
X124117205Y-127090256D01*
X124195226Y-126901898D01*
X124235000Y-126701939D01*
X124235000Y-126498061D01*
X124195226Y-126298102D01*
X124117205Y-126109744D01*
X124003937Y-125940226D01*
X123859774Y-125796063D01*
X123690256Y-125682795D01*
X123501898Y-125604774D01*
X123301939Y-125565000D01*
X123098061Y-125565000D01*
X122898102Y-125604774D01*
X122709744Y-125682795D01*
X122540226Y-125796063D01*
X122396063Y-125940226D01*
X122282795Y-126109744D01*
X122204774Y-126298102D01*
X122165000Y-126498061D01*
X115364700Y-126498061D01*
X115364700Y-125262811D01*
X115408637Y-125218874D01*
X115521905Y-125049356D01*
X115599926Y-124860998D01*
X115639700Y-124661039D01*
X115639700Y-124457161D01*
X115599926Y-124257202D01*
X115521905Y-124068844D01*
X115408637Y-123899326D01*
X115364700Y-123855389D01*
X115364700Y-123563601D01*
X118085034Y-120843267D01*
X118096063Y-120859774D01*
X118240226Y-121003937D01*
X118409744Y-121117205D01*
X118598102Y-121195226D01*
X118798061Y-121235000D01*
X119001939Y-121235000D01*
X119201898Y-121195226D01*
X119390256Y-121117205D01*
X119559774Y-121003937D01*
X119703937Y-120859774D01*
X119817205Y-120690256D01*
X119895226Y-120501898D01*
X119935000Y-120301939D01*
X119935000Y-120098061D01*
X119895226Y-119898102D01*
X119817205Y-119709744D01*
X119703937Y-119540226D01*
X119559774Y-119396063D01*
X119543267Y-119385034D01*
X122530240Y-116398061D01*
X126465000Y-116398061D01*
X126465000Y-116601939D01*
X126504774Y-116801898D01*
X126582795Y-116990256D01*
X126696063Y-117159774D01*
X126840226Y-117303937D01*
X127009744Y-117417205D01*
X127198102Y-117495226D01*
X127398061Y-117535000D01*
X127601939Y-117535000D01*
X127801898Y-117495226D01*
X127990256Y-117417205D01*
X128159774Y-117303937D01*
X128303937Y-117159774D01*
X128417205Y-116990256D01*
X128495226Y-116801898D01*
X128535000Y-116601939D01*
X128535000Y-116398061D01*
X128495226Y-116198102D01*
X128417205Y-116009744D01*
X128303937Y-115840226D01*
X128159774Y-115696063D01*
X127990256Y-115582795D01*
X127801898Y-115504774D01*
X127601939Y-115465000D01*
X127398061Y-115465000D01*
X127198102Y-115504774D01*
X127009744Y-115582795D01*
X126840226Y-115696063D01*
X126696063Y-115840226D01*
X126582795Y-116009744D01*
X126504774Y-116198102D01*
X126465000Y-116398061D01*
X122530240Y-116398061D01*
X127280240Y-111648061D01*
X130215000Y-111648061D01*
X130215000Y-111851939D01*
X130254774Y-112051898D01*
X130332795Y-112240256D01*
X130446063Y-112409774D01*
X130590226Y-112553937D01*
X130759744Y-112667205D01*
X130948102Y-112745226D01*
X131148061Y-112785000D01*
X131351939Y-112785000D01*
X131551898Y-112745226D01*
X131740256Y-112667205D01*
X131909774Y-112553937D01*
X132053937Y-112409774D01*
X132167205Y-112240256D01*
X132245226Y-112051898D01*
X132285000Y-111851939D01*
X132285000Y-111648061D01*
X132245226Y-111448102D01*
X132167205Y-111259744D01*
X132053937Y-111090226D01*
X131909774Y-110946063D01*
X131740256Y-110832795D01*
X131551898Y-110754774D01*
X131351939Y-110715000D01*
X131148061Y-110715000D01*
X130948102Y-110754774D01*
X130759744Y-110832795D01*
X130590226Y-110946063D01*
X130446063Y-111090226D01*
X130332795Y-111259744D01*
X130254774Y-111448102D01*
X130215000Y-111648061D01*
X127280240Y-111648061D01*
X129530240Y-109398061D01*
X129965000Y-109398061D01*
X129965000Y-109601939D01*
X130004774Y-109801898D01*
X130082795Y-109990256D01*
X130196063Y-110159774D01*
X130340226Y-110303937D01*
X130509744Y-110417205D01*
X130698102Y-110495226D01*
X130898061Y-110535000D01*
X131101939Y-110535000D01*
X131301898Y-110495226D01*
X131490256Y-110417205D01*
X131659774Y-110303937D01*
X131803937Y-110159774D01*
X131917205Y-109990256D01*
X131995226Y-109801898D01*
X132035000Y-109601939D01*
X132035000Y-109398061D01*
X131995226Y-109198102D01*
X131917205Y-109009744D01*
X131803937Y-108840226D01*
X131659774Y-108696063D01*
X131490256Y-108582795D01*
X131301898Y-108504774D01*
X131101939Y-108465000D01*
X130898061Y-108465000D01*
X130698102Y-108504774D01*
X130509744Y-108582795D01*
X130340226Y-108696063D01*
X130196063Y-108840226D01*
X130082795Y-109009744D01*
X130004774Y-109198102D01*
X129965000Y-109398061D01*
X129530240Y-109398061D01*
X141218002Y-97710300D01*
X141280139Y-97710300D01*
X141390301Y-97688388D01*
X141390301Y-97934897D01*
X137089003Y-102236196D01*
X137059999Y-102259999D01*
X137004871Y-102327174D01*
X136965026Y-102375724D01*
X136927429Y-102446063D01*
X136894454Y-102507754D01*
X136850997Y-102651015D01*
X136840000Y-102762668D01*
X136840000Y-102762678D01*
X136836324Y-102800000D01*
X136840000Y-102837322D01*
X136840001Y-115408199D01*
X135104330Y-117143871D01*
X135095226Y-117098102D01*
X135017205Y-116909744D01*
X134903937Y-116740226D01*
X134759774Y-116596063D01*
X134590256Y-116482795D01*
X134401898Y-116404774D01*
X134201939Y-116365000D01*
X133998061Y-116365000D01*
X133798102Y-116404774D01*
X133609744Y-116482795D01*
X133440226Y-116596063D01*
X133296063Y-116740226D01*
X133182795Y-116909744D01*
X133104774Y-117098102D01*
X133065000Y-117298061D01*
X133065000Y-117501939D01*
X133104774Y-117701898D01*
X133182795Y-117890256D01*
X133296063Y-118059774D01*
X133440226Y-118203937D01*
X133609744Y-118317205D01*
X133798102Y-118395226D01*
X133979950Y-118431397D01*
X133973999Y-118451015D01*
X133963002Y-118562668D01*
X133963002Y-118562678D01*
X133959326Y-118600000D01*
X133963002Y-118637323D01*
X133963003Y-122939666D01*
X133959326Y-122976998D01*
X133963003Y-123014331D01*
X133974000Y-123125984D01*
X133984177Y-123159533D01*
X134017456Y-123269244D01*
X134088028Y-123401274D01*
X134153496Y-123481046D01*
X134183002Y-123516999D01*
X134212000Y-123540797D01*
X135411201Y-124739999D01*
X135435000Y-124768998D01*
X135463998Y-124792796D01*
X135550724Y-124863971D01*
X135625495Y-124903937D01*
X135682754Y-124934543D01*
X135826015Y-124978000D01*
X135937668Y-124988997D01*
X135937678Y-124988997D01*
X135975001Y-124992673D01*
X136012324Y-124988997D01*
X136514196Y-124988997D01*
X138636200Y-127111002D01*
X138659999Y-127140001D01*
X138688997Y-127163799D01*
X138775724Y-127234974D01*
X138907753Y-127305546D01*
X139051014Y-127349003D01*
X139200000Y-127363677D01*
X139237333Y-127360000D01*
X140563999Y-127360000D01*
X141075498Y-127871500D01*
X124919003Y-144027996D01*
X124889999Y-144051799D01*
X124834871Y-144118974D01*
X124795026Y-144167524D01*
X124724455Y-144299553D01*
X124724454Y-144299554D01*
X124680997Y-144442815D01*
X124670000Y-144554468D01*
X124670000Y-144554478D01*
X124666324Y-144591800D01*
X124670000Y-144629123D01*
X124670000Y-146690169D01*
X124659018Y-146693500D01*
X124482834Y-146787673D01*
X124328407Y-146914407D01*
X124201673Y-147068834D01*
X124107500Y-147245018D01*
X124049509Y-147436189D01*
X124029928Y-147635000D01*
X124029928Y-150875126D01*
X123020072Y-149865270D01*
X123020072Y-147635000D01*
X123000491Y-147436189D01*
X122942500Y-147245018D01*
X122848327Y-147068834D01*
X122721593Y-146914407D01*
X122567166Y-146787673D01*
X122390982Y-146693500D01*
X122199811Y-146635509D01*
X122001000Y-146615928D01*
X121239000Y-146615928D01*
X121040189Y-146635509D01*
X120849018Y-146693500D01*
X120672834Y-146787673D01*
X120518407Y-146914407D01*
X120391673Y-147068834D01*
X120297500Y-147245018D01*
X120239509Y-147436189D01*
X120219928Y-147635000D01*
X120219928Y-150875126D01*
X119210072Y-149865270D01*
X119210072Y-147635000D01*
X119190491Y-147436189D01*
X119132500Y-147245018D01*
X119038327Y-147068834D01*
X118911593Y-146914407D01*
X118757166Y-146787673D01*
X118580982Y-146693500D01*
X118389811Y-146635509D01*
X118191000Y-146615928D01*
X117429000Y-146615928D01*
X117230189Y-146635509D01*
X117039018Y-146693500D01*
X116862834Y-146787673D01*
X116708407Y-146914407D01*
X116581673Y-147068834D01*
X116487500Y-147245018D01*
X116429509Y-147436189D01*
X116409928Y-147635000D01*
X116409928Y-151445000D01*
X116429509Y-151643811D01*
X116487500Y-151834982D01*
X116581673Y-152011166D01*
X116708407Y-152165593D01*
X116862834Y-152292327D01*
X117039018Y-152386500D01*
X117230189Y-152444491D01*
X117429000Y-152464072D01*
X118191000Y-152464072D01*
X118389811Y-152444491D01*
X118580982Y-152386500D01*
X118757166Y-152292327D01*
X118911593Y-152165593D01*
X119038327Y-152011166D01*
X119096859Y-151901661D01*
X120373105Y-153177908D01*
X120396899Y-153206901D01*
X120425892Y-153230695D01*
X120425896Y-153230699D01*
X120493300Y-153286015D01*
X120512624Y-153301874D01*
X120583952Y-153340000D01*
X91032279Y-153340000D01*
X90546106Y-153292330D01*
X90109503Y-153160512D01*
X89706814Y-152946399D01*
X89353387Y-152658150D01*
X89062673Y-152306739D01*
X88845760Y-151905564D01*
X88710894Y-151469886D01*
X88660000Y-150985664D01*
X88660000Y-150829117D01*
X89265000Y-150829117D01*
X89265000Y-151170883D01*
X89331675Y-151506081D01*
X89462463Y-151821831D01*
X89652337Y-152105998D01*
X89894002Y-152347663D01*
X90178169Y-152537537D01*
X90493919Y-152668325D01*
X90829117Y-152735000D01*
X91170883Y-152735000D01*
X91506081Y-152668325D01*
X91821831Y-152537537D01*
X92105998Y-152347663D01*
X92347663Y-152105998D01*
X92537537Y-151821831D01*
X92668325Y-151506081D01*
X92735000Y-151170883D01*
X92735000Y-150829117D01*
X92668325Y-150493919D01*
X92537537Y-150178169D01*
X92347663Y-149894002D01*
X92105998Y-149652337D01*
X91821831Y-149462463D01*
X91506081Y-149331675D01*
X91170883Y-149265000D01*
X90829117Y-149265000D01*
X90493919Y-149331675D01*
X90178169Y-149462463D01*
X89894002Y-149652337D01*
X89652337Y-149894002D01*
X89462463Y-150178169D01*
X89331675Y-150493919D01*
X89265000Y-150829117D01*
X88660000Y-150829117D01*
X88660000Y-140122861D01*
X106146800Y-140122861D01*
X106146800Y-140326739D01*
X106186574Y-140526698D01*
X106264595Y-140715056D01*
X106377863Y-140884574D01*
X106522026Y-141028737D01*
X106691544Y-141142005D01*
X106879902Y-141220026D01*
X107079861Y-141259800D01*
X107283739Y-141259800D01*
X107483698Y-141220026D01*
X107672056Y-141142005D01*
X107841574Y-141028737D01*
X107885511Y-140984800D01*
X113187578Y-140984800D01*
X113224900Y-140988476D01*
X113262222Y-140984800D01*
X113262233Y-140984800D01*
X113373886Y-140973803D01*
X113517147Y-140930346D01*
X113649176Y-140859774D01*
X113764901Y-140764801D01*
X113788704Y-140735797D01*
X120726440Y-133798061D01*
X123265000Y-133798061D01*
X123265000Y-134001939D01*
X123304774Y-134201898D01*
X123382795Y-134390256D01*
X123496063Y-134559774D01*
X123640226Y-134703937D01*
X123809744Y-134817205D01*
X123998102Y-134895226D01*
X124198061Y-134935000D01*
X124401939Y-134935000D01*
X124601898Y-134895226D01*
X124790256Y-134817205D01*
X124959774Y-134703937D01*
X125103937Y-134559774D01*
X125217205Y-134390256D01*
X125295226Y-134201898D01*
X125335000Y-134001939D01*
X125335000Y-133798061D01*
X125295226Y-133598102D01*
X125217205Y-133409744D01*
X125103937Y-133240226D01*
X124959774Y-133096063D01*
X124790256Y-132982795D01*
X124601898Y-132904774D01*
X124401939Y-132865000D01*
X124198061Y-132865000D01*
X123998102Y-132904774D01*
X123809744Y-132982795D01*
X123640226Y-133096063D01*
X123496063Y-133240226D01*
X123382795Y-133409744D01*
X123304774Y-133598102D01*
X123265000Y-133798061D01*
X120726440Y-133798061D01*
X125668575Y-128855927D01*
X125682795Y-128890256D01*
X125796063Y-129059774D01*
X125940226Y-129203937D01*
X126109744Y-129317205D01*
X126298102Y-129395226D01*
X126498061Y-129435000D01*
X126701939Y-129435000D01*
X126901898Y-129395226D01*
X127090256Y-129317205D01*
X127259774Y-129203937D01*
X127403937Y-129059774D01*
X127517205Y-128890256D01*
X127595226Y-128701898D01*
X127635000Y-128501939D01*
X127635000Y-128298061D01*
X127595226Y-128098102D01*
X127517205Y-127909744D01*
X127403937Y-127740226D01*
X127259774Y-127596063D01*
X127090256Y-127482795D01*
X127055927Y-127468575D01*
X128376441Y-126148061D01*
X134215000Y-126148061D01*
X134215000Y-126351939D01*
X134254774Y-126551898D01*
X134332795Y-126740256D01*
X134446063Y-126909774D01*
X134590226Y-127053937D01*
X134759744Y-127167205D01*
X134948102Y-127245226D01*
X135148061Y-127285000D01*
X135351939Y-127285000D01*
X135551898Y-127245226D01*
X135740256Y-127167205D01*
X135909774Y-127053937D01*
X136053937Y-126909774D01*
X136167205Y-126740256D01*
X136245226Y-126551898D01*
X136285000Y-126351939D01*
X136285000Y-126148061D01*
X136245226Y-125948102D01*
X136167205Y-125759744D01*
X136053937Y-125590226D01*
X135909774Y-125446063D01*
X135740256Y-125332795D01*
X135551898Y-125254774D01*
X135351939Y-125215000D01*
X135148061Y-125215000D01*
X134948102Y-125254774D01*
X134759744Y-125332795D01*
X134590226Y-125446063D01*
X134446063Y-125590226D01*
X134332795Y-125759744D01*
X134254774Y-125948102D01*
X134215000Y-126148061D01*
X128376441Y-126148061D01*
X131010603Y-123513900D01*
X131072739Y-123513900D01*
X131272698Y-123474126D01*
X131461056Y-123396105D01*
X131630574Y-123282837D01*
X131774737Y-123138674D01*
X131888005Y-122969156D01*
X131966026Y-122780798D01*
X132005800Y-122580839D01*
X132005800Y-122376961D01*
X131966026Y-122177002D01*
X131888005Y-121988644D01*
X131774737Y-121819126D01*
X131630574Y-121674963D01*
X131461056Y-121561695D01*
X131272698Y-121483674D01*
X131072739Y-121443900D01*
X130868861Y-121443900D01*
X130668902Y-121483674D01*
X130480544Y-121561695D01*
X130311026Y-121674963D01*
X130166863Y-121819126D01*
X130053595Y-121988644D01*
X129975574Y-122177002D01*
X129935800Y-122376961D01*
X129935800Y-122439097D01*
X112910099Y-139464800D01*
X107885511Y-139464800D01*
X107841574Y-139420863D01*
X107672056Y-139307595D01*
X107483698Y-139229574D01*
X107283739Y-139189800D01*
X107079861Y-139189800D01*
X106879902Y-139229574D01*
X106691544Y-139307595D01*
X106522026Y-139420863D01*
X106377863Y-139565026D01*
X106264595Y-139734544D01*
X106186574Y-139922902D01*
X106146800Y-140122861D01*
X88660000Y-140122861D01*
X88660000Y-128398061D01*
X98065000Y-128398061D01*
X98065000Y-128601939D01*
X98104774Y-128801898D01*
X98182795Y-128990256D01*
X98296063Y-129159774D01*
X98440226Y-129303937D01*
X98609744Y-129417205D01*
X98798102Y-129495226D01*
X98998061Y-129535000D01*
X99201939Y-129535000D01*
X99401898Y-129495226D01*
X99590256Y-129417205D01*
X99759774Y-129303937D01*
X99903937Y-129159774D01*
X100017205Y-128990256D01*
X100095226Y-128801898D01*
X100135000Y-128601939D01*
X100135000Y-128398061D01*
X100095226Y-128198102D01*
X100017205Y-128009744D01*
X99903937Y-127840226D01*
X99759774Y-127696063D01*
X99590256Y-127582795D01*
X99401898Y-127504774D01*
X99201939Y-127465000D01*
X98998061Y-127465000D01*
X98798102Y-127504774D01*
X98609744Y-127582795D01*
X98440226Y-127696063D01*
X98296063Y-127840226D01*
X98182795Y-128009744D01*
X98104774Y-128198102D01*
X98065000Y-128398061D01*
X88660000Y-128398061D01*
X88660000Y-120898061D01*
X97593900Y-120898061D01*
X97593900Y-121101939D01*
X97633674Y-121301898D01*
X97711695Y-121490256D01*
X97824963Y-121659774D01*
X97868900Y-121703711D01*
X97868901Y-122643468D01*
X97865224Y-122680800D01*
X97868901Y-122718133D01*
X97874123Y-122771147D01*
X97879898Y-122829785D01*
X97923354Y-122973046D01*
X97993926Y-123105076D01*
X98062637Y-123188800D01*
X98088900Y-123220801D01*
X98117898Y-123244599D01*
X104275500Y-129402202D01*
X104275500Y-129464339D01*
X104315274Y-129664298D01*
X104393295Y-129852656D01*
X104506563Y-130022174D01*
X104650726Y-130166337D01*
X104820244Y-130279605D01*
X105008602Y-130357626D01*
X105208561Y-130397400D01*
X105412439Y-130397400D01*
X105612398Y-130357626D01*
X105800756Y-130279605D01*
X105970274Y-130166337D01*
X106114437Y-130022174D01*
X106227705Y-129852656D01*
X106305726Y-129664298D01*
X106345500Y-129464339D01*
X106345500Y-129260461D01*
X106305726Y-129060502D01*
X106227705Y-128872144D01*
X106114437Y-128702626D01*
X105970274Y-128558463D01*
X105800756Y-128445195D01*
X105612398Y-128367174D01*
X105412439Y-128327400D01*
X105350302Y-128327400D01*
X99920963Y-122898061D01*
X107965000Y-122898061D01*
X107965000Y-123101939D01*
X108004774Y-123301898D01*
X108082795Y-123490256D01*
X108196063Y-123659774D01*
X108340226Y-123803937D01*
X108509744Y-123917205D01*
X108698102Y-123995226D01*
X108898061Y-124035000D01*
X109101939Y-124035000D01*
X109301898Y-123995226D01*
X109490256Y-123917205D01*
X109659774Y-123803937D01*
X109803937Y-123659774D01*
X109917205Y-123490256D01*
X109995226Y-123301898D01*
X110035000Y-123101939D01*
X110035000Y-122898061D01*
X109995226Y-122698102D01*
X109917205Y-122509744D01*
X109803937Y-122340226D01*
X109659774Y-122196063D01*
X109490256Y-122082795D01*
X109301898Y-122004774D01*
X109101939Y-121965000D01*
X108898061Y-121965000D01*
X108698102Y-122004774D01*
X108509744Y-122082795D01*
X108340226Y-122196063D01*
X108196063Y-122340226D01*
X108082795Y-122509744D01*
X108004774Y-122698102D01*
X107965000Y-122898061D01*
X99920963Y-122898061D01*
X99388900Y-122365999D01*
X99388900Y-121703711D01*
X99432837Y-121659774D01*
X99546105Y-121490256D01*
X99624126Y-121301898D01*
X99663900Y-121101939D01*
X99663900Y-120898061D01*
X99624126Y-120698102D01*
X99546105Y-120509744D01*
X99432837Y-120340226D01*
X99288674Y-120196063D01*
X99119156Y-120082795D01*
X98930798Y-120004774D01*
X98730839Y-119965000D01*
X98526961Y-119965000D01*
X98327002Y-120004774D01*
X98138644Y-120082795D01*
X97969126Y-120196063D01*
X97824963Y-120340226D01*
X97711695Y-120509744D01*
X97633674Y-120698102D01*
X97593900Y-120898061D01*
X88660000Y-120898061D01*
X88660000Y-116898061D01*
X93965000Y-116898061D01*
X93965000Y-117101939D01*
X94004774Y-117301898D01*
X94082795Y-117490256D01*
X94196063Y-117659774D01*
X94340226Y-117803937D01*
X94509744Y-117917205D01*
X94698102Y-117995226D01*
X94898061Y-118035000D01*
X95101939Y-118035000D01*
X95301898Y-117995226D01*
X95490256Y-117917205D01*
X95659774Y-117803937D01*
X95803937Y-117659774D01*
X95917205Y-117490256D01*
X95995226Y-117301898D01*
X96035000Y-117101939D01*
X96035000Y-116898061D01*
X95995226Y-116698102D01*
X95974499Y-116648061D01*
X101965000Y-116648061D01*
X101965000Y-116851939D01*
X102004774Y-117051898D01*
X102082795Y-117240256D01*
X102196063Y-117409774D01*
X102340226Y-117553937D01*
X102509744Y-117667205D01*
X102698102Y-117745226D01*
X102898061Y-117785000D01*
X103101939Y-117785000D01*
X103301898Y-117745226D01*
X103490256Y-117667205D01*
X103659774Y-117553937D01*
X103803937Y-117409774D01*
X103917205Y-117240256D01*
X103995226Y-117051898D01*
X104035000Y-116851939D01*
X104035000Y-116648061D01*
X110215000Y-116648061D01*
X110215000Y-116851939D01*
X110254774Y-117051898D01*
X110332795Y-117240256D01*
X110446063Y-117409774D01*
X110590226Y-117553937D01*
X110759744Y-117667205D01*
X110948102Y-117745226D01*
X111148061Y-117785000D01*
X111351939Y-117785000D01*
X111551898Y-117745226D01*
X111740256Y-117667205D01*
X111909774Y-117553937D01*
X112053937Y-117409774D01*
X112167205Y-117240256D01*
X112245226Y-117051898D01*
X112285000Y-116851939D01*
X112285000Y-116648061D01*
X112245226Y-116448102D01*
X112167205Y-116259744D01*
X112053937Y-116090226D01*
X111909774Y-115946063D01*
X111740256Y-115832795D01*
X111551898Y-115754774D01*
X111351939Y-115715000D01*
X111148061Y-115715000D01*
X110948102Y-115754774D01*
X110759744Y-115832795D01*
X110590226Y-115946063D01*
X110446063Y-116090226D01*
X110332795Y-116259744D01*
X110254774Y-116448102D01*
X110215000Y-116648061D01*
X104035000Y-116648061D01*
X103995226Y-116448102D01*
X103917205Y-116259744D01*
X103803937Y-116090226D01*
X103659774Y-115946063D01*
X103490256Y-115832795D01*
X103301898Y-115754774D01*
X103101939Y-115715000D01*
X102898061Y-115715000D01*
X102698102Y-115754774D01*
X102509744Y-115832795D01*
X102340226Y-115946063D01*
X102196063Y-116090226D01*
X102082795Y-116259744D01*
X102004774Y-116448102D01*
X101965000Y-116648061D01*
X95974499Y-116648061D01*
X95917205Y-116509744D01*
X95803937Y-116340226D01*
X95659774Y-116196063D01*
X95490256Y-116082795D01*
X95301898Y-116004774D01*
X95101939Y-115965000D01*
X94898061Y-115965000D01*
X94698102Y-116004774D01*
X94509744Y-116082795D01*
X94340226Y-116196063D01*
X94196063Y-116340226D01*
X94082795Y-116509744D01*
X94004774Y-116698102D01*
X93965000Y-116898061D01*
X88660000Y-116898061D01*
X88660000Y-109498061D01*
X117965000Y-109498061D01*
X117965000Y-109701939D01*
X118004774Y-109901898D01*
X118082795Y-110090256D01*
X118196063Y-110259774D01*
X118340226Y-110403937D01*
X118509744Y-110517205D01*
X118698102Y-110595226D01*
X118898061Y-110635000D01*
X119101939Y-110635000D01*
X119301898Y-110595226D01*
X119490256Y-110517205D01*
X119659774Y-110403937D01*
X119803937Y-110259774D01*
X119917205Y-110090256D01*
X119995226Y-109901898D01*
X120035000Y-109701939D01*
X120035000Y-109498061D01*
X119995226Y-109298102D01*
X119917205Y-109109744D01*
X119803937Y-108940226D01*
X119659774Y-108796063D01*
X119490256Y-108682795D01*
X119301898Y-108604774D01*
X119101939Y-108565000D01*
X118898061Y-108565000D01*
X118698102Y-108604774D01*
X118509744Y-108682795D01*
X118340226Y-108796063D01*
X118196063Y-108940226D01*
X118082795Y-109109744D01*
X118004774Y-109298102D01*
X117965000Y-109498061D01*
X88660000Y-109498061D01*
X88660000Y-106698061D01*
X93965000Y-106698061D01*
X93965000Y-106901939D01*
X94004774Y-107101898D01*
X94082795Y-107290256D01*
X94196063Y-107459774D01*
X94340226Y-107603937D01*
X94509744Y-107717205D01*
X94698102Y-107795226D01*
X94898061Y-107835000D01*
X95101939Y-107835000D01*
X95301898Y-107795226D01*
X95490256Y-107717205D01*
X95659774Y-107603937D01*
X95803937Y-107459774D01*
X95917205Y-107290256D01*
X95995226Y-107101898D01*
X96035000Y-106901939D01*
X96035000Y-106898061D01*
X102715000Y-106898061D01*
X102715000Y-107101939D01*
X102754774Y-107301898D01*
X102832795Y-107490256D01*
X102946063Y-107659774D01*
X103090226Y-107803937D01*
X103259744Y-107917205D01*
X103448102Y-107995226D01*
X103648061Y-108035000D01*
X103851939Y-108035000D01*
X104051898Y-107995226D01*
X104240256Y-107917205D01*
X104409774Y-107803937D01*
X104553937Y-107659774D01*
X104667205Y-107490256D01*
X104745226Y-107301898D01*
X104785000Y-107101939D01*
X104785000Y-106898061D01*
X104745226Y-106698102D01*
X104724499Y-106648061D01*
X109715000Y-106648061D01*
X109715000Y-106851939D01*
X109754774Y-107051898D01*
X109832795Y-107240256D01*
X109946063Y-107409774D01*
X110090226Y-107553937D01*
X110259744Y-107667205D01*
X110448102Y-107745226D01*
X110648061Y-107785000D01*
X110851939Y-107785000D01*
X111051898Y-107745226D01*
X111240256Y-107667205D01*
X111409774Y-107553937D01*
X111553937Y-107409774D01*
X111667205Y-107240256D01*
X111745226Y-107051898D01*
X111785000Y-106851939D01*
X111785000Y-106648061D01*
X111745226Y-106448102D01*
X111667205Y-106259744D01*
X111553937Y-106090226D01*
X111409774Y-105946063D01*
X111240256Y-105832795D01*
X111156402Y-105798061D01*
X117865000Y-105798061D01*
X117865000Y-106001939D01*
X117904774Y-106201898D01*
X117982795Y-106390256D01*
X118096063Y-106559774D01*
X118240226Y-106703937D01*
X118409744Y-106817205D01*
X118598102Y-106895226D01*
X118798061Y-106935000D01*
X119001939Y-106935000D01*
X119201898Y-106895226D01*
X119390256Y-106817205D01*
X119559774Y-106703937D01*
X119703937Y-106559774D01*
X119817205Y-106390256D01*
X119895226Y-106201898D01*
X119935000Y-106001939D01*
X119935000Y-105798061D01*
X121865000Y-105798061D01*
X121865000Y-106001939D01*
X121904774Y-106201898D01*
X121982795Y-106390256D01*
X122096063Y-106559774D01*
X122240226Y-106703937D01*
X122409744Y-106817205D01*
X122598102Y-106895226D01*
X122798061Y-106935000D01*
X123001939Y-106935000D01*
X123201898Y-106895226D01*
X123390256Y-106817205D01*
X123559774Y-106703937D01*
X123703937Y-106559774D01*
X123811989Y-106398061D01*
X125965000Y-106398061D01*
X125965000Y-106601939D01*
X126004774Y-106801898D01*
X126082795Y-106990256D01*
X126196063Y-107159774D01*
X126340226Y-107303937D01*
X126509744Y-107417205D01*
X126698102Y-107495226D01*
X126898061Y-107535000D01*
X127101939Y-107535000D01*
X127301898Y-107495226D01*
X127490256Y-107417205D01*
X127659774Y-107303937D01*
X127803937Y-107159774D01*
X127917205Y-106990256D01*
X127995226Y-106801898D01*
X128035000Y-106601939D01*
X128035000Y-106398061D01*
X127995226Y-106198102D01*
X127917205Y-106009744D01*
X127803937Y-105840226D01*
X127659774Y-105696063D01*
X127490256Y-105582795D01*
X127301898Y-105504774D01*
X127101939Y-105465000D01*
X126898061Y-105465000D01*
X126698102Y-105504774D01*
X126509744Y-105582795D01*
X126340226Y-105696063D01*
X126196063Y-105840226D01*
X126082795Y-106009744D01*
X126004774Y-106198102D01*
X125965000Y-106398061D01*
X123811989Y-106398061D01*
X123817205Y-106390256D01*
X123895226Y-106201898D01*
X123935000Y-106001939D01*
X123935000Y-105798061D01*
X123895226Y-105598102D01*
X123817205Y-105409744D01*
X123703937Y-105240226D01*
X123559774Y-105096063D01*
X123390256Y-104982795D01*
X123201898Y-104904774D01*
X123001939Y-104865000D01*
X122798061Y-104865000D01*
X122598102Y-104904774D01*
X122409744Y-104982795D01*
X122240226Y-105096063D01*
X122096063Y-105240226D01*
X121982795Y-105409744D01*
X121904774Y-105598102D01*
X121865000Y-105798061D01*
X119935000Y-105798061D01*
X119895226Y-105598102D01*
X119817205Y-105409744D01*
X119703937Y-105240226D01*
X119559774Y-105096063D01*
X119390256Y-104982795D01*
X119201898Y-104904774D01*
X119001939Y-104865000D01*
X118798061Y-104865000D01*
X118598102Y-104904774D01*
X118409744Y-104982795D01*
X118240226Y-105096063D01*
X118096063Y-105240226D01*
X117982795Y-105409744D01*
X117904774Y-105598102D01*
X117865000Y-105798061D01*
X111156402Y-105798061D01*
X111051898Y-105754774D01*
X110851939Y-105715000D01*
X110648061Y-105715000D01*
X110448102Y-105754774D01*
X110259744Y-105832795D01*
X110090226Y-105946063D01*
X109946063Y-106090226D01*
X109832795Y-106259744D01*
X109754774Y-106448102D01*
X109715000Y-106648061D01*
X104724499Y-106648061D01*
X104667205Y-106509744D01*
X104553937Y-106340226D01*
X104409774Y-106196063D01*
X104240256Y-106082795D01*
X104051898Y-106004774D01*
X103851939Y-105965000D01*
X103648061Y-105965000D01*
X103448102Y-106004774D01*
X103259744Y-106082795D01*
X103090226Y-106196063D01*
X102946063Y-106340226D01*
X102832795Y-106509744D01*
X102754774Y-106698102D01*
X102715000Y-106898061D01*
X96035000Y-106898061D01*
X96035000Y-106698061D01*
X95995226Y-106498102D01*
X95917205Y-106309744D01*
X95803937Y-106140226D01*
X95659774Y-105996063D01*
X95490256Y-105882795D01*
X95301898Y-105804774D01*
X95101939Y-105765000D01*
X94898061Y-105765000D01*
X94698102Y-105804774D01*
X94509744Y-105882795D01*
X94340226Y-105996063D01*
X94196063Y-106140226D01*
X94082795Y-106309744D01*
X94004774Y-106498102D01*
X93965000Y-106698061D01*
X88660000Y-106698061D01*
X88660000Y-103148061D01*
X90965000Y-103148061D01*
X90965000Y-103351939D01*
X91004774Y-103551898D01*
X91082795Y-103740256D01*
X91196063Y-103909774D01*
X91340226Y-104053937D01*
X91509744Y-104167205D01*
X91698102Y-104245226D01*
X91898061Y-104285000D01*
X92101939Y-104285000D01*
X92301898Y-104245226D01*
X92490256Y-104167205D01*
X92659774Y-104053937D01*
X92803937Y-103909774D01*
X92917205Y-103740256D01*
X92995226Y-103551898D01*
X93035000Y-103351939D01*
X93035000Y-103148061D01*
X92995226Y-102948102D01*
X92917205Y-102759744D01*
X92803937Y-102590226D01*
X92659774Y-102446063D01*
X92490256Y-102332795D01*
X92301898Y-102254774D01*
X92101939Y-102215000D01*
X91898061Y-102215000D01*
X91698102Y-102254774D01*
X91509744Y-102332795D01*
X91340226Y-102446063D01*
X91196063Y-102590226D01*
X91082795Y-102759744D01*
X91004774Y-102948102D01*
X90965000Y-103148061D01*
X88660000Y-103148061D01*
X88660000Y-96898061D01*
X97715000Y-96898061D01*
X97715000Y-97101939D01*
X97754774Y-97301898D01*
X97832795Y-97490256D01*
X97946063Y-97659774D01*
X98090226Y-97803937D01*
X98259744Y-97917205D01*
X98448102Y-97995226D01*
X98648061Y-98035000D01*
X98851939Y-98035000D01*
X99051898Y-97995226D01*
X99240256Y-97917205D01*
X99409774Y-97803937D01*
X99553937Y-97659774D01*
X99667205Y-97490256D01*
X99745226Y-97301898D01*
X99785000Y-97101939D01*
X99785000Y-96898061D01*
X99745226Y-96698102D01*
X99667205Y-96509744D01*
X99592582Y-96398061D01*
X105715000Y-96398061D01*
X105715000Y-96601939D01*
X105754774Y-96801898D01*
X105832795Y-96990256D01*
X105946063Y-97159774D01*
X106090226Y-97303937D01*
X106259744Y-97417205D01*
X106448102Y-97495226D01*
X106648061Y-97535000D01*
X106851939Y-97535000D01*
X107051898Y-97495226D01*
X107240256Y-97417205D01*
X107409774Y-97303937D01*
X107553937Y-97159774D01*
X107667205Y-96990256D01*
X107705393Y-96898061D01*
X113465000Y-96898061D01*
X113465000Y-97101939D01*
X113504774Y-97301898D01*
X113582795Y-97490256D01*
X113696063Y-97659774D01*
X113840226Y-97803937D01*
X114009744Y-97917205D01*
X114198102Y-97995226D01*
X114398061Y-98035000D01*
X114601939Y-98035000D01*
X114801898Y-97995226D01*
X114990256Y-97917205D01*
X115159774Y-97803937D01*
X115303937Y-97659774D01*
X115417205Y-97490256D01*
X115495226Y-97301898D01*
X115535000Y-97101939D01*
X115535000Y-96898061D01*
X121665000Y-96898061D01*
X121665000Y-97101939D01*
X121704774Y-97301898D01*
X121782795Y-97490256D01*
X121896063Y-97659774D01*
X122040226Y-97803937D01*
X122209744Y-97917205D01*
X122398102Y-97995226D01*
X122598061Y-98035000D01*
X122801939Y-98035000D01*
X123001898Y-97995226D01*
X123190256Y-97917205D01*
X123359774Y-97803937D01*
X123503937Y-97659774D01*
X123617205Y-97490256D01*
X123695226Y-97301898D01*
X123735000Y-97101939D01*
X123735000Y-96898061D01*
X123695226Y-96698102D01*
X123617205Y-96509744D01*
X123542582Y-96398061D01*
X129465000Y-96398061D01*
X129465000Y-96601939D01*
X129504774Y-96801898D01*
X129582795Y-96990256D01*
X129696063Y-97159774D01*
X129840226Y-97303937D01*
X130009744Y-97417205D01*
X130198102Y-97495226D01*
X130398061Y-97535000D01*
X130601939Y-97535000D01*
X130801898Y-97495226D01*
X130990256Y-97417205D01*
X131159774Y-97303937D01*
X131303937Y-97159774D01*
X131417205Y-96990256D01*
X131495226Y-96801898D01*
X131535000Y-96601939D01*
X131535000Y-96398061D01*
X131495226Y-96198102D01*
X131417205Y-96009744D01*
X131303937Y-95840226D01*
X131159774Y-95696063D01*
X130990256Y-95582795D01*
X130801898Y-95504774D01*
X130601939Y-95465000D01*
X130398061Y-95465000D01*
X130198102Y-95504774D01*
X130009744Y-95582795D01*
X129840226Y-95696063D01*
X129696063Y-95840226D01*
X129582795Y-96009744D01*
X129504774Y-96198102D01*
X129465000Y-96398061D01*
X123542582Y-96398061D01*
X123503937Y-96340226D01*
X123359774Y-96196063D01*
X123190256Y-96082795D01*
X123001898Y-96004774D01*
X122801939Y-95965000D01*
X122598061Y-95965000D01*
X122398102Y-96004774D01*
X122209744Y-96082795D01*
X122040226Y-96196063D01*
X121896063Y-96340226D01*
X121782795Y-96509744D01*
X121704774Y-96698102D01*
X121665000Y-96898061D01*
X115535000Y-96898061D01*
X115495226Y-96698102D01*
X115417205Y-96509744D01*
X115303937Y-96340226D01*
X115159774Y-96196063D01*
X114990256Y-96082795D01*
X114801898Y-96004774D01*
X114601939Y-95965000D01*
X114398061Y-95965000D01*
X114198102Y-96004774D01*
X114009744Y-96082795D01*
X113840226Y-96196063D01*
X113696063Y-96340226D01*
X113582795Y-96509744D01*
X113504774Y-96698102D01*
X113465000Y-96898061D01*
X107705393Y-96898061D01*
X107745226Y-96801898D01*
X107785000Y-96601939D01*
X107785000Y-96398061D01*
X107745226Y-96198102D01*
X107667205Y-96009744D01*
X107553937Y-95840226D01*
X107409774Y-95696063D01*
X107240256Y-95582795D01*
X107051898Y-95504774D01*
X106851939Y-95465000D01*
X106648061Y-95465000D01*
X106448102Y-95504774D01*
X106259744Y-95582795D01*
X106090226Y-95696063D01*
X105946063Y-95840226D01*
X105832795Y-96009744D01*
X105754774Y-96198102D01*
X105715000Y-96398061D01*
X99592582Y-96398061D01*
X99553937Y-96340226D01*
X99409774Y-96196063D01*
X99240256Y-96082795D01*
X99051898Y-96004774D01*
X98851939Y-95965000D01*
X98648061Y-95965000D01*
X98448102Y-96004774D01*
X98259744Y-96082795D01*
X98090226Y-96196063D01*
X97946063Y-96340226D01*
X97832795Y-96509744D01*
X97754774Y-96698102D01*
X97715000Y-96898061D01*
X88660000Y-96898061D01*
X88660000Y-95032279D01*
X88679920Y-94829117D01*
X89265000Y-94829117D01*
X89265000Y-95170883D01*
X89331675Y-95506081D01*
X89462463Y-95821831D01*
X89652337Y-96105998D01*
X89894002Y-96347663D01*
X90178169Y-96537537D01*
X90493919Y-96668325D01*
X90829117Y-96735000D01*
X91170883Y-96735000D01*
X91506081Y-96668325D01*
X91821831Y-96537537D01*
X92105998Y-96347663D01*
X92347663Y-96105998D01*
X92537537Y-95821831D01*
X92668325Y-95506081D01*
X92735000Y-95170883D01*
X92735000Y-94829117D01*
X92668325Y-94493919D01*
X92537537Y-94178169D01*
X92347663Y-93894002D01*
X92105998Y-93652337D01*
X91821831Y-93462463D01*
X91506081Y-93331675D01*
X91170883Y-93265000D01*
X90829117Y-93265000D01*
X90493919Y-93331675D01*
X90178169Y-93462463D01*
X89894002Y-93652337D01*
X89652337Y-93894002D01*
X89462463Y-94178169D01*
X89331675Y-94493919D01*
X89265000Y-94829117D01*
X88679920Y-94829117D01*
X88707670Y-94546107D01*
X88839489Y-94109502D01*
X89053600Y-93706815D01*
X89341848Y-93353388D01*
X89693261Y-93062673D01*
X90094439Y-92845758D01*
X90530113Y-92710894D01*
X91014344Y-92660000D01*
X139100053Y-92660000D01*
X139096500Y-92677861D01*
X139096500Y-92677861D01*
G37*
X139096500Y-92677861D02*
X139096500Y-92739998D01*
X128636899Y-103199600D01*
X108391911Y-103199600D01*
X108347974Y-103155663D01*
X108178456Y-103042395D01*
X107990098Y-102964374D01*
X107790139Y-102924600D01*
X107586261Y-102924600D01*
X107386302Y-102964374D01*
X107197944Y-103042395D01*
X107028426Y-103155663D01*
X106884263Y-103299826D01*
X106770995Y-103469344D01*
X106692974Y-103657702D01*
X106653200Y-103857661D01*
X106653200Y-104061539D01*
X106692974Y-104261498D01*
X106770995Y-104449856D01*
X106884263Y-104619374D01*
X107028426Y-104763537D01*
X107197944Y-104876805D01*
X107386302Y-104954826D01*
X107586261Y-104994600D01*
X107790139Y-104994600D01*
X107990098Y-104954826D01*
X108178456Y-104876805D01*
X108347974Y-104763537D01*
X108391911Y-104719600D01*
X128914378Y-104719600D01*
X128951700Y-104723276D01*
X128989022Y-104719600D01*
X128989033Y-104719600D01*
X129100686Y-104708603D01*
X129243947Y-104665146D01*
X129375976Y-104594574D01*
X129491701Y-104499601D01*
X129515504Y-104470597D01*
X136568131Y-97417971D01*
X136596063Y-97459774D01*
X136740226Y-97603937D01*
X136909744Y-97717205D01*
X137098102Y-97795226D01*
X137298061Y-97835000D01*
X137501939Y-97835000D01*
X137701898Y-97795226D01*
X137890256Y-97717205D01*
X138059774Y-97603937D01*
X138203937Y-97459774D01*
X138317205Y-97290256D01*
X138395226Y-97101898D01*
X138435000Y-96901939D01*
X138435000Y-96698061D01*
X138395226Y-96498102D01*
X138317205Y-96309744D01*
X138203937Y-96140226D01*
X138059774Y-95996063D01*
X138017971Y-95968131D01*
X140171302Y-93814800D01*
X140233439Y-93814800D01*
X140433398Y-93775026D01*
X140621756Y-93697005D01*
X140791274Y-93583737D01*
X140935437Y-93439574D01*
X141048705Y-93270056D01*
X141126726Y-93081698D01*
X141166500Y-92881739D01*
X141166500Y-92677861D01*
X141162947Y-92660000D01*
X141923799Y-92660000D01*
X141639303Y-92944496D01*
X141610299Y-92968299D01*
X141559825Y-93029802D01*
X141515326Y-93084024D01*
X141453599Y-93199506D01*
X141444754Y-93216054D01*
X141401297Y-93359315D01*
X141390300Y-93470968D01*
X141390300Y-93470978D01*
X141386624Y-93508300D01*
X141390300Y-93545623D01*
X141390300Y-95662212D01*
X141280139Y-95640300D01*
X141076261Y-95640300D01*
X140876302Y-95680074D01*
X140687944Y-95758095D01*
X140518426Y-95871363D01*
X140374263Y-96015526D01*
X140260995Y-96185044D01*
X140182974Y-96373402D01*
X140143200Y-96573361D01*
X140143200Y-96635498D01*
X119557824Y-117220874D01*
X119503937Y-117140226D01*
X119359774Y-116996063D01*
X119190256Y-116882795D01*
X119001898Y-116804774D01*
X118801939Y-116765000D01*
X118598061Y-116765000D01*
X118398102Y-116804774D01*
X118209744Y-116882795D01*
X118040226Y-116996063D01*
X117896063Y-117140226D01*
X117782795Y-117309744D01*
X117704774Y-117498102D01*
X117665000Y-117698061D01*
X117665000Y-117901939D01*
X117704774Y-118101898D01*
X117782795Y-118290256D01*
X117896063Y-118459774D01*
X118040226Y-118603937D01*
X118120874Y-118657824D01*
X114093698Y-122685001D01*
X114064700Y-122708799D01*
X114040902Y-122737797D01*
X114040901Y-122737798D01*
X113969726Y-122824524D01*
X113899154Y-122956554D01*
X113881448Y-123014926D01*
X113855698Y-123099814D01*
X113847525Y-123182795D01*
X113841024Y-123248800D01*
X113844701Y-123286132D01*
X113844701Y-123855388D01*
X113800763Y-123899326D01*
X113687495Y-124068844D01*
X113609474Y-124257202D01*
X113569700Y-124457161D01*
X113569700Y-124661039D01*
X113609474Y-124860998D01*
X113687495Y-125049356D01*
X113800763Y-125218874D01*
X113844701Y-125262812D01*
X113844700Y-134296289D01*
X113800763Y-134340226D01*
X113687495Y-134509744D01*
X113609474Y-134698102D01*
X113569700Y-134898061D01*
X113569700Y-135101939D01*
X113609474Y-135301898D01*
X113687495Y-135490256D01*
X113800763Y-135659774D01*
X113944926Y-135803937D01*
X114114444Y-135917205D01*
X114302802Y-135995226D01*
X114502761Y-136035000D01*
X114706639Y-136035000D01*
X114906598Y-135995226D01*
X115094956Y-135917205D01*
X115264474Y-135803937D01*
X115408637Y-135659774D01*
X115521905Y-135490256D01*
X115599926Y-135301898D01*
X115639700Y-135101939D01*
X115639700Y-134898061D01*
X115599926Y-134698102D01*
X115521905Y-134509744D01*
X115408637Y-134340226D01*
X115364700Y-134296289D01*
X115364700Y-126498061D01*
X122165000Y-126498061D01*
X122165000Y-126701939D01*
X122204774Y-126901898D01*
X122282795Y-127090256D01*
X122396063Y-127259774D01*
X122540226Y-127403937D01*
X122709744Y-127517205D01*
X122898102Y-127595226D01*
X123098061Y-127635000D01*
X123301939Y-127635000D01*
X123501898Y-127595226D01*
X123690256Y-127517205D01*
X123859774Y-127403937D01*
X124003937Y-127259774D01*
X124117205Y-127090256D01*
X124195226Y-126901898D01*
X124235000Y-126701939D01*
X124235000Y-126498061D01*
X124195226Y-126298102D01*
X124117205Y-126109744D01*
X124003937Y-125940226D01*
X123859774Y-125796063D01*
X123690256Y-125682795D01*
X123501898Y-125604774D01*
X123301939Y-125565000D01*
X123098061Y-125565000D01*
X122898102Y-125604774D01*
X122709744Y-125682795D01*
X122540226Y-125796063D01*
X122396063Y-125940226D01*
X122282795Y-126109744D01*
X122204774Y-126298102D01*
X122165000Y-126498061D01*
X115364700Y-126498061D01*
X115364700Y-125262811D01*
X115408637Y-125218874D01*
X115521905Y-125049356D01*
X115599926Y-124860998D01*
X115639700Y-124661039D01*
X115639700Y-124457161D01*
X115599926Y-124257202D01*
X115521905Y-124068844D01*
X115408637Y-123899326D01*
X115364700Y-123855389D01*
X115364700Y-123563601D01*
X118085034Y-120843267D01*
X118096063Y-120859774D01*
X118240226Y-121003937D01*
X118409744Y-121117205D01*
X118598102Y-121195226D01*
X118798061Y-121235000D01*
X119001939Y-121235000D01*
X119201898Y-121195226D01*
X119390256Y-121117205D01*
X119559774Y-121003937D01*
X119703937Y-120859774D01*
X119817205Y-120690256D01*
X119895226Y-120501898D01*
X119935000Y-120301939D01*
X119935000Y-120098061D01*
X119895226Y-119898102D01*
X119817205Y-119709744D01*
X119703937Y-119540226D01*
X119559774Y-119396063D01*
X119543267Y-119385034D01*
X122530240Y-116398061D01*
X126465000Y-116398061D01*
X126465000Y-116601939D01*
X126504774Y-116801898D01*
X126582795Y-116990256D01*
X126696063Y-117159774D01*
X126840226Y-117303937D01*
X127009744Y-117417205D01*
X127198102Y-117495226D01*
X127398061Y-117535000D01*
X127601939Y-117535000D01*
X127801898Y-117495226D01*
X127990256Y-117417205D01*
X128159774Y-117303937D01*
X128303937Y-117159774D01*
X128417205Y-116990256D01*
X128495226Y-116801898D01*
X128535000Y-116601939D01*
X128535000Y-116398061D01*
X128495226Y-116198102D01*
X128417205Y-116009744D01*
X128303937Y-115840226D01*
X128159774Y-115696063D01*
X127990256Y-115582795D01*
X127801898Y-115504774D01*
X127601939Y-115465000D01*
X127398061Y-115465000D01*
X127198102Y-115504774D01*
X127009744Y-115582795D01*
X126840226Y-115696063D01*
X126696063Y-115840226D01*
X126582795Y-116009744D01*
X126504774Y-116198102D01*
X126465000Y-116398061D01*
X122530240Y-116398061D01*
X127280240Y-111648061D01*
X130215000Y-111648061D01*
X130215000Y-111851939D01*
X130254774Y-112051898D01*
X130332795Y-112240256D01*
X130446063Y-112409774D01*
X130590226Y-112553937D01*
X130759744Y-112667205D01*
X130948102Y-112745226D01*
X131148061Y-112785000D01*
X131351939Y-112785000D01*
X131551898Y-112745226D01*
X131740256Y-112667205D01*
X131909774Y-112553937D01*
X132053937Y-112409774D01*
X132167205Y-112240256D01*
X132245226Y-112051898D01*
X132285000Y-111851939D01*
X132285000Y-111648061D01*
X132245226Y-111448102D01*
X132167205Y-111259744D01*
X132053937Y-111090226D01*
X131909774Y-110946063D01*
X131740256Y-110832795D01*
X131551898Y-110754774D01*
X131351939Y-110715000D01*
X131148061Y-110715000D01*
X130948102Y-110754774D01*
X130759744Y-110832795D01*
X130590226Y-110946063D01*
X130446063Y-111090226D01*
X130332795Y-111259744D01*
X130254774Y-111448102D01*
X130215000Y-111648061D01*
X127280240Y-111648061D01*
X129530240Y-109398061D01*
X129965000Y-109398061D01*
X129965000Y-109601939D01*
X130004774Y-109801898D01*
X130082795Y-109990256D01*
X130196063Y-110159774D01*
X130340226Y-110303937D01*
X130509744Y-110417205D01*
X130698102Y-110495226D01*
X130898061Y-110535000D01*
X131101939Y-110535000D01*
X131301898Y-110495226D01*
X131490256Y-110417205D01*
X131659774Y-110303937D01*
X131803937Y-110159774D01*
X131917205Y-109990256D01*
X131995226Y-109801898D01*
X132035000Y-109601939D01*
X132035000Y-109398061D01*
X131995226Y-109198102D01*
X131917205Y-109009744D01*
X131803937Y-108840226D01*
X131659774Y-108696063D01*
X131490256Y-108582795D01*
X131301898Y-108504774D01*
X131101939Y-108465000D01*
X130898061Y-108465000D01*
X130698102Y-108504774D01*
X130509744Y-108582795D01*
X130340226Y-108696063D01*
X130196063Y-108840226D01*
X130082795Y-109009744D01*
X130004774Y-109198102D01*
X129965000Y-109398061D01*
X129530240Y-109398061D01*
X141218002Y-97710300D01*
X141280139Y-97710300D01*
X141390301Y-97688388D01*
X141390301Y-97934897D01*
X137089003Y-102236196D01*
X137059999Y-102259999D01*
X137004871Y-102327174D01*
X136965026Y-102375724D01*
X136927429Y-102446063D01*
X136894454Y-102507754D01*
X136850997Y-102651015D01*
X136840000Y-102762668D01*
X136840000Y-102762678D01*
X136836324Y-102800000D01*
X136840000Y-102837322D01*
X136840001Y-115408199D01*
X135104330Y-117143871D01*
X135095226Y-117098102D01*
X135017205Y-116909744D01*
X134903937Y-116740226D01*
X134759774Y-116596063D01*
X134590256Y-116482795D01*
X134401898Y-116404774D01*
X134201939Y-116365000D01*
X133998061Y-116365000D01*
X133798102Y-116404774D01*
X133609744Y-116482795D01*
X133440226Y-116596063D01*
X133296063Y-116740226D01*
X133182795Y-116909744D01*
X133104774Y-117098102D01*
X133065000Y-117298061D01*
X133065000Y-117501939D01*
X133104774Y-117701898D01*
X133182795Y-117890256D01*
X133296063Y-118059774D01*
X133440226Y-118203937D01*
X133609744Y-118317205D01*
X133798102Y-118395226D01*
X133979950Y-118431397D01*
X133973999Y-118451015D01*
X133963002Y-118562668D01*
X133963002Y-118562678D01*
X133959326Y-118600000D01*
X133963002Y-118637323D01*
X133963003Y-122939666D01*
X133959326Y-122976998D01*
X133963003Y-123014331D01*
X133974000Y-123125984D01*
X133984177Y-123159533D01*
X134017456Y-123269244D01*
X134088028Y-123401274D01*
X134153496Y-123481046D01*
X134183002Y-123516999D01*
X134212000Y-123540797D01*
X135411201Y-124739999D01*
X135435000Y-124768998D01*
X135463998Y-124792796D01*
X135550724Y-124863971D01*
X135625495Y-124903937D01*
X135682754Y-124934543D01*
X135826015Y-124978000D01*
X135937668Y-124988997D01*
X135937678Y-124988997D01*
X135975001Y-124992673D01*
X136012324Y-124988997D01*
X136514196Y-124988997D01*
X138636200Y-127111002D01*
X138659999Y-127140001D01*
X138688997Y-127163799D01*
X138775724Y-127234974D01*
X138907753Y-127305546D01*
X139051014Y-127349003D01*
X139200000Y-127363677D01*
X139237333Y-127360000D01*
X140563999Y-127360000D01*
X141075498Y-127871500D01*
X124919003Y-144027996D01*
X124889999Y-144051799D01*
X124834871Y-144118974D01*
X124795026Y-144167524D01*
X124724455Y-144299553D01*
X124724454Y-144299554D01*
X124680997Y-144442815D01*
X124670000Y-144554468D01*
X124670000Y-144554478D01*
X124666324Y-144591800D01*
X124670000Y-144629123D01*
X124670000Y-146690169D01*
X124659018Y-146693500D01*
X124482834Y-146787673D01*
X124328407Y-146914407D01*
X124201673Y-147068834D01*
X124107500Y-147245018D01*
X124049509Y-147436189D01*
X124029928Y-147635000D01*
X124029928Y-150875126D01*
X123020072Y-149865270D01*
X123020072Y-147635000D01*
X123000491Y-147436189D01*
X122942500Y-147245018D01*
X122848327Y-147068834D01*
X122721593Y-146914407D01*
X122567166Y-146787673D01*
X122390982Y-146693500D01*
X122199811Y-146635509D01*
X122001000Y-146615928D01*
X121239000Y-146615928D01*
X121040189Y-146635509D01*
X120849018Y-146693500D01*
X120672834Y-146787673D01*
X120518407Y-146914407D01*
X120391673Y-147068834D01*
X120297500Y-147245018D01*
X120239509Y-147436189D01*
X120219928Y-147635000D01*
X120219928Y-150875126D01*
X119210072Y-149865270D01*
X119210072Y-147635000D01*
X119190491Y-147436189D01*
X119132500Y-147245018D01*
X119038327Y-147068834D01*
X118911593Y-146914407D01*
X118757166Y-146787673D01*
X118580982Y-146693500D01*
X118389811Y-146635509D01*
X118191000Y-146615928D01*
X117429000Y-146615928D01*
X117230189Y-146635509D01*
X117039018Y-146693500D01*
X116862834Y-146787673D01*
X116708407Y-146914407D01*
X116581673Y-147068834D01*
X116487500Y-147245018D01*
X116429509Y-147436189D01*
X116409928Y-147635000D01*
X116409928Y-151445000D01*
X116429509Y-151643811D01*
X116487500Y-151834982D01*
X116581673Y-152011166D01*
X116708407Y-152165593D01*
X116862834Y-152292327D01*
X117039018Y-152386500D01*
X117230189Y-152444491D01*
X117429000Y-152464072D01*
X118191000Y-152464072D01*
X118389811Y-152444491D01*
X118580982Y-152386500D01*
X118757166Y-152292327D01*
X118911593Y-152165593D01*
X119038327Y-152011166D01*
X119096859Y-151901661D01*
X120373105Y-153177908D01*
X120396899Y-153206901D01*
X120425892Y-153230695D01*
X120425896Y-153230699D01*
X120493300Y-153286015D01*
X120512624Y-153301874D01*
X120583952Y-153340000D01*
X91032279Y-153340000D01*
X90546106Y-153292330D01*
X90109503Y-153160512D01*
X89706814Y-152946399D01*
X89353387Y-152658150D01*
X89062673Y-152306739D01*
X88845760Y-151905564D01*
X88710894Y-151469886D01*
X88660000Y-150985664D01*
X88660000Y-150829117D01*
X89265000Y-150829117D01*
X89265000Y-151170883D01*
X89331675Y-151506081D01*
X89462463Y-151821831D01*
X89652337Y-152105998D01*
X89894002Y-152347663D01*
X90178169Y-152537537D01*
X90493919Y-152668325D01*
X90829117Y-152735000D01*
X91170883Y-152735000D01*
X91506081Y-152668325D01*
X91821831Y-152537537D01*
X92105998Y-152347663D01*
X92347663Y-152105998D01*
X92537537Y-151821831D01*
X92668325Y-151506081D01*
X92735000Y-151170883D01*
X92735000Y-150829117D01*
X92668325Y-150493919D01*
X92537537Y-150178169D01*
X92347663Y-149894002D01*
X92105998Y-149652337D01*
X91821831Y-149462463D01*
X91506081Y-149331675D01*
X91170883Y-149265000D01*
X90829117Y-149265000D01*
X90493919Y-149331675D01*
X90178169Y-149462463D01*
X89894002Y-149652337D01*
X89652337Y-149894002D01*
X89462463Y-150178169D01*
X89331675Y-150493919D01*
X89265000Y-150829117D01*
X88660000Y-150829117D01*
X88660000Y-140122861D01*
X106146800Y-140122861D01*
X106146800Y-140326739D01*
X106186574Y-140526698D01*
X106264595Y-140715056D01*
X106377863Y-140884574D01*
X106522026Y-141028737D01*
X106691544Y-141142005D01*
X106879902Y-141220026D01*
X107079861Y-141259800D01*
X107283739Y-141259800D01*
X107483698Y-141220026D01*
X107672056Y-141142005D01*
X107841574Y-141028737D01*
X107885511Y-140984800D01*
X113187578Y-140984800D01*
X113224900Y-140988476D01*
X113262222Y-140984800D01*
X113262233Y-140984800D01*
X113373886Y-140973803D01*
X113517147Y-140930346D01*
X113649176Y-140859774D01*
X113764901Y-140764801D01*
X113788704Y-140735797D01*
X120726440Y-133798061D01*
X123265000Y-133798061D01*
X123265000Y-134001939D01*
X123304774Y-134201898D01*
X123382795Y-134390256D01*
X123496063Y-134559774D01*
X123640226Y-134703937D01*
X123809744Y-134817205D01*
X123998102Y-134895226D01*
X124198061Y-134935000D01*
X124401939Y-134935000D01*
X124601898Y-134895226D01*
X124790256Y-134817205D01*
X124959774Y-134703937D01*
X125103937Y-134559774D01*
X125217205Y-134390256D01*
X125295226Y-134201898D01*
X125335000Y-134001939D01*
X125335000Y-133798061D01*
X125295226Y-133598102D01*
X125217205Y-133409744D01*
X125103937Y-133240226D01*
X124959774Y-133096063D01*
X124790256Y-132982795D01*
X124601898Y-132904774D01*
X124401939Y-132865000D01*
X124198061Y-132865000D01*
X123998102Y-132904774D01*
X123809744Y-132982795D01*
X123640226Y-133096063D01*
X123496063Y-133240226D01*
X123382795Y-133409744D01*
X123304774Y-133598102D01*
X123265000Y-133798061D01*
X120726440Y-133798061D01*
X125668575Y-128855927D01*
X125682795Y-128890256D01*
X125796063Y-129059774D01*
X125940226Y-129203937D01*
X126109744Y-129317205D01*
X126298102Y-129395226D01*
X126498061Y-129435000D01*
X126701939Y-129435000D01*
X126901898Y-129395226D01*
X127090256Y-129317205D01*
X127259774Y-129203937D01*
X127403937Y-129059774D01*
X127517205Y-128890256D01*
X127595226Y-128701898D01*
X127635000Y-128501939D01*
X127635000Y-128298061D01*
X127595226Y-128098102D01*
X127517205Y-127909744D01*
X127403937Y-127740226D01*
X127259774Y-127596063D01*
X127090256Y-127482795D01*
X127055927Y-127468575D01*
X128376441Y-126148061D01*
X134215000Y-126148061D01*
X134215000Y-126351939D01*
X134254774Y-126551898D01*
X134332795Y-126740256D01*
X134446063Y-126909774D01*
X134590226Y-127053937D01*
X134759744Y-127167205D01*
X134948102Y-127245226D01*
X135148061Y-127285000D01*
X135351939Y-127285000D01*
X135551898Y-127245226D01*
X135740256Y-127167205D01*
X135909774Y-127053937D01*
X136053937Y-126909774D01*
X136167205Y-126740256D01*
X136245226Y-126551898D01*
X136285000Y-126351939D01*
X136285000Y-126148061D01*
X136245226Y-125948102D01*
X136167205Y-125759744D01*
X136053937Y-125590226D01*
X135909774Y-125446063D01*
X135740256Y-125332795D01*
X135551898Y-125254774D01*
X135351939Y-125215000D01*
X135148061Y-125215000D01*
X134948102Y-125254774D01*
X134759744Y-125332795D01*
X134590226Y-125446063D01*
X134446063Y-125590226D01*
X134332795Y-125759744D01*
X134254774Y-125948102D01*
X134215000Y-126148061D01*
X128376441Y-126148061D01*
X131010603Y-123513900D01*
X131072739Y-123513900D01*
X131272698Y-123474126D01*
X131461056Y-123396105D01*
X131630574Y-123282837D01*
X131774737Y-123138674D01*
X131888005Y-122969156D01*
X131966026Y-122780798D01*
X132005800Y-122580839D01*
X132005800Y-122376961D01*
X131966026Y-122177002D01*
X131888005Y-121988644D01*
X131774737Y-121819126D01*
X131630574Y-121674963D01*
X131461056Y-121561695D01*
X131272698Y-121483674D01*
X131072739Y-121443900D01*
X130868861Y-121443900D01*
X130668902Y-121483674D01*
X130480544Y-121561695D01*
X130311026Y-121674963D01*
X130166863Y-121819126D01*
X130053595Y-121988644D01*
X129975574Y-122177002D01*
X129935800Y-122376961D01*
X129935800Y-122439097D01*
X112910099Y-139464800D01*
X107885511Y-139464800D01*
X107841574Y-139420863D01*
X107672056Y-139307595D01*
X107483698Y-139229574D01*
X107283739Y-139189800D01*
X107079861Y-139189800D01*
X106879902Y-139229574D01*
X106691544Y-139307595D01*
X106522026Y-139420863D01*
X106377863Y-139565026D01*
X106264595Y-139734544D01*
X106186574Y-139922902D01*
X106146800Y-140122861D01*
X88660000Y-140122861D01*
X88660000Y-128398061D01*
X98065000Y-128398061D01*
X98065000Y-128601939D01*
X98104774Y-128801898D01*
X98182795Y-128990256D01*
X98296063Y-129159774D01*
X98440226Y-129303937D01*
X98609744Y-129417205D01*
X98798102Y-129495226D01*
X98998061Y-129535000D01*
X99201939Y-129535000D01*
X99401898Y-129495226D01*
X99590256Y-129417205D01*
X99759774Y-129303937D01*
X99903937Y-129159774D01*
X100017205Y-128990256D01*
X100095226Y-128801898D01*
X100135000Y-128601939D01*
X100135000Y-128398061D01*
X100095226Y-128198102D01*
X100017205Y-128009744D01*
X99903937Y-127840226D01*
X99759774Y-127696063D01*
X99590256Y-127582795D01*
X99401898Y-127504774D01*
X99201939Y-127465000D01*
X98998061Y-127465000D01*
X98798102Y-127504774D01*
X98609744Y-127582795D01*
X98440226Y-127696063D01*
X98296063Y-127840226D01*
X98182795Y-128009744D01*
X98104774Y-128198102D01*
X98065000Y-128398061D01*
X88660000Y-128398061D01*
X88660000Y-120898061D01*
X97593900Y-120898061D01*
X97593900Y-121101939D01*
X97633674Y-121301898D01*
X97711695Y-121490256D01*
X97824963Y-121659774D01*
X97868900Y-121703711D01*
X97868901Y-122643468D01*
X97865224Y-122680800D01*
X97868901Y-122718133D01*
X97874123Y-122771147D01*
X97879898Y-122829785D01*
X97923354Y-122973046D01*
X97993926Y-123105076D01*
X98062637Y-123188800D01*
X98088900Y-123220801D01*
X98117898Y-123244599D01*
X104275500Y-129402202D01*
X104275500Y-129464339D01*
X104315274Y-129664298D01*
X104393295Y-129852656D01*
X104506563Y-130022174D01*
X104650726Y-130166337D01*
X104820244Y-130279605D01*
X105008602Y-130357626D01*
X105208561Y-130397400D01*
X105412439Y-130397400D01*
X105612398Y-130357626D01*
X105800756Y-130279605D01*
X105970274Y-130166337D01*
X106114437Y-130022174D01*
X106227705Y-129852656D01*
X106305726Y-129664298D01*
X106345500Y-129464339D01*
X106345500Y-129260461D01*
X106305726Y-129060502D01*
X106227705Y-128872144D01*
X106114437Y-128702626D01*
X105970274Y-128558463D01*
X105800756Y-128445195D01*
X105612398Y-128367174D01*
X105412439Y-128327400D01*
X105350302Y-128327400D01*
X99920963Y-122898061D01*
X107965000Y-122898061D01*
X107965000Y-123101939D01*
X108004774Y-123301898D01*
X108082795Y-123490256D01*
X108196063Y-123659774D01*
X108340226Y-123803937D01*
X108509744Y-123917205D01*
X108698102Y-123995226D01*
X108898061Y-124035000D01*
X109101939Y-124035000D01*
X109301898Y-123995226D01*
X109490256Y-123917205D01*
X109659774Y-123803937D01*
X109803937Y-123659774D01*
X109917205Y-123490256D01*
X109995226Y-123301898D01*
X110035000Y-123101939D01*
X110035000Y-122898061D01*
X109995226Y-122698102D01*
X109917205Y-122509744D01*
X109803937Y-122340226D01*
X109659774Y-122196063D01*
X109490256Y-122082795D01*
X109301898Y-122004774D01*
X109101939Y-121965000D01*
X108898061Y-121965000D01*
X108698102Y-122004774D01*
X108509744Y-122082795D01*
X108340226Y-122196063D01*
X108196063Y-122340226D01*
X108082795Y-122509744D01*
X108004774Y-122698102D01*
X107965000Y-122898061D01*
X99920963Y-122898061D01*
X99388900Y-122365999D01*
X99388900Y-121703711D01*
X99432837Y-121659774D01*
X99546105Y-121490256D01*
X99624126Y-121301898D01*
X99663900Y-121101939D01*
X99663900Y-120898061D01*
X99624126Y-120698102D01*
X99546105Y-120509744D01*
X99432837Y-120340226D01*
X99288674Y-120196063D01*
X99119156Y-120082795D01*
X98930798Y-120004774D01*
X98730839Y-119965000D01*
X98526961Y-119965000D01*
X98327002Y-120004774D01*
X98138644Y-120082795D01*
X97969126Y-120196063D01*
X97824963Y-120340226D01*
X97711695Y-120509744D01*
X97633674Y-120698102D01*
X97593900Y-120898061D01*
X88660000Y-120898061D01*
X88660000Y-116898061D01*
X93965000Y-116898061D01*
X93965000Y-117101939D01*
X94004774Y-117301898D01*
X94082795Y-117490256D01*
X94196063Y-117659774D01*
X94340226Y-117803937D01*
X94509744Y-117917205D01*
X94698102Y-117995226D01*
X94898061Y-118035000D01*
X95101939Y-118035000D01*
X95301898Y-117995226D01*
X95490256Y-117917205D01*
X95659774Y-117803937D01*
X95803937Y-117659774D01*
X95917205Y-117490256D01*
X95995226Y-117301898D01*
X96035000Y-117101939D01*
X96035000Y-116898061D01*
X95995226Y-116698102D01*
X95974499Y-116648061D01*
X101965000Y-116648061D01*
X101965000Y-116851939D01*
X102004774Y-117051898D01*
X102082795Y-117240256D01*
X102196063Y-117409774D01*
X102340226Y-117553937D01*
X102509744Y-117667205D01*
X102698102Y-117745226D01*
X102898061Y-117785000D01*
X103101939Y-117785000D01*
X103301898Y-117745226D01*
X103490256Y-117667205D01*
X103659774Y-117553937D01*
X103803937Y-117409774D01*
X103917205Y-117240256D01*
X103995226Y-117051898D01*
X104035000Y-116851939D01*
X104035000Y-116648061D01*
X110215000Y-116648061D01*
X110215000Y-116851939D01*
X110254774Y-117051898D01*
X110332795Y-117240256D01*
X110446063Y-117409774D01*
X110590226Y-117553937D01*
X110759744Y-117667205D01*
X110948102Y-117745226D01*
X111148061Y-117785000D01*
X111351939Y-117785000D01*
X111551898Y-117745226D01*
X111740256Y-117667205D01*
X111909774Y-117553937D01*
X112053937Y-117409774D01*
X112167205Y-117240256D01*
X112245226Y-117051898D01*
X112285000Y-116851939D01*
X112285000Y-116648061D01*
X112245226Y-116448102D01*
X112167205Y-116259744D01*
X112053937Y-116090226D01*
X111909774Y-115946063D01*
X111740256Y-115832795D01*
X111551898Y-115754774D01*
X111351939Y-115715000D01*
X111148061Y-115715000D01*
X110948102Y-115754774D01*
X110759744Y-115832795D01*
X110590226Y-115946063D01*
X110446063Y-116090226D01*
X110332795Y-116259744D01*
X110254774Y-116448102D01*
X110215000Y-116648061D01*
X104035000Y-116648061D01*
X103995226Y-116448102D01*
X103917205Y-116259744D01*
X103803937Y-116090226D01*
X103659774Y-115946063D01*
X103490256Y-115832795D01*
X103301898Y-115754774D01*
X103101939Y-115715000D01*
X102898061Y-115715000D01*
X102698102Y-115754774D01*
X102509744Y-115832795D01*
X102340226Y-115946063D01*
X102196063Y-116090226D01*
X102082795Y-116259744D01*
X102004774Y-116448102D01*
X101965000Y-116648061D01*
X95974499Y-116648061D01*
X95917205Y-116509744D01*
X95803937Y-116340226D01*
X95659774Y-116196063D01*
X95490256Y-116082795D01*
X95301898Y-116004774D01*
X95101939Y-115965000D01*
X94898061Y-115965000D01*
X94698102Y-116004774D01*
X94509744Y-116082795D01*
X94340226Y-116196063D01*
X94196063Y-116340226D01*
X94082795Y-116509744D01*
X94004774Y-116698102D01*
X93965000Y-116898061D01*
X88660000Y-116898061D01*
X88660000Y-109498061D01*
X117965000Y-109498061D01*
X117965000Y-109701939D01*
X118004774Y-109901898D01*
X118082795Y-110090256D01*
X118196063Y-110259774D01*
X118340226Y-110403937D01*
X118509744Y-110517205D01*
X118698102Y-110595226D01*
X118898061Y-110635000D01*
X119101939Y-110635000D01*
X119301898Y-110595226D01*
X119490256Y-110517205D01*
X119659774Y-110403937D01*
X119803937Y-110259774D01*
X119917205Y-110090256D01*
X119995226Y-109901898D01*
X120035000Y-109701939D01*
X120035000Y-109498061D01*
X119995226Y-109298102D01*
X119917205Y-109109744D01*
X119803937Y-108940226D01*
X119659774Y-108796063D01*
X119490256Y-108682795D01*
X119301898Y-108604774D01*
X119101939Y-108565000D01*
X118898061Y-108565000D01*
X118698102Y-108604774D01*
X118509744Y-108682795D01*
X118340226Y-108796063D01*
X118196063Y-108940226D01*
X118082795Y-109109744D01*
X118004774Y-109298102D01*
X117965000Y-109498061D01*
X88660000Y-109498061D01*
X88660000Y-106698061D01*
X93965000Y-106698061D01*
X93965000Y-106901939D01*
X94004774Y-107101898D01*
X94082795Y-107290256D01*
X94196063Y-107459774D01*
X94340226Y-107603937D01*
X94509744Y-107717205D01*
X94698102Y-107795226D01*
X94898061Y-107835000D01*
X95101939Y-107835000D01*
X95301898Y-107795226D01*
X95490256Y-107717205D01*
X95659774Y-107603937D01*
X95803937Y-107459774D01*
X95917205Y-107290256D01*
X95995226Y-107101898D01*
X96035000Y-106901939D01*
X96035000Y-106898061D01*
X102715000Y-106898061D01*
X102715000Y-107101939D01*
X102754774Y-107301898D01*
X102832795Y-107490256D01*
X102946063Y-107659774D01*
X103090226Y-107803937D01*
X103259744Y-107917205D01*
X103448102Y-107995226D01*
X103648061Y-108035000D01*
X103851939Y-108035000D01*
X104051898Y-107995226D01*
X104240256Y-107917205D01*
X104409774Y-107803937D01*
X104553937Y-107659774D01*
X104667205Y-107490256D01*
X104745226Y-107301898D01*
X104785000Y-107101939D01*
X104785000Y-106898061D01*
X104745226Y-106698102D01*
X104724499Y-106648061D01*
X109715000Y-106648061D01*
X109715000Y-106851939D01*
X109754774Y-107051898D01*
X109832795Y-107240256D01*
X109946063Y-107409774D01*
X110090226Y-107553937D01*
X110259744Y-107667205D01*
X110448102Y-107745226D01*
X110648061Y-107785000D01*
X110851939Y-107785000D01*
X111051898Y-107745226D01*
X111240256Y-107667205D01*
X111409774Y-107553937D01*
X111553937Y-107409774D01*
X111667205Y-107240256D01*
X111745226Y-107051898D01*
X111785000Y-106851939D01*
X111785000Y-106648061D01*
X111745226Y-106448102D01*
X111667205Y-106259744D01*
X111553937Y-106090226D01*
X111409774Y-105946063D01*
X111240256Y-105832795D01*
X111156402Y-105798061D01*
X117865000Y-105798061D01*
X117865000Y-106001939D01*
X117904774Y-106201898D01*
X117982795Y-106390256D01*
X118096063Y-106559774D01*
X118240226Y-106703937D01*
X118409744Y-106817205D01*
X118598102Y-106895226D01*
X118798061Y-106935000D01*
X119001939Y-106935000D01*
X119201898Y-106895226D01*
X119390256Y-106817205D01*
X119559774Y-106703937D01*
X119703937Y-106559774D01*
X119817205Y-106390256D01*
X119895226Y-106201898D01*
X119935000Y-106001939D01*
X119935000Y-105798061D01*
X121865000Y-105798061D01*
X121865000Y-106001939D01*
X121904774Y-106201898D01*
X121982795Y-106390256D01*
X122096063Y-106559774D01*
X122240226Y-106703937D01*
X122409744Y-106817205D01*
X122598102Y-106895226D01*
X122798061Y-106935000D01*
X123001939Y-106935000D01*
X123201898Y-106895226D01*
X123390256Y-106817205D01*
X123559774Y-106703937D01*
X123703937Y-106559774D01*
X123811989Y-106398061D01*
X125965000Y-106398061D01*
X125965000Y-106601939D01*
X126004774Y-106801898D01*
X126082795Y-106990256D01*
X126196063Y-107159774D01*
X126340226Y-107303937D01*
X126509744Y-107417205D01*
X126698102Y-107495226D01*
X126898061Y-107535000D01*
X127101939Y-107535000D01*
X127301898Y-107495226D01*
X127490256Y-107417205D01*
X127659774Y-107303937D01*
X127803937Y-107159774D01*
X127917205Y-106990256D01*
X127995226Y-106801898D01*
X128035000Y-106601939D01*
X128035000Y-106398061D01*
X127995226Y-106198102D01*
X127917205Y-106009744D01*
X127803937Y-105840226D01*
X127659774Y-105696063D01*
X127490256Y-105582795D01*
X127301898Y-105504774D01*
X127101939Y-105465000D01*
X126898061Y-105465000D01*
X126698102Y-105504774D01*
X126509744Y-105582795D01*
X126340226Y-105696063D01*
X126196063Y-105840226D01*
X126082795Y-106009744D01*
X126004774Y-106198102D01*
X125965000Y-106398061D01*
X123811989Y-106398061D01*
X123817205Y-106390256D01*
X123895226Y-106201898D01*
X123935000Y-106001939D01*
X123935000Y-105798061D01*
X123895226Y-105598102D01*
X123817205Y-105409744D01*
X123703937Y-105240226D01*
X123559774Y-105096063D01*
X123390256Y-104982795D01*
X123201898Y-104904774D01*
X123001939Y-104865000D01*
X122798061Y-104865000D01*
X122598102Y-104904774D01*
X122409744Y-104982795D01*
X122240226Y-105096063D01*
X122096063Y-105240226D01*
X121982795Y-105409744D01*
X121904774Y-105598102D01*
X121865000Y-105798061D01*
X119935000Y-105798061D01*
X119895226Y-105598102D01*
X119817205Y-105409744D01*
X119703937Y-105240226D01*
X119559774Y-105096063D01*
X119390256Y-104982795D01*
X119201898Y-104904774D01*
X119001939Y-104865000D01*
X118798061Y-104865000D01*
X118598102Y-104904774D01*
X118409744Y-104982795D01*
X118240226Y-105096063D01*
X118096063Y-105240226D01*
X117982795Y-105409744D01*
X117904774Y-105598102D01*
X117865000Y-105798061D01*
X111156402Y-105798061D01*
X111051898Y-105754774D01*
X110851939Y-105715000D01*
X110648061Y-105715000D01*
X110448102Y-105754774D01*
X110259744Y-105832795D01*
X110090226Y-105946063D01*
X109946063Y-106090226D01*
X109832795Y-106259744D01*
X109754774Y-106448102D01*
X109715000Y-106648061D01*
X104724499Y-106648061D01*
X104667205Y-106509744D01*
X104553937Y-106340226D01*
X104409774Y-106196063D01*
X104240256Y-106082795D01*
X104051898Y-106004774D01*
X103851939Y-105965000D01*
X103648061Y-105965000D01*
X103448102Y-106004774D01*
X103259744Y-106082795D01*
X103090226Y-106196063D01*
X102946063Y-106340226D01*
X102832795Y-106509744D01*
X102754774Y-106698102D01*
X102715000Y-106898061D01*
X96035000Y-106898061D01*
X96035000Y-106698061D01*
X95995226Y-106498102D01*
X95917205Y-106309744D01*
X95803937Y-106140226D01*
X95659774Y-105996063D01*
X95490256Y-105882795D01*
X95301898Y-105804774D01*
X95101939Y-105765000D01*
X94898061Y-105765000D01*
X94698102Y-105804774D01*
X94509744Y-105882795D01*
X94340226Y-105996063D01*
X94196063Y-106140226D01*
X94082795Y-106309744D01*
X94004774Y-106498102D01*
X93965000Y-106698061D01*
X88660000Y-106698061D01*
X88660000Y-103148061D01*
X90965000Y-103148061D01*
X90965000Y-103351939D01*
X91004774Y-103551898D01*
X91082795Y-103740256D01*
X91196063Y-103909774D01*
X91340226Y-104053937D01*
X91509744Y-104167205D01*
X91698102Y-104245226D01*
X91898061Y-104285000D01*
X92101939Y-104285000D01*
X92301898Y-104245226D01*
X92490256Y-104167205D01*
X92659774Y-104053937D01*
X92803937Y-103909774D01*
X92917205Y-103740256D01*
X92995226Y-103551898D01*
X93035000Y-103351939D01*
X93035000Y-103148061D01*
X92995226Y-102948102D01*
X92917205Y-102759744D01*
X92803937Y-102590226D01*
X92659774Y-102446063D01*
X92490256Y-102332795D01*
X92301898Y-102254774D01*
X92101939Y-102215000D01*
X91898061Y-102215000D01*
X91698102Y-102254774D01*
X91509744Y-102332795D01*
X91340226Y-102446063D01*
X91196063Y-102590226D01*
X91082795Y-102759744D01*
X91004774Y-102948102D01*
X90965000Y-103148061D01*
X88660000Y-103148061D01*
X88660000Y-96898061D01*
X97715000Y-96898061D01*
X97715000Y-97101939D01*
X97754774Y-97301898D01*
X97832795Y-97490256D01*
X97946063Y-97659774D01*
X98090226Y-97803937D01*
X98259744Y-97917205D01*
X98448102Y-97995226D01*
X98648061Y-98035000D01*
X98851939Y-98035000D01*
X99051898Y-97995226D01*
X99240256Y-97917205D01*
X99409774Y-97803937D01*
X99553937Y-97659774D01*
X99667205Y-97490256D01*
X99745226Y-97301898D01*
X99785000Y-97101939D01*
X99785000Y-96898061D01*
X99745226Y-96698102D01*
X99667205Y-96509744D01*
X99592582Y-96398061D01*
X105715000Y-96398061D01*
X105715000Y-96601939D01*
X105754774Y-96801898D01*
X105832795Y-96990256D01*
X105946063Y-97159774D01*
X106090226Y-97303937D01*
X106259744Y-97417205D01*
X106448102Y-97495226D01*
X106648061Y-97535000D01*
X106851939Y-97535000D01*
X107051898Y-97495226D01*
X107240256Y-97417205D01*
X107409774Y-97303937D01*
X107553937Y-97159774D01*
X107667205Y-96990256D01*
X107705393Y-96898061D01*
X113465000Y-96898061D01*
X113465000Y-97101939D01*
X113504774Y-97301898D01*
X113582795Y-97490256D01*
X113696063Y-97659774D01*
X113840226Y-97803937D01*
X114009744Y-97917205D01*
X114198102Y-97995226D01*
X114398061Y-98035000D01*
X114601939Y-98035000D01*
X114801898Y-97995226D01*
X114990256Y-97917205D01*
X115159774Y-97803937D01*
X115303937Y-97659774D01*
X115417205Y-97490256D01*
X115495226Y-97301898D01*
X115535000Y-97101939D01*
X115535000Y-96898061D01*
X121665000Y-96898061D01*
X121665000Y-97101939D01*
X121704774Y-97301898D01*
X121782795Y-97490256D01*
X121896063Y-97659774D01*
X122040226Y-97803937D01*
X122209744Y-97917205D01*
X122398102Y-97995226D01*
X122598061Y-98035000D01*
X122801939Y-98035000D01*
X123001898Y-97995226D01*
X123190256Y-97917205D01*
X123359774Y-97803937D01*
X123503937Y-97659774D01*
X123617205Y-97490256D01*
X123695226Y-97301898D01*
X123735000Y-97101939D01*
X123735000Y-96898061D01*
X123695226Y-96698102D01*
X123617205Y-96509744D01*
X123542582Y-96398061D01*
X129465000Y-96398061D01*
X129465000Y-96601939D01*
X129504774Y-96801898D01*
X129582795Y-96990256D01*
X129696063Y-97159774D01*
X129840226Y-97303937D01*
X130009744Y-97417205D01*
X130198102Y-97495226D01*
X130398061Y-97535000D01*
X130601939Y-97535000D01*
X130801898Y-97495226D01*
X130990256Y-97417205D01*
X131159774Y-97303937D01*
X131303937Y-97159774D01*
X131417205Y-96990256D01*
X131495226Y-96801898D01*
X131535000Y-96601939D01*
X131535000Y-96398061D01*
X131495226Y-96198102D01*
X131417205Y-96009744D01*
X131303937Y-95840226D01*
X131159774Y-95696063D01*
X130990256Y-95582795D01*
X130801898Y-95504774D01*
X130601939Y-95465000D01*
X130398061Y-95465000D01*
X130198102Y-95504774D01*
X130009744Y-95582795D01*
X129840226Y-95696063D01*
X129696063Y-95840226D01*
X129582795Y-96009744D01*
X129504774Y-96198102D01*
X129465000Y-96398061D01*
X123542582Y-96398061D01*
X123503937Y-96340226D01*
X123359774Y-96196063D01*
X123190256Y-96082795D01*
X123001898Y-96004774D01*
X122801939Y-95965000D01*
X122598061Y-95965000D01*
X122398102Y-96004774D01*
X122209744Y-96082795D01*
X122040226Y-96196063D01*
X121896063Y-96340226D01*
X121782795Y-96509744D01*
X121704774Y-96698102D01*
X121665000Y-96898061D01*
X115535000Y-96898061D01*
X115495226Y-96698102D01*
X115417205Y-96509744D01*
X115303937Y-96340226D01*
X115159774Y-96196063D01*
X114990256Y-96082795D01*
X114801898Y-96004774D01*
X114601939Y-95965000D01*
X114398061Y-95965000D01*
X114198102Y-96004774D01*
X114009744Y-96082795D01*
X113840226Y-96196063D01*
X113696063Y-96340226D01*
X113582795Y-96509744D01*
X113504774Y-96698102D01*
X113465000Y-96898061D01*
X107705393Y-96898061D01*
X107745226Y-96801898D01*
X107785000Y-96601939D01*
X107785000Y-96398061D01*
X107745226Y-96198102D01*
X107667205Y-96009744D01*
X107553937Y-95840226D01*
X107409774Y-95696063D01*
X107240256Y-95582795D01*
X107051898Y-95504774D01*
X106851939Y-95465000D01*
X106648061Y-95465000D01*
X106448102Y-95504774D01*
X106259744Y-95582795D01*
X106090226Y-95696063D01*
X105946063Y-95840226D01*
X105832795Y-96009744D01*
X105754774Y-96198102D01*
X105715000Y-96398061D01*
X99592582Y-96398061D01*
X99553937Y-96340226D01*
X99409774Y-96196063D01*
X99240256Y-96082795D01*
X99051898Y-96004774D01*
X98851939Y-95965000D01*
X98648061Y-95965000D01*
X98448102Y-96004774D01*
X98259744Y-96082795D01*
X98090226Y-96196063D01*
X97946063Y-96340226D01*
X97832795Y-96509744D01*
X97754774Y-96698102D01*
X97715000Y-96898061D01*
X88660000Y-96898061D01*
X88660000Y-95032279D01*
X88679920Y-94829117D01*
X89265000Y-94829117D01*
X89265000Y-95170883D01*
X89331675Y-95506081D01*
X89462463Y-95821831D01*
X89652337Y-96105998D01*
X89894002Y-96347663D01*
X90178169Y-96537537D01*
X90493919Y-96668325D01*
X90829117Y-96735000D01*
X91170883Y-96735000D01*
X91506081Y-96668325D01*
X91821831Y-96537537D01*
X92105998Y-96347663D01*
X92347663Y-96105998D01*
X92537537Y-95821831D01*
X92668325Y-95506081D01*
X92735000Y-95170883D01*
X92735000Y-94829117D01*
X92668325Y-94493919D01*
X92537537Y-94178169D01*
X92347663Y-93894002D01*
X92105998Y-93652337D01*
X91821831Y-93462463D01*
X91506081Y-93331675D01*
X91170883Y-93265000D01*
X90829117Y-93265000D01*
X90493919Y-93331675D01*
X90178169Y-93462463D01*
X89894002Y-93652337D01*
X89652337Y-93894002D01*
X89462463Y-94178169D01*
X89331675Y-94493919D01*
X89265000Y-94829117D01*
X88679920Y-94829117D01*
X88707670Y-94546107D01*
X88839489Y-94109502D01*
X89053600Y-93706815D01*
X89341848Y-93353388D01*
X89693261Y-93062673D01*
X90094439Y-92845758D01*
X90530113Y-92710894D01*
X91014344Y-92660000D01*
X139100053Y-92660000D01*
X139096500Y-92677861D01*
G36*
X167464004Y-113661195D02*
G01*
X167435000Y-113684998D01*
X167384818Y-113746146D01*
X167340027Y-113800723D01*
X167269456Y-113932752D01*
X167269455Y-113932753D01*
X167225998Y-114076014D01*
X167215001Y-114187667D01*
X167215001Y-114187677D01*
X167211325Y-114224999D01*
X167215001Y-114262321D01*
X167215001Y-115297819D01*
X167197156Y-115285895D01*
X167008798Y-115207874D01*
X166808839Y-115168100D01*
X166604961Y-115168100D01*
X166405002Y-115207874D01*
X166216644Y-115285895D01*
X166047126Y-115399163D01*
X165902963Y-115543326D01*
X165789695Y-115712844D01*
X165711674Y-115901202D01*
X165671900Y-116101161D01*
X165671900Y-116163298D01*
X163128998Y-118706201D01*
X163100000Y-118729999D01*
X163076202Y-118758997D01*
X163076201Y-118758998D01*
X163005026Y-118845724D01*
X162934454Y-118977754D01*
X162890998Y-119121015D01*
X162876324Y-119270000D01*
X162880001Y-119307332D01*
X162880000Y-124380289D01*
X162836063Y-124424226D01*
X162722795Y-124593744D01*
X162644774Y-124782102D01*
X162605000Y-124982061D01*
X162605000Y-125185939D01*
X162644774Y-125385898D01*
X162722795Y-125574256D01*
X162836063Y-125743774D01*
X162980226Y-125887937D01*
X163149744Y-126001205D01*
X163338102Y-126079226D01*
X163538061Y-126119000D01*
X163741939Y-126119000D01*
X163941898Y-126079226D01*
X164130256Y-126001205D01*
X164299774Y-125887937D01*
X164443937Y-125743774D01*
X164557205Y-125574256D01*
X164635226Y-125385898D01*
X164675000Y-125185939D01*
X164675000Y-124982061D01*
X164635226Y-124782102D01*
X164557205Y-124593744D01*
X164443937Y-124424226D01*
X164400000Y-124380289D01*
X164400000Y-119584801D01*
X166746702Y-117238100D01*
X166808839Y-117238100D01*
X167008798Y-117198326D01*
X167197156Y-117120305D01*
X167215001Y-117108381D01*
X167215002Y-125610195D01*
X164977503Y-127847696D01*
X164948499Y-127871499D01*
X164893371Y-127938674D01*
X164853526Y-127987224D01*
X164797390Y-128092246D01*
X164782954Y-128119254D01*
X164739497Y-128262515D01*
X164728500Y-128374168D01*
X164728500Y-128374178D01*
X164724824Y-128411500D01*
X164728500Y-128448822D01*
X164728501Y-137003688D01*
X164684563Y-137047626D01*
X164571295Y-137217144D01*
X164493274Y-137405502D01*
X164453500Y-137605461D01*
X164453500Y-137809339D01*
X164493274Y-138009298D01*
X164571295Y-138197656D01*
X164684563Y-138367174D01*
X164828726Y-138511337D01*
X164929156Y-138578442D01*
X152835000Y-150672599D01*
X152835000Y-150598061D01*
X152795226Y-150398102D01*
X152717205Y-150209744D01*
X152603937Y-150040226D01*
X152459774Y-149896063D01*
X152290256Y-149782795D01*
X152101898Y-149704774D01*
X151901939Y-149665000D01*
X151698061Y-149665000D01*
X151498102Y-149704774D01*
X151309744Y-149782795D01*
X151140226Y-149896063D01*
X150996063Y-150040226D01*
X150882795Y-150209744D01*
X150804774Y-150398102D01*
X150765000Y-150598061D01*
X150765000Y-150801939D01*
X150804774Y-151001898D01*
X150882795Y-151190256D01*
X150996063Y-151359774D01*
X151140226Y-151503937D01*
X151309744Y-151617205D01*
X151498102Y-151695226D01*
X151698061Y-151735000D01*
X151772599Y-151735000D01*
X151600699Y-151906900D01*
X135121701Y-151906900D01*
X140630540Y-146398061D01*
X146215000Y-146398061D01*
X146215000Y-146601939D01*
X146254774Y-146801898D01*
X146332795Y-146990256D01*
X146446063Y-147159774D01*
X146590226Y-147303937D01*
X146759744Y-147417205D01*
X146948102Y-147495226D01*
X147148061Y-147535000D01*
X147351939Y-147535000D01*
X147551898Y-147495226D01*
X147740256Y-147417205D01*
X147909774Y-147303937D01*
X148053937Y-147159774D01*
X148167205Y-146990256D01*
X148245226Y-146801898D01*
X148285000Y-146601939D01*
X148285000Y-146398061D01*
X148245226Y-146198102D01*
X148167205Y-146009744D01*
X148053937Y-145840226D01*
X147909774Y-145696063D01*
X147740256Y-145582795D01*
X147551898Y-145504774D01*
X147351939Y-145465000D01*
X147148061Y-145465000D01*
X146948102Y-145504774D01*
X146759744Y-145582795D01*
X146590226Y-145696063D01*
X146446063Y-145840226D01*
X146332795Y-146009744D01*
X146254774Y-146198102D01*
X146215000Y-146398061D01*
X140630540Y-146398061D01*
X145290702Y-141737900D01*
X146784778Y-141737900D01*
X146822100Y-141741576D01*
X146859422Y-141737900D01*
X146859433Y-141737900D01*
X146971086Y-141726903D01*
X147114347Y-141683446D01*
X147246376Y-141612874D01*
X147362101Y-141517901D01*
X147385904Y-141488897D01*
X149711008Y-139163795D01*
X149740001Y-139140001D01*
X149763795Y-139111008D01*
X149763799Y-139111004D01*
X149834973Y-139024277D01*
X149834974Y-139024276D01*
X149905546Y-138892247D01*
X149949003Y-138748986D01*
X149960000Y-138637333D01*
X149960000Y-138637324D01*
X149963676Y-138600001D01*
X149960000Y-138562678D01*
X149960000Y-135823711D01*
X150040226Y-135903937D01*
X150209744Y-136017205D01*
X150398102Y-136095226D01*
X150598061Y-136135000D01*
X150801939Y-136135000D01*
X151001898Y-136095226D01*
X151190256Y-136017205D01*
X151359774Y-135903937D01*
X151503937Y-135759774D01*
X151578581Y-135648061D01*
X162465000Y-135648061D01*
X162465000Y-135851939D01*
X162504774Y-136051898D01*
X162582795Y-136240256D01*
X162696063Y-136409774D01*
X162840226Y-136553937D01*
X163009744Y-136667205D01*
X163198102Y-136745226D01*
X163398061Y-136785000D01*
X163601939Y-136785000D01*
X163801898Y-136745226D01*
X163990256Y-136667205D01*
X164159774Y-136553937D01*
X164303937Y-136409774D01*
X164417205Y-136240256D01*
X164495226Y-136051898D01*
X164535000Y-135851939D01*
X164535000Y-135648061D01*
X164495226Y-135448102D01*
X164417205Y-135259744D01*
X164303937Y-135090226D01*
X164159774Y-134946063D01*
X163990256Y-134832795D01*
X163801898Y-134754774D01*
X163601939Y-134715000D01*
X163398061Y-134715000D01*
X163198102Y-134754774D01*
X163009744Y-134832795D01*
X162840226Y-134946063D01*
X162696063Y-135090226D01*
X162582795Y-135259744D01*
X162504774Y-135448102D01*
X162465000Y-135648061D01*
X151578581Y-135648061D01*
X151617205Y-135590256D01*
X151695226Y-135401898D01*
X151735000Y-135201939D01*
X151735000Y-134998061D01*
X151695226Y-134798102D01*
X151617205Y-134609744D01*
X151503937Y-134440226D01*
X151359774Y-134296063D01*
X151190256Y-134182795D01*
X151001898Y-134104774D01*
X150801939Y-134065000D01*
X150598061Y-134065000D01*
X150398102Y-134104774D01*
X150209744Y-134182795D01*
X150040226Y-134296063D01*
X149960000Y-134376289D01*
X149960000Y-132398061D01*
X154965000Y-132398061D01*
X154965000Y-132601939D01*
X155004774Y-132801898D01*
X155082795Y-132990256D01*
X155196063Y-133159774D01*
X155340226Y-133303937D01*
X155509744Y-133417205D01*
X155698102Y-133495226D01*
X155898061Y-133535000D01*
X156101939Y-133535000D01*
X156301898Y-133495226D01*
X156490256Y-133417205D01*
X156659774Y-133303937D01*
X156803937Y-133159774D01*
X156917205Y-132990256D01*
X156995226Y-132801898D01*
X157035000Y-132601939D01*
X157035000Y-132398061D01*
X156995226Y-132198102D01*
X156917205Y-132009744D01*
X156803937Y-131840226D01*
X156659774Y-131696063D01*
X156490256Y-131582795D01*
X156301898Y-131504774D01*
X156101939Y-131465000D01*
X155898061Y-131465000D01*
X155698102Y-131504774D01*
X155509744Y-131582795D01*
X155340226Y-131696063D01*
X155196063Y-131840226D01*
X155082795Y-132009744D01*
X155004774Y-132198102D01*
X154965000Y-132398061D01*
X149960000Y-132398061D01*
X149960000Y-129623711D01*
X150040226Y-129703937D01*
X150209744Y-129817205D01*
X150398102Y-129895226D01*
X150598061Y-129935000D01*
X150801939Y-129935000D01*
X151001898Y-129895226D01*
X151190256Y-129817205D01*
X151359774Y-129703937D01*
X151503937Y-129559774D01*
X151617205Y-129390256D01*
X151695226Y-129201898D01*
X151735000Y-129001939D01*
X151735000Y-128798061D01*
X151695226Y-128598102D01*
X151617205Y-128409744D01*
X151503937Y-128240226D01*
X151359774Y-128096063D01*
X151190256Y-127982795D01*
X151001898Y-127904774D01*
X150801939Y-127865000D01*
X150598061Y-127865000D01*
X150398102Y-127904774D01*
X150209744Y-127982795D01*
X150040226Y-128096063D01*
X149960000Y-128176289D01*
X149960000Y-127837323D01*
X149963676Y-127800000D01*
X149960000Y-127762677D01*
X149960000Y-127762667D01*
X149949003Y-127651014D01*
X149905546Y-127507753D01*
X149834974Y-127375724D01*
X149740001Y-127259999D01*
X149711004Y-127236202D01*
X147151401Y-124676600D01*
X151745978Y-124676600D01*
X151783300Y-124680276D01*
X151820622Y-124676600D01*
X151820633Y-124676600D01*
X151932286Y-124665603D01*
X152075547Y-124622146D01*
X152207576Y-124551574D01*
X152323301Y-124456601D01*
X152347103Y-124427598D01*
X152776640Y-123998061D01*
X155965000Y-123998061D01*
X155965000Y-124201939D01*
X156004774Y-124401898D01*
X156082795Y-124590256D01*
X156196063Y-124759774D01*
X156340226Y-124903937D01*
X156509744Y-125017205D01*
X156698102Y-125095226D01*
X156898061Y-125135000D01*
X157101939Y-125135000D01*
X157301898Y-125095226D01*
X157490256Y-125017205D01*
X157659774Y-124903937D01*
X157803937Y-124759774D01*
X157917205Y-124590256D01*
X157995226Y-124401898D01*
X158035000Y-124201939D01*
X158035000Y-123998061D01*
X157995226Y-123798102D01*
X157917205Y-123609744D01*
X157803937Y-123440226D01*
X157659774Y-123296063D01*
X157490256Y-123182795D01*
X157301898Y-123104774D01*
X157101939Y-123065000D01*
X156898061Y-123065000D01*
X156698102Y-123104774D01*
X156509744Y-123182795D01*
X156340226Y-123296063D01*
X156196063Y-123440226D01*
X156082795Y-123609744D01*
X156004774Y-123798102D01*
X155965000Y-123998061D01*
X152776640Y-123998061D01*
X152869207Y-123905495D01*
X152898201Y-123881701D01*
X152921995Y-123852708D01*
X152921999Y-123852704D01*
X152991830Y-123767614D01*
X152993174Y-123765976D01*
X153063746Y-123633947D01*
X153107203Y-123490686D01*
X153118200Y-123379033D01*
X153118200Y-123379024D01*
X153121876Y-123341701D01*
X153118200Y-123304378D01*
X153118200Y-118575400D01*
X160850478Y-118575400D01*
X160887800Y-118579076D01*
X160925122Y-118575400D01*
X160925133Y-118575400D01*
X161036786Y-118564403D01*
X161180047Y-118520946D01*
X161312076Y-118450374D01*
X161427801Y-118355401D01*
X161451604Y-118326397D01*
X161914886Y-117863115D01*
X161946063Y-117909774D01*
X162090226Y-118053937D01*
X162259744Y-118167205D01*
X162448102Y-118245226D01*
X162648061Y-118285000D01*
X162851939Y-118285000D01*
X163051898Y-118245226D01*
X163240256Y-118167205D01*
X163409774Y-118053937D01*
X163553937Y-117909774D01*
X163667205Y-117740256D01*
X163745226Y-117551898D01*
X163785000Y-117351939D01*
X163785000Y-117148061D01*
X163745226Y-116948102D01*
X163667205Y-116759744D01*
X163553937Y-116590226D01*
X163409774Y-116446063D01*
X163363115Y-116414886D01*
X169124902Y-110653100D01*
X170000778Y-110653100D01*
X170038100Y-110656776D01*
X170075422Y-110653100D01*
X170075433Y-110653100D01*
X170187086Y-110642103D01*
X170330347Y-110598646D01*
X170462376Y-110528074D01*
X170578101Y-110433101D01*
X170601904Y-110404097D01*
X180533302Y-100472700D01*
X180652498Y-100472700D01*
X167464004Y-113661195D01*
X167464004Y-113661195D01*
G37*
X167464004Y-113661195D02*
X167435000Y-113684998D01*
X167384818Y-113746146D01*
X167340027Y-113800723D01*
X167269456Y-113932752D01*
X167269455Y-113932753D01*
X167225998Y-114076014D01*
X167215001Y-114187667D01*
X167215001Y-114187677D01*
X167211325Y-114224999D01*
X167215001Y-114262321D01*
X167215001Y-115297819D01*
X167197156Y-115285895D01*
X167008798Y-115207874D01*
X166808839Y-115168100D01*
X166604961Y-115168100D01*
X166405002Y-115207874D01*
X166216644Y-115285895D01*
X166047126Y-115399163D01*
X165902963Y-115543326D01*
X165789695Y-115712844D01*
X165711674Y-115901202D01*
X165671900Y-116101161D01*
X165671900Y-116163298D01*
X163128998Y-118706201D01*
X163100000Y-118729999D01*
X163076202Y-118758997D01*
X163076201Y-118758998D01*
X163005026Y-118845724D01*
X162934454Y-118977754D01*
X162890998Y-119121015D01*
X162876324Y-119270000D01*
X162880001Y-119307332D01*
X162880000Y-124380289D01*
X162836063Y-124424226D01*
X162722795Y-124593744D01*
X162644774Y-124782102D01*
X162605000Y-124982061D01*
X162605000Y-125185939D01*
X162644774Y-125385898D01*
X162722795Y-125574256D01*
X162836063Y-125743774D01*
X162980226Y-125887937D01*
X163149744Y-126001205D01*
X163338102Y-126079226D01*
X163538061Y-126119000D01*
X163741939Y-126119000D01*
X163941898Y-126079226D01*
X164130256Y-126001205D01*
X164299774Y-125887937D01*
X164443937Y-125743774D01*
X164557205Y-125574256D01*
X164635226Y-125385898D01*
X164675000Y-125185939D01*
X164675000Y-124982061D01*
X164635226Y-124782102D01*
X164557205Y-124593744D01*
X164443937Y-124424226D01*
X164400000Y-124380289D01*
X164400000Y-119584801D01*
X166746702Y-117238100D01*
X166808839Y-117238100D01*
X167008798Y-117198326D01*
X167197156Y-117120305D01*
X167215001Y-117108381D01*
X167215002Y-125610195D01*
X164977503Y-127847696D01*
X164948499Y-127871499D01*
X164893371Y-127938674D01*
X164853526Y-127987224D01*
X164797390Y-128092246D01*
X164782954Y-128119254D01*
X164739497Y-128262515D01*
X164728500Y-128374168D01*
X164728500Y-128374178D01*
X164724824Y-128411500D01*
X164728500Y-128448822D01*
X164728501Y-137003688D01*
X164684563Y-137047626D01*
X164571295Y-137217144D01*
X164493274Y-137405502D01*
X164453500Y-137605461D01*
X164453500Y-137809339D01*
X164493274Y-138009298D01*
X164571295Y-138197656D01*
X164684563Y-138367174D01*
X164828726Y-138511337D01*
X164929156Y-138578442D01*
X152835000Y-150672599D01*
X152835000Y-150598061D01*
X152795226Y-150398102D01*
X152717205Y-150209744D01*
X152603937Y-150040226D01*
X152459774Y-149896063D01*
X152290256Y-149782795D01*
X152101898Y-149704774D01*
X151901939Y-149665000D01*
X151698061Y-149665000D01*
X151498102Y-149704774D01*
X151309744Y-149782795D01*
X151140226Y-149896063D01*
X150996063Y-150040226D01*
X150882795Y-150209744D01*
X150804774Y-150398102D01*
X150765000Y-150598061D01*
X150765000Y-150801939D01*
X150804774Y-151001898D01*
X150882795Y-151190256D01*
X150996063Y-151359774D01*
X151140226Y-151503937D01*
X151309744Y-151617205D01*
X151498102Y-151695226D01*
X151698061Y-151735000D01*
X151772599Y-151735000D01*
X151600699Y-151906900D01*
X135121701Y-151906900D01*
X140630540Y-146398061D01*
X146215000Y-146398061D01*
X146215000Y-146601939D01*
X146254774Y-146801898D01*
X146332795Y-146990256D01*
X146446063Y-147159774D01*
X146590226Y-147303937D01*
X146759744Y-147417205D01*
X146948102Y-147495226D01*
X147148061Y-147535000D01*
X147351939Y-147535000D01*
X147551898Y-147495226D01*
X147740256Y-147417205D01*
X147909774Y-147303937D01*
X148053937Y-147159774D01*
X148167205Y-146990256D01*
X148245226Y-146801898D01*
X148285000Y-146601939D01*
X148285000Y-146398061D01*
X148245226Y-146198102D01*
X148167205Y-146009744D01*
X148053937Y-145840226D01*
X147909774Y-145696063D01*
X147740256Y-145582795D01*
X147551898Y-145504774D01*
X147351939Y-145465000D01*
X147148061Y-145465000D01*
X146948102Y-145504774D01*
X146759744Y-145582795D01*
X146590226Y-145696063D01*
X146446063Y-145840226D01*
X146332795Y-146009744D01*
X146254774Y-146198102D01*
X146215000Y-146398061D01*
X140630540Y-146398061D01*
X145290702Y-141737900D01*
X146784778Y-141737900D01*
X146822100Y-141741576D01*
X146859422Y-141737900D01*
X146859433Y-141737900D01*
X146971086Y-141726903D01*
X147114347Y-141683446D01*
X147246376Y-141612874D01*
X147362101Y-141517901D01*
X147385904Y-141488897D01*
X149711008Y-139163795D01*
X149740001Y-139140001D01*
X149763795Y-139111008D01*
X149763799Y-139111004D01*
X149834973Y-139024277D01*
X149834974Y-139024276D01*
X149905546Y-138892247D01*
X149949003Y-138748986D01*
X149960000Y-138637333D01*
X149960000Y-138637324D01*
X149963676Y-138600001D01*
X149960000Y-138562678D01*
X149960000Y-135823711D01*
X150040226Y-135903937D01*
X150209744Y-136017205D01*
X150398102Y-136095226D01*
X150598061Y-136135000D01*
X150801939Y-136135000D01*
X151001898Y-136095226D01*
X151190256Y-136017205D01*
X151359774Y-135903937D01*
X151503937Y-135759774D01*
X151578581Y-135648061D01*
X162465000Y-135648061D01*
X162465000Y-135851939D01*
X162504774Y-136051898D01*
X162582795Y-136240256D01*
X162696063Y-136409774D01*
X162840226Y-136553937D01*
X163009744Y-136667205D01*
X163198102Y-136745226D01*
X163398061Y-136785000D01*
X163601939Y-136785000D01*
X163801898Y-136745226D01*
X163990256Y-136667205D01*
X164159774Y-136553937D01*
X164303937Y-136409774D01*
X164417205Y-136240256D01*
X164495226Y-136051898D01*
X164535000Y-135851939D01*
X164535000Y-135648061D01*
X164495226Y-135448102D01*
X164417205Y-135259744D01*
X164303937Y-135090226D01*
X164159774Y-134946063D01*
X163990256Y-134832795D01*
X163801898Y-134754774D01*
X163601939Y-134715000D01*
X163398061Y-134715000D01*
X163198102Y-134754774D01*
X163009744Y-134832795D01*
X162840226Y-134946063D01*
X162696063Y-135090226D01*
X162582795Y-135259744D01*
X162504774Y-135448102D01*
X162465000Y-135648061D01*
X151578581Y-135648061D01*
X151617205Y-135590256D01*
X151695226Y-135401898D01*
X151735000Y-135201939D01*
X151735000Y-134998061D01*
X151695226Y-134798102D01*
X151617205Y-134609744D01*
X151503937Y-134440226D01*
X151359774Y-134296063D01*
X151190256Y-134182795D01*
X151001898Y-134104774D01*
X150801939Y-134065000D01*
X150598061Y-134065000D01*
X150398102Y-134104774D01*
X150209744Y-134182795D01*
X150040226Y-134296063D01*
X149960000Y-134376289D01*
X149960000Y-132398061D01*
X154965000Y-132398061D01*
X154965000Y-132601939D01*
X155004774Y-132801898D01*
X155082795Y-132990256D01*
X155196063Y-133159774D01*
X155340226Y-133303937D01*
X155509744Y-133417205D01*
X155698102Y-133495226D01*
X155898061Y-133535000D01*
X156101939Y-133535000D01*
X156301898Y-133495226D01*
X156490256Y-133417205D01*
X156659774Y-133303937D01*
X156803937Y-133159774D01*
X156917205Y-132990256D01*
X156995226Y-132801898D01*
X157035000Y-132601939D01*
X157035000Y-132398061D01*
X156995226Y-132198102D01*
X156917205Y-132009744D01*
X156803937Y-131840226D01*
X156659774Y-131696063D01*
X156490256Y-131582795D01*
X156301898Y-131504774D01*
X156101939Y-131465000D01*
X155898061Y-131465000D01*
X155698102Y-131504774D01*
X155509744Y-131582795D01*
X155340226Y-131696063D01*
X155196063Y-131840226D01*
X155082795Y-132009744D01*
X155004774Y-132198102D01*
X154965000Y-132398061D01*
X149960000Y-132398061D01*
X149960000Y-129623711D01*
X150040226Y-129703937D01*
X150209744Y-129817205D01*
X150398102Y-129895226D01*
X150598061Y-129935000D01*
X150801939Y-129935000D01*
X151001898Y-129895226D01*
X151190256Y-129817205D01*
X151359774Y-129703937D01*
X151503937Y-129559774D01*
X151617205Y-129390256D01*
X151695226Y-129201898D01*
X151735000Y-129001939D01*
X151735000Y-128798061D01*
X151695226Y-128598102D01*
X151617205Y-128409744D01*
X151503937Y-128240226D01*
X151359774Y-128096063D01*
X151190256Y-127982795D01*
X151001898Y-127904774D01*
X150801939Y-127865000D01*
X150598061Y-127865000D01*
X150398102Y-127904774D01*
X150209744Y-127982795D01*
X150040226Y-128096063D01*
X149960000Y-128176289D01*
X149960000Y-127837323D01*
X149963676Y-127800000D01*
X149960000Y-127762677D01*
X149960000Y-127762667D01*
X149949003Y-127651014D01*
X149905546Y-127507753D01*
X149834974Y-127375724D01*
X149740001Y-127259999D01*
X149711004Y-127236202D01*
X147151401Y-124676600D01*
X151745978Y-124676600D01*
X151783300Y-124680276D01*
X151820622Y-124676600D01*
X151820633Y-124676600D01*
X151932286Y-124665603D01*
X152075547Y-124622146D01*
X152207576Y-124551574D01*
X152323301Y-124456601D01*
X152347103Y-124427598D01*
X152776640Y-123998061D01*
X155965000Y-123998061D01*
X155965000Y-124201939D01*
X156004774Y-124401898D01*
X156082795Y-124590256D01*
X156196063Y-124759774D01*
X156340226Y-124903937D01*
X156509744Y-125017205D01*
X156698102Y-125095226D01*
X156898061Y-125135000D01*
X157101939Y-125135000D01*
X157301898Y-125095226D01*
X157490256Y-125017205D01*
X157659774Y-124903937D01*
X157803937Y-124759774D01*
X157917205Y-124590256D01*
X157995226Y-124401898D01*
X158035000Y-124201939D01*
X158035000Y-123998061D01*
X157995226Y-123798102D01*
X157917205Y-123609744D01*
X157803937Y-123440226D01*
X157659774Y-123296063D01*
X157490256Y-123182795D01*
X157301898Y-123104774D01*
X157101939Y-123065000D01*
X156898061Y-123065000D01*
X156698102Y-123104774D01*
X156509744Y-123182795D01*
X156340226Y-123296063D01*
X156196063Y-123440226D01*
X156082795Y-123609744D01*
X156004774Y-123798102D01*
X155965000Y-123998061D01*
X152776640Y-123998061D01*
X152869207Y-123905495D01*
X152898201Y-123881701D01*
X152921995Y-123852708D01*
X152921999Y-123852704D01*
X152991830Y-123767614D01*
X152993174Y-123765976D01*
X153063746Y-123633947D01*
X153107203Y-123490686D01*
X153118200Y-123379033D01*
X153118200Y-123379024D01*
X153121876Y-123341701D01*
X153118200Y-123304378D01*
X153118200Y-118575400D01*
X160850478Y-118575400D01*
X160887800Y-118579076D01*
X160925122Y-118575400D01*
X160925133Y-118575400D01*
X161036786Y-118564403D01*
X161180047Y-118520946D01*
X161312076Y-118450374D01*
X161427801Y-118355401D01*
X161451604Y-118326397D01*
X161914886Y-117863115D01*
X161946063Y-117909774D01*
X162090226Y-118053937D01*
X162259744Y-118167205D01*
X162448102Y-118245226D01*
X162648061Y-118285000D01*
X162851939Y-118285000D01*
X163051898Y-118245226D01*
X163240256Y-118167205D01*
X163409774Y-118053937D01*
X163553937Y-117909774D01*
X163667205Y-117740256D01*
X163745226Y-117551898D01*
X163785000Y-117351939D01*
X163785000Y-117148061D01*
X163745226Y-116948102D01*
X163667205Y-116759744D01*
X163553937Y-116590226D01*
X163409774Y-116446063D01*
X163363115Y-116414886D01*
X169124902Y-110653100D01*
X170000778Y-110653100D01*
X170038100Y-110656776D01*
X170075422Y-110653100D01*
X170075433Y-110653100D01*
X170187086Y-110642103D01*
X170330347Y-110598646D01*
X170462376Y-110528074D01*
X170578101Y-110433101D01*
X170601904Y-110404097D01*
X180533302Y-100472700D01*
X180652498Y-100472700D01*
X167464004Y-113661195D01*
G36*
X146549928Y-97365000D02*
G01*
X146569509Y-97563811D01*
X146627500Y-97754982D01*
X146721673Y-97931166D01*
X146848407Y-98085593D01*
X147002834Y-98212327D01*
X147179018Y-98306500D01*
X147370189Y-98364491D01*
X147569000Y-98384072D01*
X148331000Y-98384072D01*
X148529811Y-98364491D01*
X148720982Y-98306500D01*
X148897166Y-98212327D01*
X149051593Y-98085593D01*
X149178327Y-97931166D01*
X149236859Y-97821661D01*
X150495998Y-99080800D01*
X144464903Y-105111896D01*
X144435899Y-105135699D01*
X144380771Y-105202874D01*
X144340926Y-105251424D01*
X144297432Y-105332795D01*
X144270354Y-105383454D01*
X144226897Y-105526715D01*
X144215900Y-105638368D01*
X144215900Y-105638378D01*
X144212224Y-105675700D01*
X144215900Y-105713022D01*
X144215900Y-106338578D01*
X144212224Y-106375900D01*
X144215900Y-106413222D01*
X144215900Y-106413233D01*
X144216199Y-106416269D01*
X144216200Y-118238867D01*
X144212523Y-118276199D01*
X144216200Y-118313532D01*
X144227197Y-118425185D01*
X144234838Y-118450374D01*
X144270653Y-118568445D01*
X144341225Y-118700475D01*
X144390744Y-118760813D01*
X144436199Y-118816200D01*
X144465197Y-118839998D01*
X145425198Y-119800000D01*
X145089002Y-120136197D01*
X145059999Y-120159999D01*
X145007249Y-120224276D01*
X144965026Y-120275724D01*
X144955015Y-120294454D01*
X144894454Y-120407754D01*
X144850997Y-120551015D01*
X144840000Y-120662668D01*
X144840000Y-120662678D01*
X144836324Y-120700000D01*
X144840000Y-120737323D01*
X144840001Y-124162668D01*
X144836324Y-124200000D01*
X144850998Y-124348985D01*
X144894454Y-124492246D01*
X144965026Y-124624276D01*
X145036201Y-124711002D01*
X145060000Y-124740001D01*
X145088998Y-124763799D01*
X148440000Y-128114802D01*
X148440000Y-129064776D01*
X148417205Y-129009744D01*
X148303937Y-128840226D01*
X148159774Y-128696063D01*
X147990256Y-128582795D01*
X147801898Y-128504774D01*
X147601939Y-128465000D01*
X147398061Y-128465000D01*
X147198102Y-128504774D01*
X147009744Y-128582795D01*
X146840226Y-128696063D01*
X146696063Y-128840226D01*
X146582795Y-129009744D01*
X146504774Y-129198102D01*
X146465000Y-129398061D01*
X146465000Y-129601939D01*
X146504774Y-129801898D01*
X146582795Y-129990256D01*
X146696063Y-130159774D01*
X146840226Y-130303937D01*
X147009744Y-130417205D01*
X147198102Y-130495226D01*
X147398061Y-130535000D01*
X147601939Y-130535000D01*
X147801898Y-130495226D01*
X147990256Y-130417205D01*
X148159774Y-130303937D01*
X148303937Y-130159774D01*
X148417205Y-129990256D01*
X148440000Y-129935224D01*
X148440001Y-138285196D01*
X146507299Y-140217900D01*
X145013223Y-140217900D01*
X144975900Y-140214224D01*
X144938577Y-140217900D01*
X144938567Y-140217900D01*
X144826914Y-140228897D01*
X144683653Y-140272354D01*
X144551623Y-140342926D01*
X144506149Y-140380246D01*
X144435899Y-140437899D01*
X144412101Y-140466897D01*
X134447930Y-150431069D01*
X134447000Y-149825750D01*
X134288250Y-149667000D01*
X133177000Y-149667000D01*
X133177000Y-149687000D01*
X132923000Y-149687000D01*
X132923000Y-149667000D01*
X131811750Y-149667000D01*
X131653000Y-149825750D01*
X131651386Y-150876584D01*
X130640072Y-149865271D01*
X130640072Y-147635000D01*
X130620491Y-147436189D01*
X130565225Y-147254000D01*
X131649928Y-147254000D01*
X131653000Y-149254250D01*
X131811750Y-149413000D01*
X132923000Y-149413000D01*
X132923000Y-146777750D01*
X133177000Y-146777750D01*
X133177000Y-149413000D01*
X134288250Y-149413000D01*
X134447000Y-149254250D01*
X134450072Y-147254000D01*
X134437812Y-147129518D01*
X134401502Y-147009820D01*
X134342537Y-146899506D01*
X134263185Y-146802815D01*
X134166494Y-146723463D01*
X134056180Y-146664498D01*
X133936482Y-146628188D01*
X133812000Y-146615928D01*
X133335750Y-146619000D01*
X133177000Y-146777750D01*
X132923000Y-146777750D01*
X132764250Y-146619000D01*
X132288000Y-146615928D01*
X132163518Y-146628188D01*
X132043820Y-146664498D01*
X131933506Y-146723463D01*
X131836815Y-146802815D01*
X131757463Y-146899506D01*
X131698498Y-147009820D01*
X131662188Y-147129518D01*
X131649928Y-147254000D01*
X130565225Y-147254000D01*
X130562500Y-147245018D01*
X130468327Y-147068834D01*
X130341593Y-146914407D01*
X130187166Y-146787673D01*
X130010982Y-146693500D01*
X129819811Y-146635509D01*
X129621000Y-146615928D01*
X129236173Y-146615928D01*
X143561903Y-132290199D01*
X143590901Y-132266401D01*
X143646953Y-132198102D01*
X143685874Y-132150677D01*
X143756446Y-132018647D01*
X143759147Y-132009744D01*
X143799903Y-131875386D01*
X143810900Y-131763733D01*
X143810900Y-131763723D01*
X143814576Y-131726400D01*
X143810900Y-131689077D01*
X143810900Y-129788222D01*
X143814576Y-129750899D01*
X143810900Y-129713576D01*
X143810900Y-129713567D01*
X143799903Y-129601914D01*
X143756446Y-129458653D01*
X143685874Y-129326624D01*
X143590901Y-129210899D01*
X143561898Y-129187097D01*
X143560000Y-129185199D01*
X143560000Y-126837325D01*
X143563676Y-126800000D01*
X143560000Y-126762675D01*
X143560000Y-126762667D01*
X143549003Y-126651014D01*
X143505546Y-126507753D01*
X143434974Y-126375724D01*
X143340001Y-126259999D01*
X143311004Y-126236202D01*
X140560000Y-123485199D01*
X140560000Y-123087803D01*
X141411003Y-122236801D01*
X141440001Y-122213003D01*
X141488588Y-122153800D01*
X141534974Y-122097279D01*
X141605546Y-121965249D01*
X141615693Y-121931798D01*
X141649003Y-121821988D01*
X141660000Y-121710335D01*
X141660000Y-121710325D01*
X141663676Y-121673002D01*
X141660000Y-121635679D01*
X141660000Y-108214801D01*
X143211008Y-106663795D01*
X143240001Y-106640001D01*
X143263795Y-106611008D01*
X143263799Y-106611004D01*
X143334973Y-106524277D01*
X143334974Y-106524276D01*
X143405546Y-106392247D01*
X143449003Y-106248986D01*
X143460000Y-106137333D01*
X143460000Y-106137324D01*
X143463676Y-106100001D01*
X143460000Y-106062678D01*
X143460000Y-98383543D01*
X143854250Y-98381000D01*
X144013000Y-98222250D01*
X144013000Y-95587000D01*
X144267000Y-95587000D01*
X144267000Y-98222250D01*
X144425750Y-98381000D01*
X144902000Y-98384072D01*
X145026482Y-98371812D01*
X145146180Y-98335502D01*
X145256494Y-98276537D01*
X145353185Y-98197185D01*
X145432537Y-98100494D01*
X145491502Y-97990180D01*
X145527812Y-97870482D01*
X145540072Y-97746000D01*
X145537000Y-95745750D01*
X145378250Y-95587000D01*
X144267000Y-95587000D01*
X144013000Y-95587000D01*
X143993000Y-95587000D01*
X143993000Y-95333000D01*
X144013000Y-95333000D01*
X144013000Y-95313000D01*
X144267000Y-95313000D01*
X144267000Y-95333000D01*
X145378250Y-95333000D01*
X145537000Y-95174250D01*
X145539414Y-93602500D01*
X146549928Y-93602500D01*
X146549928Y-97365000D01*
X146549928Y-97365000D01*
G37*
X146549928Y-97365000D02*
X146569509Y-97563811D01*
X146627500Y-97754982D01*
X146721673Y-97931166D01*
X146848407Y-98085593D01*
X147002834Y-98212327D01*
X147179018Y-98306500D01*
X147370189Y-98364491D01*
X147569000Y-98384072D01*
X148331000Y-98384072D01*
X148529811Y-98364491D01*
X148720982Y-98306500D01*
X148897166Y-98212327D01*
X149051593Y-98085593D01*
X149178327Y-97931166D01*
X149236859Y-97821661D01*
X150495998Y-99080800D01*
X144464903Y-105111896D01*
X144435899Y-105135699D01*
X144380771Y-105202874D01*
X144340926Y-105251424D01*
X144297432Y-105332795D01*
X144270354Y-105383454D01*
X144226897Y-105526715D01*
X144215900Y-105638368D01*
X144215900Y-105638378D01*
X144212224Y-105675700D01*
X144215900Y-105713022D01*
X144215900Y-106338578D01*
X144212224Y-106375900D01*
X144215900Y-106413222D01*
X144215900Y-106413233D01*
X144216199Y-106416269D01*
X144216200Y-118238867D01*
X144212523Y-118276199D01*
X144216200Y-118313532D01*
X144227197Y-118425185D01*
X144234838Y-118450374D01*
X144270653Y-118568445D01*
X144341225Y-118700475D01*
X144390744Y-118760813D01*
X144436199Y-118816200D01*
X144465197Y-118839998D01*
X145425198Y-119800000D01*
X145089002Y-120136197D01*
X145059999Y-120159999D01*
X145007249Y-120224276D01*
X144965026Y-120275724D01*
X144955015Y-120294454D01*
X144894454Y-120407754D01*
X144850997Y-120551015D01*
X144840000Y-120662668D01*
X144840000Y-120662678D01*
X144836324Y-120700000D01*
X144840000Y-120737323D01*
X144840001Y-124162668D01*
X144836324Y-124200000D01*
X144850998Y-124348985D01*
X144894454Y-124492246D01*
X144965026Y-124624276D01*
X145036201Y-124711002D01*
X145060000Y-124740001D01*
X145088998Y-124763799D01*
X148440000Y-128114802D01*
X148440000Y-129064776D01*
X148417205Y-129009744D01*
X148303937Y-128840226D01*
X148159774Y-128696063D01*
X147990256Y-128582795D01*
X147801898Y-128504774D01*
X147601939Y-128465000D01*
X147398061Y-128465000D01*
X147198102Y-128504774D01*
X147009744Y-128582795D01*
X146840226Y-128696063D01*
X146696063Y-128840226D01*
X146582795Y-129009744D01*
X146504774Y-129198102D01*
X146465000Y-129398061D01*
X146465000Y-129601939D01*
X146504774Y-129801898D01*
X146582795Y-129990256D01*
X146696063Y-130159774D01*
X146840226Y-130303937D01*
X147009744Y-130417205D01*
X147198102Y-130495226D01*
X147398061Y-130535000D01*
X147601939Y-130535000D01*
X147801898Y-130495226D01*
X147990256Y-130417205D01*
X148159774Y-130303937D01*
X148303937Y-130159774D01*
X148417205Y-129990256D01*
X148440000Y-129935224D01*
X148440001Y-138285196D01*
X146507299Y-140217900D01*
X145013223Y-140217900D01*
X144975900Y-140214224D01*
X144938577Y-140217900D01*
X144938567Y-140217900D01*
X144826914Y-140228897D01*
X144683653Y-140272354D01*
X144551623Y-140342926D01*
X144506149Y-140380246D01*
X144435899Y-140437899D01*
X144412101Y-140466897D01*
X134447930Y-150431069D01*
X134447000Y-149825750D01*
X134288250Y-149667000D01*
X133177000Y-149667000D01*
X133177000Y-149687000D01*
X132923000Y-149687000D01*
X132923000Y-149667000D01*
X131811750Y-149667000D01*
X131653000Y-149825750D01*
X131651386Y-150876584D01*
X130640072Y-149865271D01*
X130640072Y-147635000D01*
X130620491Y-147436189D01*
X130565225Y-147254000D01*
X131649928Y-147254000D01*
X131653000Y-149254250D01*
X131811750Y-149413000D01*
X132923000Y-149413000D01*
X132923000Y-146777750D01*
X133177000Y-146777750D01*
X133177000Y-149413000D01*
X134288250Y-149413000D01*
X134447000Y-149254250D01*
X134450072Y-147254000D01*
X134437812Y-147129518D01*
X134401502Y-147009820D01*
X134342537Y-146899506D01*
X134263185Y-146802815D01*
X134166494Y-146723463D01*
X134056180Y-146664498D01*
X133936482Y-146628188D01*
X133812000Y-146615928D01*
X133335750Y-146619000D01*
X133177000Y-146777750D01*
X132923000Y-146777750D01*
X132764250Y-146619000D01*
X132288000Y-146615928D01*
X132163518Y-146628188D01*
X132043820Y-146664498D01*
X131933506Y-146723463D01*
X131836815Y-146802815D01*
X131757463Y-146899506D01*
X131698498Y-147009820D01*
X131662188Y-147129518D01*
X131649928Y-147254000D01*
X130565225Y-147254000D01*
X130562500Y-147245018D01*
X130468327Y-147068834D01*
X130341593Y-146914407D01*
X130187166Y-146787673D01*
X130010982Y-146693500D01*
X129819811Y-146635509D01*
X129621000Y-146615928D01*
X129236173Y-146615928D01*
X143561903Y-132290199D01*
X143590901Y-132266401D01*
X143646953Y-132198102D01*
X143685874Y-132150677D01*
X143756446Y-132018647D01*
X143759147Y-132009744D01*
X143799903Y-131875386D01*
X143810900Y-131763733D01*
X143810900Y-131763723D01*
X143814576Y-131726400D01*
X143810900Y-131689077D01*
X143810900Y-129788222D01*
X143814576Y-129750899D01*
X143810900Y-129713576D01*
X143810900Y-129713567D01*
X143799903Y-129601914D01*
X143756446Y-129458653D01*
X143685874Y-129326624D01*
X143590901Y-129210899D01*
X143561898Y-129187097D01*
X143560000Y-129185199D01*
X143560000Y-126837325D01*
X143563676Y-126800000D01*
X143560000Y-126762675D01*
X143560000Y-126762667D01*
X143549003Y-126651014D01*
X143505546Y-126507753D01*
X143434974Y-126375724D01*
X143340001Y-126259999D01*
X143311004Y-126236202D01*
X140560000Y-123485199D01*
X140560000Y-123087803D01*
X141411003Y-122236801D01*
X141440001Y-122213003D01*
X141488588Y-122153800D01*
X141534974Y-122097279D01*
X141605546Y-121965249D01*
X141615693Y-121931798D01*
X141649003Y-121821988D01*
X141660000Y-121710335D01*
X141660000Y-121710325D01*
X141663676Y-121673002D01*
X141660000Y-121635679D01*
X141660000Y-108214801D01*
X143211008Y-106663795D01*
X143240001Y-106640001D01*
X143263795Y-106611008D01*
X143263799Y-106611004D01*
X143334973Y-106524277D01*
X143334974Y-106524276D01*
X143405546Y-106392247D01*
X143449003Y-106248986D01*
X143460000Y-106137333D01*
X143460000Y-106137324D01*
X143463676Y-106100001D01*
X143460000Y-106062678D01*
X143460000Y-98383543D01*
X143854250Y-98381000D01*
X144013000Y-98222250D01*
X144013000Y-95587000D01*
X144267000Y-95587000D01*
X144267000Y-98222250D01*
X144425750Y-98381000D01*
X144902000Y-98384072D01*
X145026482Y-98371812D01*
X145146180Y-98335502D01*
X145256494Y-98276537D01*
X145353185Y-98197185D01*
X145432537Y-98100494D01*
X145491502Y-97990180D01*
X145527812Y-97870482D01*
X145540072Y-97746000D01*
X145537000Y-95745750D01*
X145378250Y-95587000D01*
X144267000Y-95587000D01*
X144013000Y-95587000D01*
X143993000Y-95587000D01*
X143993000Y-95333000D01*
X144013000Y-95333000D01*
X144013000Y-95313000D01*
X144267000Y-95313000D01*
X144267000Y-95333000D01*
X145378250Y-95333000D01*
X145537000Y-95174250D01*
X145539414Y-93602500D01*
X146549928Y-93602500D01*
X146549928Y-97365000D01*
G36*
X185542726Y-101255237D02*
G01*
X185712244Y-101368505D01*
X185900602Y-101446526D01*
X186100561Y-101486300D01*
X186304439Y-101486300D01*
X186504398Y-101446526D01*
X186692756Y-101368505D01*
X186840000Y-101270120D01*
X186840001Y-105746788D01*
X186796063Y-105790726D01*
X186682795Y-105960244D01*
X186604774Y-106148602D01*
X186565000Y-106348561D01*
X186565000Y-106552439D01*
X186604774Y-106752398D01*
X186682795Y-106940756D01*
X186796063Y-107110274D01*
X186940226Y-107254437D01*
X187109744Y-107367705D01*
X187298102Y-107445726D01*
X187498061Y-107485500D01*
X187701939Y-107485500D01*
X187901898Y-107445726D01*
X188090256Y-107367705D01*
X188259774Y-107254437D01*
X188403937Y-107110274D01*
X188443476Y-107051100D01*
X188483497Y-107051100D01*
X181294599Y-114240000D01*
X171305511Y-114240000D01*
X171261574Y-114196063D01*
X171092056Y-114082795D01*
X170903698Y-114004774D01*
X170703739Y-113965000D01*
X170499861Y-113965000D01*
X170299902Y-114004774D01*
X170111544Y-114082795D01*
X169942026Y-114196063D01*
X169797863Y-114340226D01*
X169684595Y-114509744D01*
X169606574Y-114698102D01*
X169566800Y-114898061D01*
X169566800Y-115101939D01*
X169606574Y-115301898D01*
X169684595Y-115490256D01*
X169797863Y-115659774D01*
X169841800Y-115703711D01*
X169841801Y-124616388D01*
X169797863Y-124660326D01*
X169684595Y-124829844D01*
X169606574Y-125018202D01*
X169566800Y-125218161D01*
X169566800Y-125422039D01*
X169606574Y-125621998D01*
X169684595Y-125810356D01*
X169797863Y-125979874D01*
X169942026Y-126124037D01*
X170111544Y-126237305D01*
X170299902Y-126315326D01*
X170499861Y-126355100D01*
X170703739Y-126355100D01*
X170903698Y-126315326D01*
X171092056Y-126237305D01*
X171261574Y-126124037D01*
X171405737Y-125979874D01*
X171519005Y-125810356D01*
X171597026Y-125621998D01*
X171636800Y-125422039D01*
X171636800Y-125218161D01*
X171597026Y-125018202D01*
X171519005Y-124829844D01*
X171405737Y-124660326D01*
X171361800Y-124616389D01*
X171361800Y-121696811D01*
X171468926Y-121803937D01*
X171638444Y-121917205D01*
X171826802Y-121995226D01*
X172026761Y-122035000D01*
X172230639Y-122035000D01*
X172430598Y-121995226D01*
X172618956Y-121917205D01*
X172788474Y-121803937D01*
X172832411Y-121760000D01*
X177082978Y-121760000D01*
X177120300Y-121763676D01*
X177157622Y-121760000D01*
X177157633Y-121760000D01*
X177269286Y-121749003D01*
X177412547Y-121705546D01*
X177544576Y-121634974D01*
X177660301Y-121540001D01*
X177684104Y-121510997D01*
X190022201Y-109172901D01*
X190022200Y-112121218D01*
X190016944Y-112123395D01*
X189847426Y-112236663D01*
X189703263Y-112380826D01*
X189589995Y-112550344D01*
X189511974Y-112738702D01*
X189472200Y-112938661D01*
X189472200Y-113142539D01*
X189511974Y-113342498D01*
X189589995Y-113530856D01*
X189703263Y-113700374D01*
X189755244Y-113752355D01*
X166359542Y-137148056D01*
X166292437Y-137047626D01*
X166248500Y-137003689D01*
X166248500Y-130020356D01*
X166254774Y-130051898D01*
X166332795Y-130240256D01*
X166446063Y-130409774D01*
X166590226Y-130553937D01*
X166759744Y-130667205D01*
X166948102Y-130745226D01*
X167148061Y-130785000D01*
X167351939Y-130785000D01*
X167551898Y-130745226D01*
X167740256Y-130667205D01*
X167909774Y-130553937D01*
X168053937Y-130409774D01*
X168167205Y-130240256D01*
X168245226Y-130051898D01*
X168285000Y-129851939D01*
X168285000Y-129648061D01*
X168245226Y-129448102D01*
X168167205Y-129259744D01*
X168053937Y-129090226D01*
X167909774Y-128946063D01*
X167740256Y-128832795D01*
X167551898Y-128754774D01*
X167351939Y-128715000D01*
X167148061Y-128715000D01*
X166948102Y-128754774D01*
X166759744Y-128832795D01*
X166590226Y-128946063D01*
X166446063Y-129090226D01*
X166332795Y-129259744D01*
X166254774Y-129448102D01*
X166248500Y-129479644D01*
X166248500Y-128726301D01*
X168486009Y-126488794D01*
X168515002Y-126465000D01*
X168538796Y-126436007D01*
X168538800Y-126436003D01*
X168596812Y-126365314D01*
X168609975Y-126349275D01*
X168680547Y-126217246D01*
X168724004Y-126073985D01*
X168735001Y-125962332D01*
X168735001Y-125962323D01*
X168738677Y-125925000D01*
X168735001Y-125887677D01*
X168735001Y-114539800D01*
X182063502Y-101211300D01*
X185498789Y-101211300D01*
X185542726Y-101255237D01*
X185542726Y-101255237D01*
G37*
X185542726Y-101255237D02*
X185712244Y-101368505D01*
X185900602Y-101446526D01*
X186100561Y-101486300D01*
X186304439Y-101486300D01*
X186504398Y-101446526D01*
X186692756Y-101368505D01*
X186840000Y-101270120D01*
X186840001Y-105746788D01*
X186796063Y-105790726D01*
X186682795Y-105960244D01*
X186604774Y-106148602D01*
X186565000Y-106348561D01*
X186565000Y-106552439D01*
X186604774Y-106752398D01*
X186682795Y-106940756D01*
X186796063Y-107110274D01*
X186940226Y-107254437D01*
X187109744Y-107367705D01*
X187298102Y-107445726D01*
X187498061Y-107485500D01*
X187701939Y-107485500D01*
X187901898Y-107445726D01*
X188090256Y-107367705D01*
X188259774Y-107254437D01*
X188403937Y-107110274D01*
X188443476Y-107051100D01*
X188483497Y-107051100D01*
X181294599Y-114240000D01*
X171305511Y-114240000D01*
X171261574Y-114196063D01*
X171092056Y-114082795D01*
X170903698Y-114004774D01*
X170703739Y-113965000D01*
X170499861Y-113965000D01*
X170299902Y-114004774D01*
X170111544Y-114082795D01*
X169942026Y-114196063D01*
X169797863Y-114340226D01*
X169684595Y-114509744D01*
X169606574Y-114698102D01*
X169566800Y-114898061D01*
X169566800Y-115101939D01*
X169606574Y-115301898D01*
X169684595Y-115490256D01*
X169797863Y-115659774D01*
X169841800Y-115703711D01*
X169841801Y-124616388D01*
X169797863Y-124660326D01*
X169684595Y-124829844D01*
X169606574Y-125018202D01*
X169566800Y-125218161D01*
X169566800Y-125422039D01*
X169606574Y-125621998D01*
X169684595Y-125810356D01*
X169797863Y-125979874D01*
X169942026Y-126124037D01*
X170111544Y-126237305D01*
X170299902Y-126315326D01*
X170499861Y-126355100D01*
X170703739Y-126355100D01*
X170903698Y-126315326D01*
X171092056Y-126237305D01*
X171261574Y-126124037D01*
X171405737Y-125979874D01*
X171519005Y-125810356D01*
X171597026Y-125621998D01*
X171636800Y-125422039D01*
X171636800Y-125218161D01*
X171597026Y-125018202D01*
X171519005Y-124829844D01*
X171405737Y-124660326D01*
X171361800Y-124616389D01*
X171361800Y-121696811D01*
X171468926Y-121803937D01*
X171638444Y-121917205D01*
X171826802Y-121995226D01*
X172026761Y-122035000D01*
X172230639Y-122035000D01*
X172430598Y-121995226D01*
X172618956Y-121917205D01*
X172788474Y-121803937D01*
X172832411Y-121760000D01*
X177082978Y-121760000D01*
X177120300Y-121763676D01*
X177157622Y-121760000D01*
X177157633Y-121760000D01*
X177269286Y-121749003D01*
X177412547Y-121705546D01*
X177544576Y-121634974D01*
X177660301Y-121540001D01*
X177684104Y-121510997D01*
X190022201Y-109172901D01*
X190022200Y-112121218D01*
X190016944Y-112123395D01*
X189847426Y-112236663D01*
X189703263Y-112380826D01*
X189589995Y-112550344D01*
X189511974Y-112738702D01*
X189472200Y-112938661D01*
X189472200Y-113142539D01*
X189511974Y-113342498D01*
X189589995Y-113530856D01*
X189703263Y-113700374D01*
X189755244Y-113752355D01*
X166359542Y-137148056D01*
X166292437Y-137047626D01*
X166248500Y-137003689D01*
X166248500Y-130020356D01*
X166254774Y-130051898D01*
X166332795Y-130240256D01*
X166446063Y-130409774D01*
X166590226Y-130553937D01*
X166759744Y-130667205D01*
X166948102Y-130745226D01*
X167148061Y-130785000D01*
X167351939Y-130785000D01*
X167551898Y-130745226D01*
X167740256Y-130667205D01*
X167909774Y-130553937D01*
X168053937Y-130409774D01*
X168167205Y-130240256D01*
X168245226Y-130051898D01*
X168285000Y-129851939D01*
X168285000Y-129648061D01*
X168245226Y-129448102D01*
X168167205Y-129259744D01*
X168053937Y-129090226D01*
X167909774Y-128946063D01*
X167740256Y-128832795D01*
X167551898Y-128754774D01*
X167351939Y-128715000D01*
X167148061Y-128715000D01*
X166948102Y-128754774D01*
X166759744Y-128832795D01*
X166590226Y-128946063D01*
X166446063Y-129090226D01*
X166332795Y-129259744D01*
X166254774Y-129448102D01*
X166248500Y-129479644D01*
X166248500Y-128726301D01*
X168486009Y-126488794D01*
X168515002Y-126465000D01*
X168538796Y-126436007D01*
X168538800Y-126436003D01*
X168596812Y-126365314D01*
X168609975Y-126349275D01*
X168680547Y-126217246D01*
X168724004Y-126073985D01*
X168735001Y-125962332D01*
X168735001Y-125962323D01*
X168738677Y-125925000D01*
X168735001Y-125887677D01*
X168735001Y-114539800D01*
X182063502Y-101211300D01*
X185498789Y-101211300D01*
X185542726Y-101255237D01*
G36*
X141940001Y-105785196D02*
G01*
X140389002Y-107336197D01*
X140359999Y-107359999D01*
X140324196Y-107403626D01*
X140265026Y-107475724D01*
X140196494Y-107603937D01*
X140194454Y-107607754D01*
X140150997Y-107751015D01*
X140140000Y-107862668D01*
X140140000Y-107862678D01*
X140136324Y-107900000D01*
X140140000Y-107937322D01*
X140140001Y-121358199D01*
X139730956Y-121767245D01*
X139659774Y-121696063D01*
X139490256Y-121582795D01*
X139301898Y-121504774D01*
X139101939Y-121465000D01*
X138898061Y-121465000D01*
X138698102Y-121504774D01*
X138509744Y-121582795D01*
X138340226Y-121696063D01*
X138196063Y-121840226D01*
X138082795Y-122009744D01*
X138004774Y-122198102D01*
X137965000Y-122398061D01*
X137965000Y-122601939D01*
X138004774Y-122801898D01*
X138082795Y-122990256D01*
X138196063Y-123159774D01*
X138340226Y-123303937D01*
X138509744Y-123417205D01*
X138698102Y-123495226D01*
X138898061Y-123535000D01*
X139040001Y-123535000D01*
X139040001Y-123762668D01*
X139036324Y-123800000D01*
X139040001Y-123837333D01*
X139048550Y-123924126D01*
X139050998Y-123948985D01*
X139094454Y-124092246D01*
X139165026Y-124224276D01*
X139210810Y-124280063D01*
X139260000Y-124340001D01*
X139288998Y-124363799D01*
X140765198Y-125840000D01*
X139514802Y-125840000D01*
X137392801Y-123718000D01*
X137368998Y-123688996D01*
X137253273Y-123594023D01*
X137121244Y-123523451D01*
X136977983Y-123479994D01*
X136866330Y-123468997D01*
X136866319Y-123468997D01*
X136828997Y-123465321D01*
X136791675Y-123468997D01*
X136289803Y-123468997D01*
X135483002Y-122662197D01*
X135483002Y-118914801D01*
X138111003Y-116286801D01*
X138140001Y-116263003D01*
X138234974Y-116147278D01*
X138305546Y-116015249D01*
X138349003Y-115871988D01*
X138360000Y-115760335D01*
X138363677Y-115723002D01*
X138360000Y-115685669D01*
X138360000Y-103114801D01*
X141940000Y-99534801D01*
X141940001Y-105785196D01*
X141940001Y-105785196D01*
G37*
X141940001Y-105785196D02*
X140389002Y-107336197D01*
X140359999Y-107359999D01*
X140324196Y-107403626D01*
X140265026Y-107475724D01*
X140196494Y-107603937D01*
X140194454Y-107607754D01*
X140150997Y-107751015D01*
X140140000Y-107862668D01*
X140140000Y-107862678D01*
X140136324Y-107900000D01*
X140140000Y-107937322D01*
X140140001Y-121358199D01*
X139730956Y-121767245D01*
X139659774Y-121696063D01*
X139490256Y-121582795D01*
X139301898Y-121504774D01*
X139101939Y-121465000D01*
X138898061Y-121465000D01*
X138698102Y-121504774D01*
X138509744Y-121582795D01*
X138340226Y-121696063D01*
X138196063Y-121840226D01*
X138082795Y-122009744D01*
X138004774Y-122198102D01*
X137965000Y-122398061D01*
X137965000Y-122601939D01*
X138004774Y-122801898D01*
X138082795Y-122990256D01*
X138196063Y-123159774D01*
X138340226Y-123303937D01*
X138509744Y-123417205D01*
X138698102Y-123495226D01*
X138898061Y-123535000D01*
X139040001Y-123535000D01*
X139040001Y-123762668D01*
X139036324Y-123800000D01*
X139040001Y-123837333D01*
X139048550Y-123924126D01*
X139050998Y-123948985D01*
X139094454Y-124092246D01*
X139165026Y-124224276D01*
X139210810Y-124280063D01*
X139260000Y-124340001D01*
X139288998Y-124363799D01*
X140765198Y-125840000D01*
X139514802Y-125840000D01*
X137392801Y-123718000D01*
X137368998Y-123688996D01*
X137253273Y-123594023D01*
X137121244Y-123523451D01*
X136977983Y-123479994D01*
X136866330Y-123468997D01*
X136866319Y-123468997D01*
X136828997Y-123465321D01*
X136791675Y-123468997D01*
X136289803Y-123468997D01*
X135483002Y-122662197D01*
X135483002Y-118914801D01*
X138111003Y-116286801D01*
X138140001Y-116263003D01*
X138234974Y-116147278D01*
X138305546Y-116015249D01*
X138349003Y-115871988D01*
X138360000Y-115760335D01*
X138363677Y-115723002D01*
X138360000Y-115685669D01*
X138360000Y-103114801D01*
X141940000Y-99534801D01*
X141940001Y-105785196D01*
G36*
X168299098Y-100920201D02*
G01*
X168270100Y-100943999D01*
X168246302Y-100972997D01*
X168246301Y-100972998D01*
X168175126Y-101059724D01*
X168104554Y-101191754D01*
X168061098Y-101335015D01*
X168046424Y-101484000D01*
X168050101Y-101521332D01*
X168050100Y-109578298D01*
X160572999Y-117055400D01*
X153061911Y-117055400D01*
X153017974Y-117011463D01*
X152848456Y-116898195D01*
X152660098Y-116820174D01*
X152460139Y-116780400D01*
X152256261Y-116780400D01*
X152144900Y-116802551D01*
X152144900Y-115703711D01*
X152188837Y-115659774D01*
X152302105Y-115490256D01*
X152380126Y-115301898D01*
X152419900Y-115101939D01*
X152419900Y-114898061D01*
X152380126Y-114698102D01*
X152302105Y-114509744D01*
X152188837Y-114340226D01*
X152044674Y-114196063D01*
X151875156Y-114082795D01*
X151686798Y-114004774D01*
X151486839Y-113965000D01*
X151282961Y-113965000D01*
X151083002Y-114004774D01*
X150894644Y-114082795D01*
X150725126Y-114196063D01*
X150580963Y-114340226D01*
X150467695Y-114509744D01*
X150389674Y-114698102D01*
X150349900Y-114898061D01*
X150349900Y-115101939D01*
X150389674Y-115301898D01*
X150467695Y-115490256D01*
X150580963Y-115659774D01*
X150624901Y-115703712D01*
X150624900Y-122562944D01*
X150534295Y-122698544D01*
X150456274Y-122886902D01*
X150416500Y-123086861D01*
X150416500Y-123156600D01*
X148979000Y-123156600D01*
X148979000Y-122970861D01*
X148939226Y-122770902D01*
X148861205Y-122582544D01*
X148747937Y-122413026D01*
X148704000Y-122369089D01*
X148704000Y-118947122D01*
X148707676Y-118909799D01*
X148704000Y-118872476D01*
X148704000Y-118872467D01*
X148693003Y-118760814D01*
X148649546Y-118617553D01*
X148578974Y-118485524D01*
X148484001Y-118369799D01*
X148455003Y-118346001D01*
X147137023Y-117028021D01*
X147301898Y-116995226D01*
X147490256Y-116917205D01*
X147659774Y-116803937D01*
X147803937Y-116659774D01*
X147917205Y-116490256D01*
X147995226Y-116301898D01*
X148035000Y-116101939D01*
X148035000Y-115898061D01*
X147995226Y-115698102D01*
X147917205Y-115509744D01*
X147803937Y-115340226D01*
X147659774Y-115196063D01*
X147490256Y-115082795D01*
X147301898Y-115004774D01*
X147101939Y-114965000D01*
X146898061Y-114965000D01*
X146698102Y-115004774D01*
X146509744Y-115082795D01*
X146340226Y-115196063D01*
X146196063Y-115340226D01*
X146082795Y-115509744D01*
X146013837Y-115676222D01*
X146003098Y-115671774D01*
X145803139Y-115632000D01*
X145736199Y-115632000D01*
X145736199Y-108648061D01*
X146215000Y-108648061D01*
X146215000Y-108851939D01*
X146254774Y-109051898D01*
X146332795Y-109240256D01*
X146446063Y-109409774D01*
X146590226Y-109553937D01*
X146759744Y-109667205D01*
X146948102Y-109745226D01*
X147148061Y-109785000D01*
X147351939Y-109785000D01*
X147551898Y-109745226D01*
X147740256Y-109667205D01*
X147909774Y-109553937D01*
X148053937Y-109409774D01*
X148167205Y-109240256D01*
X148245226Y-109051898D01*
X148285000Y-108851939D01*
X148285000Y-108648061D01*
X148245226Y-108448102D01*
X148167205Y-108259744D01*
X148053937Y-108090226D01*
X147909774Y-107946063D01*
X147740256Y-107832795D01*
X147551898Y-107754774D01*
X147351939Y-107715000D01*
X147148061Y-107715000D01*
X146948102Y-107754774D01*
X146759744Y-107832795D01*
X146590226Y-107946063D01*
X146446063Y-108090226D01*
X146332795Y-108259744D01*
X146254774Y-108448102D01*
X146215000Y-108648061D01*
X145736199Y-108648061D01*
X145736199Y-106413522D01*
X145739875Y-106376199D01*
X145736199Y-106338877D01*
X145736199Y-106338866D01*
X145735900Y-106335830D01*
X145735900Y-105990501D01*
X151885602Y-99840800D01*
X169378498Y-99840800D01*
X168299098Y-100920201D01*
X168299098Y-100920201D01*
G37*
X168299098Y-100920201D02*
X168270100Y-100943999D01*
X168246302Y-100972997D01*
X168246301Y-100972998D01*
X168175126Y-101059724D01*
X168104554Y-101191754D01*
X168061098Y-101335015D01*
X168046424Y-101484000D01*
X168050101Y-101521332D01*
X168050100Y-109578298D01*
X160572999Y-117055400D01*
X153061911Y-117055400D01*
X153017974Y-117011463D01*
X152848456Y-116898195D01*
X152660098Y-116820174D01*
X152460139Y-116780400D01*
X152256261Y-116780400D01*
X152144900Y-116802551D01*
X152144900Y-115703711D01*
X152188837Y-115659774D01*
X152302105Y-115490256D01*
X152380126Y-115301898D01*
X152419900Y-115101939D01*
X152419900Y-114898061D01*
X152380126Y-114698102D01*
X152302105Y-114509744D01*
X152188837Y-114340226D01*
X152044674Y-114196063D01*
X151875156Y-114082795D01*
X151686798Y-114004774D01*
X151486839Y-113965000D01*
X151282961Y-113965000D01*
X151083002Y-114004774D01*
X150894644Y-114082795D01*
X150725126Y-114196063D01*
X150580963Y-114340226D01*
X150467695Y-114509744D01*
X150389674Y-114698102D01*
X150349900Y-114898061D01*
X150349900Y-115101939D01*
X150389674Y-115301898D01*
X150467695Y-115490256D01*
X150580963Y-115659774D01*
X150624901Y-115703712D01*
X150624900Y-122562944D01*
X150534295Y-122698544D01*
X150456274Y-122886902D01*
X150416500Y-123086861D01*
X150416500Y-123156600D01*
X148979000Y-123156600D01*
X148979000Y-122970861D01*
X148939226Y-122770902D01*
X148861205Y-122582544D01*
X148747937Y-122413026D01*
X148704000Y-122369089D01*
X148704000Y-118947122D01*
X148707676Y-118909799D01*
X148704000Y-118872476D01*
X148704000Y-118872467D01*
X148693003Y-118760814D01*
X148649546Y-118617553D01*
X148578974Y-118485524D01*
X148484001Y-118369799D01*
X148455003Y-118346001D01*
X147137023Y-117028021D01*
X147301898Y-116995226D01*
X147490256Y-116917205D01*
X147659774Y-116803937D01*
X147803937Y-116659774D01*
X147917205Y-116490256D01*
X147995226Y-116301898D01*
X148035000Y-116101939D01*
X148035000Y-115898061D01*
X147995226Y-115698102D01*
X147917205Y-115509744D01*
X147803937Y-115340226D01*
X147659774Y-115196063D01*
X147490256Y-115082795D01*
X147301898Y-115004774D01*
X147101939Y-114965000D01*
X146898061Y-114965000D01*
X146698102Y-115004774D01*
X146509744Y-115082795D01*
X146340226Y-115196063D01*
X146196063Y-115340226D01*
X146082795Y-115509744D01*
X146013837Y-115676222D01*
X146003098Y-115671774D01*
X145803139Y-115632000D01*
X145736199Y-115632000D01*
X145736199Y-108648061D01*
X146215000Y-108648061D01*
X146215000Y-108851939D01*
X146254774Y-109051898D01*
X146332795Y-109240256D01*
X146446063Y-109409774D01*
X146590226Y-109553937D01*
X146759744Y-109667205D01*
X146948102Y-109745226D01*
X147148061Y-109785000D01*
X147351939Y-109785000D01*
X147551898Y-109745226D01*
X147740256Y-109667205D01*
X147909774Y-109553937D01*
X148053937Y-109409774D01*
X148167205Y-109240256D01*
X148245226Y-109051898D01*
X148285000Y-108851939D01*
X148285000Y-108648061D01*
X148245226Y-108448102D01*
X148167205Y-108259744D01*
X148053937Y-108090226D01*
X147909774Y-107946063D01*
X147740256Y-107832795D01*
X147551898Y-107754774D01*
X147351939Y-107715000D01*
X147148061Y-107715000D01*
X146948102Y-107754774D01*
X146759744Y-107832795D01*
X146590226Y-107946063D01*
X146446063Y-108090226D01*
X146332795Y-108259744D01*
X146254774Y-108448102D01*
X146215000Y-108648061D01*
X145736199Y-108648061D01*
X145736199Y-106413522D01*
X145739875Y-106376199D01*
X145736199Y-106338877D01*
X145736199Y-106338866D01*
X145735900Y-106335830D01*
X145735900Y-105990501D01*
X151885602Y-99840800D01*
X169378498Y-99840800D01*
X168299098Y-100920201D01*
G36*
X161789928Y-97323900D02*
G01*
X160780072Y-97323900D01*
X160780072Y-95134729D01*
X161789928Y-94124874D01*
X161789928Y-97323900D01*
X161789928Y-97323900D01*
G37*
X161789928Y-97323900D02*
X160780072Y-97323900D01*
X160780072Y-95134729D01*
X161789928Y-94124874D01*
X161789928Y-97323900D01*
G36*
X186545499Y-96670300D02*
G01*
X165657822Y-96670300D01*
X165620500Y-96666624D01*
X165583177Y-96670300D01*
X165583167Y-96670300D01*
X165471514Y-96681297D01*
X165328253Y-96724754D01*
X165196223Y-96795326D01*
X165112583Y-96863968D01*
X165080499Y-96890299D01*
X165056700Y-96919298D01*
X164652099Y-97323900D01*
X164590072Y-97323900D01*
X164590072Y-96220000D01*
X186095199Y-96220000D01*
X186545499Y-96670300D01*
X186545499Y-96670300D01*
G37*
X186545499Y-96670300D02*
X165657822Y-96670300D01*
X165620500Y-96666624D01*
X165583177Y-96670300D01*
X165583167Y-96670300D01*
X165471514Y-96681297D01*
X165328253Y-96724754D01*
X165196223Y-96795326D01*
X165112583Y-96863968D01*
X165080499Y-96890299D01*
X165056700Y-96919298D01*
X164652099Y-97323900D01*
X164590072Y-97323900D01*
X164590072Y-96220000D01*
X186095199Y-96220000D01*
X186545499Y-96670300D01*
G36*
X154169928Y-95134730D02*
G01*
X154169928Y-96795126D01*
X153160072Y-95785271D01*
X153160072Y-94124873D01*
X154169928Y-95134730D01*
X154169928Y-95134730D01*
G37*
X154169928Y-95134730D02*
X154169928Y-96795126D01*
X153160072Y-95785271D01*
X153160072Y-94124873D01*
X154169928Y-95134730D01*
G36*
X158432834Y-92707673D02*
G01*
X158278407Y-92834407D01*
X158151673Y-92988834D01*
X158057500Y-93165018D01*
X157999509Y-93356189D01*
X157979928Y-93555000D01*
X157979928Y-96795126D01*
X156970072Y-95785271D01*
X156970072Y-93555000D01*
X156950491Y-93356189D01*
X156892500Y-93165018D01*
X156798327Y-92988834D01*
X156671593Y-92834407D01*
X156517166Y-92707673D01*
X156427977Y-92660000D01*
X158522023Y-92660000D01*
X158432834Y-92707673D01*
X158432834Y-92707673D01*
G37*
X158432834Y-92707673D02*
X158278407Y-92834407D01*
X158151673Y-92988834D01*
X158057500Y-93165018D01*
X157999509Y-93356189D01*
X157979928Y-93555000D01*
X157979928Y-96795126D01*
X156970072Y-95785271D01*
X156970072Y-93555000D01*
X156950491Y-93356189D01*
X156892500Y-93165018D01*
X156798327Y-92988834D01*
X156671593Y-92834407D01*
X156517166Y-92707673D01*
X156427977Y-92660000D01*
X158522023Y-92660000D01*
X158432834Y-92707673D01*
G36*
X150359928Y-95134730D02*
G01*
X150359928Y-96795126D01*
X149350072Y-95785271D01*
X149350072Y-94124873D01*
X150359928Y-95134730D01*
X150359928Y-95134730D01*
G37*
X150359928Y-95134730D02*
X150359928Y-96795126D01*
X149350072Y-95785271D01*
X149350072Y-94124873D01*
X150359928Y-95134730D01*
M02*
