G04 #@! TF.GenerationSoftware,KiCad,Pcbnew,(5.1.0)-1*
G04 #@! TF.CreationDate,2019-08-28T19:33:05+02:00*
G04 #@! TF.ProjectId,atkeyboard,61746b65-7962-46f6-9172-642e6b696361,rev?*
G04 #@! TF.SameCoordinates,Original*
G04 #@! TF.FileFunction,Soldermask,Top*
G04 #@! TF.FilePolarity,Negative*
%FSLAX46Y46*%
G04 Gerber Fmt 4.6, Leading zero omitted, Abs format (unit mm)*
G04 Created by KiCad (PCBNEW (5.1.0)-1) date 2019-08-28 19:33:05*
%MOMM*%
%LPD*%
G04 APERTURE LIST*
%ADD10C,0.100000*%
G04 APERTURE END LIST*
D10*
G36*
X197224549Y-149871116D02*
G01*
X197335734Y-149893232D01*
X197545203Y-149979997D01*
X197733720Y-150105960D01*
X197894040Y-150266280D01*
X198020003Y-150454797D01*
X198106768Y-150664266D01*
X198151000Y-150886636D01*
X198151000Y-151113364D01*
X198106768Y-151335734D01*
X198020003Y-151545203D01*
X197894040Y-151733720D01*
X197733720Y-151894040D01*
X197545203Y-152020003D01*
X197335734Y-152106768D01*
X197224549Y-152128884D01*
X197113365Y-152151000D01*
X196886635Y-152151000D01*
X196775451Y-152128884D01*
X196664266Y-152106768D01*
X196454797Y-152020003D01*
X196266280Y-151894040D01*
X196105960Y-151733720D01*
X195979997Y-151545203D01*
X195893232Y-151335734D01*
X195849000Y-151113364D01*
X195849000Y-150886636D01*
X195893232Y-150664266D01*
X195979997Y-150454797D01*
X196105960Y-150266280D01*
X196266280Y-150105960D01*
X196454797Y-149979997D01*
X196664266Y-149893232D01*
X196775451Y-149871116D01*
X196886635Y-149849000D01*
X197113365Y-149849000D01*
X197224549Y-149871116D01*
X197224549Y-149871116D01*
G37*
G36*
X91224549Y-149871116D02*
G01*
X91335734Y-149893232D01*
X91545203Y-149979997D01*
X91733720Y-150105960D01*
X91894040Y-150266280D01*
X92020003Y-150454797D01*
X92106768Y-150664266D01*
X92151000Y-150886636D01*
X92151000Y-151113364D01*
X92106768Y-151335734D01*
X92020003Y-151545203D01*
X91894040Y-151733720D01*
X91733720Y-151894040D01*
X91545203Y-152020003D01*
X91335734Y-152106768D01*
X91224549Y-152128884D01*
X91113365Y-152151000D01*
X90886635Y-152151000D01*
X90775451Y-152128884D01*
X90664266Y-152106768D01*
X90454797Y-152020003D01*
X90266280Y-151894040D01*
X90105960Y-151733720D01*
X89979997Y-151545203D01*
X89893232Y-151335734D01*
X89849000Y-151113364D01*
X89849000Y-150886636D01*
X89893232Y-150664266D01*
X89979997Y-150454797D01*
X90105960Y-150266280D01*
X90266280Y-150105960D01*
X90454797Y-149979997D01*
X90664266Y-149893232D01*
X90775451Y-149871116D01*
X90886635Y-149849000D01*
X91113365Y-149849000D01*
X91224549Y-149871116D01*
X91224549Y-149871116D01*
G37*
G36*
X192051000Y-152051000D02*
G01*
X189949000Y-152051000D01*
X189949000Y-149949000D01*
X192051000Y-149949000D01*
X192051000Y-152051000D01*
X192051000Y-152051000D01*
G37*
G36*
X146051000Y-152051000D02*
G01*
X143949000Y-152051000D01*
X143949000Y-149949000D01*
X146051000Y-149949000D01*
X146051000Y-152051000D01*
X146051000Y-152051000D01*
G37*
G36*
X138051000Y-152051000D02*
G01*
X135949000Y-152051000D01*
X135949000Y-149949000D01*
X138051000Y-149949000D01*
X138051000Y-152051000D01*
X138051000Y-152051000D01*
G37*
G36*
X130051000Y-152051000D02*
G01*
X127949000Y-152051000D01*
X127949000Y-149949000D01*
X130051000Y-149949000D01*
X130051000Y-152051000D01*
X130051000Y-152051000D01*
G37*
G36*
X170051000Y-152051000D02*
G01*
X167949000Y-152051000D01*
X167949000Y-149949000D01*
X170051000Y-149949000D01*
X170051000Y-152051000D01*
X170051000Y-152051000D01*
G37*
G36*
X106051000Y-152051000D02*
G01*
X103949000Y-152051000D01*
X103949000Y-149949000D01*
X106051000Y-149949000D01*
X106051000Y-152051000D01*
X106051000Y-152051000D01*
G37*
G36*
X98051000Y-152051000D02*
G01*
X95949000Y-152051000D01*
X95949000Y-149949000D01*
X98051000Y-149949000D01*
X98051000Y-152051000D01*
X98051000Y-152051000D01*
G37*
G36*
X114051000Y-152051000D02*
G01*
X111949000Y-152051000D01*
X111949000Y-149949000D01*
X114051000Y-149949000D01*
X114051000Y-152051000D01*
X114051000Y-152051000D01*
G37*
G36*
X162051000Y-152051000D02*
G01*
X159949000Y-152051000D01*
X159949000Y-149949000D01*
X162051000Y-149949000D01*
X162051000Y-152051000D01*
X162051000Y-152051000D01*
G37*
G36*
X106051000Y-146051000D02*
G01*
X103949000Y-146051000D01*
X103949000Y-143949000D01*
X106051000Y-143949000D01*
X106051000Y-146051000D01*
X106051000Y-146051000D01*
G37*
G36*
X138051000Y-146051000D02*
G01*
X135949000Y-146051000D01*
X135949000Y-143949000D01*
X138051000Y-143949000D01*
X138051000Y-146051000D01*
X138051000Y-146051000D01*
G37*
G36*
X98051000Y-146051000D02*
G01*
X95949000Y-146051000D01*
X95949000Y-143949000D01*
X98051000Y-143949000D01*
X98051000Y-146051000D01*
X98051000Y-146051000D01*
G37*
G36*
X170051000Y-146051000D02*
G01*
X167949000Y-146051000D01*
X167949000Y-143949000D01*
X170051000Y-143949000D01*
X170051000Y-146051000D01*
X170051000Y-146051000D01*
G37*
G36*
X114051000Y-146051000D02*
G01*
X111949000Y-146051000D01*
X111949000Y-143949000D01*
X114051000Y-143949000D01*
X114051000Y-146051000D01*
X114051000Y-146051000D01*
G37*
G36*
X192051000Y-146051000D02*
G01*
X189949000Y-146051000D01*
X189949000Y-143949000D01*
X192051000Y-143949000D01*
X192051000Y-146051000D01*
X192051000Y-146051000D01*
G37*
G36*
X146051000Y-146051000D02*
G01*
X143949000Y-146051000D01*
X143949000Y-143949000D01*
X146051000Y-143949000D01*
X146051000Y-146051000D01*
X146051000Y-146051000D01*
G37*
G36*
X130051000Y-146051000D02*
G01*
X127949000Y-146051000D01*
X127949000Y-143949000D01*
X130051000Y-143949000D01*
X130051000Y-146051000D01*
X130051000Y-146051000D01*
G37*
G36*
X162051000Y-146051000D02*
G01*
X159949000Y-146051000D01*
X159949000Y-143949000D01*
X162051000Y-143949000D01*
X162051000Y-146051000D01*
X162051000Y-146051000D01*
G37*
G36*
X154051000Y-142051000D02*
G01*
X151949000Y-142051000D01*
X151949000Y-139949000D01*
X154051000Y-139949000D01*
X154051000Y-142051000D01*
X154051000Y-142051000D01*
G37*
G36*
X162051000Y-142051000D02*
G01*
X159949000Y-142051000D01*
X159949000Y-139949000D01*
X162051000Y-139949000D01*
X162051000Y-142051000D01*
X162051000Y-142051000D01*
G37*
G36*
X130051000Y-142051000D02*
G01*
X127949000Y-142051000D01*
X127949000Y-139949000D01*
X130051000Y-139949000D01*
X130051000Y-142051000D01*
X130051000Y-142051000D01*
G37*
G36*
X170051000Y-142051000D02*
G01*
X167949000Y-142051000D01*
X167949000Y-139949000D01*
X170051000Y-139949000D01*
X170051000Y-142051000D01*
X170051000Y-142051000D01*
G37*
G36*
X146051000Y-142051000D02*
G01*
X143949000Y-142051000D01*
X143949000Y-139949000D01*
X146051000Y-139949000D01*
X146051000Y-142051000D01*
X146051000Y-142051000D01*
G37*
G36*
X106051000Y-142051000D02*
G01*
X103949000Y-142051000D01*
X103949000Y-139949000D01*
X106051000Y-139949000D01*
X106051000Y-142051000D01*
X106051000Y-142051000D01*
G37*
G36*
X98051000Y-142051000D02*
G01*
X95949000Y-142051000D01*
X95949000Y-139949000D01*
X98051000Y-139949000D01*
X98051000Y-142051000D01*
X98051000Y-142051000D01*
G37*
G36*
X122051000Y-142051000D02*
G01*
X119949000Y-142051000D01*
X119949000Y-139949000D01*
X122051000Y-139949000D01*
X122051000Y-142051000D01*
X122051000Y-142051000D01*
G37*
G36*
X138051000Y-142051000D02*
G01*
X135949000Y-142051000D01*
X135949000Y-139949000D01*
X138051000Y-139949000D01*
X138051000Y-142051000D01*
X138051000Y-142051000D01*
G37*
G36*
X114051000Y-142051000D02*
G01*
X111949000Y-142051000D01*
X111949000Y-139949000D01*
X114051000Y-139949000D01*
X114051000Y-142051000D01*
X114051000Y-142051000D01*
G37*
G36*
X98051000Y-136051000D02*
G01*
X95949000Y-136051000D01*
X95949000Y-133949000D01*
X98051000Y-133949000D01*
X98051000Y-136051000D01*
X98051000Y-136051000D01*
G37*
G36*
X114051000Y-136051000D02*
G01*
X111949000Y-136051000D01*
X111949000Y-133949000D01*
X114051000Y-133949000D01*
X114051000Y-136051000D01*
X114051000Y-136051000D01*
G37*
G36*
X106051000Y-136051000D02*
G01*
X103949000Y-136051000D01*
X103949000Y-133949000D01*
X106051000Y-133949000D01*
X106051000Y-136051000D01*
X106051000Y-136051000D01*
G37*
G36*
X170051000Y-136051000D02*
G01*
X167949000Y-136051000D01*
X167949000Y-133949000D01*
X170051000Y-133949000D01*
X170051000Y-136051000D01*
X170051000Y-136051000D01*
G37*
G36*
X162051000Y-136051000D02*
G01*
X159949000Y-136051000D01*
X159949000Y-133949000D01*
X162051000Y-133949000D01*
X162051000Y-136051000D01*
X162051000Y-136051000D01*
G37*
G36*
X146051000Y-136051000D02*
G01*
X143949000Y-136051000D01*
X143949000Y-133949000D01*
X146051000Y-133949000D01*
X146051000Y-136051000D01*
X146051000Y-136051000D01*
G37*
G36*
X154051000Y-136051000D02*
G01*
X151949000Y-136051000D01*
X151949000Y-133949000D01*
X154051000Y-133949000D01*
X154051000Y-136051000D01*
X154051000Y-136051000D01*
G37*
G36*
X122051000Y-136051000D02*
G01*
X119949000Y-136051000D01*
X119949000Y-133949000D01*
X122051000Y-133949000D01*
X122051000Y-136051000D01*
X122051000Y-136051000D01*
G37*
G36*
X130051000Y-136051000D02*
G01*
X127949000Y-136051000D01*
X127949000Y-133949000D01*
X130051000Y-133949000D01*
X130051000Y-136051000D01*
X130051000Y-136051000D01*
G37*
G36*
X138051000Y-136051000D02*
G01*
X135949000Y-136051000D01*
X135949000Y-133949000D01*
X138051000Y-133949000D01*
X138051000Y-136051000D01*
X138051000Y-136051000D01*
G37*
G36*
X106051000Y-132051000D02*
G01*
X103949000Y-132051000D01*
X103949000Y-129949000D01*
X106051000Y-129949000D01*
X106051000Y-132051000D01*
X106051000Y-132051000D01*
G37*
G36*
X162051000Y-132051000D02*
G01*
X159949000Y-132051000D01*
X159949000Y-129949000D01*
X162051000Y-129949000D01*
X162051000Y-132051000D01*
X162051000Y-132051000D01*
G37*
G36*
X154051000Y-132051000D02*
G01*
X151949000Y-132051000D01*
X151949000Y-129949000D01*
X154051000Y-129949000D01*
X154051000Y-132051000D01*
X154051000Y-132051000D01*
G37*
G36*
X146051000Y-132051000D02*
G01*
X143949000Y-132051000D01*
X143949000Y-129949000D01*
X146051000Y-129949000D01*
X146051000Y-132051000D01*
X146051000Y-132051000D01*
G37*
G36*
X138051000Y-132051000D02*
G01*
X135949000Y-132051000D01*
X135949000Y-129949000D01*
X138051000Y-129949000D01*
X138051000Y-132051000D01*
X138051000Y-132051000D01*
G37*
G36*
X130051000Y-132051000D02*
G01*
X127949000Y-132051000D01*
X127949000Y-129949000D01*
X130051000Y-129949000D01*
X130051000Y-132051000D01*
X130051000Y-132051000D01*
G37*
G36*
X122051000Y-132051000D02*
G01*
X119949000Y-132051000D01*
X119949000Y-129949000D01*
X122051000Y-129949000D01*
X122051000Y-132051000D01*
X122051000Y-132051000D01*
G37*
G36*
X98051000Y-132051000D02*
G01*
X95949000Y-132051000D01*
X95949000Y-129949000D01*
X98051000Y-129949000D01*
X98051000Y-132051000D01*
X98051000Y-132051000D01*
G37*
G36*
X114051000Y-132051000D02*
G01*
X111949000Y-132051000D01*
X111949000Y-129949000D01*
X114051000Y-129949000D01*
X114051000Y-132051000D01*
X114051000Y-132051000D01*
G37*
G36*
X170051000Y-132051000D02*
G01*
X167949000Y-132051000D01*
X167949000Y-129949000D01*
X170051000Y-129949000D01*
X170051000Y-132051000D01*
X170051000Y-132051000D01*
G37*
G36*
X190779231Y-129292893D02*
G01*
X189292893Y-130779231D01*
X187806555Y-129292893D01*
X189292893Y-127806555D01*
X190779231Y-129292893D01*
X190779231Y-129292893D01*
G37*
G36*
X179051000Y-128901000D02*
G01*
X177449000Y-128901000D01*
X177449000Y-127499000D01*
X179051000Y-127499000D01*
X179051000Y-128901000D01*
X179051000Y-128901000D01*
G37*
G36*
X181751000Y-128901000D02*
G01*
X180149000Y-128901000D01*
X180149000Y-127499000D01*
X181751000Y-127499000D01*
X181751000Y-128901000D01*
X181751000Y-128901000D01*
G37*
G36*
X186536591Y-125050253D02*
G01*
X185050253Y-126536591D01*
X183563915Y-125050253D01*
X185050253Y-123563915D01*
X186536591Y-125050253D01*
X186536591Y-125050253D01*
G37*
G36*
X98051000Y-126051000D02*
G01*
X95949000Y-126051000D01*
X95949000Y-123949000D01*
X98051000Y-123949000D01*
X98051000Y-126051000D01*
X98051000Y-126051000D01*
G37*
G36*
X106051000Y-126051000D02*
G01*
X103949000Y-126051000D01*
X103949000Y-123949000D01*
X106051000Y-123949000D01*
X106051000Y-126051000D01*
X106051000Y-126051000D01*
G37*
G36*
X154051000Y-126051000D02*
G01*
X151949000Y-126051000D01*
X151949000Y-123949000D01*
X154051000Y-123949000D01*
X154051000Y-126051000D01*
X154051000Y-126051000D01*
G37*
G36*
X162051000Y-126051000D02*
G01*
X159949000Y-126051000D01*
X159949000Y-123949000D01*
X162051000Y-123949000D01*
X162051000Y-126051000D01*
X162051000Y-126051000D01*
G37*
G36*
X138051000Y-126051000D02*
G01*
X135949000Y-126051000D01*
X135949000Y-123949000D01*
X138051000Y-123949000D01*
X138051000Y-126051000D01*
X138051000Y-126051000D01*
G37*
G36*
X130051000Y-126051000D02*
G01*
X127949000Y-126051000D01*
X127949000Y-123949000D01*
X130051000Y-123949000D01*
X130051000Y-126051000D01*
X130051000Y-126051000D01*
G37*
G36*
X122051000Y-126051000D02*
G01*
X119949000Y-126051000D01*
X119949000Y-123949000D01*
X122051000Y-123949000D01*
X122051000Y-126051000D01*
X122051000Y-126051000D01*
G37*
G36*
X114051000Y-126051000D02*
G01*
X111949000Y-126051000D01*
X111949000Y-123949000D01*
X114051000Y-123949000D01*
X114051000Y-126051000D01*
X114051000Y-126051000D01*
G37*
G36*
X170051000Y-126051000D02*
G01*
X167949000Y-126051000D01*
X167949000Y-123949000D01*
X170051000Y-123949000D01*
X170051000Y-126051000D01*
X170051000Y-126051000D01*
G37*
G36*
X146051000Y-126051000D02*
G01*
X143949000Y-126051000D01*
X143949000Y-123949000D01*
X146051000Y-123949000D01*
X146051000Y-126051000D01*
X146051000Y-126051000D01*
G37*
G36*
X180193445Y-123292893D02*
G01*
X178707107Y-124779231D01*
X177220769Y-123292893D01*
X178707107Y-121806555D01*
X180193445Y-123292893D01*
X180193445Y-123292893D01*
G37*
G36*
X192243445Y-123242893D02*
G01*
X190757107Y-124729231D01*
X189270769Y-123242893D01*
X190757107Y-121756555D01*
X192243445Y-123242893D01*
X192243445Y-123242893D01*
G37*
G36*
X170051000Y-122051000D02*
G01*
X167949000Y-122051000D01*
X167949000Y-119949000D01*
X170051000Y-119949000D01*
X170051000Y-122051000D01*
X170051000Y-122051000D01*
G37*
G36*
X162051000Y-122051000D02*
G01*
X159949000Y-122051000D01*
X159949000Y-119949000D01*
X162051000Y-119949000D01*
X162051000Y-122051000D01*
X162051000Y-122051000D01*
G37*
G36*
X154051000Y-122051000D02*
G01*
X151949000Y-122051000D01*
X151949000Y-119949000D01*
X154051000Y-119949000D01*
X154051000Y-122051000D01*
X154051000Y-122051000D01*
G37*
G36*
X146051000Y-122051000D02*
G01*
X143949000Y-122051000D01*
X143949000Y-119949000D01*
X146051000Y-119949000D01*
X146051000Y-122051000D01*
X146051000Y-122051000D01*
G37*
G36*
X130051000Y-122051000D02*
G01*
X127949000Y-122051000D01*
X127949000Y-119949000D01*
X130051000Y-119949000D01*
X130051000Y-122051000D01*
X130051000Y-122051000D01*
G37*
G36*
X114051000Y-122051000D02*
G01*
X111949000Y-122051000D01*
X111949000Y-119949000D01*
X114051000Y-119949000D01*
X114051000Y-122051000D01*
X114051000Y-122051000D01*
G37*
G36*
X122051000Y-122051000D02*
G01*
X119949000Y-122051000D01*
X119949000Y-119949000D01*
X122051000Y-119949000D01*
X122051000Y-122051000D01*
X122051000Y-122051000D01*
G37*
G36*
X138051000Y-122051000D02*
G01*
X135949000Y-122051000D01*
X135949000Y-119949000D01*
X138051000Y-119949000D01*
X138051000Y-122051000D01*
X138051000Y-122051000D01*
G37*
G36*
X106051000Y-122051000D02*
G01*
X103949000Y-122051000D01*
X103949000Y-119949000D01*
X106051000Y-119949000D01*
X106051000Y-122051000D01*
X106051000Y-122051000D01*
G37*
G36*
X98051000Y-122051000D02*
G01*
X95949000Y-122051000D01*
X95949000Y-119949000D01*
X98051000Y-119949000D01*
X98051000Y-122051000D01*
X98051000Y-122051000D01*
G37*
G36*
X184436085Y-119050253D02*
G01*
X182949747Y-120536591D01*
X181463409Y-119050253D01*
X182949747Y-117563915D01*
X184436085Y-119050253D01*
X184436085Y-119050253D01*
G37*
G36*
X196486085Y-119000253D02*
G01*
X194999747Y-120486591D01*
X193513409Y-119000253D01*
X194999747Y-117513915D01*
X196486085Y-119000253D01*
X196486085Y-119000253D01*
G37*
G36*
X190779231Y-117292893D02*
G01*
X189292893Y-118779231D01*
X187806555Y-117292893D01*
X189292893Y-115806555D01*
X190779231Y-117292893D01*
X190779231Y-117292893D01*
G37*
G36*
X130051000Y-116051000D02*
G01*
X127949000Y-116051000D01*
X127949000Y-113949000D01*
X130051000Y-113949000D01*
X130051000Y-116051000D01*
X130051000Y-116051000D01*
G37*
G36*
X98051000Y-116051000D02*
G01*
X95949000Y-116051000D01*
X95949000Y-113949000D01*
X98051000Y-113949000D01*
X98051000Y-116051000D01*
X98051000Y-116051000D01*
G37*
G36*
X170051000Y-116051000D02*
G01*
X167949000Y-116051000D01*
X167949000Y-113949000D01*
X170051000Y-113949000D01*
X170051000Y-116051000D01*
X170051000Y-116051000D01*
G37*
G36*
X114051000Y-116051000D02*
G01*
X111949000Y-116051000D01*
X111949000Y-113949000D01*
X114051000Y-113949000D01*
X114051000Y-116051000D01*
X114051000Y-116051000D01*
G37*
G36*
X106051000Y-116051000D02*
G01*
X103949000Y-116051000D01*
X103949000Y-113949000D01*
X106051000Y-113949000D01*
X106051000Y-116051000D01*
X106051000Y-116051000D01*
G37*
G36*
X146051000Y-116051000D02*
G01*
X143949000Y-116051000D01*
X143949000Y-113949000D01*
X146051000Y-113949000D01*
X146051000Y-116051000D01*
X146051000Y-116051000D01*
G37*
G36*
X138051000Y-116051000D02*
G01*
X135949000Y-116051000D01*
X135949000Y-113949000D01*
X138051000Y-113949000D01*
X138051000Y-116051000D01*
X138051000Y-116051000D01*
G37*
G36*
X154051000Y-116051000D02*
G01*
X151949000Y-116051000D01*
X151949000Y-113949000D01*
X154051000Y-113949000D01*
X154051000Y-116051000D01*
X154051000Y-116051000D01*
G37*
G36*
X162051000Y-116051000D02*
G01*
X159949000Y-116051000D01*
X159949000Y-113949000D01*
X162051000Y-113949000D01*
X162051000Y-116051000D01*
X162051000Y-116051000D01*
G37*
G36*
X122051000Y-116051000D02*
G01*
X119949000Y-116051000D01*
X119949000Y-113949000D01*
X122051000Y-113949000D01*
X122051000Y-116051000D01*
X122051000Y-116051000D01*
G37*
G36*
X186536591Y-113050253D02*
G01*
X185050253Y-114536591D01*
X183563915Y-113050253D01*
X185050253Y-111563915D01*
X186536591Y-113050253D01*
X186536591Y-113050253D01*
G37*
G36*
X146051000Y-112051000D02*
G01*
X143949000Y-112051000D01*
X143949000Y-109949000D01*
X146051000Y-109949000D01*
X146051000Y-112051000D01*
X146051000Y-112051000D01*
G37*
G36*
X114051000Y-112051000D02*
G01*
X111949000Y-112051000D01*
X111949000Y-109949000D01*
X114051000Y-109949000D01*
X114051000Y-112051000D01*
X114051000Y-112051000D01*
G37*
G36*
X138051000Y-112051000D02*
G01*
X135949000Y-112051000D01*
X135949000Y-109949000D01*
X138051000Y-109949000D01*
X138051000Y-112051000D01*
X138051000Y-112051000D01*
G37*
G36*
X106051000Y-112051000D02*
G01*
X103949000Y-112051000D01*
X103949000Y-109949000D01*
X106051000Y-109949000D01*
X106051000Y-112051000D01*
X106051000Y-112051000D01*
G37*
G36*
X98051000Y-112051000D02*
G01*
X95949000Y-112051000D01*
X95949000Y-109949000D01*
X98051000Y-109949000D01*
X98051000Y-112051000D01*
X98051000Y-112051000D01*
G37*
G36*
X170051000Y-112051000D02*
G01*
X167949000Y-112051000D01*
X167949000Y-109949000D01*
X170051000Y-109949000D01*
X170051000Y-112051000D01*
X170051000Y-112051000D01*
G37*
G36*
X162051000Y-112051000D02*
G01*
X159949000Y-112051000D01*
X159949000Y-109949000D01*
X162051000Y-109949000D01*
X162051000Y-112051000D01*
X162051000Y-112051000D01*
G37*
G36*
X154051000Y-112051000D02*
G01*
X151949000Y-112051000D01*
X151949000Y-109949000D01*
X154051000Y-109949000D01*
X154051000Y-112051000D01*
X154051000Y-112051000D01*
G37*
G36*
X130051000Y-112051000D02*
G01*
X127949000Y-112051000D01*
X127949000Y-109949000D01*
X130051000Y-109949000D01*
X130051000Y-112051000D01*
X130051000Y-112051000D01*
G37*
G36*
X122051000Y-112051000D02*
G01*
X119949000Y-112051000D01*
X119949000Y-109949000D01*
X122051000Y-109949000D01*
X122051000Y-112051000D01*
X122051000Y-112051000D01*
G37*
G36*
X176676000Y-108051000D02*
G01*
X175324000Y-108051000D01*
X175324000Y-106449000D01*
X176676000Y-106449000D01*
X176676000Y-108051000D01*
X176676000Y-108051000D01*
G37*
G36*
X181051000Y-107551000D02*
G01*
X178949000Y-107551000D01*
X178949000Y-102949000D01*
X181051000Y-102949000D01*
X181051000Y-107551000D01*
X181051000Y-107551000D01*
G37*
G36*
X162051000Y-106051000D02*
G01*
X159949000Y-106051000D01*
X159949000Y-103949000D01*
X162051000Y-103949000D01*
X162051000Y-106051000D01*
X162051000Y-106051000D01*
G37*
G36*
X138051000Y-106051000D02*
G01*
X135949000Y-106051000D01*
X135949000Y-103949000D01*
X138051000Y-103949000D01*
X138051000Y-106051000D01*
X138051000Y-106051000D01*
G37*
G36*
X122051000Y-106051000D02*
G01*
X119949000Y-106051000D01*
X119949000Y-103949000D01*
X122051000Y-103949000D01*
X122051000Y-106051000D01*
X122051000Y-106051000D01*
G37*
G36*
X98051000Y-106051000D02*
G01*
X95949000Y-106051000D01*
X95949000Y-103949000D01*
X98051000Y-103949000D01*
X98051000Y-106051000D01*
X98051000Y-106051000D01*
G37*
G36*
X114051000Y-106051000D02*
G01*
X111949000Y-106051000D01*
X111949000Y-103949000D01*
X114051000Y-103949000D01*
X114051000Y-106051000D01*
X114051000Y-106051000D01*
G37*
G36*
X130051000Y-106051000D02*
G01*
X127949000Y-106051000D01*
X127949000Y-103949000D01*
X130051000Y-103949000D01*
X130051000Y-106051000D01*
X130051000Y-106051000D01*
G37*
G36*
X106051000Y-106051000D02*
G01*
X103949000Y-106051000D01*
X103949000Y-103949000D01*
X106051000Y-103949000D01*
X106051000Y-106051000D01*
X106051000Y-106051000D01*
G37*
G36*
X154051000Y-106051000D02*
G01*
X151949000Y-106051000D01*
X151949000Y-103949000D01*
X154051000Y-103949000D01*
X154051000Y-106051000D01*
X154051000Y-106051000D01*
G37*
G36*
X146051000Y-106051000D02*
G01*
X143949000Y-106051000D01*
X143949000Y-103949000D01*
X146051000Y-103949000D01*
X146051000Y-106051000D01*
X146051000Y-106051000D01*
G37*
G36*
X170051000Y-106051000D02*
G01*
X167949000Y-106051000D01*
X167949000Y-103949000D01*
X170051000Y-103949000D01*
X170051000Y-106051000D01*
X170051000Y-106051000D01*
G37*
G36*
X191951000Y-105901000D02*
G01*
X185649000Y-105901000D01*
X185649000Y-104599000D01*
X191951000Y-104599000D01*
X191951000Y-105901000D01*
X191951000Y-105901000D01*
G37*
G36*
X176676000Y-105551000D02*
G01*
X175324000Y-105551000D01*
X175324000Y-103949000D01*
X176676000Y-103949000D01*
X176676000Y-105551000D01*
X176676000Y-105551000D01*
G37*
G36*
X193701000Y-104151000D02*
G01*
X192399000Y-104151000D01*
X192399000Y-97849000D01*
X193701000Y-97849000D01*
X193701000Y-104151000D01*
X193701000Y-104151000D01*
G37*
G36*
X185201000Y-104151000D02*
G01*
X183899000Y-104151000D01*
X183899000Y-97849000D01*
X185201000Y-97849000D01*
X185201000Y-104151000D01*
X185201000Y-104151000D01*
G37*
G36*
X196276000Y-104051000D02*
G01*
X194924000Y-104051000D01*
X194924000Y-102449000D01*
X196276000Y-102449000D01*
X196276000Y-104051000D01*
X196276000Y-104051000D01*
G37*
G36*
X176676000Y-103051000D02*
G01*
X175324000Y-103051000D01*
X175324000Y-101449000D01*
X176676000Y-101449000D01*
X176676000Y-103051000D01*
X176676000Y-103051000D01*
G37*
G36*
X114051000Y-102051000D02*
G01*
X111949000Y-102051000D01*
X111949000Y-99949000D01*
X114051000Y-99949000D01*
X114051000Y-102051000D01*
X114051000Y-102051000D01*
G37*
G36*
X130051000Y-102051000D02*
G01*
X127949000Y-102051000D01*
X127949000Y-99949000D01*
X130051000Y-99949000D01*
X130051000Y-102051000D01*
X130051000Y-102051000D01*
G37*
G36*
X98051000Y-102051000D02*
G01*
X95949000Y-102051000D01*
X95949000Y-99949000D01*
X98051000Y-99949000D01*
X98051000Y-102051000D01*
X98051000Y-102051000D01*
G37*
G36*
X106051000Y-102051000D02*
G01*
X103949000Y-102051000D01*
X103949000Y-99949000D01*
X106051000Y-99949000D01*
X106051000Y-102051000D01*
X106051000Y-102051000D01*
G37*
G36*
X122051000Y-102051000D02*
G01*
X119949000Y-102051000D01*
X119949000Y-99949000D01*
X122051000Y-99949000D01*
X122051000Y-102051000D01*
X122051000Y-102051000D01*
G37*
G36*
X138051000Y-102051000D02*
G01*
X135949000Y-102051000D01*
X135949000Y-99949000D01*
X138051000Y-99949000D01*
X138051000Y-102051000D01*
X138051000Y-102051000D01*
G37*
G36*
X196276000Y-101551000D02*
G01*
X194924000Y-101551000D01*
X194924000Y-99949000D01*
X196276000Y-99949000D01*
X196276000Y-101551000D01*
X196276000Y-101551000D01*
G37*
G36*
X170051000Y-101051000D02*
G01*
X167949000Y-101051000D01*
X167949000Y-98949000D01*
X170051000Y-98949000D01*
X170051000Y-101051000D01*
X170051000Y-101051000D01*
G37*
G36*
X176676000Y-100551000D02*
G01*
X175324000Y-100551000D01*
X175324000Y-98949000D01*
X176676000Y-98949000D01*
X176676000Y-100551000D01*
X176676000Y-100551000D01*
G37*
G36*
X181051000Y-99051000D02*
G01*
X178949000Y-99051000D01*
X178949000Y-94449000D01*
X181051000Y-94449000D01*
X181051000Y-99051000D01*
X181051000Y-99051000D01*
G37*
G36*
X176676000Y-98251000D02*
G01*
X175324000Y-98251000D01*
X175324000Y-96649000D01*
X176676000Y-96649000D01*
X176676000Y-98251000D01*
X176676000Y-98251000D01*
G37*
G36*
X191951000Y-97401000D02*
G01*
X185649000Y-97401000D01*
X185649000Y-96099000D01*
X191951000Y-96099000D01*
X191951000Y-97401000D01*
X191951000Y-97401000D01*
G37*
G36*
X91224549Y-93871116D02*
G01*
X91335734Y-93893232D01*
X91545203Y-93979997D01*
X91733720Y-94105960D01*
X91894040Y-94266280D01*
X92020003Y-94454797D01*
X92106768Y-94664266D01*
X92151000Y-94886636D01*
X92151000Y-95113364D01*
X92106768Y-95335734D01*
X92020003Y-95545203D01*
X91894040Y-95733720D01*
X91733720Y-95894040D01*
X91545203Y-96020003D01*
X91335734Y-96106768D01*
X91224549Y-96128884D01*
X91113365Y-96151000D01*
X90886635Y-96151000D01*
X90775451Y-96128884D01*
X90664266Y-96106768D01*
X90454797Y-96020003D01*
X90266280Y-95894040D01*
X90105960Y-95733720D01*
X89979997Y-95545203D01*
X89893232Y-95335734D01*
X89849000Y-95113364D01*
X89849000Y-94886636D01*
X89893232Y-94664266D01*
X89979997Y-94454797D01*
X90105960Y-94266280D01*
X90266280Y-94105960D01*
X90454797Y-93979997D01*
X90664266Y-93893232D01*
X90775451Y-93871116D01*
X90886635Y-93849000D01*
X91113365Y-93849000D01*
X91224549Y-93871116D01*
X91224549Y-93871116D01*
G37*
G36*
X197224549Y-93871116D02*
G01*
X197335734Y-93893232D01*
X197545203Y-93979997D01*
X197733720Y-94105960D01*
X197894040Y-94266280D01*
X198020003Y-94454797D01*
X198106768Y-94664266D01*
X198151000Y-94886636D01*
X198151000Y-95113364D01*
X198106768Y-95335734D01*
X198020003Y-95545203D01*
X197894040Y-95733720D01*
X197733720Y-95894040D01*
X197545203Y-96020003D01*
X197335734Y-96106768D01*
X197224549Y-96128884D01*
X197113365Y-96151000D01*
X196886635Y-96151000D01*
X196775451Y-96128884D01*
X196664266Y-96106768D01*
X196454797Y-96020003D01*
X196266280Y-95894040D01*
X196105960Y-95733720D01*
X195979997Y-95545203D01*
X195893232Y-95335734D01*
X195849000Y-95113364D01*
X195849000Y-94886636D01*
X195893232Y-94664266D01*
X195979997Y-94454797D01*
X196105960Y-94266280D01*
X196266280Y-94105960D01*
X196454797Y-93979997D01*
X196664266Y-93893232D01*
X196775451Y-93871116D01*
X196886635Y-93849000D01*
X197113365Y-93849000D01*
X197224549Y-93871116D01*
X197224549Y-93871116D01*
G37*
G36*
X138051000Y-96051000D02*
G01*
X135949000Y-96051000D01*
X135949000Y-93949000D01*
X138051000Y-93949000D01*
X138051000Y-96051000D01*
X138051000Y-96051000D01*
G37*
G36*
X106051000Y-96051000D02*
G01*
X103949000Y-96051000D01*
X103949000Y-93949000D01*
X106051000Y-93949000D01*
X106051000Y-96051000D01*
X106051000Y-96051000D01*
G37*
G36*
X114051000Y-96051000D02*
G01*
X111949000Y-96051000D01*
X111949000Y-93949000D01*
X114051000Y-93949000D01*
X114051000Y-96051000D01*
X114051000Y-96051000D01*
G37*
G36*
X122051000Y-96051000D02*
G01*
X119949000Y-96051000D01*
X119949000Y-93949000D01*
X122051000Y-93949000D01*
X122051000Y-96051000D01*
X122051000Y-96051000D01*
G37*
G36*
X98051000Y-96051000D02*
G01*
X95949000Y-96051000D01*
X95949000Y-93949000D01*
X98051000Y-93949000D01*
X98051000Y-96051000D01*
X98051000Y-96051000D01*
G37*
G36*
X130051000Y-96051000D02*
G01*
X127949000Y-96051000D01*
X127949000Y-93949000D01*
X130051000Y-93949000D01*
X130051000Y-96051000D01*
X130051000Y-96051000D01*
G37*
G36*
X176676000Y-95751000D02*
G01*
X175324000Y-95751000D01*
X175324000Y-94149000D01*
X176676000Y-94149000D01*
X176676000Y-95751000D01*
X176676000Y-95751000D01*
G37*
G36*
X191051000Y-95076000D02*
G01*
X189449000Y-95076000D01*
X189449000Y-93724000D01*
X191051000Y-93724000D01*
X191051000Y-95076000D01*
X191051000Y-95076000D01*
G37*
G36*
X188551000Y-95076000D02*
G01*
X186949000Y-95076000D01*
X186949000Y-93724000D01*
X188551000Y-93724000D01*
X188551000Y-95076000D01*
X188551000Y-95076000D01*
G37*
G36*
X170051000Y-95051000D02*
G01*
X167949000Y-95051000D01*
X167949000Y-92949000D01*
X170051000Y-92949000D01*
X170051000Y-95051000D01*
X170051000Y-95051000D01*
G37*
M02*
