G04 #@! TF.GenerationSoftware,KiCad,Pcbnew,(5.1.0)-1*
G04 #@! TF.CreationDate,2019-08-28T19:33:05+02:00*
G04 #@! TF.ProjectId,atkeyboard,61746b65-7962-46f6-9172-642e6b696361,rev?*
G04 #@! TF.SameCoordinates,Original*
G04 #@! TF.FileFunction,Legend,Top*
G04 #@! TF.FilePolarity,Positive*
%FSLAX46Y46*%
G04 Gerber Fmt 4.6, Leading zero omitted, Abs format (unit mm)*
G04 Created by KiCad (PCBNEW (5.1.0)-1) date 2019-08-28 19:33:05*
%MOMM*%
%LPD*%
G04 APERTURE LIST*
%ADD10C,0.150000*%
%ADD11C,0.300000*%
%ADD12C,0.120000*%
%ADD13C,0.010000*%
%ADD14C,0.100000*%
G04 APERTURE END LIST*
D10*
X195797619Y-117750000D02*
X196559523Y-117750000D01*
X196369047Y-117559523D02*
X196559523Y-117750000D01*
X196369047Y-117940476D01*
X178202380Y-117750000D02*
X177440476Y-117750000D01*
X177630952Y-117940476D02*
X177440476Y-117750000D01*
X177630952Y-117559523D01*
X186000000Y-131297619D02*
X186000000Y-132059523D01*
X186190476Y-131869047D02*
X186000000Y-132059523D01*
X185809523Y-131869047D01*
X186000000Y-110452380D02*
X186000000Y-109690476D01*
X185809523Y-109880952D02*
X186000000Y-109690476D01*
X186190476Y-109880952D01*
X187904761Y-143452380D02*
X188095238Y-143452380D01*
X188190476Y-143500000D01*
X188285714Y-143595238D01*
X188333333Y-143785714D01*
X188333333Y-144119047D01*
X188285714Y-144309523D01*
X188190476Y-144404761D01*
X188095238Y-144452380D01*
X187904761Y-144452380D01*
X187809523Y-144404761D01*
X187714285Y-144309523D01*
X187666666Y-144119047D01*
X187666666Y-143785714D01*
X187714285Y-143595238D01*
X187809523Y-143500000D01*
X187904761Y-143452380D01*
X188761904Y-144452380D02*
X188761904Y-143452380D01*
X189333333Y-144452380D02*
X188904761Y-143880952D01*
X189333333Y-143452380D02*
X188761904Y-144023809D01*
X156404761Y-144166666D02*
X156880952Y-144166666D01*
X156309523Y-144452380D02*
X156642857Y-143452380D01*
X156976190Y-144452380D01*
X157452380Y-144452380D02*
X157357142Y-144404761D01*
X157309523Y-144309523D01*
X157309523Y-143452380D01*
X157690476Y-143785714D02*
X158071428Y-143785714D01*
X157833333Y-143452380D02*
X157833333Y-144309523D01*
X157880952Y-144404761D01*
X157976190Y-144452380D01*
X158071428Y-144452380D01*
X158928571Y-143500000D02*
X158833333Y-143452380D01*
X158690476Y-143452380D01*
X158547619Y-143500000D01*
X158452380Y-143595238D01*
X158404761Y-143690476D01*
X158357142Y-143880952D01*
X158357142Y-144023809D01*
X158404761Y-144214285D01*
X158452380Y-144309523D01*
X158547619Y-144404761D01*
X158690476Y-144452380D01*
X158785714Y-144452380D01*
X158928571Y-144404761D01*
X158976190Y-144357142D01*
X158976190Y-144023809D01*
X158785714Y-144023809D01*
X159404761Y-144452380D02*
X159404761Y-143785714D01*
X159404761Y-143976190D02*
X159452380Y-143880952D01*
X159500000Y-143833333D01*
X159595238Y-143785714D01*
X159690476Y-143785714D01*
X109714285Y-144166666D02*
X110190476Y-144166666D01*
X109619047Y-144452380D02*
X109952380Y-143452380D01*
X110285714Y-144452380D01*
X110761904Y-144452380D02*
X110666666Y-144404761D01*
X110619047Y-144309523D01*
X110619047Y-143452380D01*
X111000000Y-143785714D02*
X111380952Y-143785714D01*
X111142857Y-143452380D02*
X111142857Y-144309523D01*
X111190476Y-144404761D01*
X111285714Y-144452380D01*
X111380952Y-144452380D01*
X166892857Y-144452380D02*
X166607142Y-144452380D01*
X166607142Y-143928571D01*
X166511904Y-143928571D01*
X166750000Y-143690476D01*
X166988095Y-143928571D01*
X166892857Y-143928571D01*
X166892857Y-144452380D01*
X102642857Y-144452380D02*
X102357142Y-144452380D01*
X102357142Y-143928571D01*
X102261904Y-143928571D01*
X102500000Y-143690476D01*
X102738095Y-143928571D01*
X102642857Y-143928571D01*
X102642857Y-144452380D01*
X93702380Y-144357142D02*
X93654761Y-144404761D01*
X93511904Y-144452380D01*
X93416666Y-144452380D01*
X93273809Y-144404761D01*
X93178571Y-144309523D01*
X93130952Y-144214285D01*
X93083333Y-144023809D01*
X93083333Y-143880952D01*
X93130952Y-143690476D01*
X93178571Y-143595238D01*
X93273809Y-143500000D01*
X93416666Y-143452380D01*
X93511904Y-143452380D01*
X93654761Y-143500000D01*
X93702380Y-143547619D01*
X93988095Y-143785714D02*
X94369047Y-143785714D01*
X94130952Y-143452380D02*
X94130952Y-144309523D01*
X94178571Y-144404761D01*
X94273809Y-144452380D01*
X94369047Y-144452380D01*
X94702380Y-144452380D02*
X94702380Y-143785714D01*
X94702380Y-143976190D02*
X94750000Y-143880952D01*
X94797619Y-143833333D01*
X94892857Y-143785714D01*
X94988095Y-143785714D01*
X95464285Y-144452380D02*
X95369047Y-144404761D01*
X95321428Y-144309523D01*
X95321428Y-143452380D01*
X162869047Y-133785714D02*
X163630952Y-134071428D01*
X162869047Y-134357142D01*
X159130952Y-133785714D02*
X158369047Y-134071428D01*
X159130952Y-134357142D01*
X156000000Y-134107142D02*
X156047619Y-134154761D01*
X156000000Y-134202380D01*
X155952380Y-134154761D01*
X156000000Y-134107142D01*
X156000000Y-134202380D01*
X150416666Y-134452380D02*
X150416666Y-133452380D01*
X150750000Y-134166666D01*
X151083333Y-133452380D01*
X151083333Y-134452380D01*
X147547619Y-134404761D02*
X147547619Y-134452380D01*
X147500000Y-134547619D01*
X147452380Y-134595238D01*
X142464285Y-134452380D02*
X142464285Y-133452380D01*
X143035714Y-134452380D01*
X143035714Y-133452380D01*
X139071428Y-133357142D02*
X139928571Y-134642857D01*
X134821428Y-133928571D02*
X134964285Y-133976190D01*
X135011904Y-134023809D01*
X135059523Y-134119047D01*
X135059523Y-134261904D01*
X135011904Y-134357142D01*
X134964285Y-134404761D01*
X134869047Y-134452380D01*
X134488095Y-134452380D01*
X134488095Y-133452380D01*
X134821428Y-133452380D01*
X134916666Y-133500000D01*
X134964285Y-133547619D01*
X135011904Y-133642857D01*
X135011904Y-133738095D01*
X134964285Y-133833333D01*
X134916666Y-133880952D01*
X134821428Y-133928571D01*
X134488095Y-133928571D01*
X131702380Y-134357142D02*
X131750000Y-134404761D01*
X131702380Y-134452380D01*
X131654761Y-134404761D01*
X131702380Y-134357142D01*
X131702380Y-134452380D01*
X131511904Y-133500000D02*
X131607142Y-133452380D01*
X131845238Y-133452380D01*
X131940476Y-133500000D01*
X131988095Y-133595238D01*
X131988095Y-133690476D01*
X131940476Y-133785714D01*
X131892857Y-133833333D01*
X131797619Y-133880952D01*
X131750000Y-133928571D01*
X131702380Y-134023809D01*
X131702380Y-134071428D01*
X126416666Y-133452380D02*
X126750000Y-134452380D01*
X127083333Y-133452380D01*
X123309523Y-134547619D02*
X123404761Y-134595238D01*
X123547619Y-134595238D01*
X123642857Y-134547619D01*
X123690476Y-134452380D01*
X123642857Y-134357142D01*
X123357142Y-134071428D01*
X123309523Y-133976190D01*
X123309523Y-133928571D01*
X123357142Y-133833333D01*
X123452380Y-133785714D01*
X123690476Y-133500000D02*
X123595238Y-133452380D01*
X123452380Y-133452380D01*
X123357142Y-133500000D01*
X123309523Y-133595238D01*
X123357142Y-133690476D01*
X123642857Y-133976190D01*
X123690476Y-134071428D01*
X123690476Y-134119047D01*
X123642857Y-134214285D01*
X123547619Y-134261904D01*
X119059523Y-134357142D02*
X119011904Y-134404761D01*
X118869047Y-134452380D01*
X118773809Y-134452380D01*
X118630952Y-134404761D01*
X118535714Y-134309523D01*
X118488095Y-134214285D01*
X118440476Y-134023809D01*
X118440476Y-133880952D01*
X118488095Y-133690476D01*
X118535714Y-133595238D01*
X118630952Y-133500000D01*
X118773809Y-133452380D01*
X118869047Y-133452380D01*
X119011904Y-133500000D01*
X119059523Y-133547619D01*
X115964285Y-134452380D02*
X115964285Y-133928571D01*
X115916666Y-133833333D01*
X115821428Y-133785714D01*
X115630952Y-133785714D01*
X115535714Y-133833333D01*
X115964285Y-134404761D02*
X115869047Y-134452380D01*
X115630952Y-134452380D01*
X115535714Y-134404761D01*
X115488095Y-134309523D01*
X115488095Y-134214285D01*
X115535714Y-134119047D01*
X115630952Y-134071428D01*
X115869047Y-134071428D01*
X115964285Y-134023809D01*
X115630952Y-133404761D02*
X115773809Y-133547619D01*
X110166666Y-133452380D02*
X110833333Y-134452380D01*
X110833333Y-133452380D02*
X110166666Y-134452380D01*
X107738095Y-134154761D02*
X107642857Y-134202380D01*
X107452380Y-134202380D01*
X107357142Y-134154761D01*
X107309523Y-134107142D01*
X107261904Y-134011904D01*
X107261904Y-133726190D01*
X107309523Y-133630952D01*
X107357142Y-133583333D01*
X107452380Y-133535714D01*
X107642857Y-133535714D01*
X107738095Y-133583333D01*
X107547619Y-134250000D02*
X107642857Y-134297619D01*
X107690476Y-134392857D01*
X107642857Y-134488095D01*
X107547619Y-134535714D01*
X107404761Y-134535714D01*
X102416666Y-133452380D02*
X103083333Y-133452380D01*
X102416666Y-134452380D01*
X103083333Y-134452380D01*
X93059523Y-133452380D02*
X93630952Y-133452380D01*
X93345238Y-134452380D02*
X93345238Y-133452380D01*
X94392857Y-134452380D02*
X94392857Y-133928571D01*
X94345238Y-133833333D01*
X94250000Y-133785714D01*
X94059523Y-133785714D01*
X93964285Y-133833333D01*
X94392857Y-134404761D02*
X94297619Y-134452380D01*
X94059523Y-134452380D01*
X93964285Y-134404761D01*
X93916666Y-134309523D01*
X93916666Y-134214285D01*
X93964285Y-134119047D01*
X94059523Y-134071428D01*
X94297619Y-134071428D01*
X94392857Y-134023809D01*
X94869047Y-134452380D02*
X94869047Y-133452380D01*
X94869047Y-133833333D02*
X94964285Y-133785714D01*
X95154761Y-133785714D01*
X95250000Y-133833333D01*
X95297619Y-133880952D01*
X95345238Y-133976190D01*
X95345238Y-134261904D01*
X95297619Y-134357142D01*
X95250000Y-134404761D01*
X95154761Y-134452380D01*
X94964285Y-134452380D01*
X94869047Y-134404761D01*
D11*
X173285714Y-133535714D02*
X173285714Y-134392857D01*
X172428571Y-134392857D01*
X172714285Y-134107142D02*
X172428571Y-134392857D01*
X172714285Y-134678571D01*
X172678571Y-123535714D02*
X172678571Y-123964285D01*
X172392857Y-123964285D01*
X172392857Y-123535714D01*
X172678571Y-123535714D01*
X172107142Y-123535714D02*
X172107142Y-123964285D01*
X171892857Y-123964285D01*
X171892857Y-124107142D01*
X171535714Y-123750000D01*
X171892857Y-123392857D01*
X171892857Y-123535714D01*
X172107142Y-123535714D01*
D10*
X163309523Y-123452380D02*
X163309523Y-123642857D01*
X163690476Y-123452380D02*
X163690476Y-123642857D01*
X159059523Y-124452380D02*
X158583333Y-124452380D01*
X158583333Y-123452380D01*
X155797619Y-123452380D02*
X155702380Y-123642857D01*
X150488095Y-124452380D02*
X150488095Y-123452380D01*
X151059523Y-124452380D02*
X150630952Y-123880952D01*
X151059523Y-123452380D02*
X150488095Y-124023809D01*
X147797619Y-124404761D02*
X147797619Y-124452380D01*
X147750000Y-124547619D01*
X147702380Y-124595238D01*
X147750000Y-123833333D02*
X147797619Y-123880952D01*
X147750000Y-123928571D01*
X147702380Y-123880952D01*
X147750000Y-123833333D01*
X147750000Y-123928571D01*
X142892857Y-123452380D02*
X142892857Y-124166666D01*
X142845238Y-124309523D01*
X142750000Y-124404761D01*
X142607142Y-124452380D01*
X142511904Y-124452380D01*
X139750000Y-124357142D02*
X139797619Y-124404761D01*
X139750000Y-124452380D01*
X139702380Y-124404761D01*
X139750000Y-124357142D01*
X139750000Y-124452380D01*
X139750000Y-123833333D02*
X139797619Y-123880952D01*
X139750000Y-123928571D01*
X139702380Y-123880952D01*
X139750000Y-123833333D01*
X139750000Y-123928571D01*
X134464285Y-124452380D02*
X134464285Y-123452380D01*
X134464285Y-123928571D02*
X135035714Y-123928571D01*
X135035714Y-124452380D02*
X135035714Y-123452380D01*
X131928571Y-123404761D02*
X131071428Y-124690476D01*
X127011904Y-123500000D02*
X126916666Y-123452380D01*
X126773809Y-123452380D01*
X126630952Y-123500000D01*
X126535714Y-123595238D01*
X126488095Y-123690476D01*
X126440476Y-123880952D01*
X126440476Y-124023809D01*
X126488095Y-124214285D01*
X126535714Y-124309523D01*
X126630952Y-124404761D01*
X126773809Y-124452380D01*
X126869047Y-124452380D01*
X127011904Y-124404761D01*
X127059523Y-124357142D01*
X127059523Y-124023809D01*
X126869047Y-124023809D01*
X123214285Y-123535714D02*
X123214285Y-124535714D01*
X123690476Y-124059523D02*
X123738095Y-124154761D01*
X123833333Y-124202380D01*
X123214285Y-124059523D02*
X123261904Y-124154761D01*
X123357142Y-124202380D01*
X123547619Y-124202380D01*
X123642857Y-124154761D01*
X123690476Y-124059523D01*
X123690476Y-123535714D01*
X118892857Y-123928571D02*
X118559523Y-123928571D01*
X118559523Y-124452380D02*
X118559523Y-123452380D01*
X119035714Y-123452380D01*
D12*
X116000000Y-124250000D02*
X116250000Y-124000000D01*
X115750000Y-124250000D02*
X116000000Y-124250000D01*
X115750000Y-124000000D02*
X115750000Y-124250000D01*
X115500000Y-124000000D02*
X115750000Y-124000000D01*
X115250000Y-124250000D02*
X115500000Y-124000000D01*
D10*
X110488095Y-124452380D02*
X110488095Y-123452380D01*
X110726190Y-123452380D01*
X110869047Y-123500000D01*
X110964285Y-123595238D01*
X111011904Y-123690476D01*
X111059523Y-123880952D01*
X111059523Y-124023809D01*
X111011904Y-124214285D01*
X110964285Y-124309523D01*
X110869047Y-124404761D01*
X110726190Y-124452380D01*
X110488095Y-124452380D01*
X107690476Y-124404761D02*
X107595238Y-124452380D01*
X107404761Y-124452380D01*
X107309523Y-124404761D01*
X107261904Y-124309523D01*
X107261904Y-123928571D01*
X107309523Y-123833333D01*
X107404761Y-123785714D01*
X107595238Y-123785714D01*
X107690476Y-123833333D01*
X107738095Y-123928571D01*
X107738095Y-124023809D01*
X107261904Y-124119047D01*
X107404761Y-123404761D02*
X107547619Y-123547619D01*
X102464285Y-124404761D02*
X102607142Y-124452380D01*
X102845238Y-124452380D01*
X102940476Y-124404761D01*
X102988095Y-124357142D01*
X103035714Y-124261904D01*
X103035714Y-124166666D01*
X102988095Y-124071428D01*
X102940476Y-124023809D01*
X102845238Y-123976190D01*
X102654761Y-123928571D01*
X102559523Y-123880952D01*
X102511904Y-123833333D01*
X102464285Y-123738095D01*
X102464285Y-123642857D01*
X102511904Y-123547619D01*
X102559523Y-123500000D01*
X102654761Y-123452380D01*
X102892857Y-123452380D01*
X103035714Y-123500000D01*
X99690476Y-124404761D02*
X99595238Y-124452380D01*
X99404761Y-124452380D01*
X99309523Y-124404761D01*
X99261904Y-124309523D01*
X99261904Y-123928571D01*
X99309523Y-123833333D01*
X99404761Y-123785714D01*
X99595238Y-123785714D01*
X99690476Y-123833333D01*
X99738095Y-123928571D01*
X99738095Y-124023809D01*
X99261904Y-124119047D01*
X99595238Y-123404761D02*
X99452380Y-123547619D01*
X94511904Y-123916666D02*
X94988095Y-123916666D01*
X94416666Y-124202380D02*
X94750000Y-123202380D01*
X95083333Y-124202380D01*
X171119047Y-113928571D02*
X171880952Y-113928571D01*
X171880952Y-114214285D02*
X171119047Y-114214285D01*
X166488095Y-114452380D02*
X166488095Y-113452380D01*
X166869047Y-113452380D01*
X166964285Y-113500000D01*
X167011904Y-113547619D01*
X167059523Y-113642857D01*
X167059523Y-113785714D01*
X167011904Y-113880952D01*
X166964285Y-113928571D01*
X166869047Y-113976190D01*
X166488095Y-113976190D01*
X163119047Y-114071428D02*
X163880952Y-114071428D01*
X163500000Y-114452380D02*
X163500000Y-113690476D01*
X158654761Y-113452380D02*
X158845238Y-113452380D01*
X158940476Y-113500000D01*
X159035714Y-113595238D01*
X159083333Y-113785714D01*
X159083333Y-114119047D01*
X159035714Y-114309523D01*
X158940476Y-114404761D01*
X158845238Y-114452380D01*
X158654761Y-114452380D01*
X158559523Y-114404761D01*
X158464285Y-114309523D01*
X158416666Y-114119047D01*
X158416666Y-113785714D01*
X158464285Y-113595238D01*
X158559523Y-113500000D01*
X158654761Y-113452380D01*
X155119047Y-114071428D02*
X155880952Y-114071428D01*
X150250000Y-114452380D02*
X150250000Y-113452380D01*
X147119047Y-114547619D02*
X147880952Y-114547619D01*
X142214285Y-113452380D02*
X142214285Y-114261904D01*
X142261904Y-114357142D01*
X142309523Y-114404761D01*
X142404761Y-114452380D01*
X142595238Y-114452380D01*
X142690476Y-114404761D01*
X142738095Y-114357142D01*
X142785714Y-114261904D01*
X142785714Y-113452380D01*
X139559523Y-114535714D02*
X139797619Y-114535714D01*
X139797619Y-113107142D01*
X139559523Y-113107142D01*
X134750000Y-113976190D02*
X134750000Y-114452380D01*
X134416666Y-113452380D02*
X134750000Y-113976190D01*
X135083333Y-113452380D01*
X131690476Y-114535714D02*
X131452380Y-114535714D01*
X131452380Y-113107142D01*
X131690476Y-113107142D01*
X126214285Y-113452380D02*
X126785714Y-113452380D01*
X126500000Y-114452380D02*
X126500000Y-113452380D01*
X123559523Y-114583333D02*
X123607142Y-114583333D01*
X123702380Y-114535714D01*
X123750000Y-114440476D01*
X123750000Y-113964285D01*
X123797619Y-113869047D01*
X123892857Y-113821428D01*
X123797619Y-113773809D01*
X123750000Y-113678571D01*
X123750000Y-113202380D01*
X123702380Y-113107142D01*
X123607142Y-113059523D01*
X123559523Y-113059523D01*
X118809523Y-114452380D02*
X118476190Y-113976190D01*
X118238095Y-114452380D02*
X118238095Y-113452380D01*
X118619047Y-113452380D01*
X118714285Y-113500000D01*
X118761904Y-113547619D01*
X118809523Y-113642857D01*
X118809523Y-113785714D01*
X118761904Y-113880952D01*
X118714285Y-113928571D01*
X118619047Y-113976190D01*
X118238095Y-113976190D01*
X115690476Y-114583333D02*
X115642857Y-114583333D01*
X115547619Y-114535714D01*
X115500000Y-114440476D01*
X115500000Y-113964285D01*
X115452380Y-113869047D01*
X115357142Y-113821428D01*
X115452380Y-113773809D01*
X115500000Y-113678571D01*
X115500000Y-113202380D01*
X115547619Y-113107142D01*
X115642857Y-113059523D01*
X115690476Y-113059523D01*
X110285714Y-113928571D02*
X110619047Y-113928571D01*
X110761904Y-114452380D02*
X110285714Y-114452380D01*
X110285714Y-113452380D01*
X110761904Y-113452380D01*
X107750000Y-114535714D02*
X107750000Y-113107142D01*
X102321428Y-113452380D02*
X102559523Y-114452380D01*
X102750000Y-113738095D01*
X102940476Y-114452380D01*
X103178571Y-113452380D01*
X99750000Y-113452380D02*
X99654761Y-113500000D01*
X99607142Y-113595238D01*
X99654761Y-113690476D01*
X99750000Y-113738095D01*
X99845238Y-113690476D01*
X99892857Y-113595238D01*
X99845238Y-113500000D01*
X99750000Y-113452380D01*
X95130952Y-114547619D02*
X95035714Y-114500000D01*
X94940476Y-114404761D01*
X94797619Y-114261904D01*
X94702380Y-114214285D01*
X94607142Y-114214285D01*
X94654761Y-114452380D02*
X94559523Y-114404761D01*
X94464285Y-114309523D01*
X94416666Y-114119047D01*
X94416666Y-113785714D01*
X94464285Y-113595238D01*
X94559523Y-113500000D01*
X94654761Y-113452380D01*
X94845238Y-113452380D01*
X94940476Y-113500000D01*
X95035714Y-113595238D01*
X95083333Y-113785714D01*
X95083333Y-114119047D01*
X95035714Y-114309523D01*
X94940476Y-114404761D01*
X94845238Y-114452380D01*
X94654761Y-114452380D01*
X171559523Y-104583333D02*
X171607142Y-104535714D01*
X171702380Y-104392857D01*
X171750000Y-104297619D01*
X171797619Y-104154761D01*
X171845238Y-103916666D01*
X171845238Y-103726190D01*
X171797619Y-103488095D01*
X171750000Y-103345238D01*
X171702380Y-103250000D01*
X171607142Y-103107142D01*
X171559523Y-103059523D01*
X166452380Y-103452380D02*
X166547619Y-103452380D01*
X166642857Y-103500000D01*
X166690476Y-103547619D01*
X166738095Y-103642857D01*
X166785714Y-103833333D01*
X166785714Y-104071428D01*
X166738095Y-104261904D01*
X166690476Y-104357142D01*
X166642857Y-104404761D01*
X166547619Y-104452380D01*
X166452380Y-104452380D01*
X166357142Y-104404761D01*
X166309523Y-104357142D01*
X166261904Y-104261904D01*
X166214285Y-104071428D01*
X166214285Y-103833333D01*
X166261904Y-103642857D01*
X166309523Y-103547619D01*
X166357142Y-103500000D01*
X166452380Y-103452380D01*
X163690476Y-104583333D02*
X163642857Y-104535714D01*
X163547619Y-104392857D01*
X163500000Y-104297619D01*
X163452380Y-104154761D01*
X163404761Y-103916666D01*
X163404761Y-103726190D01*
X163452380Y-103488095D01*
X163500000Y-103345238D01*
X163547619Y-103250000D01*
X163642857Y-103107142D01*
X163690476Y-103059523D01*
X158309523Y-104452380D02*
X158500000Y-104452380D01*
X158595238Y-104404761D01*
X158642857Y-104357142D01*
X158738095Y-104214285D01*
X158785714Y-104023809D01*
X158785714Y-103642857D01*
X158738095Y-103547619D01*
X158690476Y-103500000D01*
X158595238Y-103452380D01*
X158404761Y-103452380D01*
X158309523Y-103500000D01*
X158261904Y-103547619D01*
X158214285Y-103642857D01*
X158214285Y-103880952D01*
X158261904Y-103976190D01*
X158309523Y-104023809D01*
X158404761Y-104071428D01*
X158595238Y-104071428D01*
X158690476Y-104023809D01*
X158738095Y-103976190D01*
X158785714Y-103880952D01*
X155750000Y-103702380D02*
X155750000Y-103940476D01*
X155511904Y-103845238D02*
X155750000Y-103940476D01*
X155988095Y-103845238D01*
X155607142Y-104130952D02*
X155750000Y-103940476D01*
X155892857Y-104130952D01*
X150404761Y-103880952D02*
X150309523Y-103833333D01*
X150261904Y-103785714D01*
X150214285Y-103690476D01*
X150214285Y-103642857D01*
X150261904Y-103547619D01*
X150309523Y-103500000D01*
X150404761Y-103452380D01*
X150595238Y-103452380D01*
X150690476Y-103500000D01*
X150738095Y-103547619D01*
X150785714Y-103642857D01*
X150785714Y-103690476D01*
X150738095Y-103785714D01*
X150690476Y-103833333D01*
X150595238Y-103880952D01*
X150404761Y-103880952D01*
X150309523Y-103928571D01*
X150261904Y-103976190D01*
X150214285Y-104071428D01*
X150214285Y-104261904D01*
X150261904Y-104357142D01*
X150309523Y-104404761D01*
X150404761Y-104452380D01*
X150595238Y-104452380D01*
X150690476Y-104404761D01*
X150738095Y-104357142D01*
X150785714Y-104261904D01*
X150785714Y-104071428D01*
X150738095Y-103976190D01*
X150690476Y-103928571D01*
X150595238Y-103880952D01*
X147928571Y-104452380D02*
X147880952Y-104452380D01*
X147785714Y-104404761D01*
X147642857Y-104261904D01*
X147404761Y-103976190D01*
X147309523Y-103833333D01*
X147261904Y-103690476D01*
X147261904Y-103595238D01*
X147309523Y-103500000D01*
X147404761Y-103452380D01*
X147452380Y-103452380D01*
X147547619Y-103500000D01*
X147595238Y-103595238D01*
X147595238Y-103642857D01*
X147547619Y-103738095D01*
X147500000Y-103785714D01*
X147214285Y-103976190D01*
X147166666Y-104023809D01*
X147119047Y-104119047D01*
X147119047Y-104261904D01*
X147166666Y-104357142D01*
X147214285Y-104404761D01*
X147309523Y-104452380D01*
X147452380Y-104452380D01*
X147547619Y-104404761D01*
X147595238Y-104357142D01*
X147738095Y-104166666D01*
X147785714Y-104023809D01*
X147785714Y-103928571D01*
X142166666Y-103452380D02*
X142833333Y-103452380D01*
X142404761Y-104452380D01*
X166035714Y-93589285D02*
X166035714Y-92839285D01*
X166214285Y-92839285D01*
X166321428Y-92875000D01*
X166392857Y-92946428D01*
X166428571Y-93017857D01*
X166464285Y-93160714D01*
X166464285Y-93267857D01*
X166428571Y-93410714D01*
X166392857Y-93482142D01*
X166321428Y-93553571D01*
X166214285Y-93589285D01*
X166035714Y-93589285D01*
X167071428Y-93553571D02*
X167000000Y-93589285D01*
X166857142Y-93589285D01*
X166785714Y-93553571D01*
X166750000Y-93482142D01*
X166750000Y-93196428D01*
X166785714Y-93125000D01*
X166857142Y-93089285D01*
X167000000Y-93089285D01*
X167071428Y-93125000D01*
X167107142Y-93196428D01*
X167107142Y-93267857D01*
X166750000Y-93339285D01*
X167535714Y-93589285D02*
X167464285Y-93553571D01*
X167428571Y-93482142D01*
X167428571Y-92839285D01*
X134416666Y-93928571D02*
X134083333Y-93928571D01*
X134083333Y-94452380D02*
X134083333Y-93452380D01*
X134559523Y-93452380D01*
X135416666Y-93452380D02*
X134940476Y-93452380D01*
X134892857Y-93928571D01*
X134940476Y-93880952D01*
X135035714Y-93833333D01*
X135273809Y-93833333D01*
X135369047Y-93880952D01*
X135416666Y-93928571D01*
X135464285Y-94023809D01*
X135464285Y-94261904D01*
X135416666Y-94357142D01*
X135369047Y-94404761D01*
X135273809Y-94452380D01*
X135035714Y-94452380D01*
X134940476Y-94404761D01*
X134892857Y-94357142D01*
X126416666Y-93928571D02*
X126083333Y-93928571D01*
X126083333Y-94452380D02*
X126083333Y-93452380D01*
X126559523Y-93452380D01*
X127369047Y-93785714D02*
X127369047Y-94452380D01*
X127130952Y-93404761D02*
X126892857Y-94119047D01*
X127511904Y-94119047D01*
X118416666Y-93928571D02*
X118083333Y-93928571D01*
X118083333Y-94452380D02*
X118083333Y-93452380D01*
X118559523Y-93452380D01*
X118845238Y-93452380D02*
X119464285Y-93452380D01*
X119130952Y-93833333D01*
X119273809Y-93833333D01*
X119369047Y-93880952D01*
X119416666Y-93928571D01*
X119464285Y-94023809D01*
X119464285Y-94261904D01*
X119416666Y-94357142D01*
X119369047Y-94404761D01*
X119273809Y-94452380D01*
X118988095Y-94452380D01*
X118892857Y-94404761D01*
X118845238Y-94357142D01*
X110416666Y-93928571D02*
X110083333Y-93928571D01*
X110083333Y-94452380D02*
X110083333Y-93452380D01*
X110559523Y-93452380D01*
X110892857Y-93547619D02*
X110940476Y-93500000D01*
X111035714Y-93452380D01*
X111273809Y-93452380D01*
X111369047Y-93500000D01*
X111416666Y-93547619D01*
X111464285Y-93642857D01*
X111464285Y-93738095D01*
X111416666Y-93880952D01*
X110845238Y-94452380D01*
X111464285Y-94452380D01*
X102416666Y-93928571D02*
X102083333Y-93928571D01*
X102083333Y-94452380D02*
X102083333Y-93452380D01*
X102559523Y-93452380D01*
X103464285Y-94452380D02*
X102892857Y-94452380D01*
X103178571Y-94452380D02*
X103178571Y-93452380D01*
X103083333Y-93595238D01*
X102988095Y-93690476D01*
X102892857Y-93738095D01*
X93964285Y-93946428D02*
X94214285Y-93946428D01*
X94321428Y-94339285D02*
X93964285Y-94339285D01*
X93964285Y-93589285D01*
X94321428Y-93589285D01*
X94607142Y-94303571D02*
X94678571Y-94339285D01*
X94821428Y-94339285D01*
X94892857Y-94303571D01*
X94928571Y-94232142D01*
X94928571Y-94196428D01*
X94892857Y-94125000D01*
X94821428Y-94089285D01*
X94714285Y-94089285D01*
X94642857Y-94053571D01*
X94607142Y-93982142D01*
X94607142Y-93946428D01*
X94642857Y-93875000D01*
X94714285Y-93839285D01*
X94821428Y-93839285D01*
X94892857Y-93875000D01*
X95571428Y-94303571D02*
X95500000Y-94339285D01*
X95357142Y-94339285D01*
X95285714Y-94303571D01*
X95250000Y-94267857D01*
X95214285Y-94196428D01*
X95214285Y-93982142D01*
X95250000Y-93910714D01*
X95285714Y-93875000D01*
X95357142Y-93839285D01*
X95500000Y-93839285D01*
X95571428Y-93875000D01*
X139559523Y-103547619D02*
X139750000Y-103404761D01*
X139940476Y-103547619D01*
X134690476Y-103452380D02*
X134500000Y-103452380D01*
X134404761Y-103500000D01*
X134357142Y-103547619D01*
X134261904Y-103690476D01*
X134214285Y-103880952D01*
X134214285Y-104261904D01*
X134261904Y-104357142D01*
X134309523Y-104404761D01*
X134404761Y-104452380D01*
X134595238Y-104452380D01*
X134690476Y-104404761D01*
X134738095Y-104357142D01*
X134785714Y-104261904D01*
X134785714Y-104023809D01*
X134738095Y-103928571D01*
X134690476Y-103880952D01*
X134595238Y-103833333D01*
X134404761Y-103833333D01*
X134309523Y-103880952D01*
X134261904Y-103928571D01*
X134214285Y-104023809D01*
X131119047Y-104452380D02*
X131880952Y-103452380D01*
X131261904Y-103452380D02*
X131357142Y-103500000D01*
X131404761Y-103595238D01*
X131357142Y-103690476D01*
X131261904Y-103738095D01*
X131166666Y-103690476D01*
X131119047Y-103595238D01*
X131166666Y-103500000D01*
X131261904Y-103452380D01*
X131833333Y-104404761D02*
X131880952Y-104309523D01*
X131833333Y-104214285D01*
X131738095Y-104166666D01*
X131642857Y-104214285D01*
X131595238Y-104309523D01*
X131642857Y-104404761D01*
X131738095Y-104452380D01*
X131833333Y-104404761D01*
X126738095Y-103452380D02*
X126261904Y-103452380D01*
X126214285Y-103928571D01*
X126261904Y-103880952D01*
X126357142Y-103833333D01*
X126595238Y-103833333D01*
X126690476Y-103880952D01*
X126738095Y-103928571D01*
X126785714Y-104023809D01*
X126785714Y-104261904D01*
X126738095Y-104357142D01*
X126690476Y-104404761D01*
X126595238Y-104452380D01*
X126357142Y-104452380D01*
X126261904Y-104404761D01*
X126214285Y-104357142D01*
X123214285Y-104404761D02*
X123357142Y-104452380D01*
X123595238Y-104452380D01*
X123690476Y-104404761D01*
X123738095Y-104357142D01*
X123785714Y-104261904D01*
X123785714Y-104166666D01*
X123738095Y-104071428D01*
X123690476Y-104023809D01*
X123595238Y-103976190D01*
X123404761Y-103928571D01*
X123309523Y-103880952D01*
X123261904Y-103833333D01*
X123214285Y-103738095D01*
X123214285Y-103642857D01*
X123261904Y-103547619D01*
X123309523Y-103500000D01*
X123404761Y-103452380D01*
X123642857Y-103452380D01*
X123785714Y-103500000D01*
X123500000Y-103309523D02*
X123500000Y-104595238D01*
X118690476Y-103785714D02*
X118690476Y-104452380D01*
X118452380Y-103404761D02*
X118214285Y-104119047D01*
X118833333Y-104119047D01*
X115190476Y-103785714D02*
X115904761Y-103785714D01*
X115476190Y-103357142D02*
X115190476Y-104642857D01*
X115809523Y-104214285D02*
X115095238Y-104214285D01*
X115523809Y-104642857D02*
X115809523Y-103357142D01*
X110166666Y-103452380D02*
X110785714Y-103452380D01*
X110452380Y-103833333D01*
X110595238Y-103833333D01*
X110690476Y-103880952D01*
X110738095Y-103928571D01*
X110785714Y-104023809D01*
X110785714Y-104261904D01*
X110738095Y-104357142D01*
X110690476Y-104404761D01*
X110595238Y-104452380D01*
X110309523Y-104452380D01*
X110214285Y-104404761D01*
X110166666Y-104357142D01*
X107714285Y-103726190D02*
X107666666Y-103678571D01*
X107571428Y-103630952D01*
X107476190Y-103630952D01*
X107380952Y-103678571D01*
X107333333Y-103726190D01*
X107285714Y-103821428D01*
X107285714Y-103916666D01*
X107333333Y-104011904D01*
X107380952Y-104059523D01*
X107476190Y-104107142D01*
X107571428Y-104107142D01*
X107666666Y-104059523D01*
X107714285Y-104011904D01*
X107714285Y-103630952D02*
X107714285Y-104011904D01*
X107761904Y-104059523D01*
X107809523Y-104059523D01*
X107904761Y-104011904D01*
X107952380Y-103916666D01*
X107952380Y-103678571D01*
X107857142Y-103535714D01*
X107714285Y-103440476D01*
X107523809Y-103392857D01*
X107333333Y-103440476D01*
X107190476Y-103535714D01*
X107095238Y-103678571D01*
X107047619Y-103869047D01*
X107095238Y-104059523D01*
X107190476Y-104202380D01*
X107333333Y-104297619D01*
X107523809Y-104345238D01*
X107714285Y-104297619D01*
X107857142Y-104202380D01*
X102214285Y-103547619D02*
X102261904Y-103500000D01*
X102357142Y-103452380D01*
X102595238Y-103452380D01*
X102690476Y-103500000D01*
X102738095Y-103547619D01*
X102785714Y-103642857D01*
X102785714Y-103738095D01*
X102738095Y-103880952D01*
X102166666Y-104452380D01*
X102785714Y-104452380D01*
X99750000Y-104607142D02*
X99797619Y-104654761D01*
X99750000Y-104702380D01*
X99702380Y-104654761D01*
X99750000Y-104607142D01*
X99750000Y-104702380D01*
X99750000Y-104321428D02*
X99702380Y-103750000D01*
X99750000Y-103702380D01*
X99797619Y-103750000D01*
X99750000Y-104321428D01*
X99750000Y-103702380D01*
X94785714Y-104452380D02*
X94214285Y-104452380D01*
X94500000Y-104452380D02*
X94500000Y-103452380D01*
X94404761Y-103595238D01*
X94309523Y-103690476D01*
X94214285Y-103738095D01*
D13*
G36*
X191742843Y-135542410D02*
G01*
X191970959Y-135733781D01*
X192091411Y-135922386D01*
X192097855Y-135994375D01*
X192004255Y-135944018D01*
X191843146Y-135786202D01*
X191695367Y-135641409D01*
X191554538Y-135574802D01*
X191354577Y-135566513D01*
X191165812Y-135582562D01*
X190921409Y-135605004D01*
X190831759Y-135604288D01*
X190883428Y-135576928D01*
X190998988Y-135539276D01*
X191410748Y-135470435D01*
X191742843Y-135542410D01*
X191742843Y-135542410D01*
G37*
X191742843Y-135542410D02*
X191970959Y-135733781D01*
X192091411Y-135922386D01*
X192097855Y-135994375D01*
X192004255Y-135944018D01*
X191843146Y-135786202D01*
X191695367Y-135641409D01*
X191554538Y-135574802D01*
X191354577Y-135566513D01*
X191165812Y-135582562D01*
X190921409Y-135605004D01*
X190831759Y-135604288D01*
X190883428Y-135576928D01*
X190998988Y-135539276D01*
X191410748Y-135470435D01*
X191742843Y-135542410D01*
G36*
X186685545Y-136312185D02*
G01*
X186693334Y-136325596D01*
X186621423Y-136377419D01*
X186502834Y-136392581D01*
X186182165Y-136465298D01*
X185907717Y-136651420D01*
X185786084Y-136816335D01*
X185709955Y-136956958D01*
X185682651Y-136951054D01*
X185678582Y-136839131D01*
X185755015Y-136605812D01*
X185962629Y-136417933D01*
X186263975Y-136305512D01*
X186361818Y-136291473D01*
X186570547Y-136286330D01*
X186685545Y-136312185D01*
X186685545Y-136312185D01*
G37*
X186685545Y-136312185D02*
X186693334Y-136325596D01*
X186621423Y-136377419D01*
X186502834Y-136392581D01*
X186182165Y-136465298D01*
X185907717Y-136651420D01*
X185786084Y-136816335D01*
X185709955Y-136956958D01*
X185682651Y-136951054D01*
X185678582Y-136839131D01*
X185755015Y-136605812D01*
X185962629Y-136417933D01*
X186263975Y-136305512D01*
X186361818Y-136291473D01*
X186570547Y-136286330D01*
X186685545Y-136312185D01*
G36*
X191547378Y-135847506D02*
G01*
X191638526Y-135992976D01*
X191699054Y-136242966D01*
X191716558Y-136563778D01*
X191633023Y-137268436D01*
X191424817Y-137924201D01*
X191106061Y-138496101D01*
X190788097Y-138863046D01*
X190337027Y-139183506D01*
X189782722Y-139417056D01*
X189172090Y-139555084D01*
X188552043Y-139588975D01*
X187969489Y-139510116D01*
X187712255Y-139427831D01*
X187236487Y-139161477D01*
X186783934Y-138767245D01*
X186501813Y-138424989D01*
X186693334Y-138424989D01*
X186756614Y-138526146D01*
X186918242Y-138685806D01*
X187135898Y-138868204D01*
X187367260Y-139037573D01*
X187547612Y-139146936D01*
X188075191Y-139331014D01*
X188680748Y-139390506D01*
X189327297Y-139325154D01*
X189902780Y-139163432D01*
X190171938Y-139034317D01*
X190449390Y-138853850D01*
X190704819Y-138649140D01*
X190907910Y-138447296D01*
X191028343Y-138275429D01*
X191035803Y-138160649D01*
X191030707Y-138154840D01*
X190877956Y-138087700D01*
X190606725Y-138041857D01*
X190266840Y-138019972D01*
X189908126Y-138024701D01*
X189580406Y-138058703D01*
X189503262Y-138073341D01*
X189175450Y-138121973D01*
X188873767Y-138105184D01*
X188579814Y-138041067D01*
X188234773Y-137975578D01*
X187918463Y-137956754D01*
X187796264Y-137967673D01*
X187549692Y-138028812D01*
X187269785Y-138123353D01*
X187003184Y-138231958D01*
X186796527Y-138335289D01*
X186696454Y-138414008D01*
X186693334Y-138424989D01*
X186501813Y-138424989D01*
X186387500Y-138286311D01*
X186080089Y-137759853D01*
X185894605Y-137229049D01*
X185882341Y-137164789D01*
X186105672Y-137164789D01*
X186158399Y-137419946D01*
X186202342Y-137549489D01*
X186274893Y-137708031D01*
X186374979Y-137797865D01*
X186538204Y-137826462D01*
X186800174Y-137801294D01*
X187126277Y-137743362D01*
X187450662Y-137684867D01*
X187759826Y-137634837D01*
X187881147Y-137617714D01*
X188141523Y-137577827D01*
X188470242Y-137519158D01*
X188643147Y-137485368D01*
X188967471Y-137424308D01*
X189275719Y-137373876D01*
X189402667Y-137356685D01*
X189674447Y-137315718D01*
X189910667Y-137266114D01*
X190087136Y-137226823D01*
X190169746Y-137218749D01*
X190270401Y-137209765D01*
X190493070Y-137178216D01*
X190792934Y-137130537D01*
X190847079Y-137121506D01*
X191477000Y-137015736D01*
X191502591Y-136576535D01*
X191528183Y-136137333D01*
X191241536Y-136137333D01*
X191030941Y-136152457D01*
X190903693Y-136189270D01*
X190898923Y-136193300D01*
X190780381Y-136240153D01*
X190609645Y-136265552D01*
X190407463Y-136288213D01*
X190105532Y-136331652D01*
X189783667Y-136384037D01*
X189447821Y-136441269D01*
X189146833Y-136491390D01*
X188953786Y-136522308D01*
X188741454Y-136556431D01*
X188438088Y-136607308D01*
X188191786Y-136649647D01*
X187855739Y-136706458D01*
X187539496Y-136757247D01*
X187370667Y-136782521D01*
X187132370Y-136824553D01*
X186955303Y-136870239D01*
X186947334Y-136873193D01*
X186850797Y-136904362D01*
X186722419Y-136927379D01*
X186511204Y-136949639D01*
X186291167Y-136968370D01*
X186148793Y-137021687D01*
X186105672Y-137164789D01*
X185882341Y-137164789D01*
X185875573Y-137129328D01*
X185856229Y-137042568D01*
X185839972Y-136972553D01*
X185842436Y-136914874D01*
X185879252Y-136865122D01*
X185966055Y-136818887D01*
X186118477Y-136771760D01*
X186352152Y-136719333D01*
X186682713Y-136657194D01*
X187125792Y-136580935D01*
X187697024Y-136486148D01*
X188412040Y-136368421D01*
X188801800Y-136303980D01*
X189442077Y-136196970D01*
X190028260Y-136097314D01*
X190539541Y-136008684D01*
X190955111Y-135934751D01*
X191254160Y-135879185D01*
X191415880Y-135845657D01*
X191438040Y-135838915D01*
X191547378Y-135847506D01*
X191547378Y-135847506D01*
G37*
X191547378Y-135847506D02*
X191638526Y-135992976D01*
X191699054Y-136242966D01*
X191716558Y-136563778D01*
X191633023Y-137268436D01*
X191424817Y-137924201D01*
X191106061Y-138496101D01*
X190788097Y-138863046D01*
X190337027Y-139183506D01*
X189782722Y-139417056D01*
X189172090Y-139555084D01*
X188552043Y-139588975D01*
X187969489Y-139510116D01*
X187712255Y-139427831D01*
X187236487Y-139161477D01*
X186783934Y-138767245D01*
X186501813Y-138424989D01*
X186693334Y-138424989D01*
X186756614Y-138526146D01*
X186918242Y-138685806D01*
X187135898Y-138868204D01*
X187367260Y-139037573D01*
X187547612Y-139146936D01*
X188075191Y-139331014D01*
X188680748Y-139390506D01*
X189327297Y-139325154D01*
X189902780Y-139163432D01*
X190171938Y-139034317D01*
X190449390Y-138853850D01*
X190704819Y-138649140D01*
X190907910Y-138447296D01*
X191028343Y-138275429D01*
X191035803Y-138160649D01*
X191030707Y-138154840D01*
X190877956Y-138087700D01*
X190606725Y-138041857D01*
X190266840Y-138019972D01*
X189908126Y-138024701D01*
X189580406Y-138058703D01*
X189503262Y-138073341D01*
X189175450Y-138121973D01*
X188873767Y-138105184D01*
X188579814Y-138041067D01*
X188234773Y-137975578D01*
X187918463Y-137956754D01*
X187796264Y-137967673D01*
X187549692Y-138028812D01*
X187269785Y-138123353D01*
X187003184Y-138231958D01*
X186796527Y-138335289D01*
X186696454Y-138414008D01*
X186693334Y-138424989D01*
X186501813Y-138424989D01*
X186387500Y-138286311D01*
X186080089Y-137759853D01*
X185894605Y-137229049D01*
X185882341Y-137164789D01*
X186105672Y-137164789D01*
X186158399Y-137419946D01*
X186202342Y-137549489D01*
X186274893Y-137708031D01*
X186374979Y-137797865D01*
X186538204Y-137826462D01*
X186800174Y-137801294D01*
X187126277Y-137743362D01*
X187450662Y-137684867D01*
X187759826Y-137634837D01*
X187881147Y-137617714D01*
X188141523Y-137577827D01*
X188470242Y-137519158D01*
X188643147Y-137485368D01*
X188967471Y-137424308D01*
X189275719Y-137373876D01*
X189402667Y-137356685D01*
X189674447Y-137315718D01*
X189910667Y-137266114D01*
X190087136Y-137226823D01*
X190169746Y-137218749D01*
X190270401Y-137209765D01*
X190493070Y-137178216D01*
X190792934Y-137130537D01*
X190847079Y-137121506D01*
X191477000Y-137015736D01*
X191502591Y-136576535D01*
X191528183Y-136137333D01*
X191241536Y-136137333D01*
X191030941Y-136152457D01*
X190903693Y-136189270D01*
X190898923Y-136193300D01*
X190780381Y-136240153D01*
X190609645Y-136265552D01*
X190407463Y-136288213D01*
X190105532Y-136331652D01*
X189783667Y-136384037D01*
X189447821Y-136441269D01*
X189146833Y-136491390D01*
X188953786Y-136522308D01*
X188741454Y-136556431D01*
X188438088Y-136607308D01*
X188191786Y-136649647D01*
X187855739Y-136706458D01*
X187539496Y-136757247D01*
X187370667Y-136782521D01*
X187132370Y-136824553D01*
X186955303Y-136870239D01*
X186947334Y-136873193D01*
X186850797Y-136904362D01*
X186722419Y-136927379D01*
X186511204Y-136949639D01*
X186291167Y-136968370D01*
X186148793Y-137021687D01*
X186105672Y-137164789D01*
X185882341Y-137164789D01*
X185875573Y-137129328D01*
X185856229Y-137042568D01*
X185839972Y-136972553D01*
X185842436Y-136914874D01*
X185879252Y-136865122D01*
X185966055Y-136818887D01*
X186118477Y-136771760D01*
X186352152Y-136719333D01*
X186682713Y-136657194D01*
X187125792Y-136580935D01*
X187697024Y-136486148D01*
X188412040Y-136368421D01*
X188801800Y-136303980D01*
X189442077Y-136196970D01*
X190028260Y-136097314D01*
X190539541Y-136008684D01*
X190955111Y-135934751D01*
X191254160Y-135879185D01*
X191415880Y-135845657D01*
X191438040Y-135838915D01*
X191547378Y-135847506D01*
G36*
X189826000Y-139803539D02*
G01*
X189506930Y-139932432D01*
X189178721Y-139982933D01*
X188937385Y-139950731D01*
X188878450Y-139908766D01*
X188963735Y-139872962D01*
X189191385Y-139839378D01*
X189487099Y-139799417D01*
X189745403Y-139754883D01*
X189826000Y-139737075D01*
X190037667Y-139683599D01*
X189826000Y-139803539D01*
X189826000Y-139803539D01*
G37*
X189826000Y-139803539D02*
X189506930Y-139932432D01*
X189178721Y-139982933D01*
X188937385Y-139950731D01*
X188878450Y-139908766D01*
X188963735Y-139872962D01*
X189191385Y-139839378D01*
X189487099Y-139799417D01*
X189745403Y-139754883D01*
X189826000Y-139737075D01*
X190037667Y-139683599D01*
X189826000Y-139803539D01*
G36*
X190162207Y-133492429D02*
G01*
X190164667Y-133512667D01*
X190100238Y-133594873D01*
X190080000Y-133597333D01*
X189997794Y-133532904D01*
X189995334Y-133512667D01*
X190059763Y-133430460D01*
X190080000Y-133428000D01*
X190162207Y-133492429D01*
X190162207Y-133492429D01*
G37*
X190162207Y-133492429D02*
X190164667Y-133512667D01*
X190100238Y-133594873D01*
X190080000Y-133597333D01*
X189997794Y-133532904D01*
X189995334Y-133512667D01*
X190059763Y-133430460D01*
X190080000Y-133428000D01*
X190162207Y-133492429D01*
G36*
X186933005Y-133473717D02*
G01*
X186947334Y-133512667D01*
X186878757Y-133587781D01*
X186820334Y-133597333D01*
X186707662Y-133551616D01*
X186693334Y-133512667D01*
X186761910Y-133437552D01*
X186820334Y-133428000D01*
X186933005Y-133473717D01*
X186933005Y-133473717D01*
G37*
X186933005Y-133473717D02*
X186947334Y-133512667D01*
X186878757Y-133587781D01*
X186820334Y-133597333D01*
X186707662Y-133551616D01*
X186693334Y-133512667D01*
X186761910Y-133437552D01*
X186820334Y-133428000D01*
X186933005Y-133473717D01*
G36*
X190911743Y-133414291D02*
G01*
X190926667Y-133512667D01*
X190881990Y-133656737D01*
X190782581Y-133668070D01*
X190715000Y-133597333D01*
X190704590Y-133457229D01*
X190797282Y-133353533D01*
X190846997Y-133343333D01*
X190911743Y-133414291D01*
X190911743Y-133414291D01*
G37*
X190911743Y-133414291D02*
X190926667Y-133512667D01*
X190881990Y-133656737D01*
X190782581Y-133668070D01*
X190715000Y-133597333D01*
X190704590Y-133457229D01*
X190797282Y-133353533D01*
X190846997Y-133343333D01*
X190911743Y-133414291D01*
G36*
X189810124Y-133414246D02*
G01*
X189826000Y-133512667D01*
X189790544Y-133650247D01*
X189741334Y-133682000D01*
X189672543Y-133611087D01*
X189656667Y-133512667D01*
X189692123Y-133375086D01*
X189741334Y-133343333D01*
X189810124Y-133414246D01*
X189810124Y-133414246D01*
G37*
X189810124Y-133414246D02*
X189826000Y-133512667D01*
X189790544Y-133650247D01*
X189741334Y-133682000D01*
X189672543Y-133611087D01*
X189656667Y-133512667D01*
X189692123Y-133375086D01*
X189741334Y-133343333D01*
X189810124Y-133414246D01*
G36*
X188024428Y-133413919D02*
G01*
X188048000Y-133512667D01*
X187995061Y-133650571D01*
X187921000Y-133682000D01*
X187817572Y-133611414D01*
X187794000Y-133512667D01*
X187846940Y-133374762D01*
X187921000Y-133343333D01*
X188024428Y-133413919D01*
X188024428Y-133413919D01*
G37*
X188024428Y-133413919D02*
X188048000Y-133512667D01*
X187995061Y-133650571D01*
X187921000Y-133682000D01*
X187817572Y-133611414D01*
X187794000Y-133512667D01*
X187846940Y-133374762D01*
X187921000Y-133343333D01*
X188024428Y-133413919D01*
G36*
X187270124Y-133414246D02*
G01*
X187286000Y-133512667D01*
X187250544Y-133650247D01*
X187201334Y-133682000D01*
X187132543Y-133611087D01*
X187116667Y-133512667D01*
X187152123Y-133375086D01*
X187201334Y-133343333D01*
X187270124Y-133414246D01*
X187270124Y-133414246D01*
G37*
X187270124Y-133414246D02*
X187286000Y-133512667D01*
X187250544Y-133650247D01*
X187201334Y-133682000D01*
X187132543Y-133611087D01*
X187116667Y-133512667D01*
X187152123Y-133375086D01*
X187201334Y-133343333D01*
X187270124Y-133414246D01*
G36*
X190522477Y-133381884D02*
G01*
X190545667Y-133512667D01*
X190505755Y-133680239D01*
X190439834Y-133745500D01*
X190359545Y-133701442D01*
X190334000Y-133512667D01*
X190361956Y-133318588D01*
X190439834Y-133279833D01*
X190522477Y-133381884D01*
X190522477Y-133381884D01*
G37*
X190522477Y-133381884D02*
X190545667Y-133512667D01*
X190505755Y-133680239D01*
X190439834Y-133745500D01*
X190359545Y-133701442D01*
X190334000Y-133512667D01*
X190361956Y-133318588D01*
X190439834Y-133279833D01*
X190522477Y-133381884D01*
G36*
X189461160Y-133334395D02*
G01*
X189487334Y-133512667D01*
X189449469Y-133714319D01*
X189360334Y-133766667D01*
X189259507Y-133690938D01*
X189233334Y-133512667D01*
X189271198Y-133311014D01*
X189360334Y-133258667D01*
X189461160Y-133334395D01*
X189461160Y-133334395D01*
G37*
X189461160Y-133334395D02*
X189487334Y-133512667D01*
X189449469Y-133714319D01*
X189360334Y-133766667D01*
X189259507Y-133690938D01*
X189233334Y-133512667D01*
X189271198Y-133311014D01*
X189360334Y-133258667D01*
X189461160Y-133334395D01*
G36*
X187553165Y-133192499D02*
G01*
X187625370Y-133286166D01*
X187657036Y-133458354D01*
X187647169Y-133637990D01*
X187594781Y-133754001D01*
X187561167Y-133766673D01*
X187485465Y-133689242D01*
X187455432Y-133478971D01*
X187455334Y-133463278D01*
X187478998Y-133254145D01*
X187545558Y-133190544D01*
X187553165Y-133192499D01*
X187553165Y-133192499D01*
G37*
X187553165Y-133192499D02*
X187625370Y-133286166D01*
X187657036Y-133458354D01*
X187647169Y-133637990D01*
X187594781Y-133754001D01*
X187561167Y-133766673D01*
X187485465Y-133689242D01*
X187455432Y-133478971D01*
X187455334Y-133463278D01*
X187478998Y-133254145D01*
X187545558Y-133190544D01*
X187553165Y-133192499D01*
G36*
X189101532Y-133134653D02*
G01*
X189140540Y-133291560D01*
X189148667Y-133512667D01*
X189135071Y-133778885D01*
X189087999Y-133908911D01*
X189021667Y-133936000D01*
X188941801Y-133890680D01*
X188902794Y-133733773D01*
X188894667Y-133512667D01*
X188908263Y-133246448D01*
X188955335Y-133116422D01*
X189021667Y-133089333D01*
X189101532Y-133134653D01*
X189101532Y-133134653D01*
G37*
X189101532Y-133134653D02*
X189140540Y-133291560D01*
X189148667Y-133512667D01*
X189135071Y-133778885D01*
X189087999Y-133908911D01*
X189021667Y-133936000D01*
X188941801Y-133890680D01*
X188902794Y-133733773D01*
X188894667Y-133512667D01*
X188908263Y-133246448D01*
X188955335Y-133116422D01*
X189021667Y-133089333D01*
X189101532Y-133134653D01*
G36*
X188350298Y-133165480D02*
G01*
X188380953Y-133360175D01*
X188386667Y-133512667D01*
X188371437Y-133754154D01*
X188332498Y-133907431D01*
X188302000Y-133936000D01*
X188253703Y-133859853D01*
X188223047Y-133665158D01*
X188217334Y-133512667D01*
X188232563Y-133271179D01*
X188271502Y-133117902D01*
X188302000Y-133089333D01*
X188350298Y-133165480D01*
X188350298Y-133165480D01*
G37*
X188350298Y-133165480D02*
X188380953Y-133360175D01*
X188386667Y-133512667D01*
X188371437Y-133754154D01*
X188332498Y-133907431D01*
X188302000Y-133936000D01*
X188253703Y-133859853D01*
X188223047Y-133665158D01*
X188217334Y-133512667D01*
X188232563Y-133271179D01*
X188271502Y-133117902D01*
X188302000Y-133089333D01*
X188350298Y-133165480D01*
G36*
X188682596Y-132914549D02*
G01*
X188712060Y-133130819D01*
X188725051Y-133452074D01*
X188725334Y-133512667D01*
X188715431Y-133848099D01*
X188688398Y-134083813D01*
X188648241Y-134187742D01*
X188640667Y-134190000D01*
X188598738Y-134110784D01*
X188569273Y-133894514D01*
X188556282Y-133573259D01*
X188556000Y-133512667D01*
X188565902Y-133177234D01*
X188592936Y-132941520D01*
X188633093Y-132837591D01*
X188640667Y-132835333D01*
X188682596Y-132914549D01*
X188682596Y-132914549D01*
G37*
X188682596Y-132914549D02*
X188712060Y-133130819D01*
X188725051Y-133452074D01*
X188725334Y-133512667D01*
X188715431Y-133848099D01*
X188688398Y-134083813D01*
X188648241Y-134187742D01*
X188640667Y-134190000D01*
X188598738Y-134110784D01*
X188569273Y-133894514D01*
X188556282Y-133573259D01*
X188556000Y-133512667D01*
X188565902Y-133177234D01*
X188592936Y-132941520D01*
X188633093Y-132837591D01*
X188640667Y-132835333D01*
X188682596Y-132914549D01*
G36*
X183938600Y-134631620D02*
G01*
X184264402Y-134665338D01*
X184533655Y-134716374D01*
X184692720Y-134774274D01*
X184700600Y-134780121D01*
X184768285Y-134882318D01*
X184809160Y-135072468D01*
X184827981Y-135381749D01*
X184830667Y-135632775D01*
X184825226Y-135984308D01*
X184810712Y-136279796D01*
X184789838Y-136471621D01*
X184780834Y-136507345D01*
X184667306Y-136603484D01*
X184438543Y-136678617D01*
X184357501Y-136693217D01*
X183984000Y-136749227D01*
X183984000Y-137746000D01*
X183306667Y-137746000D01*
X183306667Y-135671667D01*
X183984000Y-135671667D01*
X183995963Y-135959249D01*
X184027652Y-136156143D01*
X184068667Y-136222000D01*
X184112910Y-136144242D01*
X184143202Y-135938260D01*
X184153334Y-135671667D01*
X184141371Y-135384084D01*
X184109681Y-135187190D01*
X184068667Y-135121333D01*
X184024423Y-135199091D01*
X183994132Y-135405073D01*
X183984000Y-135671667D01*
X183306667Y-135671667D01*
X183306667Y-134591065D01*
X183938600Y-134631620D01*
X183938600Y-134631620D01*
G37*
X183938600Y-134631620D02*
X184264402Y-134665338D01*
X184533655Y-134716374D01*
X184692720Y-134774274D01*
X184700600Y-134780121D01*
X184768285Y-134882318D01*
X184809160Y-135072468D01*
X184827981Y-135381749D01*
X184830667Y-135632775D01*
X184825226Y-135984308D01*
X184810712Y-136279796D01*
X184789838Y-136471621D01*
X184780834Y-136507345D01*
X184667306Y-136603484D01*
X184438543Y-136678617D01*
X184357501Y-136693217D01*
X183984000Y-136749227D01*
X183984000Y-137746000D01*
X183306667Y-137746000D01*
X183306667Y-135671667D01*
X183984000Y-135671667D01*
X183995963Y-135959249D01*
X184027652Y-136156143D01*
X184068667Y-136222000D01*
X184112910Y-136144242D01*
X184143202Y-135938260D01*
X184153334Y-135671667D01*
X184141371Y-135384084D01*
X184109681Y-135187190D01*
X184068667Y-135121333D01*
X184024423Y-135199091D01*
X183994132Y-135405073D01*
X183984000Y-135671667D01*
X183306667Y-135671667D01*
X183306667Y-134591065D01*
X183938600Y-134631620D01*
G36*
X182606384Y-134625213D02*
G01*
X182629334Y-134633533D01*
X182640221Y-134730821D01*
X182669778Y-134961517D01*
X182713345Y-135291310D01*
X182766264Y-135685890D01*
X182823876Y-136110946D01*
X182881523Y-136532168D01*
X182934545Y-136915244D01*
X182978285Y-137225864D01*
X183008083Y-137429717D01*
X183014579Y-137470833D01*
X183034869Y-137646216D01*
X182988954Y-137724702D01*
X182834806Y-137745262D01*
X182717837Y-137746000D01*
X182499398Y-137737317D01*
X182401704Y-137683263D01*
X182376199Y-137541826D01*
X182375334Y-137449667D01*
X182344049Y-137223544D01*
X182257392Y-137153333D01*
X182125453Y-137229794D01*
X182048505Y-137433896D01*
X182036667Y-137583591D01*
X182001466Y-137695277D01*
X181866948Y-137740762D01*
X181734241Y-137746000D01*
X181431816Y-137746000D01*
X181492300Y-137259167D01*
X181527523Y-136978731D01*
X181577513Y-136584704D01*
X181582827Y-136543061D01*
X182134129Y-136543061D01*
X182177209Y-136632723D01*
X182227167Y-136645449D01*
X182287812Y-136590326D01*
X182308163Y-136409841D01*
X182297497Y-136158615D01*
X182261995Y-135671667D01*
X182196543Y-136010333D01*
X182141006Y-136344552D01*
X182134129Y-136543061D01*
X181582827Y-136543061D01*
X181635354Y-136131436D01*
X181688893Y-135714000D01*
X181825000Y-134655667D01*
X182227167Y-134629861D01*
X182461409Y-134620384D01*
X182606384Y-134625213D01*
X182606384Y-134625213D01*
G37*
X182606384Y-134625213D02*
X182629334Y-134633533D01*
X182640221Y-134730821D01*
X182669778Y-134961517D01*
X182713345Y-135291310D01*
X182766264Y-135685890D01*
X182823876Y-136110946D01*
X182881523Y-136532168D01*
X182934545Y-136915244D01*
X182978285Y-137225864D01*
X183008083Y-137429717D01*
X183014579Y-137470833D01*
X183034869Y-137646216D01*
X182988954Y-137724702D01*
X182834806Y-137745262D01*
X182717837Y-137746000D01*
X182499398Y-137737317D01*
X182401704Y-137683263D01*
X182376199Y-137541826D01*
X182375334Y-137449667D01*
X182344049Y-137223544D01*
X182257392Y-137153333D01*
X182125453Y-137229794D01*
X182048505Y-137433896D01*
X182036667Y-137583591D01*
X182001466Y-137695277D01*
X181866948Y-137740762D01*
X181734241Y-137746000D01*
X181431816Y-137746000D01*
X181492300Y-137259167D01*
X181527523Y-136978731D01*
X181577513Y-136584704D01*
X181582827Y-136543061D01*
X182134129Y-136543061D01*
X182177209Y-136632723D01*
X182227167Y-136645449D01*
X182287812Y-136590326D01*
X182308163Y-136409841D01*
X182297497Y-136158615D01*
X182261995Y-135671667D01*
X182196543Y-136010333D01*
X182141006Y-136344552D01*
X182134129Y-136543061D01*
X181582827Y-136543061D01*
X181635354Y-136131436D01*
X181688893Y-135714000D01*
X181825000Y-134655667D01*
X182227167Y-134629861D01*
X182461409Y-134620384D01*
X182606384Y-134625213D01*
G36*
X180787834Y-134629135D02*
G01*
X181063000Y-134655667D01*
X181086077Y-136200833D01*
X181109153Y-137746000D01*
X180451138Y-137746000D01*
X180342574Y-137216833D01*
X180256371Y-136834665D01*
X180188769Y-136620519D01*
X180139306Y-136574161D01*
X180107520Y-136695358D01*
X180092949Y-136983874D01*
X180091908Y-137089833D01*
X180089334Y-137746000D01*
X179581334Y-137746000D01*
X179581334Y-134613333D01*
X179871664Y-134613333D01*
X180035484Y-134621316D01*
X180132255Y-134671717D01*
X180193584Y-134804219D01*
X180251077Y-135058501D01*
X180259436Y-135100167D01*
X180348061Y-135527331D01*
X180412404Y-135791505D01*
X180456392Y-135896664D01*
X180483952Y-135846786D01*
X180499014Y-135645845D01*
X180505031Y-135348802D01*
X180512667Y-134602604D01*
X180787834Y-134629135D01*
X180787834Y-134629135D01*
G37*
X180787834Y-134629135D02*
X181063000Y-134655667D01*
X181086077Y-136200833D01*
X181109153Y-137746000D01*
X180451138Y-137746000D01*
X180342574Y-137216833D01*
X180256371Y-136834665D01*
X180188769Y-136620519D01*
X180139306Y-136574161D01*
X180107520Y-136695358D01*
X180092949Y-136983874D01*
X180091908Y-137089833D01*
X180089334Y-137746000D01*
X179581334Y-137746000D01*
X179581334Y-134613333D01*
X179871664Y-134613333D01*
X180035484Y-134621316D01*
X180132255Y-134671717D01*
X180193584Y-134804219D01*
X180251077Y-135058501D01*
X180259436Y-135100167D01*
X180348061Y-135527331D01*
X180412404Y-135791505D01*
X180456392Y-135896664D01*
X180483952Y-135846786D01*
X180499014Y-135645845D01*
X180505031Y-135348802D01*
X180512667Y-134602604D01*
X180787834Y-134629135D01*
G36*
X178861876Y-134683983D02*
G01*
X179087961Y-134785777D01*
X179205799Y-134986316D01*
X179242429Y-135310866D01*
X179242667Y-135349182D01*
X179242667Y-135714000D01*
X178904000Y-135714000D01*
X178687164Y-135705029D01*
X178590801Y-135649637D01*
X178566091Y-135505107D01*
X178565334Y-135417667D01*
X178544068Y-135221799D01*
X178491778Y-135123893D01*
X178480667Y-135121333D01*
X178424625Y-135195743D01*
X178396702Y-135378629D01*
X178396000Y-135416604D01*
X178418817Y-135618181D01*
X178514188Y-135764942D01*
X178722495Y-135917970D01*
X178731026Y-135923368D01*
X178997571Y-136119719D01*
X179153710Y-136326950D01*
X179226376Y-136598667D01*
X179242667Y-136941667D01*
X179229298Y-137315541D01*
X179169623Y-137551914D01*
X179034292Y-137681768D01*
X178793955Y-137736083D01*
X178480667Y-137746000D01*
X178158492Y-137738617D01*
X177963606Y-137709723D01*
X177854349Y-137649201D01*
X177806312Y-137582233D01*
X177757131Y-137407716D01*
X177725331Y-137136276D01*
X177718667Y-136942122D01*
X177718667Y-136465778D01*
X178036167Y-136492056D01*
X178236151Y-136519092D01*
X178332212Y-136589939D01*
X178369647Y-136755506D01*
X178379702Y-136878167D01*
X178420084Y-137134598D01*
X178478248Y-137228398D01*
X178533189Y-137161768D01*
X178563901Y-136936908D01*
X178565334Y-136858721D01*
X178553049Y-136616070D01*
X178487899Y-136472845D01*
X178327441Y-136359458D01*
X178229498Y-136308111D01*
X177964178Y-136142426D01*
X177807695Y-135948311D01*
X177734494Y-135677784D01*
X177718667Y-135348933D01*
X177741639Y-135020356D01*
X177830115Y-134813194D01*
X178013440Y-134701429D01*
X178320954Y-134659042D01*
X178500505Y-134655667D01*
X178861876Y-134683983D01*
X178861876Y-134683983D01*
G37*
X178861876Y-134683983D02*
X179087961Y-134785777D01*
X179205799Y-134986316D01*
X179242429Y-135310866D01*
X179242667Y-135349182D01*
X179242667Y-135714000D01*
X178904000Y-135714000D01*
X178687164Y-135705029D01*
X178590801Y-135649637D01*
X178566091Y-135505107D01*
X178565334Y-135417667D01*
X178544068Y-135221799D01*
X178491778Y-135123893D01*
X178480667Y-135121333D01*
X178424625Y-135195743D01*
X178396702Y-135378629D01*
X178396000Y-135416604D01*
X178418817Y-135618181D01*
X178514188Y-135764942D01*
X178722495Y-135917970D01*
X178731026Y-135923368D01*
X178997571Y-136119719D01*
X179153710Y-136326950D01*
X179226376Y-136598667D01*
X179242667Y-136941667D01*
X179229298Y-137315541D01*
X179169623Y-137551914D01*
X179034292Y-137681768D01*
X178793955Y-137736083D01*
X178480667Y-137746000D01*
X178158492Y-137738617D01*
X177963606Y-137709723D01*
X177854349Y-137649201D01*
X177806312Y-137582233D01*
X177757131Y-137407716D01*
X177725331Y-137136276D01*
X177718667Y-136942122D01*
X177718667Y-136465778D01*
X178036167Y-136492056D01*
X178236151Y-136519092D01*
X178332212Y-136589939D01*
X178369647Y-136755506D01*
X178379702Y-136878167D01*
X178420084Y-137134598D01*
X178478248Y-137228398D01*
X178533189Y-137161768D01*
X178563901Y-136936908D01*
X178565334Y-136858721D01*
X178553049Y-136616070D01*
X178487899Y-136472845D01*
X178327441Y-136359458D01*
X178229498Y-136308111D01*
X177964178Y-136142426D01*
X177807695Y-135948311D01*
X177734494Y-135677784D01*
X177718667Y-135348933D01*
X177741639Y-135020356D01*
X177830115Y-134813194D01*
X178013440Y-134701429D01*
X178320954Y-134659042D01*
X178500505Y-134655667D01*
X178861876Y-134683983D01*
G36*
X184295925Y-138099518D02*
G01*
X184539874Y-138139467D01*
X184644400Y-138186267D01*
X184705746Y-138334912D01*
X184737974Y-138586378D01*
X184741085Y-138876676D01*
X184715079Y-139141817D01*
X184659955Y-139317809D01*
X184644400Y-139337733D01*
X184586395Y-139452947D01*
X184644400Y-139540933D01*
X184699813Y-139680507D01*
X184735813Y-139942884D01*
X184746000Y-140218266D01*
X184746000Y-140794000D01*
X184153334Y-140794000D01*
X184153334Y-140243667D01*
X184141371Y-139956084D01*
X184109681Y-139759190D01*
X184068667Y-139693333D01*
X184024423Y-139771091D01*
X183994132Y-139977073D01*
X183984000Y-140243667D01*
X183981046Y-140539272D01*
X183961040Y-140703890D01*
X183907268Y-140775865D01*
X183803015Y-140793543D01*
X183744111Y-140794000D01*
X183550203Y-140775867D01*
X183447778Y-140737555D01*
X183428248Y-140637431D01*
X183411646Y-140398629D01*
X183399250Y-140051796D01*
X183392338Y-139627579D01*
X183391334Y-139382889D01*
X183391334Y-138965612D01*
X183985755Y-138965612D01*
X184008206Y-139143954D01*
X184040445Y-139213555D01*
X184106213Y-139260738D01*
X184140083Y-139212574D01*
X184152228Y-139039822D01*
X184153334Y-138889000D01*
X184136517Y-138661780D01*
X184093970Y-138525482D01*
X184068667Y-138508000D01*
X184018649Y-138581043D01*
X183990124Y-138755777D01*
X183985755Y-138965612D01*
X183391334Y-138965612D01*
X183391334Y-138084667D01*
X183967067Y-138084667D01*
X184295925Y-138099518D01*
X184295925Y-138099518D01*
G37*
X184295925Y-138099518D02*
X184539874Y-138139467D01*
X184644400Y-138186267D01*
X184705746Y-138334912D01*
X184737974Y-138586378D01*
X184741085Y-138876676D01*
X184715079Y-139141817D01*
X184659955Y-139317809D01*
X184644400Y-139337733D01*
X184586395Y-139452947D01*
X184644400Y-139540933D01*
X184699813Y-139680507D01*
X184735813Y-139942884D01*
X184746000Y-140218266D01*
X184746000Y-140794000D01*
X184153334Y-140794000D01*
X184153334Y-140243667D01*
X184141371Y-139956084D01*
X184109681Y-139759190D01*
X184068667Y-139693333D01*
X184024423Y-139771091D01*
X183994132Y-139977073D01*
X183984000Y-140243667D01*
X183981046Y-140539272D01*
X183961040Y-140703890D01*
X183907268Y-140775865D01*
X183803015Y-140793543D01*
X183744111Y-140794000D01*
X183550203Y-140775867D01*
X183447778Y-140737555D01*
X183428248Y-140637431D01*
X183411646Y-140398629D01*
X183399250Y-140051796D01*
X183392338Y-139627579D01*
X183391334Y-139382889D01*
X183391334Y-138965612D01*
X183985755Y-138965612D01*
X184008206Y-139143954D01*
X184040445Y-139213555D01*
X184106213Y-139260738D01*
X184140083Y-139212574D01*
X184152228Y-139039822D01*
X184153334Y-138889000D01*
X184136517Y-138661780D01*
X184093970Y-138525482D01*
X184068667Y-138508000D01*
X184018649Y-138581043D01*
X183990124Y-138755777D01*
X183985755Y-138965612D01*
X183391334Y-138965612D01*
X183391334Y-138084667D01*
X183967067Y-138084667D01*
X184295925Y-138099518D01*
G36*
X183137334Y-140794000D02*
G01*
X182544667Y-140794000D01*
X182544667Y-138084667D01*
X183137334Y-138084667D01*
X183137334Y-140794000D01*
X183137334Y-140794000D01*
G37*
X183137334Y-140794000D02*
X182544667Y-140794000D01*
X182544667Y-138084667D01*
X183137334Y-138084667D01*
X183137334Y-140794000D01*
G36*
X181847770Y-138108782D02*
G01*
X181950520Y-138180688D01*
X181952000Y-138194017D01*
X181962923Y-138331363D01*
X181992190Y-138595710D01*
X182034551Y-138946375D01*
X182084756Y-139342679D01*
X182137554Y-139743940D01*
X182187695Y-140109477D01*
X182229929Y-140398608D01*
X182258281Y-140567130D01*
X182278152Y-140727442D01*
X182218067Y-140785455D01*
X182035075Y-140779895D01*
X182023537Y-140778797D01*
X181826488Y-140739426D01*
X181740594Y-140635078D01*
X181713419Y-140471360D01*
X181662082Y-140274409D01*
X181581505Y-140229149D01*
X181502630Y-140328994D01*
X181459802Y-140525353D01*
X181421451Y-140711661D01*
X181318875Y-140783594D01*
X181159267Y-140794000D01*
X180885263Y-140794000D01*
X181051496Y-139439333D01*
X181059288Y-139375833D01*
X181535351Y-139375833D01*
X181544224Y-139610251D01*
X181574302Y-139755198D01*
X181596332Y-139778000D01*
X181632326Y-139703829D01*
X181637211Y-139519723D01*
X181632529Y-139460500D01*
X181598796Y-139183585D01*
X181569987Y-139069495D01*
X181548341Y-139120181D01*
X181536097Y-139337591D01*
X181535351Y-139375833D01*
X181059288Y-139375833D01*
X181217729Y-138084667D01*
X181584864Y-138084667D01*
X181847770Y-138108782D01*
X181847770Y-138108782D01*
G37*
X181847770Y-138108782D02*
X181950520Y-138180688D01*
X181952000Y-138194017D01*
X181962923Y-138331363D01*
X181992190Y-138595710D01*
X182034551Y-138946375D01*
X182084756Y-139342679D01*
X182137554Y-139743940D01*
X182187695Y-140109477D01*
X182229929Y-140398608D01*
X182258281Y-140567130D01*
X182278152Y-140727442D01*
X182218067Y-140785455D01*
X182035075Y-140779895D01*
X182023537Y-140778797D01*
X181826488Y-140739426D01*
X181740594Y-140635078D01*
X181713419Y-140471360D01*
X181662082Y-140274409D01*
X181581505Y-140229149D01*
X181502630Y-140328994D01*
X181459802Y-140525353D01*
X181421451Y-140711661D01*
X181318875Y-140783594D01*
X181159267Y-140794000D01*
X180885263Y-140794000D01*
X181051496Y-139439333D01*
X181059288Y-139375833D01*
X181535351Y-139375833D01*
X181544224Y-139610251D01*
X181574302Y-139755198D01*
X181596332Y-139778000D01*
X181632326Y-139703829D01*
X181637211Y-139519723D01*
X181632529Y-139460500D01*
X181598796Y-139183585D01*
X181569987Y-139069495D01*
X181548341Y-139120181D01*
X181536097Y-139337591D01*
X181535351Y-139375833D01*
X181059288Y-139375833D01*
X181217729Y-138084667D01*
X181584864Y-138084667D01*
X181847770Y-138108782D01*
G36*
X179716698Y-138096650D02*
G01*
X179803710Y-138159029D01*
X179864634Y-138311445D01*
X179923290Y-138571500D01*
X179994567Y-138910171D01*
X180039571Y-139086200D01*
X180064853Y-139103066D01*
X180076962Y-138964249D01*
X180082448Y-138673229D01*
X180082649Y-138656167D01*
X180089334Y-138084667D01*
X180597334Y-138084667D01*
X180597334Y-140794000D01*
X180352392Y-140794000D01*
X180196354Y-140778688D01*
X180096093Y-140709355D01*
X180029547Y-140550901D01*
X179974652Y-140268228D01*
X179959375Y-140168783D01*
X179900339Y-139876608D01*
X179841673Y-139750771D01*
X179791757Y-139788464D01*
X179758972Y-139986882D01*
X179750667Y-140238670D01*
X179747034Y-140536159D01*
X179726456Y-140702421D01*
X179674416Y-140775544D01*
X179576397Y-140793617D01*
X179539000Y-140794000D01*
X179327334Y-140794000D01*
X179327334Y-138084667D01*
X179575262Y-138084667D01*
X179716698Y-138096650D01*
X179716698Y-138096650D01*
G37*
X179716698Y-138096650D02*
X179803710Y-138159029D01*
X179864634Y-138311445D01*
X179923290Y-138571500D01*
X179994567Y-138910171D01*
X180039571Y-139086200D01*
X180064853Y-139103066D01*
X180076962Y-138964249D01*
X180082448Y-138673229D01*
X180082649Y-138656167D01*
X180089334Y-138084667D01*
X180597334Y-138084667D01*
X180597334Y-140794000D01*
X180352392Y-140794000D01*
X180196354Y-140778688D01*
X180096093Y-140709355D01*
X180029547Y-140550901D01*
X179974652Y-140268228D01*
X179959375Y-140168783D01*
X179900339Y-139876608D01*
X179841673Y-139750771D01*
X179791757Y-139788464D01*
X179758972Y-139986882D01*
X179750667Y-140238670D01*
X179747034Y-140536159D01*
X179726456Y-140702421D01*
X179674416Y-140775544D01*
X179576397Y-140793617D01*
X179539000Y-140794000D01*
X179327334Y-140794000D01*
X179327334Y-138084667D01*
X179575262Y-138084667D01*
X179716698Y-138096650D01*
G36*
X178622364Y-138103527D02*
G01*
X178826340Y-138151593D01*
X178887067Y-138186267D01*
X178934970Y-138315742D01*
X178967442Y-138596803D01*
X178984990Y-139035758D01*
X178988667Y-139453288D01*
X178986812Y-139921922D01*
X178978789Y-140249472D01*
X178960906Y-140464168D01*
X178929476Y-140594241D01*
X178880808Y-140667921D01*
X178824900Y-140706354D01*
X178573119Y-140775015D01*
X178251626Y-140779882D01*
X177947580Y-140720924D01*
X177909167Y-140706695D01*
X177833399Y-140669093D01*
X177780951Y-140609017D01*
X177747540Y-140498416D01*
X177728883Y-140309240D01*
X177720698Y-140013438D01*
X177719803Y-139820424D01*
X178237322Y-139820424D01*
X178251315Y-140136455D01*
X178288427Y-140308576D01*
X178350643Y-140348957D01*
X178402007Y-140313860D01*
X178438305Y-140192936D01*
X178460526Y-139939467D01*
X178466225Y-139589840D01*
X178462731Y-139410271D01*
X178439037Y-138975729D01*
X178402575Y-138700555D01*
X178359336Y-138586450D01*
X178315316Y-138635115D01*
X178276506Y-138848251D01*
X178248901Y-139227560D01*
X178244460Y-139348315D01*
X178237322Y-139820424D01*
X177719803Y-139820424D01*
X177718701Y-139582960D01*
X177718667Y-139458995D01*
X177725713Y-138901427D01*
X177747194Y-138506151D01*
X177783627Y-138266697D01*
X177820267Y-138186267D01*
X177959207Y-138127481D01*
X178200172Y-138090796D01*
X178353667Y-138084667D01*
X178622364Y-138103527D01*
X178622364Y-138103527D01*
G37*
X178622364Y-138103527D02*
X178826340Y-138151593D01*
X178887067Y-138186267D01*
X178934970Y-138315742D01*
X178967442Y-138596803D01*
X178984990Y-139035758D01*
X178988667Y-139453288D01*
X178986812Y-139921922D01*
X178978789Y-140249472D01*
X178960906Y-140464168D01*
X178929476Y-140594241D01*
X178880808Y-140667921D01*
X178824900Y-140706354D01*
X178573119Y-140775015D01*
X178251626Y-140779882D01*
X177947580Y-140720924D01*
X177909167Y-140706695D01*
X177833399Y-140669093D01*
X177780951Y-140609017D01*
X177747540Y-140498416D01*
X177728883Y-140309240D01*
X177720698Y-140013438D01*
X177719803Y-139820424D01*
X178237322Y-139820424D01*
X178251315Y-140136455D01*
X178288427Y-140308576D01*
X178350643Y-140348957D01*
X178402007Y-140313860D01*
X178438305Y-140192936D01*
X178460526Y-139939467D01*
X178466225Y-139589840D01*
X178462731Y-139410271D01*
X178439037Y-138975729D01*
X178402575Y-138700555D01*
X178359336Y-138586450D01*
X178315316Y-138635115D01*
X178276506Y-138848251D01*
X178248901Y-139227560D01*
X178244460Y-139348315D01*
X178237322Y-139820424D01*
X177719803Y-139820424D01*
X177718701Y-139582960D01*
X177718667Y-139458995D01*
X177725713Y-138901427D01*
X177747194Y-138506151D01*
X177783627Y-138266697D01*
X177820267Y-138186267D01*
X177959207Y-138127481D01*
X178200172Y-138090796D01*
X178353667Y-138084667D01*
X178622364Y-138103527D01*
G36*
X184743518Y-141534833D02*
G01*
X184730364Y-141783143D01*
X184693914Y-141944481D01*
X184661334Y-141979333D01*
X184602888Y-141905509D01*
X184576762Y-141726555D01*
X184576667Y-141713915D01*
X184576667Y-141448497D01*
X184391873Y-141683424D01*
X184207079Y-141918352D01*
X184011294Y-141673676D01*
X183815508Y-141429000D01*
X183815087Y-141704167D01*
X183792022Y-141891464D01*
X183736404Y-141978548D01*
X183730000Y-141979333D01*
X183679228Y-141903720D01*
X183649007Y-141712674D01*
X183645334Y-141603330D01*
X183666290Y-141317499D01*
X183732797Y-141193113D01*
X183850311Y-141227098D01*
X184009981Y-141397914D01*
X184218838Y-141664784D01*
X184479937Y-141377559D01*
X184741036Y-141090333D01*
X184743518Y-141534833D01*
X184743518Y-141534833D01*
G37*
X184743518Y-141534833D02*
X184730364Y-141783143D01*
X184693914Y-141944481D01*
X184661334Y-141979333D01*
X184602888Y-141905509D01*
X184576762Y-141726555D01*
X184576667Y-141713915D01*
X184576667Y-141448497D01*
X184391873Y-141683424D01*
X184207079Y-141918352D01*
X184011294Y-141673676D01*
X183815508Y-141429000D01*
X183815087Y-141704167D01*
X183792022Y-141891464D01*
X183736404Y-141978548D01*
X183730000Y-141979333D01*
X183679228Y-141903720D01*
X183649007Y-141712674D01*
X183645334Y-141603330D01*
X183666290Y-141317499D01*
X183732797Y-141193113D01*
X183850311Y-141227098D01*
X184009981Y-141397914D01*
X184218838Y-141664784D01*
X184479937Y-141377559D01*
X184741036Y-141090333D01*
X184743518Y-141534833D01*
G36*
X183290139Y-141577167D02*
G01*
X183315945Y-141979333D01*
X182281389Y-141979333D01*
X182307195Y-141577167D01*
X182308553Y-141556000D01*
X182460000Y-141556000D01*
X182473374Y-141718867D01*
X182545846Y-141791268D01*
X182725945Y-141809599D01*
X182798667Y-141810000D01*
X183015822Y-141799970D01*
X183112357Y-141745615D01*
X183136799Y-141610541D01*
X183137334Y-141556000D01*
X183123960Y-141393133D01*
X183051487Y-141320732D01*
X182871389Y-141302401D01*
X182798667Y-141302000D01*
X182581511Y-141312030D01*
X182484976Y-141366385D01*
X182460534Y-141501458D01*
X182460000Y-141556000D01*
X182308553Y-141556000D01*
X182333000Y-141175000D01*
X183264334Y-141175000D01*
X183290139Y-141577167D01*
X183290139Y-141577167D01*
G37*
X183290139Y-141577167D02*
X183315945Y-141979333D01*
X182281389Y-141979333D01*
X182307195Y-141577167D01*
X182308553Y-141556000D01*
X182460000Y-141556000D01*
X182473374Y-141718867D01*
X182545846Y-141791268D01*
X182725945Y-141809599D01*
X182798667Y-141810000D01*
X183015822Y-141799970D01*
X183112357Y-141745615D01*
X183136799Y-141610541D01*
X183137334Y-141556000D01*
X183123960Y-141393133D01*
X183051487Y-141320732D01*
X182871389Y-141302401D01*
X182798667Y-141302000D01*
X182581511Y-141312030D01*
X182484976Y-141366385D01*
X182460534Y-141501458D01*
X182460000Y-141556000D01*
X182308553Y-141556000D01*
X182333000Y-141175000D01*
X183264334Y-141175000D01*
X183290139Y-141577167D01*
G36*
X181829978Y-141203929D02*
G01*
X181945510Y-141309425D01*
X181952000Y-141345946D01*
X181905772Y-141457579D01*
X181867334Y-141471333D01*
X181785127Y-141406904D01*
X181782667Y-141386667D01*
X181708238Y-141330704D01*
X181525223Y-141302731D01*
X181486334Y-141302000D01*
X181287239Y-141316159D01*
X181205578Y-141387979D01*
X181190000Y-141556000D01*
X181206520Y-141726653D01*
X181290310Y-141796647D01*
X181486334Y-141810000D01*
X181682182Y-141787485D01*
X181780100Y-141732120D01*
X181782667Y-141720336D01*
X181834537Y-141669770D01*
X181867334Y-141683000D01*
X181945238Y-141805502D01*
X181952000Y-141857330D01*
X181905391Y-141931469D01*
X181746174Y-141969588D01*
X181481695Y-141979333D01*
X181011389Y-141979333D01*
X181037195Y-141577167D01*
X181061763Y-141332297D01*
X181114164Y-141208874D01*
X181224333Y-141159023D01*
X181306064Y-141147222D01*
X181602595Y-141145482D01*
X181829978Y-141203929D01*
X181829978Y-141203929D01*
G37*
X181829978Y-141203929D02*
X181945510Y-141309425D01*
X181952000Y-141345946D01*
X181905772Y-141457579D01*
X181867334Y-141471333D01*
X181785127Y-141406904D01*
X181782667Y-141386667D01*
X181708238Y-141330704D01*
X181525223Y-141302731D01*
X181486334Y-141302000D01*
X181287239Y-141316159D01*
X181205578Y-141387979D01*
X181190000Y-141556000D01*
X181206520Y-141726653D01*
X181290310Y-141796647D01*
X181486334Y-141810000D01*
X181682182Y-141787485D01*
X181780100Y-141732120D01*
X181782667Y-141720336D01*
X181834537Y-141669770D01*
X181867334Y-141683000D01*
X181945238Y-141805502D01*
X181952000Y-141857330D01*
X181905391Y-141931469D01*
X181746174Y-141969588D01*
X181481695Y-141979333D01*
X181011389Y-141979333D01*
X181037195Y-141577167D01*
X181061763Y-141332297D01*
X181114164Y-141208874D01*
X181224333Y-141159023D01*
X181306064Y-141147222D01*
X181602595Y-141145482D01*
X181829978Y-141203929D01*
G36*
X180582582Y-141793106D02*
G01*
X180597334Y-141852333D01*
X180529561Y-141964582D01*
X180470334Y-141979333D01*
X180358085Y-141911560D01*
X180343334Y-141852333D01*
X180411106Y-141740085D01*
X180470334Y-141725333D01*
X180582582Y-141793106D01*
X180582582Y-141793106D01*
G37*
X180582582Y-141793106D02*
X180597334Y-141852333D01*
X180529561Y-141964582D01*
X180470334Y-141979333D01*
X180358085Y-141911560D01*
X180343334Y-141852333D01*
X180411106Y-141740085D01*
X180470334Y-141725333D01*
X180582582Y-141793106D01*
G36*
X191593621Y-133253592D02*
G01*
X191611862Y-133262874D01*
X191749194Y-133415277D01*
X191753444Y-133611864D01*
X191646334Y-133766667D01*
X191552395Y-133924738D01*
X191519334Y-134115700D01*
X191531317Y-134265587D01*
X191597849Y-134336584D01*
X191764805Y-134358027D01*
X191900334Y-134359333D01*
X192281334Y-134359333D01*
X192281334Y-141132667D01*
X189565094Y-141132667D01*
X187420558Y-142064000D01*
X186770777Y-142345917D01*
X186259615Y-142566614D01*
X185870484Y-142732574D01*
X185586795Y-142850281D01*
X185391957Y-142926219D01*
X185269383Y-142966874D01*
X185202482Y-142978729D01*
X185174667Y-142968268D01*
X185169334Y-142943942D01*
X185214979Y-142858038D01*
X185272139Y-142768403D01*
X185423334Y-142768403D01*
X185497142Y-142746311D01*
X185704756Y-142663735D01*
X186025460Y-142529447D01*
X186438537Y-142352222D01*
X186923271Y-142140832D01*
X187349500Y-141952675D01*
X189275667Y-141098008D01*
X190715000Y-141051837D01*
X192154334Y-141005667D01*
X192176506Y-137767167D01*
X192198679Y-134528667D01*
X185615683Y-134528667D01*
X185561842Y-134921484D01*
X185548926Y-135099641D01*
X185537122Y-135423930D01*
X185526813Y-135871151D01*
X185518383Y-136418103D01*
X185512214Y-137041586D01*
X185508691Y-137718400D01*
X185508000Y-138181150D01*
X185508000Y-141048000D01*
X185959556Y-141048000D01*
X186222568Y-141057445D01*
X186410629Y-141081679D01*
X186465480Y-141102368D01*
X186441727Y-141188992D01*
X186336133Y-141383118D01*
X186166131Y-141655069D01*
X185971591Y-141943100D01*
X185753434Y-142259236D01*
X185576441Y-142521876D01*
X185460094Y-142701695D01*
X185423334Y-142768403D01*
X185272139Y-142768403D01*
X185338906Y-142663705D01*
X185521602Y-142390756D01*
X185719667Y-142103210D01*
X185938445Y-141785417D01*
X186116007Y-141519877D01*
X186232857Y-141336263D01*
X186270000Y-141265601D01*
X186193805Y-141238059D01*
X185999000Y-141220584D01*
X185846667Y-141217333D01*
X185423334Y-141217333D01*
X185423334Y-134359333D01*
X185762000Y-134359333D01*
X185978836Y-134350362D01*
X186075200Y-134294970D01*
X186099910Y-134150441D01*
X186100667Y-134063000D01*
X186081669Y-133867100D01*
X186034959Y-133769214D01*
X186025059Y-133766666D01*
X185929485Y-133695982D01*
X185881197Y-133537470D01*
X185884100Y-133512667D01*
X186016000Y-133512667D01*
X186058852Y-133651627D01*
X186164167Y-133665882D01*
X186290126Y-133582396D01*
X186312334Y-133512667D01*
X186241949Y-133393118D01*
X186164167Y-133359451D01*
X186044155Y-133388903D01*
X186016000Y-133512667D01*
X185884100Y-133512667D01*
X185898204Y-133392213D01*
X186026513Y-133244539D01*
X186221168Y-133235090D01*
X186401174Y-133331490D01*
X186601973Y-133489438D01*
X186408444Y-133671249D01*
X186263116Y-133879575D01*
X186252067Y-134106197D01*
X186289219Y-134359333D01*
X191434667Y-134359333D01*
X191434667Y-134131957D01*
X191377274Y-133908475D01*
X191244167Y-133701431D01*
X191096304Y-133543749D01*
X191288875Y-133543749D01*
X191306005Y-133594644D01*
X191429723Y-133665022D01*
X191582668Y-133632369D01*
X191667525Y-133533878D01*
X191637640Y-133424242D01*
X191514617Y-133364051D01*
X191373284Y-133381299D01*
X191334753Y-133409380D01*
X191288875Y-133543749D01*
X191096304Y-133543749D01*
X191053667Y-133498282D01*
X191252029Y-133337370D01*
X191434168Y-133231085D01*
X191593621Y-133253592D01*
X191593621Y-133253592D01*
G37*
X191593621Y-133253592D02*
X191611862Y-133262874D01*
X191749194Y-133415277D01*
X191753444Y-133611864D01*
X191646334Y-133766667D01*
X191552395Y-133924738D01*
X191519334Y-134115700D01*
X191531317Y-134265587D01*
X191597849Y-134336584D01*
X191764805Y-134358027D01*
X191900334Y-134359333D01*
X192281334Y-134359333D01*
X192281334Y-141132667D01*
X189565094Y-141132667D01*
X187420558Y-142064000D01*
X186770777Y-142345917D01*
X186259615Y-142566614D01*
X185870484Y-142732574D01*
X185586795Y-142850281D01*
X185391957Y-142926219D01*
X185269383Y-142966874D01*
X185202482Y-142978729D01*
X185174667Y-142968268D01*
X185169334Y-142943942D01*
X185214979Y-142858038D01*
X185272139Y-142768403D01*
X185423334Y-142768403D01*
X185497142Y-142746311D01*
X185704756Y-142663735D01*
X186025460Y-142529447D01*
X186438537Y-142352222D01*
X186923271Y-142140832D01*
X187349500Y-141952675D01*
X189275667Y-141098008D01*
X190715000Y-141051837D01*
X192154334Y-141005667D01*
X192176506Y-137767167D01*
X192198679Y-134528667D01*
X185615683Y-134528667D01*
X185561842Y-134921484D01*
X185548926Y-135099641D01*
X185537122Y-135423930D01*
X185526813Y-135871151D01*
X185518383Y-136418103D01*
X185512214Y-137041586D01*
X185508691Y-137718400D01*
X185508000Y-138181150D01*
X185508000Y-141048000D01*
X185959556Y-141048000D01*
X186222568Y-141057445D01*
X186410629Y-141081679D01*
X186465480Y-141102368D01*
X186441727Y-141188992D01*
X186336133Y-141383118D01*
X186166131Y-141655069D01*
X185971591Y-141943100D01*
X185753434Y-142259236D01*
X185576441Y-142521876D01*
X185460094Y-142701695D01*
X185423334Y-142768403D01*
X185272139Y-142768403D01*
X185338906Y-142663705D01*
X185521602Y-142390756D01*
X185719667Y-142103210D01*
X185938445Y-141785417D01*
X186116007Y-141519877D01*
X186232857Y-141336263D01*
X186270000Y-141265601D01*
X186193805Y-141238059D01*
X185999000Y-141220584D01*
X185846667Y-141217333D01*
X185423334Y-141217333D01*
X185423334Y-134359333D01*
X185762000Y-134359333D01*
X185978836Y-134350362D01*
X186075200Y-134294970D01*
X186099910Y-134150441D01*
X186100667Y-134063000D01*
X186081669Y-133867100D01*
X186034959Y-133769214D01*
X186025059Y-133766666D01*
X185929485Y-133695982D01*
X185881197Y-133537470D01*
X185884100Y-133512667D01*
X186016000Y-133512667D01*
X186058852Y-133651627D01*
X186164167Y-133665882D01*
X186290126Y-133582396D01*
X186312334Y-133512667D01*
X186241949Y-133393118D01*
X186164167Y-133359451D01*
X186044155Y-133388903D01*
X186016000Y-133512667D01*
X185884100Y-133512667D01*
X185898204Y-133392213D01*
X186026513Y-133244539D01*
X186221168Y-133235090D01*
X186401174Y-133331490D01*
X186601973Y-133489438D01*
X186408444Y-133671249D01*
X186263116Y-133879575D01*
X186252067Y-134106197D01*
X186289219Y-134359333D01*
X191434667Y-134359333D01*
X191434667Y-134131957D01*
X191377274Y-133908475D01*
X191244167Y-133701431D01*
X191096304Y-133543749D01*
X191288875Y-133543749D01*
X191306005Y-133594644D01*
X191429723Y-133665022D01*
X191582668Y-133632369D01*
X191667525Y-133533878D01*
X191637640Y-133424242D01*
X191514617Y-133364051D01*
X191373284Y-133381299D01*
X191334753Y-133409380D01*
X191288875Y-133543749D01*
X191096304Y-133543749D01*
X191053667Y-133498282D01*
X191252029Y-133337370D01*
X191434168Y-133231085D01*
X191593621Y-133253592D01*
D10*
X104000000Y-95000000D02*
X102000000Y-95000000D01*
X102000000Y-95000000D02*
X102000000Y-101000000D01*
X102000000Y-101000000D02*
X104000000Y-101000000D01*
X106000000Y-101000000D02*
X108000000Y-101000000D01*
X108000000Y-101000000D02*
X108000000Y-95000000D01*
X108000000Y-95000000D02*
X106000000Y-95000000D01*
X168000000Y-94000000D02*
X166000000Y-94000000D01*
X166000000Y-94000000D02*
X166000000Y-100000000D01*
X166000000Y-100000000D02*
X168000000Y-100000000D01*
X170000000Y-100000000D02*
X172000000Y-100000000D01*
X172000000Y-100000000D02*
X172000000Y-94000000D01*
X172000000Y-94000000D02*
X170000000Y-94000000D01*
D12*
X189500000Y-93550000D02*
X188500000Y-93550000D01*
X188500000Y-95250000D02*
X189500000Y-95250000D01*
X175150000Y-105500000D02*
X175150000Y-106500000D01*
X176850000Y-106500000D02*
X176850000Y-105500000D01*
X176850000Y-101500000D02*
X176850000Y-100500000D01*
X175150000Y-100500000D02*
X175150000Y-101500000D01*
X176850000Y-96700000D02*
X176850000Y-95700000D01*
X175150000Y-95700000D02*
X175150000Y-96700000D01*
X196450000Y-102500000D02*
X196450000Y-101500000D01*
X194750000Y-101500000D02*
X194750000Y-102500000D01*
X179000000Y-127320000D02*
X180200000Y-127320000D01*
X180200000Y-129080000D02*
X179000000Y-129080000D01*
D10*
X185175000Y-97600000D02*
X183950000Y-97600000D01*
X192425000Y-97375000D02*
X192125000Y-97375000D01*
X192425000Y-104625000D02*
X192125000Y-104625000D01*
X185175000Y-104625000D02*
X185475000Y-104625000D01*
X185175000Y-97375000D02*
X185475000Y-97375000D01*
X185175000Y-104625000D02*
X185175000Y-104325000D01*
X192425000Y-104625000D02*
X192425000Y-104325000D01*
X192425000Y-97375000D02*
X192425000Y-97675000D01*
X185175000Y-97375000D02*
X185175000Y-97600000D01*
X194000000Y-145000000D02*
X192000000Y-145000000D01*
X194000000Y-151000000D02*
X194000000Y-145000000D01*
X192000000Y-151000000D02*
X194000000Y-151000000D01*
X188000000Y-151000000D02*
X190000000Y-151000000D01*
X188000000Y-145000000D02*
X188000000Y-151000000D01*
X190000000Y-145000000D02*
X188000000Y-145000000D01*
X96000000Y-125000000D02*
X94000000Y-125000000D01*
X94000000Y-125000000D02*
X94000000Y-131000000D01*
X94000000Y-131000000D02*
X96000000Y-131000000D01*
X98000000Y-131000000D02*
X100000000Y-131000000D01*
X100000000Y-131000000D02*
X100000000Y-125000000D01*
X100000000Y-125000000D02*
X98000000Y-125000000D01*
X112000000Y-145000000D02*
X110000000Y-145000000D01*
X110000000Y-145000000D02*
X110000000Y-151000000D01*
X110000000Y-151000000D02*
X112000000Y-151000000D01*
X114000000Y-151000000D02*
X116000000Y-151000000D01*
X116000000Y-151000000D02*
X116000000Y-145000000D01*
X116000000Y-145000000D02*
X114000000Y-145000000D01*
X164000000Y-145000000D02*
X162000000Y-145000000D01*
X164000000Y-151000000D02*
X164000000Y-145000000D01*
X162000000Y-151000000D02*
X164000000Y-151000000D01*
X158000000Y-151000000D02*
X160000000Y-151000000D01*
X158000000Y-145000000D02*
X158000000Y-151000000D01*
X160000000Y-145000000D02*
X158000000Y-145000000D01*
X136000000Y-135000000D02*
X134000000Y-135000000D01*
X134000000Y-135000000D02*
X134000000Y-141000000D01*
X134000000Y-141000000D02*
X136000000Y-141000000D01*
X138000000Y-141000000D02*
X140000000Y-141000000D01*
X140000000Y-141000000D02*
X140000000Y-135000000D01*
X140000000Y-135000000D02*
X138000000Y-135000000D01*
X168000000Y-125000000D02*
X166000000Y-125000000D01*
X166000000Y-125000000D02*
X166000000Y-131000000D01*
X166000000Y-131000000D02*
X168000000Y-131000000D01*
X170000000Y-131000000D02*
X172000000Y-131000000D01*
X172000000Y-131000000D02*
X172000000Y-125000000D01*
X172000000Y-125000000D02*
X170000000Y-125000000D01*
X124000000Y-135000000D02*
X122000000Y-135000000D01*
X124000000Y-141000000D02*
X124000000Y-135000000D01*
X122000000Y-141000000D02*
X124000000Y-141000000D01*
X118000000Y-141000000D02*
X120000000Y-141000000D01*
X118000000Y-135000000D02*
X118000000Y-141000000D01*
X120000000Y-135000000D02*
X118000000Y-135000000D01*
X96000000Y-145000000D02*
X94000000Y-145000000D01*
X94000000Y-145000000D02*
X94000000Y-151000000D01*
X94000000Y-151000000D02*
X96000000Y-151000000D01*
X98000000Y-151000000D02*
X100000000Y-151000000D01*
X100000000Y-151000000D02*
X100000000Y-145000000D01*
X100000000Y-145000000D02*
X98000000Y-145000000D01*
X112000000Y-125000000D02*
X110000000Y-125000000D01*
X110000000Y-125000000D02*
X110000000Y-131000000D01*
X110000000Y-131000000D02*
X112000000Y-131000000D01*
X114000000Y-131000000D02*
X116000000Y-131000000D01*
X116000000Y-131000000D02*
X116000000Y-125000000D01*
X116000000Y-125000000D02*
X114000000Y-125000000D01*
X187171573Y-122928932D02*
X185757359Y-124343146D01*
X191414214Y-127171573D02*
X187171573Y-122928932D01*
X190000000Y-128585786D02*
X191414214Y-127171573D01*
X187171573Y-131414214D02*
X188585786Y-130000000D01*
X182928932Y-127171573D02*
X187171573Y-131414214D01*
X184343146Y-125757359D02*
X182928932Y-127171573D01*
X112000000Y-115000000D02*
X110000000Y-115000000D01*
X110000000Y-115000000D02*
X110000000Y-121000000D01*
X110000000Y-121000000D02*
X112000000Y-121000000D01*
X114000000Y-121000000D02*
X116000000Y-121000000D01*
X116000000Y-121000000D02*
X116000000Y-115000000D01*
X116000000Y-115000000D02*
X114000000Y-115000000D01*
X96000000Y-95000000D02*
X94000000Y-95000000D01*
X94000000Y-95000000D02*
X94000000Y-101000000D01*
X94000000Y-101000000D02*
X96000000Y-101000000D01*
X98000000Y-101000000D02*
X100000000Y-101000000D01*
X100000000Y-101000000D02*
X100000000Y-95000000D01*
X100000000Y-95000000D02*
X98000000Y-95000000D01*
X100000000Y-135000000D02*
X98000000Y-135000000D01*
X100000000Y-141000000D02*
X100000000Y-135000000D01*
X98000000Y-141000000D02*
X100000000Y-141000000D01*
X94000000Y-141000000D02*
X96000000Y-141000000D01*
X94000000Y-135000000D02*
X94000000Y-141000000D01*
X96000000Y-135000000D02*
X94000000Y-135000000D01*
X124000000Y-125000000D02*
X122000000Y-125000000D01*
X124000000Y-131000000D02*
X124000000Y-125000000D01*
X122000000Y-131000000D02*
X124000000Y-131000000D01*
X118000000Y-131000000D02*
X120000000Y-131000000D01*
X118000000Y-125000000D02*
X118000000Y-131000000D01*
X120000000Y-125000000D02*
X118000000Y-125000000D01*
X116000000Y-95000000D02*
X114000000Y-95000000D01*
X116000000Y-101000000D02*
X116000000Y-95000000D01*
X114000000Y-101000000D02*
X116000000Y-101000000D01*
X110000000Y-101000000D02*
X112000000Y-101000000D01*
X110000000Y-95000000D02*
X110000000Y-101000000D01*
X112000000Y-95000000D02*
X110000000Y-95000000D01*
X120000000Y-95000000D02*
X118000000Y-95000000D01*
X118000000Y-95000000D02*
X118000000Y-101000000D01*
X118000000Y-101000000D02*
X120000000Y-101000000D01*
X122000000Y-101000000D02*
X124000000Y-101000000D01*
X124000000Y-101000000D02*
X124000000Y-95000000D01*
X124000000Y-95000000D02*
X122000000Y-95000000D01*
X132000000Y-95000000D02*
X130000000Y-95000000D01*
X132000000Y-101000000D02*
X132000000Y-95000000D01*
X130000000Y-101000000D02*
X132000000Y-101000000D01*
X126000000Y-101000000D02*
X128000000Y-101000000D01*
X126000000Y-95000000D02*
X126000000Y-101000000D01*
X128000000Y-95000000D02*
X126000000Y-95000000D01*
X136000000Y-95000000D02*
X134000000Y-95000000D01*
X134000000Y-95000000D02*
X134000000Y-101000000D01*
X134000000Y-101000000D02*
X136000000Y-101000000D01*
X138000000Y-101000000D02*
X140000000Y-101000000D01*
X140000000Y-101000000D02*
X140000000Y-95000000D01*
X140000000Y-95000000D02*
X138000000Y-95000000D01*
X128000000Y-125000000D02*
X126000000Y-125000000D01*
X126000000Y-125000000D02*
X126000000Y-131000000D01*
X126000000Y-131000000D02*
X128000000Y-131000000D01*
X130000000Y-131000000D02*
X132000000Y-131000000D01*
X132000000Y-131000000D02*
X132000000Y-125000000D01*
X132000000Y-125000000D02*
X130000000Y-125000000D01*
X136000000Y-125000000D02*
X134000000Y-125000000D01*
X134000000Y-125000000D02*
X134000000Y-131000000D01*
X134000000Y-131000000D02*
X136000000Y-131000000D01*
X138000000Y-131000000D02*
X140000000Y-131000000D01*
X140000000Y-131000000D02*
X140000000Y-125000000D01*
X140000000Y-125000000D02*
X138000000Y-125000000D01*
X152000000Y-115000000D02*
X150000000Y-115000000D01*
X150000000Y-115000000D02*
X150000000Y-121000000D01*
X150000000Y-121000000D02*
X152000000Y-121000000D01*
X154000000Y-121000000D02*
X156000000Y-121000000D01*
X156000000Y-121000000D02*
X156000000Y-115000000D01*
X156000000Y-115000000D02*
X154000000Y-115000000D01*
X148000000Y-125000000D02*
X146000000Y-125000000D01*
X148000000Y-131000000D02*
X148000000Y-125000000D01*
X146000000Y-131000000D02*
X148000000Y-131000000D01*
X142000000Y-131000000D02*
X144000000Y-131000000D01*
X142000000Y-125000000D02*
X142000000Y-131000000D01*
X144000000Y-125000000D02*
X142000000Y-125000000D01*
X152000000Y-125000000D02*
X150000000Y-125000000D01*
X150000000Y-125000000D02*
X150000000Y-131000000D01*
X150000000Y-131000000D02*
X152000000Y-131000000D01*
X154000000Y-131000000D02*
X156000000Y-131000000D01*
X156000000Y-131000000D02*
X156000000Y-125000000D01*
X156000000Y-125000000D02*
X154000000Y-125000000D01*
X164000000Y-125000000D02*
X162000000Y-125000000D01*
X164000000Y-131000000D02*
X164000000Y-125000000D01*
X162000000Y-131000000D02*
X164000000Y-131000000D01*
X158000000Y-131000000D02*
X160000000Y-131000000D01*
X158000000Y-125000000D02*
X158000000Y-131000000D01*
X160000000Y-125000000D02*
X158000000Y-125000000D01*
X185071068Y-121171573D02*
X183656854Y-119757359D01*
X180828427Y-125414214D02*
X185071068Y-121171573D01*
X179414214Y-124000000D02*
X180828427Y-125414214D01*
X176585786Y-121171573D02*
X178000000Y-122585786D01*
X180828427Y-116928932D02*
X176585786Y-121171573D01*
X182242641Y-118343146D02*
X180828427Y-116928932D01*
X152000000Y-135000000D02*
X150000000Y-135000000D01*
X150000000Y-135000000D02*
X150000000Y-141000000D01*
X150000000Y-141000000D02*
X152000000Y-141000000D01*
X154000000Y-141000000D02*
X156000000Y-141000000D01*
X156000000Y-141000000D02*
X156000000Y-135000000D01*
X156000000Y-135000000D02*
X154000000Y-135000000D01*
X148000000Y-135000000D02*
X146000000Y-135000000D01*
X148000000Y-141000000D02*
X148000000Y-135000000D01*
X146000000Y-141000000D02*
X148000000Y-141000000D01*
X142000000Y-141000000D02*
X144000000Y-141000000D01*
X142000000Y-135000000D02*
X142000000Y-141000000D01*
X144000000Y-135000000D02*
X142000000Y-135000000D01*
X164000000Y-115000000D02*
X162000000Y-115000000D01*
X164000000Y-121000000D02*
X164000000Y-115000000D01*
X162000000Y-121000000D02*
X164000000Y-121000000D01*
X158000000Y-121000000D02*
X160000000Y-121000000D01*
X158000000Y-115000000D02*
X158000000Y-121000000D01*
X160000000Y-115000000D02*
X158000000Y-115000000D01*
X172000000Y-115000000D02*
X170000000Y-115000000D01*
X172000000Y-121000000D02*
X172000000Y-115000000D01*
X170000000Y-121000000D02*
X172000000Y-121000000D01*
X166000000Y-121000000D02*
X168000000Y-121000000D01*
X166000000Y-115000000D02*
X166000000Y-121000000D01*
X168000000Y-115000000D02*
X166000000Y-115000000D01*
X96000000Y-115000000D02*
X94000000Y-115000000D01*
X94000000Y-115000000D02*
X94000000Y-121000000D01*
X94000000Y-121000000D02*
X96000000Y-121000000D01*
X98000000Y-121000000D02*
X100000000Y-121000000D01*
X100000000Y-121000000D02*
X100000000Y-115000000D01*
X100000000Y-115000000D02*
X98000000Y-115000000D01*
X124000000Y-115000000D02*
X122000000Y-115000000D01*
X124000000Y-121000000D02*
X124000000Y-115000000D01*
X122000000Y-121000000D02*
X124000000Y-121000000D01*
X118000000Y-121000000D02*
X120000000Y-121000000D01*
X118000000Y-115000000D02*
X118000000Y-121000000D01*
X120000000Y-115000000D02*
X118000000Y-115000000D01*
X172000000Y-135000000D02*
X170000000Y-135000000D01*
X172000000Y-141000000D02*
X172000000Y-135000000D01*
X170000000Y-141000000D02*
X172000000Y-141000000D01*
X166000000Y-141000000D02*
X168000000Y-141000000D01*
X166000000Y-135000000D02*
X166000000Y-141000000D01*
X168000000Y-135000000D02*
X166000000Y-135000000D01*
X197121068Y-121121573D02*
X195706854Y-119707359D01*
X192878427Y-125364214D02*
X197121068Y-121121573D01*
X191464214Y-123950000D02*
X192878427Y-125364214D01*
X188635786Y-121121573D02*
X190050000Y-122535786D01*
X192878427Y-116878932D02*
X188635786Y-121121573D01*
X194292641Y-118293146D02*
X192878427Y-116878932D01*
X108000000Y-125000000D02*
X106000000Y-125000000D01*
X108000000Y-131000000D02*
X108000000Y-125000000D01*
X106000000Y-131000000D02*
X108000000Y-131000000D01*
X102000000Y-131000000D02*
X104000000Y-131000000D01*
X102000000Y-125000000D02*
X102000000Y-131000000D01*
X104000000Y-125000000D02*
X102000000Y-125000000D01*
X108000000Y-145000000D02*
X106000000Y-145000000D01*
X108000000Y-151000000D02*
X108000000Y-145000000D01*
X106000000Y-151000000D02*
X108000000Y-151000000D01*
X102000000Y-151000000D02*
X104000000Y-151000000D01*
X102000000Y-145000000D02*
X102000000Y-151000000D01*
X104000000Y-145000000D02*
X102000000Y-145000000D01*
X168000000Y-145000000D02*
X166000000Y-145000000D01*
X166000000Y-145000000D02*
X166000000Y-151000000D01*
X166000000Y-151000000D02*
X168000000Y-151000000D01*
X170000000Y-151000000D02*
X172000000Y-151000000D01*
X172000000Y-151000000D02*
X172000000Y-145000000D01*
X172000000Y-145000000D02*
X170000000Y-145000000D01*
X128000000Y-145000000D02*
X126000000Y-145000000D01*
X126000000Y-145000000D02*
X126000000Y-151000000D01*
X126000000Y-151000000D02*
X128000000Y-151000000D01*
X130000000Y-151000000D02*
X132000000Y-151000000D01*
X132000000Y-151000000D02*
X132000000Y-145000000D01*
X132000000Y-145000000D02*
X130000000Y-145000000D01*
X140000000Y-145000000D02*
X138000000Y-145000000D01*
X140000000Y-151000000D02*
X140000000Y-145000000D01*
X138000000Y-151000000D02*
X140000000Y-151000000D01*
X134000000Y-151000000D02*
X136000000Y-151000000D01*
X134000000Y-145000000D02*
X134000000Y-151000000D01*
X136000000Y-145000000D02*
X134000000Y-145000000D01*
X144000000Y-145000000D02*
X142000000Y-145000000D01*
X142000000Y-145000000D02*
X142000000Y-151000000D01*
X142000000Y-151000000D02*
X144000000Y-151000000D01*
X146000000Y-151000000D02*
X148000000Y-151000000D01*
X148000000Y-151000000D02*
X148000000Y-145000000D01*
X148000000Y-145000000D02*
X146000000Y-145000000D01*
X160000000Y-135000000D02*
X158000000Y-135000000D01*
X158000000Y-135000000D02*
X158000000Y-141000000D01*
X158000000Y-141000000D02*
X160000000Y-141000000D01*
X162000000Y-141000000D02*
X164000000Y-141000000D01*
X164000000Y-141000000D02*
X164000000Y-135000000D01*
X164000000Y-135000000D02*
X162000000Y-135000000D01*
X132000000Y-115000000D02*
X130000000Y-115000000D01*
X132000000Y-121000000D02*
X132000000Y-115000000D01*
X130000000Y-121000000D02*
X132000000Y-121000000D01*
X126000000Y-121000000D02*
X128000000Y-121000000D01*
X126000000Y-115000000D02*
X126000000Y-121000000D01*
X128000000Y-115000000D02*
X126000000Y-115000000D01*
X144000000Y-115000000D02*
X142000000Y-115000000D01*
X142000000Y-115000000D02*
X142000000Y-121000000D01*
X142000000Y-121000000D02*
X144000000Y-121000000D01*
X146000000Y-121000000D02*
X148000000Y-121000000D01*
X148000000Y-121000000D02*
X148000000Y-115000000D01*
X148000000Y-115000000D02*
X146000000Y-115000000D01*
X184343146Y-113757359D02*
X182928932Y-115171573D01*
X182928932Y-115171573D02*
X187171573Y-119414214D01*
X187171573Y-119414214D02*
X188585786Y-118000000D01*
X190000000Y-116585786D02*
X191414214Y-115171573D01*
X191414214Y-115171573D02*
X187171573Y-110928932D01*
X187171573Y-110928932D02*
X185757359Y-112343146D01*
X128000000Y-135000000D02*
X126000000Y-135000000D01*
X126000000Y-135000000D02*
X126000000Y-141000000D01*
X126000000Y-141000000D02*
X128000000Y-141000000D01*
X130000000Y-141000000D02*
X132000000Y-141000000D01*
X132000000Y-141000000D02*
X132000000Y-135000000D01*
X132000000Y-135000000D02*
X130000000Y-135000000D01*
X108000000Y-115000000D02*
X106000000Y-115000000D01*
X108000000Y-121000000D02*
X108000000Y-115000000D01*
X106000000Y-121000000D02*
X108000000Y-121000000D01*
X102000000Y-121000000D02*
X104000000Y-121000000D01*
X102000000Y-115000000D02*
X102000000Y-121000000D01*
X104000000Y-115000000D02*
X102000000Y-115000000D01*
X112000000Y-135000000D02*
X110000000Y-135000000D01*
X110000000Y-135000000D02*
X110000000Y-141000000D01*
X110000000Y-141000000D02*
X112000000Y-141000000D01*
X114000000Y-141000000D02*
X116000000Y-141000000D01*
X116000000Y-141000000D02*
X116000000Y-135000000D01*
X116000000Y-135000000D02*
X114000000Y-135000000D01*
D12*
X177450000Y-94300000D02*
X177450000Y-106900000D01*
X182550000Y-94300000D02*
X177450000Y-94300000D01*
X182550000Y-106900000D02*
X182550000Y-94300000D01*
D10*
X140000000Y-115000000D02*
X138000000Y-115000000D01*
X140000000Y-121000000D02*
X140000000Y-115000000D01*
X138000000Y-121000000D02*
X140000000Y-121000000D01*
X134000000Y-121000000D02*
X136000000Y-121000000D01*
X134000000Y-115000000D02*
X134000000Y-121000000D01*
X136000000Y-115000000D02*
X134000000Y-115000000D01*
X108000000Y-135000000D02*
X106000000Y-135000000D01*
X108000000Y-141000000D02*
X108000000Y-135000000D01*
X106000000Y-141000000D02*
X108000000Y-141000000D01*
X102000000Y-141000000D02*
X104000000Y-141000000D01*
X102000000Y-135000000D02*
X102000000Y-141000000D01*
X104000000Y-135000000D02*
X102000000Y-135000000D01*
X100000000Y-105000000D02*
X98000000Y-105000000D01*
X100000000Y-111000000D02*
X100000000Y-105000000D01*
X98000000Y-111000000D02*
X100000000Y-111000000D01*
X94000000Y-111000000D02*
X96000000Y-111000000D01*
X94000000Y-105000000D02*
X94000000Y-111000000D01*
X96000000Y-105000000D02*
X94000000Y-105000000D01*
X108000000Y-105000000D02*
X106000000Y-105000000D01*
X108000000Y-111000000D02*
X108000000Y-105000000D01*
X106000000Y-111000000D02*
X108000000Y-111000000D01*
X102000000Y-111000000D02*
X104000000Y-111000000D01*
X102000000Y-105000000D02*
X102000000Y-111000000D01*
X104000000Y-105000000D02*
X102000000Y-105000000D01*
X116000000Y-105000000D02*
X114000000Y-105000000D01*
X116000000Y-111000000D02*
X116000000Y-105000000D01*
X114000000Y-111000000D02*
X116000000Y-111000000D01*
X110000000Y-111000000D02*
X112000000Y-111000000D01*
X110000000Y-105000000D02*
X110000000Y-111000000D01*
X112000000Y-105000000D02*
X110000000Y-105000000D01*
X120000000Y-105000000D02*
X118000000Y-105000000D01*
X118000000Y-105000000D02*
X118000000Y-111000000D01*
X118000000Y-111000000D02*
X120000000Y-111000000D01*
X122000000Y-111000000D02*
X124000000Y-111000000D01*
X124000000Y-111000000D02*
X124000000Y-105000000D01*
X124000000Y-105000000D02*
X122000000Y-105000000D01*
X132000000Y-105000000D02*
X130000000Y-105000000D01*
X132000000Y-111000000D02*
X132000000Y-105000000D01*
X130000000Y-111000000D02*
X132000000Y-111000000D01*
X126000000Y-111000000D02*
X128000000Y-111000000D01*
X126000000Y-105000000D02*
X126000000Y-111000000D01*
X128000000Y-105000000D02*
X126000000Y-105000000D01*
X136000000Y-105000000D02*
X134000000Y-105000000D01*
X134000000Y-105000000D02*
X134000000Y-111000000D01*
X134000000Y-111000000D02*
X136000000Y-111000000D01*
X138000000Y-111000000D02*
X140000000Y-111000000D01*
X140000000Y-111000000D02*
X140000000Y-105000000D01*
X140000000Y-105000000D02*
X138000000Y-105000000D01*
X148000000Y-105000000D02*
X146000000Y-105000000D01*
X148000000Y-111000000D02*
X148000000Y-105000000D01*
X146000000Y-111000000D02*
X148000000Y-111000000D01*
X142000000Y-111000000D02*
X144000000Y-111000000D01*
X142000000Y-105000000D02*
X142000000Y-111000000D01*
X144000000Y-105000000D02*
X142000000Y-105000000D01*
X152000000Y-105000000D02*
X150000000Y-105000000D01*
X150000000Y-105000000D02*
X150000000Y-111000000D01*
X150000000Y-111000000D02*
X152000000Y-111000000D01*
X154000000Y-111000000D02*
X156000000Y-111000000D01*
X156000000Y-111000000D02*
X156000000Y-105000000D01*
X156000000Y-105000000D02*
X154000000Y-105000000D01*
X164000000Y-105000000D02*
X162000000Y-105000000D01*
X164000000Y-111000000D02*
X164000000Y-105000000D01*
X162000000Y-111000000D02*
X164000000Y-111000000D01*
X158000000Y-111000000D02*
X160000000Y-111000000D01*
X158000000Y-105000000D02*
X158000000Y-111000000D01*
X160000000Y-105000000D02*
X158000000Y-105000000D01*
X168000000Y-105000000D02*
X166000000Y-105000000D01*
X166000000Y-105000000D02*
X166000000Y-111000000D01*
X166000000Y-111000000D02*
X168000000Y-111000000D01*
X170000000Y-111000000D02*
X172000000Y-111000000D01*
X172000000Y-111000000D02*
X172000000Y-105000000D01*
X172000000Y-105000000D02*
X170000000Y-105000000D01*
X104214285Y-97928571D02*
X103880952Y-97928571D01*
X103880952Y-98452380D02*
X103880952Y-97452380D01*
X104357142Y-97452380D01*
X104738095Y-97785714D02*
X104738095Y-98452380D01*
X104738095Y-97880952D02*
X104785714Y-97833333D01*
X104880952Y-97785714D01*
X105023809Y-97785714D01*
X105119047Y-97833333D01*
X105166666Y-97928571D01*
X105166666Y-98452380D01*
X106166666Y-98452380D02*
X105595238Y-98452380D01*
X105880952Y-98452380D02*
X105880952Y-97452380D01*
X105785714Y-97595238D01*
X105690476Y-97690476D01*
X105595238Y-97738095D01*
X167404761Y-97452380D02*
X167404761Y-96452380D01*
X167642857Y-96452380D01*
X167785714Y-96500000D01*
X167880952Y-96595238D01*
X167928571Y-96690476D01*
X167976190Y-96880952D01*
X167976190Y-97023809D01*
X167928571Y-97214285D01*
X167880952Y-97309523D01*
X167785714Y-97404761D01*
X167642857Y-97452380D01*
X167404761Y-97452380D01*
X168404761Y-96928571D02*
X168738095Y-96928571D01*
X168880952Y-97452380D02*
X168404761Y-97452380D01*
X168404761Y-96452380D01*
X168880952Y-96452380D01*
X169785714Y-97452380D02*
X169309523Y-97452380D01*
X169309523Y-96452380D01*
X170642857Y-97452380D02*
X170071428Y-97452380D01*
X170357142Y-97452380D02*
X170357142Y-96452380D01*
X170261904Y-96595238D01*
X170166666Y-96690476D01*
X170071428Y-96738095D01*
X192263733Y-94768942D02*
X192216114Y-94816561D01*
X192073257Y-94864180D01*
X191978019Y-94864180D01*
X191835161Y-94816561D01*
X191739923Y-94721323D01*
X191692304Y-94626085D01*
X191644685Y-94435609D01*
X191644685Y-94292752D01*
X191692304Y-94102276D01*
X191739923Y-94007038D01*
X191835161Y-93911800D01*
X191978019Y-93864180D01*
X192073257Y-93864180D01*
X192216114Y-93911800D01*
X192263733Y-93959419D01*
X193216114Y-94864180D02*
X192644685Y-94864180D01*
X192930400Y-94864180D02*
X192930400Y-93864180D01*
X192835161Y-94007038D01*
X192739923Y-94102276D01*
X192644685Y-94149895D01*
D14*
X187858157Y-92438985D02*
X187929585Y-92438985D01*
X188001014Y-92474700D01*
X188036728Y-92510414D01*
X188072442Y-92581842D01*
X188108157Y-92724700D01*
X188108157Y-92903271D01*
X188072442Y-93046128D01*
X188036728Y-93117557D01*
X188001014Y-93153271D01*
X187929585Y-93188985D01*
X187858157Y-93188985D01*
X187786728Y-93153271D01*
X187751014Y-93117557D01*
X187715300Y-93046128D01*
X187679585Y-92903271D01*
X187679585Y-92724700D01*
X187715300Y-92581842D01*
X187751014Y-92510414D01*
X187786728Y-92474700D01*
X187858157Y-92438985D01*
X188429585Y-93117557D02*
X188465300Y-93153271D01*
X188429585Y-93188985D01*
X188393871Y-93153271D01*
X188429585Y-93117557D01*
X188429585Y-93188985D01*
X189179585Y-93188985D02*
X188751014Y-93188985D01*
X188965300Y-93188985D02*
X188965300Y-92438985D01*
X188893871Y-92546128D01*
X188822442Y-92617557D01*
X188751014Y-92653271D01*
X189822442Y-92688985D02*
X189822442Y-93188985D01*
X189501014Y-92688985D02*
X189501014Y-93081842D01*
X189536728Y-93153271D01*
X189608157Y-93188985D01*
X189715300Y-93188985D01*
X189786728Y-93153271D01*
X189822442Y-93117557D01*
X190429585Y-92796128D02*
X190179585Y-92796128D01*
X190179585Y-93188985D02*
X190179585Y-92438985D01*
X190536728Y-92438985D01*
D10*
X176404542Y-109361266D02*
X176452161Y-109408885D01*
X176499780Y-109551742D01*
X176499780Y-109646980D01*
X176452161Y-109789838D01*
X176356923Y-109885076D01*
X176261685Y-109932695D01*
X176071209Y-109980314D01*
X175928352Y-109980314D01*
X175737876Y-109932695D01*
X175642638Y-109885076D01*
X175547400Y-109789838D01*
X175499780Y-109646980D01*
X175499780Y-109551742D01*
X175547400Y-109408885D01*
X175595019Y-109361266D01*
X175499780Y-108456504D02*
X175499780Y-108932695D01*
X175975971Y-108980314D01*
X175928352Y-108932695D01*
X175880733Y-108837457D01*
X175880733Y-108599361D01*
X175928352Y-108504123D01*
X175975971Y-108456504D01*
X176071209Y-108408885D01*
X176309304Y-108408885D01*
X176404542Y-108456504D01*
X176452161Y-108504123D01*
X176499780Y-108599361D01*
X176499780Y-108837457D01*
X176452161Y-108932695D01*
X176404542Y-108980314D01*
D14*
X173910714Y-107232142D02*
X173875000Y-107196428D01*
X173839285Y-107125000D01*
X173839285Y-106946428D01*
X173875000Y-106875000D01*
X173910714Y-106839285D01*
X173982142Y-106803571D01*
X174053571Y-106803571D01*
X174160714Y-106839285D01*
X174589285Y-107267857D01*
X174589285Y-106803571D01*
X173910714Y-106517857D02*
X173875000Y-106482142D01*
X173839285Y-106410714D01*
X173839285Y-106232142D01*
X173875000Y-106160714D01*
X173910714Y-106125000D01*
X173982142Y-106089285D01*
X174053571Y-106089285D01*
X174160714Y-106125000D01*
X174589285Y-106553571D01*
X174589285Y-106089285D01*
X174089285Y-105767857D02*
X174839285Y-105767857D01*
X174125000Y-105767857D02*
X174089285Y-105696428D01*
X174089285Y-105553571D01*
X174125000Y-105482142D01*
X174160714Y-105446428D01*
X174232142Y-105410714D01*
X174446428Y-105410714D01*
X174517857Y-105446428D01*
X174553571Y-105482142D01*
X174589285Y-105553571D01*
X174589285Y-105696428D01*
X174553571Y-105767857D01*
X174196428Y-104839285D02*
X174196428Y-105089285D01*
X174589285Y-105089285D02*
X173839285Y-105089285D01*
X173839285Y-104732142D01*
D10*
X174804342Y-103011266D02*
X174851961Y-103058885D01*
X174899580Y-103201742D01*
X174899580Y-103296980D01*
X174851961Y-103439838D01*
X174756723Y-103535076D01*
X174661485Y-103582695D01*
X174471009Y-103630314D01*
X174328152Y-103630314D01*
X174137676Y-103582695D01*
X174042438Y-103535076D01*
X173947200Y-103439838D01*
X173899580Y-103296980D01*
X173899580Y-103201742D01*
X173947200Y-103058885D01*
X173994819Y-103011266D01*
X173899580Y-102677933D02*
X173899580Y-102058885D01*
X174280533Y-102392219D01*
X174280533Y-102249361D01*
X174328152Y-102154123D01*
X174375771Y-102106504D01*
X174471009Y-102058885D01*
X174709104Y-102058885D01*
X174804342Y-102106504D01*
X174851961Y-102154123D01*
X174899580Y-102249361D01*
X174899580Y-102535076D01*
X174851961Y-102630314D01*
X174804342Y-102677933D01*
D14*
X173960285Y-101244642D02*
X173960285Y-101173214D01*
X173996000Y-101101785D01*
X174031714Y-101066071D01*
X174103142Y-101030357D01*
X174246000Y-100994642D01*
X174424571Y-100994642D01*
X174567428Y-101030357D01*
X174638857Y-101066071D01*
X174674571Y-101101785D01*
X174710285Y-101173214D01*
X174710285Y-101244642D01*
X174674571Y-101316071D01*
X174638857Y-101351785D01*
X174567428Y-101387500D01*
X174424571Y-101423214D01*
X174246000Y-101423214D01*
X174103142Y-101387500D01*
X174031714Y-101351785D01*
X173996000Y-101316071D01*
X173960285Y-101244642D01*
X174638857Y-100673214D02*
X174674571Y-100637500D01*
X174710285Y-100673214D01*
X174674571Y-100708928D01*
X174638857Y-100673214D01*
X174710285Y-100673214D01*
X174710285Y-99923214D02*
X174710285Y-100351785D01*
X174710285Y-100137500D02*
X173960285Y-100137500D01*
X174067428Y-100208928D01*
X174138857Y-100280357D01*
X174174571Y-100351785D01*
X174210285Y-99280357D02*
X174710285Y-99280357D01*
X174210285Y-99601785D02*
X174603142Y-99601785D01*
X174674571Y-99566071D01*
X174710285Y-99494642D01*
X174710285Y-99387500D01*
X174674571Y-99316071D01*
X174638857Y-99280357D01*
X174317428Y-98673214D02*
X174317428Y-98923214D01*
X174710285Y-98923214D02*
X173960285Y-98923214D01*
X173960285Y-98566071D01*
D10*
X175715633Y-93816442D02*
X175668014Y-93864061D01*
X175525157Y-93911680D01*
X175429919Y-93911680D01*
X175287061Y-93864061D01*
X175191823Y-93768823D01*
X175144204Y-93673585D01*
X175096585Y-93483109D01*
X175096585Y-93340252D01*
X175144204Y-93149776D01*
X175191823Y-93054538D01*
X175287061Y-92959300D01*
X175429919Y-92911680D01*
X175525157Y-92911680D01*
X175668014Y-92959300D01*
X175715633Y-93006919D01*
X176572776Y-93245014D02*
X176572776Y-93911680D01*
X176334680Y-92864061D02*
X176096585Y-93578347D01*
X176715633Y-93578347D01*
D14*
X173910714Y-97432142D02*
X173875000Y-97396428D01*
X173839285Y-97325000D01*
X173839285Y-97146428D01*
X173875000Y-97075000D01*
X173910714Y-97039285D01*
X173982142Y-97003571D01*
X174053571Y-97003571D01*
X174160714Y-97039285D01*
X174589285Y-97467857D01*
X174589285Y-97003571D01*
X173910714Y-96717857D02*
X173875000Y-96682142D01*
X173839285Y-96610714D01*
X173839285Y-96432142D01*
X173875000Y-96360714D01*
X173910714Y-96325000D01*
X173982142Y-96289285D01*
X174053571Y-96289285D01*
X174160714Y-96325000D01*
X174589285Y-96753571D01*
X174589285Y-96289285D01*
X174089285Y-95967857D02*
X174839285Y-95967857D01*
X174125000Y-95967857D02*
X174089285Y-95896428D01*
X174089285Y-95753571D01*
X174125000Y-95682142D01*
X174160714Y-95646428D01*
X174232142Y-95610714D01*
X174446428Y-95610714D01*
X174517857Y-95646428D01*
X174553571Y-95682142D01*
X174589285Y-95753571D01*
X174589285Y-95896428D01*
X174553571Y-95967857D01*
X174196428Y-95039285D02*
X174196428Y-95289285D01*
X174589285Y-95289285D02*
X173839285Y-95289285D01*
X173839285Y-94932142D01*
D10*
X195924442Y-105436966D02*
X195972061Y-105484585D01*
X196019680Y-105627442D01*
X196019680Y-105722680D01*
X195972061Y-105865538D01*
X195876823Y-105960776D01*
X195781585Y-106008395D01*
X195591109Y-106056014D01*
X195448252Y-106056014D01*
X195257776Y-106008395D01*
X195162538Y-105960776D01*
X195067300Y-105865538D01*
X195019680Y-105722680D01*
X195019680Y-105627442D01*
X195067300Y-105484585D01*
X195114919Y-105436966D01*
X195114919Y-105056014D02*
X195067300Y-105008395D01*
X195019680Y-104913157D01*
X195019680Y-104675061D01*
X195067300Y-104579823D01*
X195114919Y-104532204D01*
X195210157Y-104484585D01*
X195305395Y-104484585D01*
X195448252Y-104532204D01*
X196019680Y-105103633D01*
X196019680Y-104484585D01*
D14*
X196939285Y-103232142D02*
X196939285Y-103160714D01*
X196975000Y-103089285D01*
X197010714Y-103053571D01*
X197082142Y-103017857D01*
X197225000Y-102982142D01*
X197403571Y-102982142D01*
X197546428Y-103017857D01*
X197617857Y-103053571D01*
X197653571Y-103089285D01*
X197689285Y-103160714D01*
X197689285Y-103232142D01*
X197653571Y-103303571D01*
X197617857Y-103339285D01*
X197546428Y-103375000D01*
X197403571Y-103410714D01*
X197225000Y-103410714D01*
X197082142Y-103375000D01*
X197010714Y-103339285D01*
X196975000Y-103303571D01*
X196939285Y-103232142D01*
X197617857Y-102660714D02*
X197653571Y-102625000D01*
X197689285Y-102660714D01*
X197653571Y-102696428D01*
X197617857Y-102660714D01*
X197689285Y-102660714D01*
X197689285Y-101910714D02*
X197689285Y-102339285D01*
X197689285Y-102125000D02*
X196939285Y-102125000D01*
X197046428Y-102196428D01*
X197117857Y-102267857D01*
X197153571Y-102339285D01*
X197189285Y-101267857D02*
X197689285Y-101267857D01*
X197189285Y-101589285D02*
X197582142Y-101589285D01*
X197653571Y-101553571D01*
X197689285Y-101482142D01*
X197689285Y-101375000D01*
X197653571Y-101303571D01*
X197617857Y-101267857D01*
X197296428Y-100660714D02*
X197296428Y-100910714D01*
X197689285Y-100910714D02*
X196939285Y-100910714D01*
X196939285Y-100553571D01*
D10*
X179433333Y-126952380D02*
X179100000Y-126476190D01*
X178861904Y-126952380D02*
X178861904Y-125952380D01*
X179242857Y-125952380D01*
X179338095Y-126000000D01*
X179385714Y-126047619D01*
X179433333Y-126142857D01*
X179433333Y-126285714D01*
X179385714Y-126380952D01*
X179338095Y-126428571D01*
X179242857Y-126476190D01*
X178861904Y-126476190D01*
X180385714Y-126952380D02*
X179814285Y-126952380D01*
X180100000Y-126952380D02*
X180100000Y-125952380D01*
X180004761Y-126095238D01*
X179909523Y-126190476D01*
X179814285Y-126238095D01*
X188038095Y-100455480D02*
X188038095Y-101265004D01*
X188085714Y-101360242D01*
X188133333Y-101407861D01*
X188228571Y-101455480D01*
X188419047Y-101455480D01*
X188514285Y-101407861D01*
X188561904Y-101360242D01*
X188609523Y-101265004D01*
X188609523Y-100455480D01*
X189609523Y-101455480D02*
X189038095Y-101455480D01*
X189323809Y-101455480D02*
X189323809Y-100455480D01*
X189228571Y-100598338D01*
X189133333Y-100693576D01*
X189038095Y-100741195D01*
D14*
X198689500Y-106760785D02*
X198689500Y-106403642D01*
X198903785Y-106832214D02*
X198153785Y-106582214D01*
X198903785Y-106332214D01*
X198153785Y-106189357D02*
X198153785Y-105760785D01*
X198903785Y-105975071D02*
X198153785Y-105975071D01*
X198903785Y-105510785D02*
X198403785Y-105510785D01*
X198475214Y-105510785D02*
X198439500Y-105475071D01*
X198403785Y-105403642D01*
X198403785Y-105296500D01*
X198439500Y-105225071D01*
X198510928Y-105189357D01*
X198903785Y-105189357D01*
X198510928Y-105189357D02*
X198439500Y-105153642D01*
X198403785Y-105082214D01*
X198403785Y-104975071D01*
X198439500Y-104903642D01*
X198510928Y-104867928D01*
X198903785Y-104867928D01*
X198868071Y-104225071D02*
X198903785Y-104296500D01*
X198903785Y-104439357D01*
X198868071Y-104510785D01*
X198796642Y-104546500D01*
X198510928Y-104546500D01*
X198439500Y-104510785D01*
X198403785Y-104439357D01*
X198403785Y-104296500D01*
X198439500Y-104225071D01*
X198510928Y-104189357D01*
X198582357Y-104189357D01*
X198653785Y-104546500D01*
X198403785Y-103546500D02*
X199010928Y-103546500D01*
X199082357Y-103582214D01*
X199118071Y-103617928D01*
X199153785Y-103689357D01*
X199153785Y-103796500D01*
X199118071Y-103867928D01*
X198868071Y-103546500D02*
X198903785Y-103617928D01*
X198903785Y-103760785D01*
X198868071Y-103832214D01*
X198832357Y-103867928D01*
X198760928Y-103903642D01*
X198546642Y-103903642D01*
X198475214Y-103867928D01*
X198439500Y-103832214D01*
X198403785Y-103760785D01*
X198403785Y-103617928D01*
X198439500Y-103546500D01*
X198903785Y-102867928D02*
X198510928Y-102867928D01*
X198439500Y-102903642D01*
X198403785Y-102975071D01*
X198403785Y-103117928D01*
X198439500Y-103189357D01*
X198868071Y-102867928D02*
X198903785Y-102939357D01*
X198903785Y-103117928D01*
X198868071Y-103189357D01*
X198796642Y-103225071D01*
X198725214Y-103225071D01*
X198653785Y-103189357D01*
X198618071Y-103117928D01*
X198618071Y-102939357D01*
X198582357Y-102867928D01*
X198153785Y-102582214D02*
X198153785Y-102117928D01*
X198439500Y-102367928D01*
X198439500Y-102260785D01*
X198475214Y-102189357D01*
X198510928Y-102153642D01*
X198582357Y-102117928D01*
X198760928Y-102117928D01*
X198832357Y-102153642D01*
X198868071Y-102189357D01*
X198903785Y-102260785D01*
X198903785Y-102475071D01*
X198868071Y-102546500D01*
X198832357Y-102582214D01*
X198225214Y-101832214D02*
X198189500Y-101796500D01*
X198153785Y-101725071D01*
X198153785Y-101546500D01*
X198189500Y-101475071D01*
X198225214Y-101439357D01*
X198296642Y-101403642D01*
X198368071Y-101403642D01*
X198475214Y-101439357D01*
X198903785Y-101867928D01*
X198903785Y-101403642D01*
X198475214Y-100975071D02*
X198439500Y-101046500D01*
X198403785Y-101082214D01*
X198332357Y-101117928D01*
X198296642Y-101117928D01*
X198225214Y-101082214D01*
X198189500Y-101046500D01*
X198153785Y-100975071D01*
X198153785Y-100832214D01*
X198189500Y-100760785D01*
X198225214Y-100725071D01*
X198296642Y-100689357D01*
X198332357Y-100689357D01*
X198403785Y-100725071D01*
X198439500Y-100760785D01*
X198475214Y-100832214D01*
X198475214Y-100975071D01*
X198510928Y-101046500D01*
X198546642Y-101082214D01*
X198618071Y-101117928D01*
X198760928Y-101117928D01*
X198832357Y-101082214D01*
X198868071Y-101046500D01*
X198903785Y-100975071D01*
X198903785Y-100832214D01*
X198868071Y-100760785D01*
X198832357Y-100725071D01*
X198760928Y-100689357D01*
X198618071Y-100689357D01*
X198546642Y-100725071D01*
X198510928Y-100760785D01*
X198475214Y-100832214D01*
X198903785Y-100367928D02*
X198153785Y-100367928D01*
X198153785Y-100082214D01*
X198189500Y-100010785D01*
X198225214Y-99975071D01*
X198296642Y-99939357D01*
X198403785Y-99939357D01*
X198475214Y-99975071D01*
X198510928Y-100010785D01*
X198546642Y-100082214D01*
X198546642Y-100367928D01*
X198618071Y-99617928D02*
X198618071Y-99046500D01*
X198689500Y-98725071D02*
X198689500Y-98367928D01*
X198903785Y-98796500D02*
X198153785Y-98546500D01*
X198903785Y-98296500D01*
X198153785Y-98046500D02*
X198760928Y-98046500D01*
X198832357Y-98010785D01*
X198868071Y-97975071D01*
X198903785Y-97903642D01*
X198903785Y-97760785D01*
X198868071Y-97689357D01*
X198832357Y-97653642D01*
X198760928Y-97617928D01*
X198153785Y-97617928D01*
D10*
X190095238Y-147452380D02*
X190190476Y-147452380D01*
X190285714Y-147500000D01*
X190333333Y-147547619D01*
X190380952Y-147642857D01*
X190428571Y-147833333D01*
X190428571Y-148071428D01*
X190380952Y-148261904D01*
X190333333Y-148357142D01*
X190285714Y-148404761D01*
X190190476Y-148452380D01*
X190095238Y-148452380D01*
X190000000Y-148404761D01*
X189952380Y-148357142D01*
X189904761Y-148261904D01*
X189857142Y-148071428D01*
X189857142Y-147833333D01*
X189904761Y-147642857D01*
X189952380Y-147547619D01*
X190000000Y-147500000D01*
X190095238Y-147452380D01*
X190619047Y-148547619D02*
X191380952Y-148547619D01*
X192142857Y-148452380D02*
X191571428Y-148452380D01*
X191857142Y-148452380D02*
X191857142Y-147452380D01*
X191761904Y-147595238D01*
X191666666Y-147690476D01*
X191571428Y-147738095D01*
X96285714Y-128166666D02*
X96761904Y-128166666D01*
X96190476Y-128452380D02*
X96523809Y-127452380D01*
X96857142Y-128452380D01*
X97714285Y-128452380D02*
X97142857Y-128452380D01*
X97428571Y-128452380D02*
X97428571Y-127452380D01*
X97333333Y-127595238D01*
X97238095Y-127690476D01*
X97142857Y-127738095D01*
X111738095Y-148166666D02*
X112214285Y-148166666D01*
X111642857Y-148452380D02*
X111976190Y-147452380D01*
X112309523Y-148452380D01*
X112785714Y-148452380D02*
X112690476Y-148404761D01*
X112642857Y-148309523D01*
X112642857Y-147452380D01*
X113023809Y-147785714D02*
X113404761Y-147785714D01*
X113166666Y-147452380D02*
X113166666Y-148309523D01*
X113214285Y-148404761D01*
X113309523Y-148452380D01*
X113404761Y-148452380D01*
X114261904Y-148452380D02*
X113690476Y-148452380D01*
X113976190Y-148452380D02*
X113976190Y-147452380D01*
X113880952Y-147595238D01*
X113785714Y-147690476D01*
X113690476Y-147738095D01*
X158500000Y-148166666D02*
X158976190Y-148166666D01*
X158404761Y-148452380D02*
X158738095Y-147452380D01*
X159071428Y-148452380D01*
X159880952Y-148452380D02*
X159404761Y-148452380D01*
X159404761Y-147452380D01*
X160071428Y-147452380D02*
X160642857Y-147452380D01*
X160357142Y-148452380D02*
X160357142Y-147452380D01*
X161500000Y-147500000D02*
X161404761Y-147452380D01*
X161261904Y-147452380D01*
X161119047Y-147500000D01*
X161023809Y-147595238D01*
X160976190Y-147690476D01*
X160928571Y-147880952D01*
X160928571Y-148023809D01*
X160976190Y-148214285D01*
X161023809Y-148309523D01*
X161119047Y-148404761D01*
X161261904Y-148452380D01*
X161357142Y-148452380D01*
X161500000Y-148404761D01*
X161547619Y-148357142D01*
X161547619Y-148023809D01*
X161357142Y-148023809D01*
X162547619Y-148452380D02*
X162214285Y-147976190D01*
X161976190Y-148452380D02*
X161976190Y-147452380D01*
X162357142Y-147452380D01*
X162452380Y-147500000D01*
X162500000Y-147547619D01*
X162547619Y-147642857D01*
X162547619Y-147785714D01*
X162500000Y-147880952D01*
X162452380Y-147928571D01*
X162357142Y-147976190D01*
X161976190Y-147976190D01*
X163500000Y-148452380D02*
X162928571Y-148452380D01*
X163214285Y-148452380D02*
X163214285Y-147452380D01*
X163119047Y-147595238D01*
X163023809Y-147690476D01*
X162928571Y-147738095D01*
X136595238Y-137928571D02*
X136738095Y-137976190D01*
X136785714Y-138023809D01*
X136833333Y-138119047D01*
X136833333Y-138261904D01*
X136785714Y-138357142D01*
X136738095Y-138404761D01*
X136642857Y-138452380D01*
X136261904Y-138452380D01*
X136261904Y-137452380D01*
X136595238Y-137452380D01*
X136690476Y-137500000D01*
X136738095Y-137547619D01*
X136785714Y-137642857D01*
X136785714Y-137738095D01*
X136738095Y-137833333D01*
X136690476Y-137880952D01*
X136595238Y-137928571D01*
X136261904Y-137928571D01*
X137785714Y-138452380D02*
X137214285Y-138452380D01*
X137500000Y-138452380D02*
X137500000Y-137452380D01*
X137404761Y-137595238D01*
X137309523Y-137690476D01*
X137214285Y-137738095D01*
X167261904Y-127928571D02*
X167404761Y-127976190D01*
X167452380Y-128023809D01*
X167500000Y-128119047D01*
X167500000Y-128261904D01*
X167452380Y-128357142D01*
X167404761Y-128404761D01*
X167309523Y-128452380D01*
X166928571Y-128452380D01*
X166928571Y-127452380D01*
X167261904Y-127452380D01*
X167357142Y-127500000D01*
X167404761Y-127547619D01*
X167452380Y-127642857D01*
X167452380Y-127738095D01*
X167404761Y-127833333D01*
X167357142Y-127880952D01*
X167261904Y-127928571D01*
X166928571Y-127928571D01*
X167928571Y-128452380D02*
X167928571Y-127452380D01*
X168023809Y-128071428D02*
X168309523Y-128452380D01*
X168309523Y-127785714D02*
X167928571Y-128166666D01*
X168690476Y-128404761D02*
X168833333Y-128452380D01*
X169071428Y-128452380D01*
X169166666Y-128404761D01*
X169214285Y-128357142D01*
X169261904Y-128261904D01*
X169261904Y-128166666D01*
X169214285Y-128071428D01*
X169166666Y-128023809D01*
X169071428Y-127976190D01*
X168880952Y-127928571D01*
X168785714Y-127880952D01*
X168738095Y-127833333D01*
X168690476Y-127738095D01*
X168690476Y-127642857D01*
X168738095Y-127547619D01*
X168785714Y-127500000D01*
X168880952Y-127452380D01*
X169119047Y-127452380D01*
X169261904Y-127500000D01*
X169690476Y-127785714D02*
X169690476Y-128785714D01*
X169690476Y-127833333D02*
X169785714Y-127785714D01*
X169976190Y-127785714D01*
X170071428Y-127833333D01*
X170119047Y-127880952D01*
X170166666Y-127976190D01*
X170166666Y-128261904D01*
X170119047Y-128357142D01*
X170071428Y-128404761D01*
X169976190Y-128452380D01*
X169785714Y-128452380D01*
X169690476Y-128404761D01*
X171119047Y-128452380D02*
X170547619Y-128452380D01*
X170833333Y-128452380D02*
X170833333Y-127452380D01*
X170738095Y-127595238D01*
X170642857Y-127690476D01*
X170547619Y-127738095D01*
X120833333Y-138357142D02*
X120785714Y-138404761D01*
X120642857Y-138452380D01*
X120547619Y-138452380D01*
X120404761Y-138404761D01*
X120309523Y-138309523D01*
X120261904Y-138214285D01*
X120214285Y-138023809D01*
X120214285Y-137880952D01*
X120261904Y-137690476D01*
X120309523Y-137595238D01*
X120404761Y-137500000D01*
X120547619Y-137452380D01*
X120642857Y-137452380D01*
X120785714Y-137500000D01*
X120833333Y-137547619D01*
X121690476Y-137452380D02*
X121500000Y-137452380D01*
X121404761Y-137500000D01*
X121357142Y-137547619D01*
X121261904Y-137690476D01*
X121214285Y-137880952D01*
X121214285Y-138261904D01*
X121261904Y-138357142D01*
X121309523Y-138404761D01*
X121404761Y-138452380D01*
X121595238Y-138452380D01*
X121690476Y-138404761D01*
X121738095Y-138357142D01*
X121785714Y-138261904D01*
X121785714Y-138023809D01*
X121738095Y-137928571D01*
X121690476Y-137880952D01*
X121595238Y-137833333D01*
X121404761Y-137833333D01*
X121309523Y-137880952D01*
X121261904Y-137928571D01*
X121214285Y-138023809D01*
X95547619Y-148357142D02*
X95500000Y-148404761D01*
X95357142Y-148452380D01*
X95261904Y-148452380D01*
X95119047Y-148404761D01*
X95023809Y-148309523D01*
X94976190Y-148214285D01*
X94928571Y-148023809D01*
X94928571Y-147880952D01*
X94976190Y-147690476D01*
X95023809Y-147595238D01*
X95119047Y-147500000D01*
X95261904Y-147452380D01*
X95357142Y-147452380D01*
X95500000Y-147500000D01*
X95547619Y-147547619D01*
X95833333Y-147452380D02*
X96404761Y-147452380D01*
X96119047Y-148452380D02*
X96119047Y-147452380D01*
X97309523Y-148452380D02*
X96976190Y-147976190D01*
X96738095Y-148452380D02*
X96738095Y-147452380D01*
X97119047Y-147452380D01*
X97214285Y-147500000D01*
X97261904Y-147547619D01*
X97309523Y-147642857D01*
X97309523Y-147785714D01*
X97261904Y-147880952D01*
X97214285Y-147928571D01*
X97119047Y-147976190D01*
X96738095Y-147976190D01*
X98214285Y-148452380D02*
X97738095Y-148452380D01*
X97738095Y-147452380D01*
X99071428Y-148452380D02*
X98500000Y-148452380D01*
X98785714Y-148452380D02*
X98785714Y-147452380D01*
X98690476Y-147595238D01*
X98595238Y-147690476D01*
X98500000Y-147738095D01*
X112261904Y-128452380D02*
X112261904Y-127452380D01*
X112500000Y-127452380D01*
X112642857Y-127500000D01*
X112738095Y-127595238D01*
X112785714Y-127690476D01*
X112833333Y-127880952D01*
X112833333Y-128023809D01*
X112785714Y-128214285D01*
X112738095Y-128309523D01*
X112642857Y-128404761D01*
X112500000Y-128452380D01*
X112261904Y-128452380D01*
X113785714Y-128452380D02*
X113214285Y-128452380D01*
X113500000Y-128452380D02*
X113500000Y-127452380D01*
X113404761Y-127595238D01*
X113309523Y-127690476D01*
X113214285Y-127738095D01*
X185189148Y-129633819D02*
X184658818Y-129103489D01*
X184785087Y-128977220D01*
X184886102Y-128926713D01*
X184987118Y-128926713D01*
X185062879Y-128951966D01*
X185189148Y-129027728D01*
X185264910Y-129103489D01*
X185340671Y-129229758D01*
X185365925Y-129305520D01*
X185365925Y-129406535D01*
X185315417Y-129507550D01*
X185189148Y-129633819D01*
X185795240Y-129027728D02*
X185719478Y-129052982D01*
X185668971Y-129052982D01*
X185593209Y-129027728D01*
X185441686Y-128876205D01*
X185416432Y-128800443D01*
X185416432Y-128749936D01*
X185441686Y-128674174D01*
X185517448Y-128598413D01*
X185593209Y-128573159D01*
X185643717Y-128573159D01*
X185719478Y-128598413D01*
X185871001Y-128749936D01*
X185896255Y-128825697D01*
X185896255Y-128876205D01*
X185871001Y-128951966D01*
X185795240Y-129027728D01*
X185795240Y-128320621D02*
X186249808Y-128573159D01*
X186098285Y-128219606D01*
X186451839Y-128371129D01*
X186199301Y-127916560D01*
X186401331Y-127714529D02*
X186754885Y-128068083D01*
X186451839Y-127765037D02*
X186451839Y-127714529D01*
X186477093Y-127638768D01*
X186552854Y-127563007D01*
X186628616Y-127537753D01*
X186704377Y-127563007D01*
X186982169Y-127840799D01*
X187057930Y-127461991D02*
X187310468Y-127209453D01*
X187158946Y-127664022D02*
X186805392Y-126956915D01*
X187512499Y-127310468D01*
X187689276Y-127133692D02*
X187335722Y-126780138D01*
X187436738Y-126881154D02*
X187411484Y-126805392D01*
X187411484Y-126754885D01*
X187436738Y-126679123D01*
X187487245Y-126628616D01*
X188017575Y-126805392D02*
X187664022Y-126451839D01*
X187765037Y-126552854D02*
X187739783Y-126477093D01*
X187739783Y-126426585D01*
X187765037Y-126350824D01*
X187815545Y-126300316D01*
X188421636Y-126401331D02*
X188345875Y-126426585D01*
X188295367Y-126426585D01*
X188219606Y-126401331D01*
X188068083Y-126249808D01*
X188042829Y-126174047D01*
X188042829Y-126123539D01*
X188068083Y-126047778D01*
X188143844Y-125972016D01*
X188219606Y-125946763D01*
X188270113Y-125946763D01*
X188345875Y-125972016D01*
X188497398Y-126123539D01*
X188522652Y-126199301D01*
X188522652Y-126249808D01*
X188497398Y-126325570D01*
X188421636Y-126401331D01*
X188421636Y-125694224D02*
X188876205Y-125946763D01*
X188724682Y-125593209D01*
X189078235Y-125744732D01*
X188825697Y-125290163D01*
X189659073Y-125163894D02*
X189356027Y-125466940D01*
X189507550Y-125315417D02*
X188977220Y-124785087D01*
X189002474Y-124911356D01*
X189002474Y-125012371D01*
X188977220Y-125088133D01*
X112309523Y-117928571D02*
X112642857Y-117928571D01*
X112785714Y-118452380D02*
X112309523Y-118452380D01*
X112309523Y-117452380D01*
X112785714Y-117452380D01*
X113738095Y-118452380D02*
X113166666Y-118452380D01*
X113452380Y-118452380D02*
X113452380Y-117452380D01*
X113357142Y-117595238D01*
X113261904Y-117690476D01*
X113166666Y-117738095D01*
X95333333Y-97928571D02*
X95666666Y-97928571D01*
X95809523Y-98452380D02*
X95333333Y-98452380D01*
X95333333Y-97452380D01*
X95809523Y-97452380D01*
X96190476Y-98404761D02*
X96333333Y-98452380D01*
X96571428Y-98452380D01*
X96666666Y-98404761D01*
X96714285Y-98357142D01*
X96761904Y-98261904D01*
X96761904Y-98166666D01*
X96714285Y-98071428D01*
X96666666Y-98023809D01*
X96571428Y-97976190D01*
X96380952Y-97928571D01*
X96285714Y-97880952D01*
X96238095Y-97833333D01*
X96190476Y-97738095D01*
X96190476Y-97642857D01*
X96238095Y-97547619D01*
X96285714Y-97500000D01*
X96380952Y-97452380D01*
X96619047Y-97452380D01*
X96761904Y-97500000D01*
X97761904Y-98357142D02*
X97714285Y-98404761D01*
X97571428Y-98452380D01*
X97476190Y-98452380D01*
X97333333Y-98404761D01*
X97238095Y-98309523D01*
X97190476Y-98214285D01*
X97142857Y-98023809D01*
X97142857Y-97880952D01*
X97190476Y-97690476D01*
X97238095Y-97595238D01*
X97333333Y-97500000D01*
X97476190Y-97452380D01*
X97571428Y-97452380D01*
X97714285Y-97500000D01*
X97761904Y-97547619D01*
X98714285Y-98452380D02*
X98142857Y-98452380D01*
X98428571Y-98452380D02*
X98428571Y-97452380D01*
X98333333Y-97595238D01*
X98238095Y-97690476D01*
X98142857Y-97738095D01*
X95285714Y-137928571D02*
X95619047Y-137928571D01*
X95761904Y-138452380D02*
X95285714Y-138452380D01*
X95285714Y-137452380D01*
X95761904Y-137452380D01*
X96190476Y-137452380D02*
X96190476Y-138261904D01*
X96238095Y-138357142D01*
X96285714Y-138404761D01*
X96380952Y-138452380D01*
X96571428Y-138452380D01*
X96666666Y-138404761D01*
X96714285Y-138357142D01*
X96761904Y-138261904D01*
X96761904Y-137452380D01*
X97809523Y-138452380D02*
X97476190Y-137976190D01*
X97238095Y-138452380D02*
X97238095Y-137452380D01*
X97619047Y-137452380D01*
X97714285Y-137500000D01*
X97761904Y-137547619D01*
X97809523Y-137642857D01*
X97809523Y-137785714D01*
X97761904Y-137880952D01*
X97714285Y-137928571D01*
X97619047Y-137976190D01*
X97238095Y-137976190D01*
X98761904Y-138452380D02*
X98190476Y-138452380D01*
X98476190Y-138452380D02*
X98476190Y-137452380D01*
X98380952Y-137595238D01*
X98285714Y-137690476D01*
X98190476Y-137738095D01*
X120666666Y-127928571D02*
X120333333Y-127928571D01*
X120333333Y-128452380D02*
X120333333Y-127452380D01*
X120809523Y-127452380D01*
X121714285Y-128452380D02*
X121142857Y-128452380D01*
X121428571Y-128452380D02*
X121428571Y-127452380D01*
X121333333Y-127595238D01*
X121238095Y-127690476D01*
X121142857Y-127738095D01*
X112214285Y-97928571D02*
X111880952Y-97928571D01*
X111880952Y-98452380D02*
X111880952Y-97452380D01*
X112357142Y-97452380D01*
X112738095Y-97785714D02*
X112738095Y-98452380D01*
X112738095Y-97880952D02*
X112785714Y-97833333D01*
X112880952Y-97785714D01*
X113023809Y-97785714D01*
X113119047Y-97833333D01*
X113166666Y-97928571D01*
X113166666Y-98452380D01*
X113595238Y-97547619D02*
X113642857Y-97500000D01*
X113738095Y-97452380D01*
X113976190Y-97452380D01*
X114071428Y-97500000D01*
X114119047Y-97547619D01*
X114166666Y-97642857D01*
X114166666Y-97738095D01*
X114119047Y-97880952D01*
X113547619Y-98452380D01*
X114166666Y-98452380D01*
X120214285Y-97928571D02*
X119880952Y-97928571D01*
X119880952Y-98452380D02*
X119880952Y-97452380D01*
X120357142Y-97452380D01*
X120738095Y-97785714D02*
X120738095Y-98452380D01*
X120738095Y-97880952D02*
X120785714Y-97833333D01*
X120880952Y-97785714D01*
X121023809Y-97785714D01*
X121119047Y-97833333D01*
X121166666Y-97928571D01*
X121166666Y-98452380D01*
X121547619Y-97452380D02*
X122166666Y-97452380D01*
X121833333Y-97833333D01*
X121976190Y-97833333D01*
X122071428Y-97880952D01*
X122119047Y-97928571D01*
X122166666Y-98023809D01*
X122166666Y-98261904D01*
X122119047Y-98357142D01*
X122071428Y-98404761D01*
X121976190Y-98452380D01*
X121690476Y-98452380D01*
X121595238Y-98404761D01*
X121547619Y-98357142D01*
X128214285Y-97928571D02*
X127880952Y-97928571D01*
X127880952Y-98452380D02*
X127880952Y-97452380D01*
X128357142Y-97452380D01*
X128738095Y-97785714D02*
X128738095Y-98452380D01*
X128738095Y-97880952D02*
X128785714Y-97833333D01*
X128880952Y-97785714D01*
X129023809Y-97785714D01*
X129119047Y-97833333D01*
X129166666Y-97928571D01*
X129166666Y-98452380D01*
X130071428Y-97785714D02*
X130071428Y-98452380D01*
X129833333Y-97404761D02*
X129595238Y-98119047D01*
X130214285Y-98119047D01*
X136214285Y-97928571D02*
X135880952Y-97928571D01*
X135880952Y-98452380D02*
X135880952Y-97452380D01*
X136357142Y-97452380D01*
X136738095Y-97785714D02*
X136738095Y-98452380D01*
X136738095Y-97880952D02*
X136785714Y-97833333D01*
X136880952Y-97785714D01*
X137023809Y-97785714D01*
X137119047Y-97833333D01*
X137166666Y-97928571D01*
X137166666Y-98452380D01*
X138119047Y-97452380D02*
X137642857Y-97452380D01*
X137595238Y-97928571D01*
X137642857Y-97880952D01*
X137738095Y-97833333D01*
X137976190Y-97833333D01*
X138071428Y-97880952D01*
X138119047Y-97928571D01*
X138166666Y-98023809D01*
X138166666Y-98261904D01*
X138119047Y-98357142D01*
X138071428Y-98404761D01*
X137976190Y-98452380D01*
X137738095Y-98452380D01*
X137642857Y-98404761D01*
X137595238Y-98357142D01*
X128785714Y-127500000D02*
X128690476Y-127452380D01*
X128547619Y-127452380D01*
X128404761Y-127500000D01*
X128309523Y-127595238D01*
X128261904Y-127690476D01*
X128214285Y-127880952D01*
X128214285Y-128023809D01*
X128261904Y-128214285D01*
X128309523Y-128309523D01*
X128404761Y-128404761D01*
X128547619Y-128452380D01*
X128642857Y-128452380D01*
X128785714Y-128404761D01*
X128833333Y-128357142D01*
X128833333Y-128023809D01*
X128642857Y-128023809D01*
X129785714Y-128452380D02*
X129214285Y-128452380D01*
X129500000Y-128452380D02*
X129500000Y-127452380D01*
X129404761Y-127595238D01*
X129309523Y-127690476D01*
X129214285Y-127738095D01*
X136238095Y-128452380D02*
X136238095Y-127452380D01*
X136238095Y-127928571D02*
X136809523Y-127928571D01*
X136809523Y-128452380D02*
X136809523Y-127452380D01*
X137809523Y-128452380D02*
X137238095Y-128452380D01*
X137523809Y-128452380D02*
X137523809Y-127452380D01*
X137428571Y-127595238D01*
X137333333Y-127690476D01*
X137238095Y-127738095D01*
X152523809Y-118452380D02*
X152523809Y-117452380D01*
X153523809Y-118452380D02*
X152952380Y-118452380D01*
X153238095Y-118452380D02*
X153238095Y-117452380D01*
X153142857Y-117595238D01*
X153047619Y-117690476D01*
X152952380Y-117738095D01*
X144666666Y-127452380D02*
X144666666Y-128166666D01*
X144619047Y-128309523D01*
X144523809Y-128404761D01*
X144380952Y-128452380D01*
X144285714Y-128452380D01*
X145047619Y-127452380D02*
X145666666Y-127452380D01*
X145333333Y-127833333D01*
X145476190Y-127833333D01*
X145571428Y-127880952D01*
X145619047Y-127928571D01*
X145666666Y-128023809D01*
X145666666Y-128261904D01*
X145619047Y-128357142D01*
X145571428Y-128404761D01*
X145476190Y-128452380D01*
X145190476Y-128452380D01*
X145095238Y-128404761D01*
X145047619Y-128357142D01*
X152261904Y-128452380D02*
X152261904Y-127452380D01*
X152833333Y-128452380D02*
X152404761Y-127880952D01*
X152833333Y-127452380D02*
X152261904Y-128023809D01*
X153785714Y-128452380D02*
X153214285Y-128452380D01*
X153500000Y-128452380D02*
X153500000Y-127452380D01*
X153404761Y-127595238D01*
X153309523Y-127690476D01*
X153214285Y-127738095D01*
X160833333Y-128452380D02*
X160357142Y-128452380D01*
X160357142Y-127452380D01*
X161690476Y-128452380D02*
X161119047Y-128452380D01*
X161404761Y-128452380D02*
X161404761Y-127452380D01*
X161309523Y-127595238D01*
X161214285Y-127690476D01*
X161119047Y-127738095D01*
X178896510Y-119719478D02*
X178643972Y-119466940D01*
X179174302Y-118936610D01*
X179300571Y-120073032D02*
X179224809Y-120047778D01*
X179123794Y-119946763D01*
X179098540Y-119871001D01*
X179123794Y-119795240D01*
X179325825Y-119593209D01*
X179401586Y-119567955D01*
X179477347Y-119593209D01*
X179578363Y-119694224D01*
X179603617Y-119769986D01*
X179578363Y-119845747D01*
X179527855Y-119896255D01*
X179224809Y-119694224D01*
X179805647Y-119921509D02*
X180007678Y-120123539D01*
X179527855Y-120350824D02*
X179982424Y-119896255D01*
X180058185Y-119871001D01*
X180133947Y-119896255D01*
X180184454Y-119946763D01*
X180108693Y-120224554D02*
X180310723Y-120426585D01*
X180361231Y-120123539D02*
X179906662Y-120578108D01*
X179881408Y-120653869D01*
X179906662Y-120729631D01*
X179957170Y-120780138D01*
X180260216Y-120780138D02*
X180512754Y-121032677D01*
X180058185Y-120881154D02*
X180765292Y-120527600D01*
X180411739Y-121234707D01*
X180588515Y-121411484D02*
X180942069Y-121057930D01*
X180841053Y-121158946D02*
X180916815Y-121133692D01*
X180967322Y-121133692D01*
X181043084Y-121158946D01*
X181093592Y-121209453D01*
X180916815Y-121739783D02*
X181270368Y-121386230D01*
X181169353Y-121487245D02*
X181245114Y-121461991D01*
X181295622Y-121461991D01*
X181371383Y-121487245D01*
X181421891Y-121537753D01*
X181320876Y-122143844D02*
X181295622Y-122068083D01*
X181295622Y-122017575D01*
X181320876Y-121941814D01*
X181472399Y-121790291D01*
X181548160Y-121765037D01*
X181598668Y-121765037D01*
X181674429Y-121790291D01*
X181750191Y-121866052D01*
X181775445Y-121941814D01*
X181775445Y-121992321D01*
X181750191Y-122068083D01*
X181598668Y-122219606D01*
X181522906Y-122244860D01*
X181472399Y-122244860D01*
X181396637Y-122219606D01*
X181320876Y-122143844D01*
X182027983Y-122143844D02*
X181775445Y-122598413D01*
X182128998Y-122446890D01*
X181977475Y-122800443D01*
X182432044Y-122547905D01*
X182558313Y-123381281D02*
X182255267Y-123078235D01*
X182406790Y-123229758D02*
X182937120Y-122699428D01*
X182810851Y-122724682D01*
X182709836Y-122724682D01*
X182634074Y-122699428D01*
X152190476Y-138452380D02*
X152190476Y-137452380D01*
X152523809Y-138166666D01*
X152857142Y-137452380D01*
X152857142Y-138452380D01*
X153857142Y-138452380D02*
X153285714Y-138452380D01*
X153571428Y-138452380D02*
X153571428Y-137452380D01*
X153476190Y-137595238D01*
X153380952Y-137690476D01*
X153285714Y-137738095D01*
X144238095Y-138452380D02*
X144238095Y-137452380D01*
X144809523Y-138452380D01*
X144809523Y-137452380D01*
X145809523Y-138452380D02*
X145238095Y-138452380D01*
X145523809Y-138452380D02*
X145523809Y-137452380D01*
X145428571Y-137595238D01*
X145333333Y-137690476D01*
X145238095Y-137738095D01*
X160428571Y-117452380D02*
X160619047Y-117452380D01*
X160714285Y-117500000D01*
X160809523Y-117595238D01*
X160857142Y-117785714D01*
X160857142Y-118119047D01*
X160809523Y-118309523D01*
X160714285Y-118404761D01*
X160619047Y-118452380D01*
X160428571Y-118452380D01*
X160333333Y-118404761D01*
X160238095Y-118309523D01*
X160190476Y-118119047D01*
X160190476Y-117785714D01*
X160238095Y-117595238D01*
X160333333Y-117500000D01*
X160428571Y-117452380D01*
X161809523Y-118452380D02*
X161238095Y-118452380D01*
X161523809Y-118452380D02*
X161523809Y-117452380D01*
X161428571Y-117595238D01*
X161333333Y-117690476D01*
X161238095Y-117738095D01*
X168261904Y-118452380D02*
X168261904Y-117452380D01*
X168642857Y-117452380D01*
X168738095Y-117500000D01*
X168785714Y-117547619D01*
X168833333Y-117642857D01*
X168833333Y-117785714D01*
X168785714Y-117880952D01*
X168738095Y-117928571D01*
X168642857Y-117976190D01*
X168261904Y-117976190D01*
X169785714Y-118452380D02*
X169214285Y-118452380D01*
X169500000Y-118452380D02*
X169500000Y-117452380D01*
X169404761Y-117595238D01*
X169309523Y-117690476D01*
X169214285Y-117738095D01*
X96904761Y-118547619D02*
X96809523Y-118500000D01*
X96714285Y-118404761D01*
X96571428Y-118261904D01*
X96476190Y-118214285D01*
X96380952Y-118214285D01*
X96428571Y-118452380D02*
X96333333Y-118404761D01*
X96238095Y-118309523D01*
X96190476Y-118119047D01*
X96190476Y-117785714D01*
X96238095Y-117595238D01*
X96333333Y-117500000D01*
X96428571Y-117452380D01*
X96619047Y-117452380D01*
X96714285Y-117500000D01*
X96809523Y-117595238D01*
X96857142Y-117785714D01*
X96857142Y-118119047D01*
X96809523Y-118309523D01*
X96714285Y-118404761D01*
X96619047Y-118452380D01*
X96428571Y-118452380D01*
X97809523Y-118452380D02*
X97238095Y-118452380D01*
X97523809Y-118452380D02*
X97523809Y-117452380D01*
X97428571Y-117595238D01*
X97333333Y-117690476D01*
X97238095Y-117738095D01*
X120833333Y-118452380D02*
X120500000Y-117976190D01*
X120261904Y-118452380D02*
X120261904Y-117452380D01*
X120642857Y-117452380D01*
X120738095Y-117500000D01*
X120785714Y-117547619D01*
X120833333Y-117642857D01*
X120833333Y-117785714D01*
X120785714Y-117880952D01*
X120738095Y-117928571D01*
X120642857Y-117976190D01*
X120261904Y-117976190D01*
X121214285Y-117547619D02*
X121261904Y-117500000D01*
X121357142Y-117452380D01*
X121595238Y-117452380D01*
X121690476Y-117500000D01*
X121738095Y-117547619D01*
X121785714Y-117642857D01*
X121785714Y-117738095D01*
X121738095Y-117880952D01*
X121166666Y-118452380D01*
X121785714Y-118452380D01*
X168119047Y-138452380D02*
X167785714Y-137976190D01*
X167547619Y-138452380D02*
X167547619Y-137452380D01*
X167928571Y-137452380D01*
X168023809Y-137500000D01*
X168071428Y-137547619D01*
X168119047Y-137642857D01*
X168119047Y-137785714D01*
X168071428Y-137880952D01*
X168023809Y-137928571D01*
X167928571Y-137976190D01*
X167547619Y-137976190D01*
X168928571Y-138404761D02*
X168833333Y-138452380D01*
X168642857Y-138452380D01*
X168547619Y-138404761D01*
X168500000Y-138309523D01*
X168500000Y-137928571D01*
X168547619Y-137833333D01*
X168642857Y-137785714D01*
X168833333Y-137785714D01*
X168928571Y-137833333D01*
X168976190Y-137928571D01*
X168976190Y-138023809D01*
X168500000Y-138119047D01*
X169261904Y-137785714D02*
X169642857Y-137785714D01*
X169404761Y-137452380D02*
X169404761Y-138309523D01*
X169452380Y-138404761D01*
X169547619Y-138452380D01*
X169642857Y-138452380D01*
X170500000Y-138452380D02*
X169928571Y-138452380D01*
X170214285Y-138452380D02*
X170214285Y-137452380D01*
X170119047Y-137595238D01*
X170023809Y-137690476D01*
X169928571Y-137738095D01*
X190719225Y-119442194D02*
X190794987Y-119012879D01*
X190416180Y-119139148D02*
X190946510Y-118608818D01*
X191148540Y-118810849D01*
X191173794Y-118886610D01*
X191173794Y-118937118D01*
X191148540Y-119012879D01*
X191072779Y-119088641D01*
X190997017Y-119113894D01*
X190946510Y-119113894D01*
X190870748Y-119088641D01*
X190668718Y-118886610D01*
X190946510Y-119669478D02*
X191300063Y-119315925D01*
X191476840Y-119139148D02*
X191426332Y-119139148D01*
X191426332Y-119189656D01*
X191476840Y-119189656D01*
X191476840Y-119139148D01*
X191426332Y-119189656D01*
X191779886Y-119795747D02*
X191350571Y-120225062D01*
X191274809Y-120250316D01*
X191224302Y-120250316D01*
X191148540Y-120225062D01*
X191072779Y-120149301D01*
X191047525Y-120073539D01*
X191451586Y-120124047D02*
X191375825Y-120098793D01*
X191274809Y-119997778D01*
X191249556Y-119922016D01*
X191249556Y-119871509D01*
X191274809Y-119795747D01*
X191426332Y-119644224D01*
X191502094Y-119618971D01*
X191552601Y-119618971D01*
X191628363Y-119644224D01*
X191729378Y-119745240D01*
X191754632Y-119821001D01*
X191678870Y-120401839D02*
X192209200Y-119871509D01*
X191906155Y-120629123D02*
X192183947Y-120351331D01*
X192209200Y-120275570D01*
X192183947Y-120199808D01*
X192108185Y-120124047D01*
X192032424Y-120098793D01*
X191981916Y-120098793D01*
X192436485Y-120452346D02*
X192638515Y-120654377D01*
X192689023Y-120351331D02*
X192234454Y-120805900D01*
X192209200Y-120881661D01*
X192234454Y-120957423D01*
X192284962Y-121007930D01*
X192588008Y-121007930D02*
X192840546Y-121260468D01*
X192385977Y-121108946D02*
X193093084Y-120755392D01*
X192739531Y-121462499D01*
X192916307Y-121639276D02*
X193269861Y-121285722D01*
X193168845Y-121386738D02*
X193244607Y-121361484D01*
X193295114Y-121361484D01*
X193370876Y-121386738D01*
X193421383Y-121437245D01*
X193244607Y-121967575D02*
X193598160Y-121614022D01*
X193497145Y-121715037D02*
X193572906Y-121689783D01*
X193623414Y-121689783D01*
X193699175Y-121715037D01*
X193749683Y-121765545D01*
X193648668Y-122371636D02*
X193623414Y-122295875D01*
X193623414Y-122245367D01*
X193648668Y-122169606D01*
X193800191Y-122018083D01*
X193875952Y-121992829D01*
X193926460Y-121992829D01*
X194002221Y-122018083D01*
X194077983Y-122093844D01*
X194103236Y-122169606D01*
X194103236Y-122220113D01*
X194077983Y-122295875D01*
X193926460Y-122447398D01*
X193850698Y-122472652D01*
X193800191Y-122472652D01*
X193724429Y-122447398D01*
X193648668Y-122371636D01*
X194355775Y-122371636D02*
X194103236Y-122826205D01*
X194456790Y-122674682D01*
X194305267Y-123028235D01*
X194759836Y-122775697D01*
X194886105Y-123609073D02*
X194583059Y-123306027D01*
X194734582Y-123457550D02*
X195264912Y-122927220D01*
X195138643Y-122952474D01*
X195037628Y-122952474D01*
X194961866Y-122927220D01*
X104238095Y-128404761D02*
X104380952Y-128452380D01*
X104619047Y-128452380D01*
X104714285Y-128404761D01*
X104761904Y-128357142D01*
X104809523Y-128261904D01*
X104809523Y-128166666D01*
X104761904Y-128071428D01*
X104714285Y-128023809D01*
X104619047Y-127976190D01*
X104428571Y-127928571D01*
X104333333Y-127880952D01*
X104285714Y-127833333D01*
X104238095Y-127738095D01*
X104238095Y-127642857D01*
X104285714Y-127547619D01*
X104333333Y-127500000D01*
X104428571Y-127452380D01*
X104666666Y-127452380D01*
X104809523Y-127500000D01*
X105761904Y-128452380D02*
X105190476Y-128452380D01*
X105476190Y-128452380D02*
X105476190Y-127452380D01*
X105380952Y-127595238D01*
X105285714Y-127690476D01*
X105190476Y-127738095D01*
X102976190Y-148404761D02*
X103119047Y-148452380D01*
X103357142Y-148452380D01*
X103452380Y-148404761D01*
X103500000Y-148357142D01*
X103547619Y-148261904D01*
X103547619Y-148166666D01*
X103500000Y-148071428D01*
X103452380Y-148023809D01*
X103357142Y-147976190D01*
X103166666Y-147928571D01*
X103071428Y-147880952D01*
X103023809Y-147833333D01*
X102976190Y-147738095D01*
X102976190Y-147642857D01*
X103023809Y-147547619D01*
X103071428Y-147500000D01*
X103166666Y-147452380D01*
X103404761Y-147452380D01*
X103547619Y-147500000D01*
X103976190Y-148452380D02*
X103976190Y-147452380D01*
X104404761Y-148452380D02*
X104404761Y-147928571D01*
X104357142Y-147833333D01*
X104261904Y-147785714D01*
X104119047Y-147785714D01*
X104023809Y-147833333D01*
X103976190Y-147880952D01*
X104880952Y-148452380D02*
X104880952Y-147785714D01*
X104880952Y-147452380D02*
X104833333Y-147500000D01*
X104880952Y-147547619D01*
X104928571Y-147500000D01*
X104880952Y-147452380D01*
X104880952Y-147547619D01*
X105214285Y-147785714D02*
X105595238Y-147785714D01*
X105357142Y-148452380D02*
X105357142Y-147595238D01*
X105404761Y-147500000D01*
X105500000Y-147452380D01*
X105595238Y-147452380D01*
X105785714Y-147785714D02*
X106166666Y-147785714D01*
X105928571Y-147452380D02*
X105928571Y-148309523D01*
X105976190Y-148404761D01*
X106071428Y-148452380D01*
X106166666Y-148452380D01*
X107023809Y-148452380D02*
X106452380Y-148452380D01*
X106738095Y-148452380D02*
X106738095Y-147452380D01*
X106642857Y-147595238D01*
X106547619Y-147690476D01*
X106452380Y-147738095D01*
X166976190Y-148404761D02*
X167119047Y-148452380D01*
X167357142Y-148452380D01*
X167452380Y-148404761D01*
X167500000Y-148357142D01*
X167547619Y-148261904D01*
X167547619Y-148166666D01*
X167500000Y-148071428D01*
X167452380Y-148023809D01*
X167357142Y-147976190D01*
X167166666Y-147928571D01*
X167071428Y-147880952D01*
X167023809Y-147833333D01*
X166976190Y-147738095D01*
X166976190Y-147642857D01*
X167023809Y-147547619D01*
X167071428Y-147500000D01*
X167166666Y-147452380D01*
X167404761Y-147452380D01*
X167547619Y-147500000D01*
X167976190Y-148452380D02*
X167976190Y-147452380D01*
X168404761Y-148452380D02*
X168404761Y-147928571D01*
X168357142Y-147833333D01*
X168261904Y-147785714D01*
X168119047Y-147785714D01*
X168023809Y-147833333D01*
X167976190Y-147880952D01*
X168880952Y-148452380D02*
X168880952Y-147785714D01*
X168880952Y-147452380D02*
X168833333Y-147500000D01*
X168880952Y-147547619D01*
X168928571Y-147500000D01*
X168880952Y-147452380D01*
X168880952Y-147547619D01*
X169214285Y-147785714D02*
X169595238Y-147785714D01*
X169357142Y-148452380D02*
X169357142Y-147595238D01*
X169404761Y-147500000D01*
X169500000Y-147452380D01*
X169595238Y-147452380D01*
X169785714Y-147785714D02*
X170166666Y-147785714D01*
X169928571Y-147452380D02*
X169928571Y-148309523D01*
X169976190Y-148404761D01*
X170071428Y-148452380D01*
X170166666Y-148452380D01*
X170452380Y-147547619D02*
X170500000Y-147500000D01*
X170595238Y-147452380D01*
X170833333Y-147452380D01*
X170928571Y-147500000D01*
X170976190Y-147547619D01*
X171023809Y-147642857D01*
X171023809Y-147738095D01*
X170976190Y-147880952D01*
X170404761Y-148452380D01*
X171023809Y-148452380D01*
X127238095Y-148404761D02*
X127380952Y-148452380D01*
X127619047Y-148452380D01*
X127714285Y-148404761D01*
X127761904Y-148357142D01*
X127809523Y-148261904D01*
X127809523Y-148166666D01*
X127761904Y-148071428D01*
X127714285Y-148023809D01*
X127619047Y-147976190D01*
X127428571Y-147928571D01*
X127333333Y-147880952D01*
X127285714Y-147833333D01*
X127238095Y-147738095D01*
X127238095Y-147642857D01*
X127285714Y-147547619D01*
X127333333Y-147500000D01*
X127428571Y-147452380D01*
X127666666Y-147452380D01*
X127809523Y-147500000D01*
X128238095Y-148452380D02*
X128238095Y-147452380D01*
X128619047Y-147452380D01*
X128714285Y-147500000D01*
X128761904Y-147547619D01*
X128809523Y-147642857D01*
X128809523Y-147785714D01*
X128761904Y-147880952D01*
X128714285Y-147928571D01*
X128619047Y-147976190D01*
X128238095Y-147976190D01*
X129809523Y-148357142D02*
X129761904Y-148404761D01*
X129619047Y-148452380D01*
X129523809Y-148452380D01*
X129380952Y-148404761D01*
X129285714Y-148309523D01*
X129238095Y-148214285D01*
X129190476Y-148023809D01*
X129190476Y-147880952D01*
X129238095Y-147690476D01*
X129285714Y-147595238D01*
X129380952Y-147500000D01*
X129523809Y-147452380D01*
X129619047Y-147452380D01*
X129761904Y-147500000D01*
X129809523Y-147547619D01*
X130761904Y-148452380D02*
X130190476Y-148452380D01*
X130476190Y-148452380D02*
X130476190Y-147452380D01*
X130380952Y-147595238D01*
X130285714Y-147690476D01*
X130190476Y-147738095D01*
X135238095Y-148404761D02*
X135380952Y-148452380D01*
X135619047Y-148452380D01*
X135714285Y-148404761D01*
X135761904Y-148357142D01*
X135809523Y-148261904D01*
X135809523Y-148166666D01*
X135761904Y-148071428D01*
X135714285Y-148023809D01*
X135619047Y-147976190D01*
X135428571Y-147928571D01*
X135333333Y-147880952D01*
X135285714Y-147833333D01*
X135238095Y-147738095D01*
X135238095Y-147642857D01*
X135285714Y-147547619D01*
X135333333Y-147500000D01*
X135428571Y-147452380D01*
X135666666Y-147452380D01*
X135809523Y-147500000D01*
X136238095Y-148452380D02*
X136238095Y-147452380D01*
X136619047Y-147452380D01*
X136714285Y-147500000D01*
X136761904Y-147547619D01*
X136809523Y-147642857D01*
X136809523Y-147785714D01*
X136761904Y-147880952D01*
X136714285Y-147928571D01*
X136619047Y-147976190D01*
X136238095Y-147976190D01*
X137809523Y-148357142D02*
X137761904Y-148404761D01*
X137619047Y-148452380D01*
X137523809Y-148452380D01*
X137380952Y-148404761D01*
X137285714Y-148309523D01*
X137238095Y-148214285D01*
X137190476Y-148023809D01*
X137190476Y-147880952D01*
X137238095Y-147690476D01*
X137285714Y-147595238D01*
X137380952Y-147500000D01*
X137523809Y-147452380D01*
X137619047Y-147452380D01*
X137761904Y-147500000D01*
X137809523Y-147547619D01*
X138190476Y-147547619D02*
X138238095Y-147500000D01*
X138333333Y-147452380D01*
X138571428Y-147452380D01*
X138666666Y-147500000D01*
X138714285Y-147547619D01*
X138761904Y-147642857D01*
X138761904Y-147738095D01*
X138714285Y-147880952D01*
X138142857Y-148452380D01*
X138761904Y-148452380D01*
X143238095Y-148404761D02*
X143380952Y-148452380D01*
X143619047Y-148452380D01*
X143714285Y-148404761D01*
X143761904Y-148357142D01*
X143809523Y-148261904D01*
X143809523Y-148166666D01*
X143761904Y-148071428D01*
X143714285Y-148023809D01*
X143619047Y-147976190D01*
X143428571Y-147928571D01*
X143333333Y-147880952D01*
X143285714Y-147833333D01*
X143238095Y-147738095D01*
X143238095Y-147642857D01*
X143285714Y-147547619D01*
X143333333Y-147500000D01*
X143428571Y-147452380D01*
X143666666Y-147452380D01*
X143809523Y-147500000D01*
X144238095Y-148452380D02*
X144238095Y-147452380D01*
X144619047Y-147452380D01*
X144714285Y-147500000D01*
X144761904Y-147547619D01*
X144809523Y-147642857D01*
X144809523Y-147785714D01*
X144761904Y-147880952D01*
X144714285Y-147928571D01*
X144619047Y-147976190D01*
X144238095Y-147976190D01*
X145809523Y-148357142D02*
X145761904Y-148404761D01*
X145619047Y-148452380D01*
X145523809Y-148452380D01*
X145380952Y-148404761D01*
X145285714Y-148309523D01*
X145238095Y-148214285D01*
X145190476Y-148023809D01*
X145190476Y-147880952D01*
X145238095Y-147690476D01*
X145285714Y-147595238D01*
X145380952Y-147500000D01*
X145523809Y-147452380D01*
X145619047Y-147452380D01*
X145761904Y-147500000D01*
X145809523Y-147547619D01*
X146142857Y-147452380D02*
X146761904Y-147452380D01*
X146428571Y-147833333D01*
X146571428Y-147833333D01*
X146666666Y-147880952D01*
X146714285Y-147928571D01*
X146761904Y-148023809D01*
X146761904Y-148261904D01*
X146714285Y-148357142D01*
X146666666Y-148404761D01*
X146571428Y-148452380D01*
X146285714Y-148452380D01*
X146190476Y-148404761D01*
X146142857Y-148357142D01*
X159190476Y-138404761D02*
X159333333Y-138452380D01*
X159571428Y-138452380D01*
X159666666Y-138404761D01*
X159714285Y-138357142D01*
X159761904Y-138261904D01*
X159761904Y-138166666D01*
X159714285Y-138071428D01*
X159666666Y-138023809D01*
X159571428Y-137976190D01*
X159380952Y-137928571D01*
X159285714Y-137880952D01*
X159238095Y-137833333D01*
X159190476Y-137738095D01*
X159190476Y-137642857D01*
X159238095Y-137547619D01*
X159285714Y-137500000D01*
X159380952Y-137452380D01*
X159619047Y-137452380D01*
X159761904Y-137500000D01*
X160095238Y-137785714D02*
X160333333Y-138452380D01*
X160571428Y-137785714D02*
X160333333Y-138452380D01*
X160238095Y-138690476D01*
X160190476Y-138738095D01*
X160095238Y-138785714D01*
X160952380Y-138452380D02*
X160952380Y-137785714D01*
X160952380Y-137880952D02*
X161000000Y-137833333D01*
X161095238Y-137785714D01*
X161238095Y-137785714D01*
X161333333Y-137833333D01*
X161380952Y-137928571D01*
X161380952Y-138452380D01*
X161380952Y-137928571D02*
X161428571Y-137833333D01*
X161523809Y-137785714D01*
X161666666Y-137785714D01*
X161761904Y-137833333D01*
X161809523Y-137928571D01*
X161809523Y-138452380D01*
X162809523Y-138452380D02*
X162238095Y-138452380D01*
X162523809Y-138452380D02*
X162523809Y-137452380D01*
X162428571Y-137595238D01*
X162333333Y-137690476D01*
X162238095Y-137738095D01*
X128238095Y-117452380D02*
X128809523Y-117452380D01*
X128523809Y-118452380D02*
X128523809Y-117452380D01*
X129666666Y-118452380D02*
X129095238Y-118452380D01*
X129380952Y-118452380D02*
X129380952Y-117452380D01*
X129285714Y-117595238D01*
X129190476Y-117690476D01*
X129095238Y-117738095D01*
X144238095Y-117452380D02*
X144238095Y-118261904D01*
X144285714Y-118357142D01*
X144333333Y-118404761D01*
X144428571Y-118452380D01*
X144619047Y-118452380D01*
X144714285Y-118404761D01*
X144761904Y-118357142D01*
X144809523Y-118261904D01*
X144809523Y-117452380D01*
X145238095Y-117547619D02*
X145285714Y-117500000D01*
X145380952Y-117452380D01*
X145619047Y-117452380D01*
X145714285Y-117500000D01*
X145761904Y-117547619D01*
X145809523Y-117642857D01*
X145809523Y-117738095D01*
X145761904Y-117880952D01*
X145190476Y-118452380D01*
X145809523Y-118452380D01*
X185163894Y-116598413D02*
X185593209Y-117027728D01*
X185668971Y-117052982D01*
X185719478Y-117052982D01*
X185795240Y-117027728D01*
X185896255Y-116926713D01*
X185921509Y-116850951D01*
X185921509Y-116800443D01*
X185896255Y-116724682D01*
X185466940Y-116295367D01*
X185896255Y-116219606D02*
X186426585Y-116749936D01*
X185921509Y-116244860D02*
X185946763Y-116169098D01*
X186047778Y-116068083D01*
X186123539Y-116042829D01*
X186174047Y-116042829D01*
X186249808Y-116068083D01*
X186401331Y-116219606D01*
X186426585Y-116295367D01*
X186426585Y-116345875D01*
X186401331Y-116421636D01*
X186300316Y-116522652D01*
X186224554Y-116547905D01*
X186552854Y-115967068D02*
X186805392Y-115714529D01*
X186653869Y-116169098D02*
X186300316Y-115461991D01*
X187007423Y-115815545D01*
X187184199Y-115638768D02*
X186830646Y-115285215D01*
X186931661Y-115386230D02*
X186906407Y-115310468D01*
X186906407Y-115259961D01*
X186931661Y-115184199D01*
X186982169Y-115133692D01*
X187512499Y-115310468D02*
X187158946Y-114956915D01*
X187259961Y-115057930D02*
X187234707Y-114982169D01*
X187234707Y-114931661D01*
X187259961Y-114855900D01*
X187310468Y-114805392D01*
X187916560Y-114906407D02*
X187840799Y-114931661D01*
X187790291Y-114931661D01*
X187714529Y-114906407D01*
X187563007Y-114754885D01*
X187537753Y-114679123D01*
X187537753Y-114628616D01*
X187563007Y-114552854D01*
X187638768Y-114477093D01*
X187714529Y-114451839D01*
X187765037Y-114451839D01*
X187840799Y-114477093D01*
X187992321Y-114628616D01*
X188017575Y-114704377D01*
X188017575Y-114754885D01*
X187992321Y-114830646D01*
X187916560Y-114906407D01*
X187916560Y-114199301D02*
X188371129Y-114451839D01*
X188219606Y-114098285D01*
X188573159Y-114249808D01*
X188320621Y-113795240D01*
X189153997Y-113668971D02*
X188850951Y-113972016D01*
X189002474Y-113820493D02*
X188472144Y-113290163D01*
X188497398Y-113416432D01*
X188497398Y-113517448D01*
X188472144Y-113593209D01*
X128190476Y-137452380D02*
X128523809Y-138452380D01*
X128857142Y-137452380D01*
X129714285Y-138452380D02*
X129142857Y-138452380D01*
X129428571Y-138452380D02*
X129428571Y-137452380D01*
X129333333Y-137595238D01*
X129238095Y-137690476D01*
X129142857Y-137738095D01*
X104095238Y-117452380D02*
X104333333Y-118452380D01*
X104523809Y-117738095D01*
X104714285Y-118452380D01*
X104952380Y-117452380D01*
X105857142Y-118452380D02*
X105285714Y-118452380D01*
X105571428Y-118452380D02*
X105571428Y-117452380D01*
X105476190Y-117595238D01*
X105380952Y-117690476D01*
X105285714Y-117738095D01*
X112190476Y-137452380D02*
X112857142Y-138452380D01*
X112857142Y-137452380D02*
X112190476Y-138452380D01*
X113761904Y-138452380D02*
X113190476Y-138452380D01*
X113476190Y-138452380D02*
X113476190Y-137452380D01*
X113380952Y-137595238D01*
X113285714Y-137690476D01*
X113190476Y-137738095D01*
D14*
X178720928Y-99694614D02*
X178649500Y-99658900D01*
X178613785Y-99623185D01*
X178578071Y-99551757D01*
X178578071Y-99516042D01*
X178613785Y-99444614D01*
X178649500Y-99408900D01*
X178720928Y-99373185D01*
X178863785Y-99373185D01*
X178935214Y-99408900D01*
X178970928Y-99444614D01*
X179006642Y-99516042D01*
X179006642Y-99551757D01*
X178970928Y-99623185D01*
X178935214Y-99658900D01*
X178863785Y-99694614D01*
X178720928Y-99694614D01*
X178649500Y-99730328D01*
X178613785Y-99766042D01*
X178578071Y-99837471D01*
X178578071Y-99980328D01*
X178613785Y-100051757D01*
X178649500Y-100087471D01*
X178720928Y-100123185D01*
X178863785Y-100123185D01*
X178935214Y-100087471D01*
X178970928Y-100051757D01*
X179006642Y-99980328D01*
X179006642Y-99837471D01*
X178970928Y-99766042D01*
X178935214Y-99730328D01*
X178863785Y-99694614D01*
X179899500Y-100123185D02*
X179899500Y-99373185D01*
X180149500Y-99908900D01*
X180399500Y-99373185D01*
X180399500Y-100123185D01*
X180756642Y-100123185D02*
X180756642Y-99373185D01*
X181078071Y-100123185D02*
X181078071Y-99730328D01*
X181042357Y-99658900D01*
X180970928Y-99623185D01*
X180863785Y-99623185D01*
X180792357Y-99658900D01*
X180756642Y-99694614D01*
X181363785Y-99623185D02*
X181756642Y-99623185D01*
X181363785Y-100123185D01*
X181756642Y-100123185D01*
D10*
X136523809Y-117976190D02*
X136523809Y-118452380D01*
X136190476Y-117452380D02*
X136523809Y-117976190D01*
X136857142Y-117452380D01*
X137142857Y-117547619D02*
X137190476Y-117500000D01*
X137285714Y-117452380D01*
X137523809Y-117452380D01*
X137619047Y-117500000D01*
X137666666Y-117547619D01*
X137714285Y-117642857D01*
X137714285Y-117738095D01*
X137666666Y-117880952D01*
X137095238Y-118452380D01*
X137714285Y-118452380D01*
X104190476Y-137452380D02*
X104857142Y-137452380D01*
X104190476Y-138452380D01*
X104857142Y-138452380D01*
X105761904Y-138452380D02*
X105190476Y-138452380D01*
X105476190Y-138452380D02*
X105476190Y-137452380D01*
X105380952Y-137595238D01*
X105285714Y-137690476D01*
X105190476Y-137738095D01*
X95857142Y-107785714D02*
X96380952Y-107785714D01*
X95857142Y-108452380D01*
X96380952Y-108452380D01*
X96666666Y-107785714D02*
X97190476Y-107785714D01*
X96666666Y-108452380D01*
X97190476Y-108452380D01*
X98095238Y-108452380D02*
X97523809Y-108452380D01*
X97809523Y-108452380D02*
X97809523Y-107452380D01*
X97714285Y-107595238D01*
X97619047Y-107690476D01*
X97523809Y-107738095D01*
X103857142Y-107785714D02*
X104380952Y-107785714D01*
X103857142Y-108452380D01*
X104380952Y-108452380D01*
X104666666Y-107785714D02*
X105190476Y-107785714D01*
X104666666Y-108452380D01*
X105190476Y-108452380D01*
X105523809Y-107547619D02*
X105571428Y-107500000D01*
X105666666Y-107452380D01*
X105904761Y-107452380D01*
X106000000Y-107500000D01*
X106047619Y-107547619D01*
X106095238Y-107642857D01*
X106095238Y-107738095D01*
X106047619Y-107880952D01*
X105476190Y-108452380D01*
X106095238Y-108452380D01*
X111857142Y-107785714D02*
X112380952Y-107785714D01*
X111857142Y-108452380D01*
X112380952Y-108452380D01*
X112666666Y-107785714D02*
X113190476Y-107785714D01*
X112666666Y-108452380D01*
X113190476Y-108452380D01*
X113476190Y-107452380D02*
X114095238Y-107452380D01*
X113761904Y-107833333D01*
X113904761Y-107833333D01*
X114000000Y-107880952D01*
X114047619Y-107928571D01*
X114095238Y-108023809D01*
X114095238Y-108261904D01*
X114047619Y-108357142D01*
X114000000Y-108404761D01*
X113904761Y-108452380D01*
X113619047Y-108452380D01*
X113523809Y-108404761D01*
X113476190Y-108357142D01*
X119857142Y-107785714D02*
X120380952Y-107785714D01*
X119857142Y-108452380D01*
X120380952Y-108452380D01*
X120666666Y-107785714D02*
X121190476Y-107785714D01*
X120666666Y-108452380D01*
X121190476Y-108452380D01*
X122000000Y-107785714D02*
X122000000Y-108452380D01*
X121761904Y-107404761D02*
X121523809Y-108119047D01*
X122142857Y-108119047D01*
X127857142Y-107785714D02*
X128380952Y-107785714D01*
X127857142Y-108452380D01*
X128380952Y-108452380D01*
X128666666Y-107785714D02*
X129190476Y-107785714D01*
X128666666Y-108452380D01*
X129190476Y-108452380D01*
X130047619Y-107452380D02*
X129571428Y-107452380D01*
X129523809Y-107928571D01*
X129571428Y-107880952D01*
X129666666Y-107833333D01*
X129904761Y-107833333D01*
X130000000Y-107880952D01*
X130047619Y-107928571D01*
X130095238Y-108023809D01*
X130095238Y-108261904D01*
X130047619Y-108357142D01*
X130000000Y-108404761D01*
X129904761Y-108452380D01*
X129666666Y-108452380D01*
X129571428Y-108404761D01*
X129523809Y-108357142D01*
X135857142Y-107785714D02*
X136380952Y-107785714D01*
X135857142Y-108452380D01*
X136380952Y-108452380D01*
X136666666Y-107785714D02*
X137190476Y-107785714D01*
X136666666Y-108452380D01*
X137190476Y-108452380D01*
X138000000Y-107452380D02*
X137809523Y-107452380D01*
X137714285Y-107500000D01*
X137666666Y-107547619D01*
X137571428Y-107690476D01*
X137523809Y-107880952D01*
X137523809Y-108261904D01*
X137571428Y-108357142D01*
X137619047Y-108404761D01*
X137714285Y-108452380D01*
X137904761Y-108452380D01*
X138000000Y-108404761D01*
X138047619Y-108357142D01*
X138095238Y-108261904D01*
X138095238Y-108023809D01*
X138047619Y-107928571D01*
X138000000Y-107880952D01*
X137904761Y-107833333D01*
X137714285Y-107833333D01*
X137619047Y-107880952D01*
X137571428Y-107928571D01*
X137523809Y-108023809D01*
X143857142Y-107785714D02*
X144380952Y-107785714D01*
X143857142Y-108452380D01*
X144380952Y-108452380D01*
X144666666Y-107785714D02*
X145190476Y-107785714D01*
X144666666Y-108452380D01*
X145190476Y-108452380D01*
X145476190Y-107452380D02*
X146142857Y-107452380D01*
X145714285Y-108452380D01*
X151857142Y-107785714D02*
X152380952Y-107785714D01*
X151857142Y-108452380D01*
X152380952Y-108452380D01*
X152666666Y-107785714D02*
X153190476Y-107785714D01*
X152666666Y-108452380D01*
X153190476Y-108452380D01*
X153714285Y-107880952D02*
X153619047Y-107833333D01*
X153571428Y-107785714D01*
X153523809Y-107690476D01*
X153523809Y-107642857D01*
X153571428Y-107547619D01*
X153619047Y-107500000D01*
X153714285Y-107452380D01*
X153904761Y-107452380D01*
X154000000Y-107500000D01*
X154047619Y-107547619D01*
X154095238Y-107642857D01*
X154095238Y-107690476D01*
X154047619Y-107785714D01*
X154000000Y-107833333D01*
X153904761Y-107880952D01*
X153714285Y-107880952D01*
X153619047Y-107928571D01*
X153571428Y-107976190D01*
X153523809Y-108071428D01*
X153523809Y-108261904D01*
X153571428Y-108357142D01*
X153619047Y-108404761D01*
X153714285Y-108452380D01*
X153904761Y-108452380D01*
X154000000Y-108404761D01*
X154047619Y-108357142D01*
X154095238Y-108261904D01*
X154095238Y-108071428D01*
X154047619Y-107976190D01*
X154000000Y-107928571D01*
X153904761Y-107880952D01*
X159857142Y-107785714D02*
X160380952Y-107785714D01*
X159857142Y-108452380D01*
X160380952Y-108452380D01*
X160666666Y-107785714D02*
X161190476Y-107785714D01*
X160666666Y-108452380D01*
X161190476Y-108452380D01*
X161619047Y-108452380D02*
X161809523Y-108452380D01*
X161904761Y-108404761D01*
X161952380Y-108357142D01*
X162047619Y-108214285D01*
X162095238Y-108023809D01*
X162095238Y-107642857D01*
X162047619Y-107547619D01*
X162000000Y-107500000D01*
X161904761Y-107452380D01*
X161714285Y-107452380D01*
X161619047Y-107500000D01*
X161571428Y-107547619D01*
X161523809Y-107642857D01*
X161523809Y-107880952D01*
X161571428Y-107976190D01*
X161619047Y-108023809D01*
X161714285Y-108071428D01*
X161904761Y-108071428D01*
X162000000Y-108023809D01*
X162047619Y-107976190D01*
X162095238Y-107880952D01*
X167380952Y-107785714D02*
X167904761Y-107785714D01*
X167380952Y-108452380D01*
X167904761Y-108452380D01*
X168190476Y-107785714D02*
X168714285Y-107785714D01*
X168190476Y-108452380D01*
X168714285Y-108452380D01*
X169619047Y-108452380D02*
X169047619Y-108452380D01*
X169333333Y-108452380D02*
X169333333Y-107452380D01*
X169238095Y-107595238D01*
X169142857Y-107690476D01*
X169047619Y-107738095D01*
X170238095Y-107452380D02*
X170333333Y-107452380D01*
X170428571Y-107500000D01*
X170476190Y-107547619D01*
X170523809Y-107642857D01*
X170571428Y-107833333D01*
X170571428Y-108071428D01*
X170523809Y-108261904D01*
X170476190Y-108357142D01*
X170428571Y-108404761D01*
X170333333Y-108452380D01*
X170238095Y-108452380D01*
X170142857Y-108404761D01*
X170095238Y-108357142D01*
X170047619Y-108261904D01*
X170000000Y-108071428D01*
X170000000Y-107833333D01*
X170047619Y-107642857D01*
X170095238Y-107547619D01*
X170142857Y-107500000D01*
X170238095Y-107452380D01*
M02*
