G04 #@! TF.GenerationSoftware,KiCad,Pcbnew,(5.1.0)-1*
G04 #@! TF.CreationDate,2019-08-28T19:33:05+02:00*
G04 #@! TF.ProjectId,atkeyboard,61746b65-7962-46f6-9172-642e6b696361,rev?*
G04 #@! TF.SameCoordinates,Original*
G04 #@! TF.FileFunction,Paste,Top*
G04 #@! TF.FilePolarity,Positive*
%FSLAX46Y46*%
G04 Gerber Fmt 4.6, Leading zero omitted, Abs format (unit mm)*
G04 Created by KiCad (PCBNEW (5.1.0)-1) date 2019-08-28 19:33:05*
%MOMM*%
%LPD*%
G04 APERTURE LIST*
%ADD10R,2.000000X2.000000*%
%ADD11R,1.500000X1.250000*%
%ADD12R,1.250000X1.500000*%
%ADD13R,1.500000X1.300000*%
%ADD14R,0.600000X1.200000*%
%ADD15R,1.200000X0.600000*%
%ADD16C,2.000000*%
%ADD17C,0.100000*%
%ADD18R,2.000000X4.500000*%
G04 APERTURE END LIST*
D10*
X105000000Y-95000000D03*
X105000000Y-101000000D03*
X169000000Y-94000000D03*
X169000000Y-100000000D03*
D11*
X187750000Y-94400000D03*
X190250000Y-94400000D03*
D12*
X176000000Y-107250000D03*
X176000000Y-104750000D03*
X176000000Y-99750000D03*
X176000000Y-102250000D03*
X176000000Y-94950000D03*
X176000000Y-97450000D03*
X195600000Y-100750000D03*
X195600000Y-103250000D03*
D13*
X180950000Y-128200000D03*
X178250000Y-128200000D03*
D14*
X186000000Y-96750000D03*
X186800000Y-96750000D03*
X187600000Y-96750000D03*
X188400000Y-96750000D03*
X189200000Y-96750000D03*
X190000000Y-96750000D03*
X190800000Y-96750000D03*
X191600000Y-96750000D03*
D15*
X193050000Y-98200000D03*
X193050000Y-99000000D03*
X193050000Y-99800000D03*
X193050000Y-100600000D03*
X193050000Y-101400000D03*
X193050000Y-102200000D03*
X193050000Y-103000000D03*
X193050000Y-103800000D03*
D14*
X191600000Y-105250000D03*
X190800000Y-105250000D03*
X190000000Y-105250000D03*
X189200000Y-105250000D03*
X188400000Y-105250000D03*
X187600000Y-105250000D03*
X186800000Y-105250000D03*
X186000000Y-105250000D03*
D15*
X184550000Y-103800000D03*
X184550000Y-103000000D03*
X184550000Y-102200000D03*
X184550000Y-101400000D03*
X184550000Y-100600000D03*
X184550000Y-99800000D03*
X184550000Y-99000000D03*
X184550000Y-98200000D03*
D10*
X191000000Y-151000000D03*
X191000000Y-145000000D03*
X97000000Y-125000000D03*
X97000000Y-131000000D03*
X113000000Y-145000000D03*
X113000000Y-151000000D03*
X161000000Y-151000000D03*
X161000000Y-145000000D03*
X137000000Y-135000000D03*
X137000000Y-141000000D03*
X169000000Y-125000000D03*
X169000000Y-131000000D03*
X121000000Y-141000000D03*
X121000000Y-135000000D03*
X97000000Y-145000000D03*
X97000000Y-151000000D03*
X113000000Y-125000000D03*
X113000000Y-131000000D03*
D16*
X189292893Y-129292893D03*
D17*
G36*
X189292893Y-130707107D02*
G01*
X187878679Y-129292893D01*
X189292893Y-127878679D01*
X190707107Y-129292893D01*
X189292893Y-130707107D01*
X189292893Y-130707107D01*
G37*
D16*
X185050253Y-125050253D03*
D17*
G36*
X185050253Y-126464467D02*
G01*
X183636039Y-125050253D01*
X185050253Y-123636039D01*
X186464467Y-125050253D01*
X185050253Y-126464467D01*
X185050253Y-126464467D01*
G37*
D10*
X113000000Y-115000000D03*
X113000000Y-121000000D03*
X97000000Y-95000000D03*
X97000000Y-101000000D03*
X97000000Y-141000000D03*
X97000000Y-135000000D03*
X121000000Y-131000000D03*
X121000000Y-125000000D03*
X113000000Y-101000000D03*
X113000000Y-95000000D03*
X121000000Y-95000000D03*
X121000000Y-101000000D03*
X129000000Y-101000000D03*
X129000000Y-95000000D03*
X137000000Y-95000000D03*
X137000000Y-101000000D03*
X129000000Y-125000000D03*
X129000000Y-131000000D03*
X137000000Y-125000000D03*
X137000000Y-131000000D03*
X153000000Y-115000000D03*
X153000000Y-121000000D03*
X145000000Y-131000000D03*
X145000000Y-125000000D03*
X153000000Y-125000000D03*
X153000000Y-131000000D03*
X161000000Y-131000000D03*
X161000000Y-125000000D03*
D16*
X178707107Y-123292893D03*
D17*
G36*
X177292893Y-123292893D02*
G01*
X178707107Y-121878679D01*
X180121321Y-123292893D01*
X178707107Y-124707107D01*
X177292893Y-123292893D01*
X177292893Y-123292893D01*
G37*
D16*
X182949747Y-119050253D03*
D17*
G36*
X181535533Y-119050253D02*
G01*
X182949747Y-117636039D01*
X184363961Y-119050253D01*
X182949747Y-120464467D01*
X181535533Y-119050253D01*
X181535533Y-119050253D01*
G37*
D10*
X153000000Y-135000000D03*
X153000000Y-141000000D03*
X145000000Y-141000000D03*
X145000000Y-135000000D03*
X161000000Y-121000000D03*
X161000000Y-115000000D03*
X169000000Y-121000000D03*
X169000000Y-115000000D03*
X97000000Y-115000000D03*
X97000000Y-121000000D03*
X121000000Y-121000000D03*
X121000000Y-115000000D03*
X169000000Y-141000000D03*
X169000000Y-135000000D03*
D16*
X190757107Y-123242893D03*
D17*
G36*
X189342893Y-123242893D02*
G01*
X190757107Y-121828679D01*
X192171321Y-123242893D01*
X190757107Y-124657107D01*
X189342893Y-123242893D01*
X189342893Y-123242893D01*
G37*
D16*
X194999747Y-119000253D03*
D17*
G36*
X193585533Y-119000253D02*
G01*
X194999747Y-117586039D01*
X196413961Y-119000253D01*
X194999747Y-120414467D01*
X193585533Y-119000253D01*
X193585533Y-119000253D01*
G37*
D10*
X105000000Y-131000000D03*
X105000000Y-125000000D03*
X105000000Y-151000000D03*
X105000000Y-145000000D03*
X169000000Y-145000000D03*
X169000000Y-151000000D03*
X129000000Y-145000000D03*
X129000000Y-151000000D03*
X137000000Y-151000000D03*
X137000000Y-145000000D03*
X145000000Y-145000000D03*
X145000000Y-151000000D03*
X161000000Y-135000000D03*
X161000000Y-141000000D03*
X129000000Y-121000000D03*
X129000000Y-115000000D03*
X145000000Y-115000000D03*
X145000000Y-121000000D03*
D16*
X185050253Y-113050253D03*
D17*
G36*
X185050253Y-114464467D02*
G01*
X183636039Y-113050253D01*
X185050253Y-111636039D01*
X186464467Y-113050253D01*
X185050253Y-114464467D01*
X185050253Y-114464467D01*
G37*
D16*
X189292893Y-117292893D03*
D17*
G36*
X189292893Y-118707107D02*
G01*
X187878679Y-117292893D01*
X189292893Y-115878679D01*
X190707107Y-117292893D01*
X189292893Y-118707107D01*
X189292893Y-118707107D01*
G37*
D10*
X129000000Y-135000000D03*
X129000000Y-141000000D03*
X105000000Y-121000000D03*
X105000000Y-115000000D03*
X113000000Y-135000000D03*
X113000000Y-141000000D03*
D18*
X180000000Y-105250000D03*
X180000000Y-96750000D03*
D10*
X137000000Y-121000000D03*
X137000000Y-115000000D03*
X105000000Y-141000000D03*
X105000000Y-135000000D03*
X97000000Y-111000000D03*
X97000000Y-105000000D03*
X105000000Y-111000000D03*
X105000000Y-105000000D03*
X113000000Y-111000000D03*
X113000000Y-105000000D03*
X121000000Y-105000000D03*
X121000000Y-111000000D03*
X129000000Y-111000000D03*
X129000000Y-105000000D03*
X137000000Y-105000000D03*
X137000000Y-111000000D03*
X145000000Y-111000000D03*
X145000000Y-105000000D03*
X153000000Y-105000000D03*
X153000000Y-111000000D03*
X161000000Y-111000000D03*
X161000000Y-105000000D03*
X169000000Y-105000000D03*
X169000000Y-111000000D03*
M02*
