M48
; DRILL file {KiCad (5.1.0)-1} date 28/08/2019 19:33:07
; FORMAT={-:-/ absolute / metric / decimal}
; #@! TF.CreationDate,2019-08-28T19:33:07+02:00
; #@! TF.GenerationSoftware,Kicad,Pcbnew,(5.1.0)-1
; #@! TF.FileFunction,Plated,1,2,PTH
FMAT,2
METRIC
T1C0.400
%
G90
G05
T1
X91.44Y-144.78
X92.0Y-103.25
X95.0Y-106.8
X95.0Y-117.0
X98.629Y-121.0
X98.75Y-97.0
X98.75Y-146.75
X99.1Y-128.5
X103.0Y-116.75
X103.75Y-107.0
X105.31Y-129.362
X106.75Y-96.5
X107.0Y-146.5
X107.182Y-140.225
X107.688Y-103.96
X109.0Y-123.0
X110.75Y-106.75
X111.25Y-116.75
X114.5Y-97.0
X114.605Y-124.559
X114.605Y-135.0
X115.1Y-146.75
X118.7Y-117.8
X118.9Y-105.9
X118.9Y-120.2
X119.0Y-109.6
X122.25Y-143.5
X122.7Y-97.0
X122.9Y-105.9
X123.2Y-126.6
X124.3Y-133.9
X126.581Y-141.859
X126.6Y-128.4
X127.0Y-106.5
X127.5Y-116.5
X130.5Y-96.5
X130.971Y-122.479
X131.0Y-109.5
X131.25Y-111.75
X134.0Y-143.5
X134.1Y-117.4
X134.6Y-138.5
X135.25Y-126.25
X137.4Y-96.8
X138.1Y-138.9
X139.0Y-106.25
X139.0Y-122.5
X139.25Y-102.5
X139.433Y-111.76
X140.131Y-92.78
X141.178Y-96.675
X142.011Y-111.785
X144.962Y-100.279
X145.701Y-116.667
X146.0Y-102.75
X146.802Y-123.675
X147.0Y-116.0
X147.25Y-108.75
X147.25Y-146.5
X147.5Y-129.5
X147.944Y-123.073
X149.936Y-95.199
X150.7Y-128.9
X150.7Y-135.1
X151.1Y-139.0
X151.385Y-115.0
X151.451Y-123.189
X151.8Y-150.7
X152.358Y-117.815
X152.8Y-147.8
X153.581Y-95.275
X155.0Y-107.25
X155.435Y-111.925
X156.0Y-132.5
X157.0Y-124.1
X157.531Y-95.199
X159.25Y-116.25
X161.214Y-95.352
X161.25Y-102.5
X162.75Y-117.25
X163.3Y-152.6
X163.5Y-135.75
X163.64Y-125.084
X164.732Y-99.962
X165.488Y-137.707
X166.575Y-139.675
X166.688Y-96.185
X166.707Y-116.203
X167.25Y-129.75
X169.552Y-109.147
X170.602Y-115.0
X170.602Y-125.32
X170.837Y-99.457
X171.0Y-106.25
X171.7Y-141.9
X172.129Y-121.0
X174.75Y-110.75
X177.25Y-99.616
X178.5Y-148.0
X180.5Y-113.5
X182.766Y-96.304
X184.2Y-110.6
X186.202Y-100.451
X186.377Y-94.348
X186.84Y-98.157
X187.6Y-106.45
X187.88Y-97.984
X188.161Y-98.986
X188.906Y-97.956
X189.593Y-107.016
X190.057Y-108.063
X190.507Y-113.041
X191.702Y-99.0
X191.827Y-95.514
X195.0Y-111.5
X195.6Y-100.75
X196.25Y-130.75
T0
M30
